G04 #@! TF.GenerationSoftware,KiCad,Pcbnew,(6.0.9)*
G04 #@! TF.CreationDate,2022-12-10T19:39:28+09:00*
G04 #@! TF.ProjectId,EB-STM32L412KB,45422d53-544d-4333-924c-3431324b422e,V2.0*
G04 #@! TF.SameCoordinates,Original*
G04 #@! TF.FileFunction,Copper,L2,Bot*
G04 #@! TF.FilePolarity,Positive*
%FSLAX46Y46*%
G04 Gerber Fmt 4.6, Leading zero omitted, Abs format (unit mm)*
G04 Created by KiCad (PCBNEW (6.0.9)) date 2022-12-10 19:39:28*
%MOMM*%
%LPD*%
G01*
G04 APERTURE LIST*
G04 #@! TA.AperFunction,ComponentPad*
%ADD10R,1.800000X1.900000*%
G04 #@! TD*
G04 #@! TA.AperFunction,ComponentPad*
%ADD11R,1.600000X1.600000*%
G04 #@! TD*
G04 #@! TA.AperFunction,ComponentPad*
%ADD12C,1.600000*%
G04 #@! TD*
G04 #@! TA.AperFunction,ComponentPad*
%ADD13R,1.400000X1.400000*%
G04 #@! TD*
G04 #@! TA.AperFunction,ComponentPad*
%ADD14C,1.400000*%
G04 #@! TD*
G04 #@! TA.AperFunction,ViaPad*
%ADD15C,0.609600*%
G04 #@! TD*
G04 #@! TA.AperFunction,Conductor*
%ADD16C,0.152400*%
G04 #@! TD*
G04 APERTURE END LIST*
D10*
X-3250000Y15000000D03*
X3250000Y15000000D03*
D11*
X-8890000Y15240000D03*
X8890000Y15240000D03*
X-8890000Y0D03*
D12*
X-8890000Y-2540000D03*
X-8890000Y-5080000D03*
X-8890000Y-7620000D03*
X-8890000Y-10160000D03*
X-8890000Y-12700000D03*
X-8890000Y-15240000D03*
X-8890000Y-17780000D03*
X-8890000Y-20320000D03*
X-8890000Y-22860000D03*
X-8890000Y-25400000D03*
X-8890000Y-27940000D03*
X-8890000Y-30480000D03*
X-8890000Y-33020000D03*
D13*
X-2500000Y-8950000D03*
D14*
X0Y-8950000D03*
X2500000Y-8950000D03*
X-2500000Y-12250000D03*
X0Y-12250000D03*
X2500000Y-12250000D03*
D11*
X8890000Y0D03*
D12*
X8890000Y-2540000D03*
X8890000Y-5080000D03*
X8890000Y-7620000D03*
X8890000Y-10160000D03*
X8890000Y-12700000D03*
X8890000Y-15240000D03*
X8890000Y-17780000D03*
X8890000Y-20320000D03*
X8890000Y-22860000D03*
X8890000Y-25400000D03*
X8890000Y-27940000D03*
X8890000Y-30480000D03*
X8890000Y-33020000D03*
D15*
X-1631000Y-2693000D03*
X-100000Y9983800D03*
X-700000Y-31000000D03*
X100000Y-18457500D03*
X-2021500Y-26781900D03*
X3100000Y-25095800D03*
X822989Y-1177011D03*
X6200000Y-3200000D03*
X4300000Y-25000000D03*
X1807900Y-17873800D03*
X-2800000Y-25400000D03*
X-802100Y-2783400D03*
X-1565300Y-17965100D03*
X5336800Y-6744700D03*
X5540700Y-4874700D03*
X3318100Y-3226800D03*
X4800000Y-2600000D03*
X-881500Y-3596400D03*
X4138100Y-1689500D03*
D16*
X-7808700Y-1800D02*
X-7810500Y0D01*
X-1631000Y-1800D02*
X-1631000Y-2693000D01*
X-8890000Y0D02*
X-7810500Y0D01*
X-1631000Y-1800D02*
X-7808700Y-1800D01*
X8890000Y0D02*
X7810500Y0D01*
X7810500Y0D02*
X-1629200Y0D01*
X-1629200Y0D02*
X-1631000Y-1800D01*
X-100000Y15000000D02*
X-3250000Y15000000D01*
X3250000Y15000000D02*
X7570500Y15000000D01*
X-100000Y15000000D02*
X-100000Y9983800D01*
X-8890000Y15240000D02*
X-4669500Y15240000D01*
X8890000Y15240000D02*
X7810500Y15240000D01*
X-3250000Y15000000D02*
X-4429500Y15000000D01*
X-4669500Y15240000D02*
X-4429500Y15000000D01*
X7570500Y15000000D02*
X7810500Y15240000D01*
X-100000Y15000000D02*
X3250000Y15000000D01*
X250000Y-18607500D02*
X250000Y-24510400D01*
X250000Y-24510400D02*
X-2021500Y-26781900D01*
X100000Y-18457500D02*
X250000Y-18607500D01*
X-3479600Y-9808500D02*
X-1249900Y-12038200D01*
X-1249900Y-12038200D02*
X-1249900Y-13989700D01*
X822989Y-2905511D02*
X-3479600Y-7208100D01*
X-1249800Y-13989700D02*
X2421400Y-17660900D01*
X-3479600Y-7208100D02*
X-3479600Y-9808500D01*
X822989Y-1177011D02*
X822989Y-2905511D01*
X2421400Y-17660900D02*
X2421400Y-24417200D01*
X-1249900Y-13989700D02*
X-1249800Y-13989700D01*
X2421400Y-24417200D02*
X3100000Y-25095800D01*
X3181500Y-15664000D02*
X3181500Y-23881500D01*
X1480700Y-13963200D02*
X3181500Y-15664000D01*
X1480700Y-7972400D02*
X1480700Y-13963200D01*
X6200000Y-3253100D02*
X1480700Y-7972400D01*
X3181500Y-23881500D02*
X4300000Y-25000000D01*
X6200000Y-3200000D02*
X6200000Y-3253100D01*
X2500000Y-12250000D02*
X4597300Y-14347300D01*
X4597300Y-23647300D02*
X8890000Y-27940000D01*
X4597300Y-14347300D02*
X4597300Y-23647300D01*
X7429600Y-13879600D02*
X7429600Y-23939600D01*
X7429600Y-23939600D02*
X8890000Y-25400000D01*
X2500000Y-8950000D02*
X7429600Y-13879600D01*
X-4288600Y-3312100D02*
X-8117900Y-3312100D01*
X-802100Y-1402100D02*
X-802100Y-2783400D01*
X-1565300Y-17965100D02*
X-1474000Y-17873800D01*
X-4288600Y-3312100D02*
X-4288600Y-16020700D01*
X-2344200Y-24944200D02*
X-2800000Y-25400000D01*
X-4288600Y-16020700D02*
X-2344200Y-17965100D01*
X-2344200Y-17965100D02*
X-1565300Y-17965100D01*
X6942811Y-592811D02*
X7189Y-592811D01*
X8890000Y-2540000D02*
X6942811Y-592811D01*
X-1423500Y-3312100D02*
X-4288600Y-3312100D01*
X-2344200Y-17965100D02*
X-2344200Y-24944200D01*
X-894800Y-2783400D02*
X-1423500Y-3312100D01*
X-802100Y-2783400D02*
X-894800Y-2783400D01*
X7189Y-592811D02*
X-802100Y-1402100D01*
X-8117900Y-3312100D02*
X-8890000Y-2540000D01*
X-1474000Y-17873800D02*
X1807900Y-17873800D01*
X8890000Y-10160000D02*
X5474700Y-6744700D01*
X5474700Y-6744700D02*
X5336800Y-6744700D01*
X8890000Y-12700000D02*
X4752400Y-8562400D01*
X4752400Y-8562400D02*
X4752400Y-5663000D01*
X4752400Y-5663000D02*
X5540700Y-4874700D01*
X-1520500Y-8950000D02*
X-1520500Y-8065400D01*
X-1520500Y-8065400D02*
X3318100Y-3226800D01*
X-2500000Y-8950000D02*
X-1520500Y-8950000D01*
X4800000Y-2600000D02*
X4800000Y-4150000D01*
X4800000Y-4150000D02*
X0Y-8950000D01*
X-2500000Y-12250000D02*
X-3908300Y-10841700D01*
X-3908300Y-6623200D02*
X-881500Y-3596400D01*
X-3908300Y-10841700D02*
X-3908300Y-6623200D01*
X-1001000Y-11249000D02*
X-1001000Y-8536700D01*
X-1001000Y-8536700D02*
X3902500Y-3633200D01*
X3902500Y-1925100D02*
X4138100Y-1689500D01*
X3902500Y-3633200D02*
X3902500Y-1925100D01*
X0Y-12250000D02*
X-1001000Y-11249000D01*
G04 #@! TA.AperFunction,Conductor*
G36*
X-4931179Y-3916802D02*
G01*
X-4884686Y-3970458D01*
X-4873300Y-4022800D01*
X-4873300Y-15974122D01*
X-4874378Y-15990569D01*
X-4878345Y-16020700D01*
X-4873300Y-16059019D01*
X-4873300Y-16059021D01*
X-4858250Y-16173337D01*
X-4833267Y-16233650D01*
X-4799334Y-16315573D01*
X-4765177Y-16360086D01*
X-4705613Y-16437713D01*
X-4699063Y-16442739D01*
X-4699059Y-16442743D01*
X-4681491Y-16456223D01*
X-4669099Y-16467091D01*
X-2965805Y-18170385D01*
X-2931779Y-18232697D01*
X-2928900Y-18259480D01*
X-2928900Y-24494490D01*
X-2948902Y-24562611D01*
X-3002558Y-24609104D01*
X-3014294Y-24613768D01*
X-3141810Y-24657178D01*
X-3141813Y-24657179D01*
X-3148477Y-24659448D01*
X-3221609Y-24704439D01*
X-3292803Y-24748238D01*
X-3303886Y-24755056D01*
X-3373279Y-24823010D01*
X-3408749Y-24857746D01*
X-3434250Y-24882718D01*
X-3533092Y-25036090D01*
X-3535501Y-25042710D01*
X-3535503Y-25042713D01*
X-3593090Y-25200932D01*
X-3595498Y-25207549D01*
X-3618366Y-25388573D01*
X-3617679Y-25395580D01*
X-3617679Y-25395583D01*
X-3608121Y-25493060D01*
X-3600561Y-25570164D01*
X-3542967Y-25743299D01*
X-3539318Y-25749324D01*
X-3453596Y-25890867D01*
X-3448446Y-25899371D01*
X-3321697Y-26030623D01*
X-3315805Y-26034478D01*
X-3315801Y-26034482D01*
X-3174915Y-26126675D01*
X-3169019Y-26130533D01*
X-3162415Y-26132989D01*
X-3162413Y-26132990D01*
X-3083509Y-26162334D01*
X-2998000Y-26194135D01*
X-2837822Y-26215507D01*
X-2772946Y-26244343D01*
X-2733958Y-26303676D01*
X-2733237Y-26374669D01*
X-2748576Y-26408655D01*
X-2754592Y-26417990D01*
X-2757001Y-26424610D01*
X-2757003Y-26424613D01*
X-2814590Y-26582832D01*
X-2816998Y-26589449D01*
X-2839866Y-26770473D01*
X-2839179Y-26777480D01*
X-2839179Y-26777483D01*
X-2834019Y-26830106D01*
X-2822061Y-26952064D01*
X-2764467Y-27125199D01*
X-2669946Y-27281271D01*
X-2543197Y-27412523D01*
X-2537305Y-27416378D01*
X-2537301Y-27416382D01*
X-2415529Y-27496067D01*
X-2390519Y-27512433D01*
X-2383915Y-27514889D01*
X-2383913Y-27514890D01*
X-2330820Y-27534635D01*
X-2219500Y-27576035D01*
X-2038640Y-27600167D01*
X-2031629Y-27599529D01*
X-2031625Y-27599529D01*
X-1891920Y-27586814D01*
X-1856929Y-27583629D01*
X-1850227Y-27581451D01*
X-1850225Y-27581451D01*
X-1690095Y-27529422D01*
X-1690092Y-27529421D01*
X-1683396Y-27527245D01*
X-1658548Y-27512433D01*
X-1532723Y-27437427D01*
X-1532720Y-27437425D01*
X-1526668Y-27433817D01*
X-1455361Y-27365912D01*
X-1399638Y-27312848D01*
X-1399636Y-27312845D01*
X-1394534Y-27307987D01*
X-1293561Y-27156010D01*
X-1269171Y-27091803D01*
X-1231267Y-26992022D01*
X-1231266Y-26992017D01*
X-1228767Y-26985439D01*
X-1223091Y-26945055D01*
X-1206936Y-26830106D01*
X-1177648Y-26765432D01*
X-1171257Y-26758547D01*
X630503Y-24956787D01*
X642895Y-24945919D01*
X660460Y-24932441D01*
X667013Y-24927413D01*
X683541Y-24905874D01*
X733170Y-24841195D01*
X755707Y-24811824D01*
X760734Y-24805273D01*
X791130Y-24731890D01*
X819650Y-24663037D01*
X834700Y-24548721D01*
X834700Y-24548719D01*
X839745Y-24510400D01*
X835778Y-24480267D01*
X834700Y-24463821D01*
X834700Y-18836937D01*
X842912Y-18792194D01*
X873965Y-18710445D01*
X892733Y-18661039D01*
X893713Y-18654068D01*
X893714Y-18654063D01*
X905954Y-18566965D01*
X935242Y-18502291D01*
X994846Y-18463717D01*
X1030728Y-18458500D01*
X1188372Y-18458500D01*
X1256493Y-18478502D01*
X1279009Y-18496973D01*
X1286203Y-18504423D01*
X1292095Y-18508278D01*
X1292099Y-18508282D01*
X1432985Y-18600475D01*
X1438881Y-18604333D01*
X1445485Y-18606789D01*
X1445487Y-18606790D01*
X1524390Y-18636134D01*
X1609900Y-18667935D01*
X1727364Y-18683608D01*
X1792241Y-18712444D01*
X1831229Y-18771777D01*
X1836700Y-18808501D01*
X1836700Y-24370622D01*
X1835622Y-24387069D01*
X1831655Y-24417200D01*
X1836700Y-24455519D01*
X1836700Y-24455521D01*
X1851750Y-24569837D01*
X1884676Y-24649327D01*
X1910666Y-24712073D01*
X1915695Y-24718627D01*
X1915697Y-24718630D01*
X1931065Y-24738657D01*
X1931066Y-24738658D01*
X2004387Y-24834213D01*
X2010937Y-24839239D01*
X2010941Y-24839243D01*
X2028509Y-24852723D01*
X2040901Y-24863591D01*
X2251901Y-25074591D01*
X2285927Y-25136903D01*
X2288205Y-25151391D01*
X2290200Y-25171739D01*
X2299439Y-25265964D01*
X2357033Y-25439099D01*
X2360682Y-25445124D01*
X2440458Y-25576849D01*
X2451554Y-25595171D01*
X2578303Y-25726423D01*
X2584195Y-25730278D01*
X2584199Y-25730282D01*
X2725085Y-25822475D01*
X2730981Y-25826333D01*
X2737585Y-25828789D01*
X2737587Y-25828790D01*
X2805980Y-25854225D01*
X2902000Y-25889935D01*
X3082860Y-25914067D01*
X3089871Y-25913429D01*
X3089875Y-25913429D01*
X3244332Y-25899371D01*
X3264571Y-25897529D01*
X3271273Y-25895351D01*
X3271275Y-25895351D01*
X3431405Y-25843322D01*
X3431408Y-25843321D01*
X3438104Y-25841145D01*
X3462952Y-25826333D01*
X3588777Y-25751327D01*
X3588780Y-25751325D01*
X3594832Y-25747717D01*
X3670119Y-25676022D01*
X3733242Y-25643531D01*
X3803913Y-25650324D01*
X3826002Y-25661837D01*
X3924700Y-25726423D01*
X3930981Y-25730533D01*
X3937585Y-25732989D01*
X3937587Y-25732990D01*
X3977187Y-25747717D01*
X4102000Y-25794135D01*
X4282860Y-25818267D01*
X4289871Y-25817629D01*
X4289875Y-25817629D01*
X4429580Y-25804914D01*
X4464571Y-25801729D01*
X4471273Y-25799551D01*
X4471275Y-25799551D01*
X4631405Y-25747522D01*
X4631408Y-25747521D01*
X4638104Y-25745345D01*
X4663373Y-25730282D01*
X4788777Y-25655527D01*
X4788780Y-25655525D01*
X4794832Y-25651917D01*
X4888041Y-25563155D01*
X4921862Y-25530948D01*
X4921864Y-25530945D01*
X4926966Y-25526087D01*
X5027939Y-25374110D01*
X5030440Y-25367525D01*
X5030443Y-25367520D01*
X5087965Y-25216091D01*
X5130853Y-25159512D01*
X5197522Y-25135103D01*
X5266804Y-25150612D01*
X5294848Y-25171739D01*
X7595432Y-27472323D01*
X7629458Y-27534635D01*
X7628044Y-27594029D01*
X7596457Y-27711913D01*
X7576502Y-27940000D01*
X7596457Y-28168087D01*
X7655716Y-28389243D01*
X7658039Y-28394224D01*
X7658039Y-28394225D01*
X7750151Y-28591762D01*
X7750154Y-28591767D01*
X7752477Y-28596749D01*
X7883802Y-28784300D01*
X8045700Y-28946198D01*
X8050208Y-28949355D01*
X8050211Y-28949357D01*
X8128389Y-29004098D01*
X8233251Y-29077523D01*
X8238233Y-29079846D01*
X8238238Y-29079849D01*
X8272457Y-29095805D01*
X8325742Y-29142722D01*
X8345203Y-29210999D01*
X8324661Y-29278959D01*
X8272457Y-29324195D01*
X8238238Y-29340151D01*
X8238233Y-29340154D01*
X8233251Y-29342477D01*
X8177812Y-29381296D01*
X8050211Y-29470643D01*
X8050208Y-29470645D01*
X8045700Y-29473802D01*
X7883802Y-29635700D01*
X7880645Y-29640208D01*
X7880643Y-29640211D01*
X7825902Y-29718389D01*
X7752477Y-29823251D01*
X7750154Y-29828233D01*
X7750151Y-29828238D01*
X7666729Y-30007140D01*
X7655716Y-30030757D01*
X7654294Y-30036065D01*
X7654293Y-30036067D01*
X7612280Y-30192860D01*
X7596457Y-30251913D01*
X7576502Y-30480000D01*
X7596457Y-30708087D01*
X7655716Y-30929243D01*
X7658039Y-30934224D01*
X7658039Y-30934225D01*
X7750151Y-31131762D01*
X7750154Y-31131767D01*
X7752477Y-31136749D01*
X7883802Y-31324300D01*
X8045700Y-31486198D01*
X8050208Y-31489355D01*
X8050211Y-31489357D01*
X8128389Y-31544098D01*
X8233251Y-31617523D01*
X8238233Y-31619846D01*
X8238238Y-31619849D01*
X8272457Y-31635805D01*
X8325742Y-31682722D01*
X8345203Y-31750999D01*
X8324661Y-31818959D01*
X8272457Y-31864195D01*
X8238238Y-31880151D01*
X8238233Y-31880154D01*
X8233251Y-31882477D01*
X8128389Y-31955902D01*
X8050211Y-32010643D01*
X8050208Y-32010645D01*
X8045700Y-32013802D01*
X7883802Y-32175700D01*
X7880645Y-32180208D01*
X7880643Y-32180211D01*
X7825902Y-32258389D01*
X7752477Y-32363251D01*
X7750154Y-32368233D01*
X7750151Y-32368238D01*
X7658039Y-32565775D01*
X7655716Y-32570757D01*
X7654294Y-32576065D01*
X7654293Y-32576067D01*
X7602609Y-32768954D01*
X7596457Y-32791913D01*
X7576502Y-33020000D01*
X7596457Y-33248087D01*
X7597881Y-33253400D01*
X7597881Y-33253402D01*
X7654174Y-33463487D01*
X7655716Y-33469243D01*
X7658039Y-33474224D01*
X7658039Y-33474225D01*
X7750151Y-33671762D01*
X7750154Y-33671767D01*
X7752477Y-33676749D01*
X7755633Y-33681256D01*
X7755634Y-33681258D01*
X7834037Y-33793229D01*
X7856725Y-33860503D01*
X7839440Y-33929364D01*
X7787670Y-33977948D01*
X7730824Y-33991500D01*
X-7730824Y-33991500D01*
X-7798945Y-33971498D01*
X-7845438Y-33917842D01*
X-7855542Y-33847568D01*
X-7834037Y-33793229D01*
X-7755634Y-33681258D01*
X-7755633Y-33681256D01*
X-7752477Y-33676749D01*
X-7750154Y-33671767D01*
X-7750151Y-33671762D01*
X-7658039Y-33474225D01*
X-7658039Y-33474224D01*
X-7655716Y-33469243D01*
X-7654173Y-33463487D01*
X-7597881Y-33253402D01*
X-7597881Y-33253400D01*
X-7596457Y-33248087D01*
X-7576502Y-33020000D01*
X-7596457Y-32791913D01*
X-7602609Y-32768954D01*
X-7654293Y-32576067D01*
X-7654294Y-32576065D01*
X-7655716Y-32570757D01*
X-7658039Y-32565775D01*
X-7750151Y-32368238D01*
X-7750154Y-32368233D01*
X-7752477Y-32363251D01*
X-7825902Y-32258389D01*
X-7880643Y-32180211D01*
X-7880645Y-32180208D01*
X-7883802Y-32175700D01*
X-8045700Y-32013802D01*
X-8050208Y-32010645D01*
X-8050211Y-32010643D01*
X-8075608Y-31992860D01*
X-883500Y-31992860D01*
X-882128Y-31999313D01*
X-882128Y-31999317D01*
X-864194Y-32083690D01*
X-844887Y-32174521D01*
X-769348Y-32344183D01*
X-765468Y-32349524D01*
X-765467Y-32349525D01*
X-755494Y-32363251D01*
X-660185Y-32494434D01*
X-522169Y-32618704D01*
X-361331Y-32711564D01*
X-184702Y-32768954D01*
X-178139Y-32769644D01*
X-178138Y-32769644D01*
X-153942Y-32772187D01*
X-46306Y-32783500D01*
X46306Y-32783500D01*
X153942Y-32772187D01*
X178138Y-32769644D01*
X178139Y-32769644D01*
X184702Y-32768954D01*
X361331Y-32711564D01*
X522169Y-32618704D01*
X660185Y-32494434D01*
X769348Y-32344184D01*
X844887Y-32174521D01*
X864194Y-32083690D01*
X882128Y-31999317D01*
X882128Y-31999313D01*
X883500Y-31992860D01*
X883500Y-31807140D01*
X878947Y-31785716D01*
X848672Y-31643286D01*
X844887Y-31625479D01*
X769348Y-31455817D01*
X765466Y-31450474D01*
X664068Y-31310910D01*
X664066Y-31310908D01*
X660185Y-31305566D01*
X522169Y-31181296D01*
X397155Y-31109119D01*
X348162Y-31057736D01*
X334726Y-30988023D01*
X361112Y-30922112D01*
X397155Y-30890881D01*
X407078Y-30885152D01*
X522169Y-30818704D01*
X660185Y-30694434D01*
X769348Y-30544184D01*
X844887Y-30374521D01*
X883500Y-30192860D01*
X883500Y-30007140D01*
X844887Y-29825479D01*
X769348Y-29655817D01*
X660185Y-29505566D01*
X629236Y-29477699D01*
X527077Y-29385715D01*
X527076Y-29385714D01*
X522169Y-29381296D01*
X361331Y-29288436D01*
X184702Y-29231046D01*
X178139Y-29230356D01*
X178138Y-29230356D01*
X153942Y-29227813D01*
X46306Y-29216500D01*
X-46306Y-29216500D01*
X-153942Y-29227813D01*
X-178138Y-29230356D01*
X-178139Y-29230356D01*
X-184702Y-29231046D01*
X-361331Y-29288436D01*
X-522169Y-29381296D01*
X-527076Y-29385714D01*
X-527077Y-29385715D01*
X-629236Y-29477699D01*
X-660185Y-29505566D01*
X-664066Y-29510908D01*
X-664068Y-29510910D01*
X-765467Y-29650474D01*
X-769348Y-29655816D01*
X-844887Y-29825479D01*
X-883500Y-30007140D01*
X-883500Y-30192860D01*
X-844887Y-30374521D01*
X-842203Y-30380550D01*
X-842202Y-30380552D01*
X-797924Y-30480000D01*
X-769348Y-30544183D01*
X-660185Y-30694434D01*
X-522169Y-30818704D01*
X-407078Y-30885152D01*
X-397155Y-30890881D01*
X-348162Y-30942264D01*
X-334726Y-31011977D01*
X-361112Y-31077888D01*
X-397155Y-31109119D01*
X-522169Y-31181296D01*
X-660185Y-31305566D01*
X-664066Y-31310908D01*
X-664068Y-31310910D01*
X-765467Y-31450474D01*
X-769348Y-31455816D01*
X-772032Y-31461844D01*
X-772033Y-31461846D01*
X-839939Y-31614366D01*
X-844887Y-31625479D01*
X-848672Y-31643286D01*
X-878946Y-31785716D01*
X-883500Y-31807140D01*
X-883500Y-31992860D01*
X-8075608Y-31992860D01*
X-8128389Y-31955902D01*
X-8233251Y-31882477D01*
X-8238233Y-31880154D01*
X-8238238Y-31880151D01*
X-8272457Y-31864195D01*
X-8325742Y-31817278D01*
X-8345203Y-31749001D01*
X-8324661Y-31681041D01*
X-8272457Y-31635805D01*
X-8238238Y-31619849D01*
X-8238233Y-31619846D01*
X-8233251Y-31617523D01*
X-8128389Y-31544098D01*
X-8050211Y-31489357D01*
X-8050208Y-31489355D01*
X-8045700Y-31486198D01*
X-7883802Y-31324300D01*
X-7752477Y-31136749D01*
X-7750154Y-31131767D01*
X-7750151Y-31131762D01*
X-7658039Y-30934225D01*
X-7658039Y-30934224D01*
X-7655716Y-30929243D01*
X-7596457Y-30708087D01*
X-7576502Y-30480000D01*
X-7596457Y-30251913D01*
X-7612280Y-30192860D01*
X-7654293Y-30036067D01*
X-7654294Y-30036065D01*
X-7655716Y-30030757D01*
X-7666729Y-30007140D01*
X-7750151Y-29828238D01*
X-7750154Y-29828233D01*
X-7752477Y-29823251D01*
X-7825902Y-29718389D01*
X-7880643Y-29640211D01*
X-7880645Y-29640208D01*
X-7883802Y-29635700D01*
X-8045700Y-29473802D01*
X-8050208Y-29470645D01*
X-8050211Y-29470643D01*
X-8177812Y-29381296D01*
X-8233251Y-29342477D01*
X-8238233Y-29340154D01*
X-8238238Y-29340151D01*
X-8272457Y-29324195D01*
X-8325742Y-29277278D01*
X-8345203Y-29209001D01*
X-8324661Y-29141041D01*
X-8272457Y-29095805D01*
X-8238238Y-29079849D01*
X-8238233Y-29079846D01*
X-8233251Y-29077523D01*
X-8128389Y-29004098D01*
X-8050211Y-28949357D01*
X-8050208Y-28949355D01*
X-8045700Y-28946198D01*
X-7883802Y-28784300D01*
X-7752477Y-28596749D01*
X-7750154Y-28591767D01*
X-7750151Y-28591762D01*
X-7658039Y-28394225D01*
X-7658039Y-28394224D01*
X-7655716Y-28389243D01*
X-7596457Y-28168087D01*
X-7576502Y-27940000D01*
X-7596457Y-27711913D01*
X-7628044Y-27594029D01*
X-7654293Y-27496067D01*
X-7654294Y-27496065D01*
X-7655716Y-27490757D01*
X-7694560Y-27407455D01*
X-7750151Y-27288238D01*
X-7750154Y-27288233D01*
X-7752477Y-27283251D01*
X-7858928Y-27131224D01*
X-7880643Y-27100211D01*
X-7880645Y-27100208D01*
X-7883802Y-27095700D01*
X-8045700Y-26933802D01*
X-8050208Y-26930645D01*
X-8050211Y-26930643D01*
X-8193793Y-26830106D01*
X-8233251Y-26802477D01*
X-8238233Y-26800154D01*
X-8238238Y-26800151D01*
X-8272457Y-26784195D01*
X-8325742Y-26737278D01*
X-8345203Y-26669001D01*
X-8324661Y-26601041D01*
X-8272457Y-26555805D01*
X-8238238Y-26539849D01*
X-8238233Y-26539846D01*
X-8233251Y-26537523D01*
X-8071999Y-26424613D01*
X-8050211Y-26409357D01*
X-8050208Y-26409355D01*
X-8045700Y-26406198D01*
X-7883802Y-26244300D01*
X-7849328Y-26195067D01*
X-7755634Y-26061257D01*
X-7752477Y-26056749D01*
X-7750154Y-26051767D01*
X-7750151Y-26051762D01*
X-7658039Y-25854225D01*
X-7658039Y-25854224D01*
X-7655716Y-25849243D01*
X-7652579Y-25837538D01*
X-7597881Y-25633402D01*
X-7597881Y-25633400D01*
X-7596457Y-25628087D01*
X-7576502Y-25400000D01*
X-7596457Y-25171913D01*
X-7601956Y-25151391D01*
X-7654293Y-24956067D01*
X-7654294Y-24956065D01*
X-7655716Y-24950757D01*
X-7658039Y-24945775D01*
X-7750151Y-24748238D01*
X-7750154Y-24748233D01*
X-7752477Y-24743251D01*
X-7883802Y-24555700D01*
X-8045700Y-24393802D01*
X-8050208Y-24390645D01*
X-8050211Y-24390643D01*
X-8202312Y-24284141D01*
X-8233251Y-24262477D01*
X-8238233Y-24260154D01*
X-8238238Y-24260151D01*
X-8272457Y-24244195D01*
X-8325742Y-24197278D01*
X-8345203Y-24129001D01*
X-8324661Y-24061041D01*
X-8272457Y-24015805D01*
X-8238238Y-23999849D01*
X-8238233Y-23999846D01*
X-8233251Y-23997523D01*
X-8107497Y-23909469D01*
X-8050211Y-23869357D01*
X-8050208Y-23869355D01*
X-8045700Y-23866198D01*
X-7883802Y-23704300D01*
X-7870722Y-23685621D01*
X-7755634Y-23521257D01*
X-7752477Y-23516749D01*
X-7750154Y-23511767D01*
X-7750151Y-23511762D01*
X-7658039Y-23314225D01*
X-7658039Y-23314224D01*
X-7655716Y-23309243D01*
X-7596457Y-23088087D01*
X-7576502Y-22860000D01*
X-7596457Y-22631913D01*
X-7655716Y-22410757D01*
X-7658039Y-22405775D01*
X-7750151Y-22208238D01*
X-7750154Y-22208233D01*
X-7752477Y-22203251D01*
X-7883802Y-22015700D01*
X-8045700Y-21853802D01*
X-8050208Y-21850645D01*
X-8050211Y-21850643D01*
X-8128389Y-21795902D01*
X-8233251Y-21722477D01*
X-8238233Y-21720154D01*
X-8238238Y-21720151D01*
X-8272457Y-21704195D01*
X-8325742Y-21657278D01*
X-8345203Y-21589001D01*
X-8324661Y-21521041D01*
X-8272457Y-21475805D01*
X-8238238Y-21459849D01*
X-8238233Y-21459846D01*
X-8233251Y-21457523D01*
X-8128389Y-21384098D01*
X-8050211Y-21329357D01*
X-8050208Y-21329355D01*
X-8045700Y-21326198D01*
X-7883802Y-21164300D01*
X-7752477Y-20976749D01*
X-7750154Y-20971767D01*
X-7750151Y-20971762D01*
X-7658039Y-20774225D01*
X-7658039Y-20774224D01*
X-7655716Y-20769243D01*
X-7596457Y-20548087D01*
X-7576502Y-20320000D01*
X-7596457Y-20091913D01*
X-7655716Y-19870757D01*
X-7658039Y-19865775D01*
X-7750151Y-19668238D01*
X-7750154Y-19668233D01*
X-7752477Y-19663251D01*
X-7883802Y-19475700D01*
X-8045700Y-19313802D01*
X-8050208Y-19310645D01*
X-8050211Y-19310643D01*
X-8189403Y-19213180D01*
X-8233251Y-19182477D01*
X-8238233Y-19180154D01*
X-8238238Y-19180151D01*
X-8272457Y-19164195D01*
X-8325742Y-19117278D01*
X-8345203Y-19049001D01*
X-8324661Y-18981041D01*
X-8272457Y-18935805D01*
X-8238238Y-18919849D01*
X-8238233Y-18919846D01*
X-8233251Y-18917523D01*
X-8116182Y-18835550D01*
X-8050211Y-18789357D01*
X-8050208Y-18789355D01*
X-8045700Y-18786198D01*
X-7883802Y-18624300D01*
X-7867119Y-18600475D01*
X-7790595Y-18491187D01*
X-7752477Y-18436749D01*
X-7750154Y-18431767D01*
X-7750151Y-18431762D01*
X-7658039Y-18234225D01*
X-7658039Y-18234224D01*
X-7655716Y-18229243D01*
X-7649833Y-18207290D01*
X-7597881Y-18013402D01*
X-7597881Y-18013400D01*
X-7596457Y-18008087D01*
X-7576502Y-17780000D01*
X-7596457Y-17551913D01*
X-7655716Y-17330757D01*
X-7675141Y-17289100D01*
X-7750151Y-17128238D01*
X-7750154Y-17128233D01*
X-7752477Y-17123251D01*
X-7883802Y-16935700D01*
X-8045700Y-16773802D01*
X-8050208Y-16770645D01*
X-8050211Y-16770643D01*
X-8143645Y-16705220D01*
X-8233251Y-16642477D01*
X-8238233Y-16640154D01*
X-8238238Y-16640151D01*
X-8272457Y-16624195D01*
X-8325742Y-16577278D01*
X-8345203Y-16509001D01*
X-8324661Y-16441041D01*
X-8272457Y-16395805D01*
X-8238238Y-16379849D01*
X-8238233Y-16379846D01*
X-8233251Y-16377523D01*
X-8128389Y-16304098D01*
X-8050211Y-16249357D01*
X-8050208Y-16249355D01*
X-8045700Y-16246198D01*
X-7883802Y-16084300D01*
X-7752477Y-15896749D01*
X-7750154Y-15891767D01*
X-7750151Y-15891762D01*
X-7658039Y-15694225D01*
X-7658039Y-15694224D01*
X-7655716Y-15689243D01*
X-7625073Y-15574885D01*
X-7597881Y-15473402D01*
X-7597881Y-15473400D01*
X-7596457Y-15468087D01*
X-7576502Y-15240000D01*
X-7596457Y-15011913D01*
X-7655716Y-14790757D01*
X-7737720Y-14614897D01*
X-7750151Y-14588238D01*
X-7750154Y-14588233D01*
X-7752477Y-14583251D01*
X-7859381Y-14430576D01*
X-7880643Y-14400211D01*
X-7880645Y-14400208D01*
X-7883802Y-14395700D01*
X-8045700Y-14233802D01*
X-8050208Y-14230645D01*
X-8050211Y-14230643D01*
X-8165430Y-14149966D01*
X-8233251Y-14102477D01*
X-8238233Y-14100154D01*
X-8238238Y-14100151D01*
X-8272457Y-14084195D01*
X-8325742Y-14037278D01*
X-8345203Y-13969001D01*
X-8324661Y-13901041D01*
X-8272457Y-13855805D01*
X-8238238Y-13839849D01*
X-8238233Y-13839846D01*
X-8233251Y-13837523D01*
X-8075355Y-13726963D01*
X-8050211Y-13709357D01*
X-8050208Y-13709355D01*
X-8045700Y-13706198D01*
X-7883802Y-13544300D01*
X-7752477Y-13356749D01*
X-7750154Y-13351767D01*
X-7750151Y-13351762D01*
X-7658039Y-13154225D01*
X-7658039Y-13154224D01*
X-7655716Y-13149243D01*
X-7596457Y-12928087D01*
X-7576502Y-12700000D01*
X-7596457Y-12471913D01*
X-7598049Y-12465970D01*
X-7654293Y-12256067D01*
X-7654294Y-12256065D01*
X-7655716Y-12250757D01*
X-7705189Y-12144661D01*
X-7750151Y-12048238D01*
X-7750154Y-12048233D01*
X-7752477Y-12043251D01*
X-7883802Y-11855700D01*
X-8045700Y-11693802D01*
X-8050208Y-11690645D01*
X-8050211Y-11690643D01*
X-8128389Y-11635902D01*
X-8233251Y-11562477D01*
X-8238233Y-11560154D01*
X-8238238Y-11560151D01*
X-8272457Y-11544195D01*
X-8325742Y-11497278D01*
X-8345203Y-11429001D01*
X-8324661Y-11361041D01*
X-8272457Y-11315805D01*
X-8238238Y-11299849D01*
X-8238233Y-11299846D01*
X-8233251Y-11297523D01*
X-8089815Y-11197088D01*
X-8050211Y-11169357D01*
X-8050208Y-11169355D01*
X-8045700Y-11166198D01*
X-7883802Y-11004300D01*
X-7857033Y-10966071D01*
X-7755634Y-10821257D01*
X-7752477Y-10816749D01*
X-7750154Y-10811767D01*
X-7750151Y-10811762D01*
X-7658039Y-10614225D01*
X-7658039Y-10614224D01*
X-7655716Y-10609243D01*
X-7596457Y-10388087D01*
X-7576502Y-10160000D01*
X-7596457Y-9931913D01*
X-7655716Y-9710757D01*
X-7664312Y-9692323D01*
X-7750151Y-9508238D01*
X-7750154Y-9508233D01*
X-7752477Y-9503251D01*
X-7883802Y-9315700D01*
X-8045700Y-9153802D01*
X-8050208Y-9150645D01*
X-8050211Y-9150643D01*
X-8128389Y-9095902D01*
X-8233251Y-9022477D01*
X-8238233Y-9020154D01*
X-8238238Y-9020151D01*
X-8272457Y-9004195D01*
X-8325742Y-8957278D01*
X-8345203Y-8889001D01*
X-8324661Y-8821041D01*
X-8272457Y-8775805D01*
X-8238238Y-8759849D01*
X-8238233Y-8759846D01*
X-8233251Y-8757523D01*
X-8128389Y-8684098D01*
X-8050211Y-8629357D01*
X-8050208Y-8629355D01*
X-8045700Y-8626198D01*
X-7883802Y-8464300D01*
X-7752477Y-8276749D01*
X-7750154Y-8271767D01*
X-7750151Y-8271762D01*
X-7658039Y-8074225D01*
X-7658039Y-8074224D01*
X-7655716Y-8069243D01*
X-7642708Y-8020699D01*
X-7597881Y-7853402D01*
X-7597881Y-7853400D01*
X-7596457Y-7848087D01*
X-7576502Y-7620000D01*
X-7596457Y-7391913D01*
X-7655716Y-7170757D01*
X-7658039Y-7165775D01*
X-7750151Y-6968238D01*
X-7750154Y-6968233D01*
X-7752477Y-6963251D01*
X-7883802Y-6775700D01*
X-8045700Y-6613802D01*
X-8050208Y-6610645D01*
X-8050211Y-6610643D01*
X-8128389Y-6555902D01*
X-8233251Y-6482477D01*
X-8238233Y-6480154D01*
X-8238238Y-6480151D01*
X-8273049Y-6463919D01*
X-8326334Y-6417002D01*
X-8345795Y-6348725D01*
X-8325253Y-6280765D01*
X-8273049Y-6235529D01*
X-8238489Y-6219414D01*
X-8228994Y-6213931D01*
X-8176952Y-6177491D01*
X-8168576Y-6167012D01*
X-8175644Y-6153566D01*
X-9160115Y-5169095D01*
X-9194141Y-5106783D01*
X-9192306Y-5081132D01*
X-8525592Y-5081132D01*
X-8525461Y-5082965D01*
X-8521210Y-5089580D01*
X-7815713Y-5795077D01*
X-7803938Y-5801507D01*
X-7791923Y-5792211D01*
X-7756069Y-5741006D01*
X-7750586Y-5731511D01*
X-7658510Y-5534053D01*
X-7654764Y-5523761D01*
X-7598375Y-5313312D01*
X-7596472Y-5302519D01*
X-7577483Y-5085475D01*
X-7577483Y-5074525D01*
X-7596472Y-4857481D01*
X-7598375Y-4846688D01*
X-7654764Y-4636239D01*
X-7658510Y-4625947D01*
X-7750586Y-4428489D01*
X-7756069Y-4418994D01*
X-7792509Y-4366952D01*
X-7802988Y-4358576D01*
X-7816434Y-4365644D01*
X-8517978Y-5067188D01*
X-8525592Y-5081132D01*
X-9192306Y-5081132D01*
X-9189076Y-5035968D01*
X-9160115Y-4990905D01*
X-8174922Y-4005712D01*
X-8151279Y-3962414D01*
X-8101077Y-3912212D01*
X-8040692Y-3896800D01*
X-4999300Y-3896800D01*
X-4931179Y-3916802D01*
G37*
G04 #@! TD.AperFunction*
G04 #@! TA.AperFunction,Conductor*
G36*
X6716552Y-1197513D02*
G01*
X6737526Y-1214416D01*
X7595432Y-2072322D01*
X7629458Y-2134634D01*
X7628044Y-2194028D01*
X7600840Y-2295555D01*
X7596457Y-2311913D01*
X7576502Y-2540000D01*
X7596457Y-2768087D01*
X7597881Y-2773400D01*
X7597881Y-2773402D01*
X7621860Y-2862890D01*
X7655716Y-2989243D01*
X7658039Y-2994224D01*
X7658039Y-2994225D01*
X7750151Y-3191762D01*
X7750154Y-3191767D01*
X7752477Y-3196749D01*
X7782464Y-3239575D01*
X7861112Y-3351895D01*
X7883802Y-3384300D01*
X8045700Y-3546198D01*
X8050208Y-3549355D01*
X8050211Y-3549357D01*
X8076155Y-3567523D01*
X8233251Y-3677523D01*
X8238233Y-3679846D01*
X8238238Y-3679849D01*
X8273049Y-3696081D01*
X8326334Y-3742998D01*
X8345795Y-3811275D01*
X8325253Y-3879235D01*
X8273049Y-3924471D01*
X8238489Y-3940586D01*
X8228994Y-3946069D01*
X8176952Y-3982509D01*
X8168576Y-3992988D01*
X8175644Y-4006434D01*
X9160115Y-4990905D01*
X9194141Y-5053217D01*
X9189076Y-5124032D01*
X9160115Y-5169095D01*
X8174923Y-6154287D01*
X8168493Y-6166062D01*
X8177789Y-6178077D01*
X8228994Y-6213931D01*
X8238489Y-6219414D01*
X8273049Y-6235529D01*
X8326334Y-6282446D01*
X8345795Y-6350723D01*
X8325253Y-6418683D01*
X8273049Y-6463919D01*
X8238238Y-6480151D01*
X8238233Y-6480154D01*
X8233251Y-6482477D01*
X8128389Y-6555902D01*
X8050211Y-6610643D01*
X8050208Y-6610645D01*
X8045700Y-6613802D01*
X7883802Y-6775700D01*
X7752477Y-6963251D01*
X7750154Y-6968233D01*
X7750151Y-6968238D01*
X7658039Y-7165775D01*
X7655716Y-7170757D01*
X7596457Y-7391913D01*
X7576502Y-7620000D01*
X7576981Y-7625475D01*
X7584644Y-7713061D01*
X7570655Y-7782666D01*
X7521256Y-7833658D01*
X7452130Y-7849849D01*
X7385224Y-7826097D01*
X7370028Y-7813138D01*
X6163136Y-6606246D01*
X6133240Y-6558588D01*
X6084520Y-6418683D01*
X6074901Y-6391061D01*
X5978211Y-6236324D01*
X5896744Y-6154287D01*
X5854604Y-6111851D01*
X5854600Y-6111848D01*
X5849641Y-6106854D01*
X5695583Y-6009086D01*
X5587562Y-5970621D01*
X5542380Y-5954532D01*
X5484916Y-5912837D01*
X5459116Y-5846694D01*
X5473171Y-5777103D01*
X5495552Y-5746738D01*
X5519651Y-5722639D01*
X5581963Y-5688613D01*
X5597325Y-5686253D01*
X5705271Y-5676429D01*
X5711973Y-5674251D01*
X5711975Y-5674251D01*
X5872105Y-5622222D01*
X5872108Y-5622221D01*
X5878804Y-5620045D01*
X5884855Y-5616438D01*
X6029477Y-5530227D01*
X6029480Y-5530225D01*
X6035532Y-5526617D01*
X6106839Y-5458712D01*
X6162562Y-5405648D01*
X6162564Y-5405645D01*
X6167666Y-5400787D01*
X6268639Y-5248810D01*
X6316038Y-5124032D01*
X6330685Y-5085475D01*
X7577483Y-5085475D01*
X7596472Y-5302519D01*
X7598375Y-5313312D01*
X7654764Y-5523761D01*
X7658510Y-5534053D01*
X7750586Y-5731511D01*
X7756069Y-5741006D01*
X7792509Y-5793048D01*
X7802988Y-5801424D01*
X7816434Y-5794356D01*
X8517978Y-5092812D01*
X8525592Y-5078868D01*
X8525461Y-5077035D01*
X8521210Y-5070420D01*
X7815713Y-4364923D01*
X7803938Y-4358493D01*
X7791923Y-4367789D01*
X7756069Y-4418994D01*
X7750586Y-4428489D01*
X7658510Y-4625947D01*
X7654764Y-4636239D01*
X7598375Y-4846688D01*
X7596472Y-4857481D01*
X7577483Y-5074525D01*
X7577483Y-5085475D01*
X6330685Y-5085475D01*
X6330933Y-5084822D01*
X6330934Y-5084817D01*
X6333433Y-5078239D01*
X6358827Y-4897552D01*
X6359146Y-4874700D01*
X6338807Y-4693375D01*
X6278801Y-4521061D01*
X6182111Y-4366324D01*
X6136831Y-4320727D01*
X6103024Y-4258297D01*
X6108336Y-4187499D01*
X6137142Y-4142848D01*
X6237367Y-4042623D01*
X6299679Y-4008597D01*
X6315041Y-4006237D01*
X6320809Y-4005712D01*
X6364571Y-4001729D01*
X6391473Y-3992988D01*
X6531405Y-3947522D01*
X6531408Y-3947521D01*
X6538104Y-3945345D01*
X6544155Y-3941738D01*
X6688777Y-3855527D01*
X6688780Y-3855525D01*
X6694832Y-3851917D01*
X6809208Y-3742998D01*
X6821862Y-3730948D01*
X6821864Y-3730945D01*
X6826966Y-3726087D01*
X6927939Y-3574110D01*
X6942938Y-3534625D01*
X6990233Y-3410122D01*
X6990234Y-3410117D01*
X6992733Y-3403539D01*
X7001519Y-3341027D01*
X7017576Y-3226775D01*
X7017576Y-3226770D01*
X7018127Y-3222852D01*
X7018446Y-3200000D01*
X6998107Y-3018675D01*
X6938101Y-2846361D01*
X6841411Y-2691624D01*
X6771258Y-2620980D01*
X6717804Y-2567151D01*
X6717800Y-2567148D01*
X6712841Y-2562154D01*
X6701657Y-2555056D01*
X6589655Y-2483978D01*
X6558783Y-2464386D01*
X6430413Y-2418675D01*
X6393527Y-2405540D01*
X6393525Y-2405539D01*
X6386893Y-2403178D01*
X6379907Y-2402345D01*
X6379903Y-2402344D01*
X6250326Y-2386894D01*
X6205714Y-2381574D01*
X6198711Y-2382310D01*
X6198710Y-2382310D01*
X6152475Y-2387170D01*
X6024251Y-2400646D01*
X6017583Y-2402916D01*
X5858190Y-2457178D01*
X5858187Y-2457179D01*
X5851523Y-2459448D01*
X5795470Y-2493932D01*
X5786504Y-2499448D01*
X5718003Y-2518106D01*
X5650289Y-2496767D01*
X5604861Y-2442207D01*
X5598599Y-2423062D01*
X5598107Y-2418675D01*
X5592711Y-2403178D01*
X5540419Y-2253018D01*
X5538101Y-2246361D01*
X5441411Y-2091624D01*
X5322300Y-1971679D01*
X5317804Y-1967151D01*
X5317800Y-1967148D01*
X5312841Y-1962154D01*
X5301936Y-1955233D01*
X5241551Y-1916912D01*
X5158783Y-1864386D01*
X5040096Y-1822123D01*
X4982633Y-1780428D01*
X4956833Y-1714285D01*
X4956376Y-1701663D01*
X4956491Y-1693461D01*
X4956491Y-1693456D01*
X4956546Y-1689500D01*
X4936207Y-1508175D01*
X4932301Y-1496957D01*
X4918628Y-1457695D01*
X4879365Y-1344947D01*
X4875851Y-1274039D01*
X4911232Y-1212486D01*
X4974275Y-1179834D01*
X4998356Y-1177511D01*
X6648431Y-1177511D01*
X6716552Y-1197513D01*
G37*
G04 #@! TD.AperFunction*
G04 #@! TA.AperFunction,Conductor*
G36*
X-4562823Y16471498D02*
G01*
X-4516330Y16417842D01*
X-4506226Y16347568D01*
X-4530118Y16289935D01*
X-4594786Y16203649D01*
X-4603324Y16188054D01*
X-4648478Y16067606D01*
X-4652105Y16052351D01*
X-4657631Y16001486D01*
X-4658000Y15994672D01*
X-4658000Y15272115D01*
X-4653525Y15256876D01*
X-4652135Y15255671D01*
X-4644452Y15254000D01*
X-1860116Y15254000D01*
X-1844877Y15258475D01*
X-1843672Y15259865D01*
X-1842001Y15267548D01*
X-1842001Y15994669D01*
X-1842371Y16001490D01*
X-1847895Y16052352D01*
X-1851521Y16067604D01*
X-1896676Y16188054D01*
X-1905214Y16203649D01*
X-1969882Y16289935D01*
X-1994730Y16356442D01*
X-1979677Y16425824D01*
X-1929503Y16476054D01*
X-1869056Y16491500D01*
X1869056Y16491500D01*
X1937177Y16471498D01*
X1983670Y16417842D01*
X1993774Y16347568D01*
X1969882Y16289935D01*
X1905214Y16203649D01*
X1896676Y16188054D01*
X1851522Y16067606D01*
X1847895Y16052351D01*
X1842369Y16001486D01*
X1842000Y15994672D01*
X1842000Y15272115D01*
X1846475Y15256876D01*
X1847865Y15255671D01*
X1855548Y15254000D01*
X4639884Y15254000D01*
X4655123Y15258475D01*
X4656328Y15259865D01*
X4657999Y15267548D01*
X4657999Y15994669D01*
X4657629Y16001490D01*
X4652105Y16052352D01*
X4648479Y16067604D01*
X4603324Y16188054D01*
X4594786Y16203649D01*
X4530118Y16289935D01*
X4505270Y16356442D01*
X4520323Y16425824D01*
X4570497Y16476054D01*
X4630944Y16491500D01*
X7541605Y16491500D01*
X7609726Y16471498D01*
X7656219Y16417842D01*
X7666323Y16347568D01*
X7647655Y16302539D01*
X7649522Y16301517D01*
X7636676Y16278054D01*
X7591522Y16157606D01*
X7587895Y16142351D01*
X7582369Y16091486D01*
X7582000Y16084672D01*
X7582000Y15512115D01*
X7586475Y15496876D01*
X7587865Y15495671D01*
X7595548Y15494000D01*
X9018000Y15494000D01*
X9086121Y15473998D01*
X9132614Y15420342D01*
X9144000Y15368000D01*
X9144000Y13950116D01*
X9148475Y13934877D01*
X9149865Y13933672D01*
X9157548Y13932001D01*
X9365500Y13932001D01*
X9433621Y13911999D01*
X9480114Y13858343D01*
X9491500Y13806001D01*
X9491500Y1434500D01*
X9471498Y1366379D01*
X9417842Y1319886D01*
X9365500Y1308500D01*
X8041866Y1308500D01*
X7979684Y1301745D01*
X7843295Y1250615D01*
X7726739Y1163261D01*
X7639385Y1046705D01*
X7588255Y910316D01*
X7581500Y848134D01*
X7581500Y710700D01*
X7561498Y642579D01*
X7507842Y596086D01*
X7455500Y584700D01*
X-1582614Y584700D01*
X-1599061Y585778D01*
X-1621012Y588668D01*
X-1629200Y589746D01*
X-1637388Y588668D01*
X-1673010Y583978D01*
X-1689457Y582900D01*
X-7455500Y582900D01*
X-7523621Y602902D01*
X-7570114Y656558D01*
X-7581500Y708900D01*
X-7581500Y848134D01*
X-7588255Y910316D01*
X-7639385Y1046705D01*
X-7726739Y1163261D01*
X-7843295Y1250615D01*
X-7979684Y1301745D01*
X-8041866Y1308500D01*
X-9365500Y1308500D01*
X-9433621Y1328502D01*
X-9480114Y1382158D01*
X-9491500Y1434500D01*
X-9491500Y13806000D01*
X-9471498Y13874121D01*
X-9417842Y13920614D01*
X-9365500Y13932000D01*
X-9162115Y13932000D01*
X-9146876Y13936475D01*
X-9145671Y13937865D01*
X-9144000Y13945548D01*
X-9144000Y13950116D01*
X-8636000Y13950116D01*
X-8631525Y13934877D01*
X-8630135Y13933672D01*
X-8622452Y13932001D01*
X-8045331Y13932001D01*
X-8038510Y13932371D01*
X-7987648Y13937895D01*
X-7972396Y13941521D01*
X-7851946Y13986676D01*
X-7836351Y13995214D01*
X-7822852Y14005331D01*
X-4657999Y14005331D01*
X-4657629Y13998510D01*
X-4652105Y13947648D01*
X-4648479Y13932396D01*
X-4603324Y13811946D01*
X-4594786Y13796351D01*
X-4518285Y13694276D01*
X-4505724Y13681715D01*
X-4403649Y13605214D01*
X-4388054Y13596676D01*
X-4267606Y13551522D01*
X-4252351Y13547895D01*
X-4201486Y13542369D01*
X-4194672Y13542000D01*
X-3522115Y13542000D01*
X-3506876Y13546475D01*
X-3505671Y13547865D01*
X-3504000Y13555548D01*
X-3504000Y13560116D01*
X-2996000Y13560116D01*
X-2991525Y13544877D01*
X-2990135Y13543672D01*
X-2982452Y13542001D01*
X-2305331Y13542001D01*
X-2298510Y13542371D01*
X-2247648Y13547895D01*
X-2232396Y13551521D01*
X-2111946Y13596676D01*
X-2096351Y13605214D01*
X-1994276Y13681715D01*
X-1981715Y13694276D01*
X-1905214Y13796351D01*
X-1896676Y13811946D01*
X-1851522Y13932394D01*
X-1847895Y13947649D01*
X-1842369Y13998514D01*
X-1842000Y14005328D01*
X-1842000Y14005331D01*
X1842001Y14005331D01*
X1842371Y13998510D01*
X1847895Y13947648D01*
X1851521Y13932396D01*
X1896676Y13811946D01*
X1905214Y13796351D01*
X1981715Y13694276D01*
X1994276Y13681715D01*
X2096351Y13605214D01*
X2111946Y13596676D01*
X2232394Y13551522D01*
X2247649Y13547895D01*
X2298514Y13542369D01*
X2305328Y13542000D01*
X2977885Y13542000D01*
X2993124Y13546475D01*
X2994329Y13547865D01*
X2996000Y13555548D01*
X2996000Y13560116D01*
X3504000Y13560116D01*
X3508475Y13544877D01*
X3509865Y13543672D01*
X3517548Y13542001D01*
X4194669Y13542001D01*
X4201490Y13542371D01*
X4252352Y13547895D01*
X4267604Y13551521D01*
X4388054Y13596676D01*
X4403649Y13605214D01*
X4505724Y13681715D01*
X4518285Y13694276D01*
X4594786Y13796351D01*
X4603324Y13811946D01*
X4648478Y13932394D01*
X4652105Y13947649D01*
X4657631Y13998514D01*
X4658000Y14005328D01*
X4658000Y14395331D01*
X7582001Y14395331D01*
X7582371Y14388510D01*
X7587895Y14337648D01*
X7591521Y14322396D01*
X7636676Y14201946D01*
X7645214Y14186351D01*
X7721715Y14084276D01*
X7734276Y14071715D01*
X7836351Y13995214D01*
X7851946Y13986676D01*
X7972394Y13941522D01*
X7987649Y13937895D01*
X8038514Y13932369D01*
X8045328Y13932000D01*
X8617885Y13932000D01*
X8633124Y13936475D01*
X8634329Y13937865D01*
X8636000Y13945548D01*
X8636000Y14967885D01*
X8631525Y14983124D01*
X8630135Y14984329D01*
X8622452Y14986000D01*
X7600116Y14986000D01*
X7584877Y14981525D01*
X7583672Y14980135D01*
X7582001Y14972452D01*
X7582001Y14395331D01*
X4658000Y14395331D01*
X4658000Y14727885D01*
X4653525Y14743124D01*
X4652135Y14744329D01*
X4644452Y14746000D01*
X3522115Y14746000D01*
X3506876Y14741525D01*
X3505671Y14740135D01*
X3504000Y14732452D01*
X3504000Y13560116D01*
X2996000Y13560116D01*
X2996000Y14727885D01*
X2991525Y14743124D01*
X2990135Y14744329D01*
X2982452Y14746000D01*
X1860116Y14746000D01*
X1844877Y14741525D01*
X1843672Y14740135D01*
X1842001Y14732452D01*
X1842001Y14005331D01*
X-1842000Y14005331D01*
X-1842000Y14727885D01*
X-1846475Y14743124D01*
X-1847865Y14744329D01*
X-1855548Y14746000D01*
X-2977885Y14746000D01*
X-2993124Y14741525D01*
X-2994329Y14740135D01*
X-2996000Y14732452D01*
X-2996000Y13560116D01*
X-3504000Y13560116D01*
X-3504000Y14727885D01*
X-3508475Y14743124D01*
X-3509865Y14744329D01*
X-3517548Y14746000D01*
X-4639884Y14746000D01*
X-4655123Y14741525D01*
X-4656328Y14740135D01*
X-4657999Y14732452D01*
X-4657999Y14005331D01*
X-7822852Y14005331D01*
X-7734276Y14071715D01*
X-7721715Y14084276D01*
X-7645214Y14186351D01*
X-7636676Y14201946D01*
X-7591522Y14322394D01*
X-7587895Y14337649D01*
X-7582369Y14388514D01*
X-7582000Y14395328D01*
X-7582000Y14967885D01*
X-7586475Y14983124D01*
X-7587865Y14984329D01*
X-7595548Y14986000D01*
X-8617885Y14986000D01*
X-8633124Y14981525D01*
X-8634329Y14980135D01*
X-8636000Y14972452D01*
X-8636000Y13950116D01*
X-9144000Y13950116D01*
X-9144000Y15368000D01*
X-9123998Y15436121D01*
X-9070342Y15482614D01*
X-9018000Y15494000D01*
X-7600116Y15494000D01*
X-7584877Y15498475D01*
X-7583672Y15499865D01*
X-7582001Y15507548D01*
X-7582001Y16084669D01*
X-7582371Y16091490D01*
X-7587895Y16142352D01*
X-7591521Y16157604D01*
X-7636676Y16278054D01*
X-7649522Y16301517D01*
X-7647227Y16302774D01*
X-7667279Y16356438D01*
X-7652228Y16425821D01*
X-7602055Y16476053D01*
X-7541605Y16491500D01*
X-4630944Y16491500D01*
X-4562823Y16471498D01*
G37*
G04 #@! TD.AperFunction*
M02*
