G04 #@! TF.GenerationSoftware,KiCad,Pcbnew,(6.0.9)*
G04 #@! TF.CreationDate,2022-12-10T19:39:28+09:00*
G04 #@! TF.ProjectId,EB-STM32L412KB,45422d53-544d-4333-924c-3431324b422e,V2.0*
G04 #@! TF.SameCoordinates,Original*
G04 #@! TF.FileFunction,Soldermask,Bot*
G04 #@! TF.FilePolarity,Negative*
%FSLAX46Y46*%
G04 Gerber Fmt 4.6, Leading zero omitted, Abs format (unit mm)*
G04 Created by KiCad (PCBNEW (6.0.9)) date 2022-12-10 19:39:28*
%MOMM*%
%LPD*%
G01*
G04 APERTURE LIST*
%ADD10R,1.800000X1.900000*%
%ADD11C,0.750000*%
%ADD12R,1.600000X1.600000*%
%ADD13C,1.600000*%
%ADD14R,1.400000X1.400000*%
%ADD15C,1.400000*%
G04 APERTURE END LIST*
D10*
X-3250000Y15000000D03*
X3250000Y15000000D03*
D11*
X0Y-31900000D03*
X0Y-30100000D03*
D12*
X-8890000Y15240000D03*
X8890000Y15240000D03*
X-8890000Y0D03*
D13*
X-8890000Y-2540000D03*
X-8890000Y-5080000D03*
X-8890000Y-7620000D03*
X-8890000Y-10160000D03*
X-8890000Y-12700000D03*
X-8890000Y-15240000D03*
X-8890000Y-17780000D03*
X-8890000Y-20320000D03*
X-8890000Y-22860000D03*
X-8890000Y-25400000D03*
X-8890000Y-27940000D03*
X-8890000Y-30480000D03*
X-8890000Y-33020000D03*
D14*
X-2500000Y-8950000D03*
D15*
X0Y-8950000D03*
X2500000Y-8950000D03*
X-2500000Y-12250000D03*
X0Y-12250000D03*
X2500000Y-12250000D03*
D12*
X8890000Y0D03*
D13*
X8890000Y-2540000D03*
X8890000Y-5080000D03*
X8890000Y-7620000D03*
X8890000Y-10160000D03*
X8890000Y-12700000D03*
X8890000Y-15240000D03*
X8890000Y-17780000D03*
X8890000Y-20320000D03*
X8890000Y-22860000D03*
X8890000Y-25400000D03*
X8890000Y-27940000D03*
X8890000Y-30480000D03*
X8890000Y-33020000D03*
M02*
