G04 #@! TF.GenerationSoftware,KiCad,Pcbnew,(5.1.9-0-10_14)*
G04 #@! TF.CreationDate,2021-06-20T22:22:13+09:00*
G04 #@! TF.ProjectId,EB-STM32L412KB,45422d53-544d-4333-924c-3431324b422e,V1.0*
G04 #@! TF.SameCoordinates,Original*
G04 #@! TF.FileFunction,Legend,Bot*
G04 #@! TF.FilePolarity,Positive*
%FSLAX46Y46*%
G04 Gerber Fmt 4.6, Leading zero omitted, Abs format (unit mm)*
G04 Created by KiCad (PCBNEW (5.1.9-0-10_14)) date 2021-06-20 22:22:13*
%MOMM*%
%LPD*%
G01*
G04 APERTURE LIST*
%ADD10C,0.200000*%
G04 APERTURE END LIST*
D10*
X7857142Y-26614285D02*
X7457142Y-26614285D01*
X7285714Y-27242857D02*
X7857142Y-27242857D01*
X7857142Y-26042857D01*
X7285714Y-26042857D01*
X6371428Y-26614285D02*
X6200000Y-26671428D01*
X6142857Y-26728571D01*
X6085714Y-26842857D01*
X6085714Y-27014285D01*
X6142857Y-27128571D01*
X6200000Y-27185714D01*
X6314285Y-27242857D01*
X6771428Y-27242857D01*
X6771428Y-26042857D01*
X6371428Y-26042857D01*
X6257142Y-26100000D01*
X6200000Y-26157142D01*
X6142857Y-26271428D01*
X6142857Y-26385714D01*
X6200000Y-26500000D01*
X6257142Y-26557142D01*
X6371428Y-26614285D01*
X6771428Y-26614285D01*
X5571428Y-26785714D02*
X4657142Y-26785714D01*
X4142857Y-27185714D02*
X3971428Y-27242857D01*
X3685714Y-27242857D01*
X3571428Y-27185714D01*
X3514285Y-27128571D01*
X3457142Y-27014285D01*
X3457142Y-26900000D01*
X3514285Y-26785714D01*
X3571428Y-26728571D01*
X3685714Y-26671428D01*
X3914285Y-26614285D01*
X4028571Y-26557142D01*
X4085714Y-26500000D01*
X4142857Y-26385714D01*
X4142857Y-26271428D01*
X4085714Y-26157142D01*
X4028571Y-26100000D01*
X3914285Y-26042857D01*
X3628571Y-26042857D01*
X3457142Y-26100000D01*
X3114285Y-26042857D02*
X2428571Y-26042857D01*
X2771428Y-27242857D02*
X2771428Y-26042857D01*
X2028571Y-27242857D02*
X2028571Y-26042857D01*
X1628571Y-26900000D01*
X1228571Y-26042857D01*
X1228571Y-27242857D01*
X771428Y-26042857D02*
X28571Y-26042857D01*
X428571Y-26500000D01*
X257142Y-26500000D01*
X142857Y-26557142D01*
X85714Y-26614285D01*
X28571Y-26728571D01*
X28571Y-27014285D01*
X85714Y-27128571D01*
X142857Y-27185714D01*
X257142Y-27242857D01*
X600000Y-27242857D01*
X714285Y-27185714D01*
X771428Y-27128571D01*
X-428571Y-26157142D02*
X-485714Y-26100000D01*
X-599999Y-26042857D01*
X-885714Y-26042857D01*
X-999999Y-26100000D01*
X-1057142Y-26157142D01*
X-1114285Y-26271428D01*
X-1114285Y-26385714D01*
X-1057142Y-26557142D01*
X-371428Y-27242857D01*
X-1114285Y-27242857D01*
X-2199999Y-27242857D02*
X-1628571Y-27242857D01*
X-1628571Y-26042857D01*
X-3114285Y-26442857D02*
X-3114285Y-27242857D01*
X-2828571Y-25985714D02*
X-2542857Y-26842857D01*
X-3285714Y-26842857D01*
X-4371428Y-27242857D02*
X-3685714Y-27242857D01*
X-4028571Y-27242857D02*
X-4028571Y-26042857D01*
X-3914285Y-26214285D01*
X-3799999Y-26328571D01*
X-3685714Y-26385714D01*
X-4828571Y-26157142D02*
X-4885714Y-26100000D01*
X-4999999Y-26042857D01*
X-5285714Y-26042857D01*
X-5399999Y-26100000D01*
X-5457142Y-26157142D01*
X-5514285Y-26271428D01*
X-5514285Y-26385714D01*
X-5457142Y-26557142D01*
X-4771428Y-27242857D01*
X-5514285Y-27242857D01*
X-6028571Y-27242857D02*
X-6028571Y-26042857D01*
X-6714285Y-27242857D02*
X-6199999Y-26557142D01*
X-6714285Y-26042857D02*
X-6028571Y-26728571D01*
X-7628571Y-26614285D02*
X-7799999Y-26671428D01*
X-7857142Y-26728571D01*
X-7914285Y-26842857D01*
X-7914285Y-27014285D01*
X-7857142Y-27128571D01*
X-7799999Y-27185714D01*
X-7685714Y-27242857D01*
X-7228571Y-27242857D01*
X-7228571Y-26042857D01*
X-7628571Y-26042857D01*
X-7742857Y-26100000D01*
X-7799999Y-26157142D01*
X-7857142Y-26271428D01*
X-7857142Y-26385714D01*
X-7799999Y-26500000D01*
X-7742857Y-26557142D01*
X-7628571Y-26614285D01*
X-7228571Y-26614285D01*
X1828571Y-28042857D02*
X1428571Y-29242857D01*
X1028571Y-28042857D01*
X0Y-29242857D02*
X685714Y-29242857D01*
X342857Y-29242857D02*
X342857Y-28042857D01*
X457142Y-28214285D01*
X571428Y-28328571D01*
X685714Y-28385714D01*
X-514285Y-29128571D02*
X-571428Y-29185714D01*
X-514285Y-29242857D01*
X-457142Y-29185714D01*
X-514285Y-29128571D01*
X-514285Y-29242857D01*
X-1314285Y-28042857D02*
X-1428571Y-28042857D01*
X-1542857Y-28100000D01*
X-1599999Y-28157142D01*
X-1657142Y-28271428D01*
X-1714285Y-28500000D01*
X-1714285Y-28785714D01*
X-1657142Y-29014285D01*
X-1599999Y-29128571D01*
X-1542857Y-29185714D01*
X-1428571Y-29242857D01*
X-1314285Y-29242857D01*
X-1199999Y-29185714D01*
X-1142857Y-29128571D01*
X-1085714Y-29014285D01*
X-1028571Y-28785714D01*
X-1028571Y-28500000D01*
X-1085714Y-28271428D01*
X-1142857Y-28157142D01*
X-1199999Y-28100000D01*
X-1314285Y-28042857D01*
M02*
