G04 #@! TF.GenerationSoftware,KiCad,Pcbnew,(5.1.9-0-10_14)*
G04 #@! TF.CreationDate,2021-06-20T22:22:13+09:00*
G04 #@! TF.ProjectId,EB-STM32L412KB,45422d53-544d-4333-924c-3431324b422e,V1.0*
G04 #@! TF.SameCoordinates,Original*
G04 #@! TF.FileFunction,Paste,Top*
G04 #@! TF.FilePolarity,Positive*
%FSLAX46Y46*%
G04 Gerber Fmt 4.6, Leading zero omitted, Abs format (unit mm)*
G04 Created by KiCad (PCBNEW (5.1.9-0-10_14)) date 2021-06-20 22:22:13*
%MOMM*%
%LPD*%
G01*
G04 APERTURE LIST*
%ADD10R,0.650000X2.770000*%
%ADD11R,1.200000X1.800000*%
%ADD12R,1.500000X2.500000*%
%ADD13R,1.400000X0.150000*%
%ADD14R,0.350000X0.150000*%
%ADD15R,0.675000X0.200000*%
%ADD16R,0.200000X0.700000*%
%ADD17R,1.000000X1.600000*%
%ADD18R,2.100000X1.600000*%
%ADD19R,0.300000X1.750000*%
G04 APERTURE END LIST*
D10*
X-3910000Y2422000D03*
X-3910000Y5978000D03*
X-2640000Y2422000D03*
X-2640000Y5978000D03*
X-1370000Y2422000D03*
X-1370000Y5978000D03*
X-100000Y2422000D03*
X-100000Y5978000D03*
X1170000Y2422000D03*
X1170000Y5978000D03*
X2440000Y2422000D03*
X2440000Y5978000D03*
X3710000Y2422000D03*
X3710000Y5978000D03*
D11*
X1300000Y-13000000D03*
X-1300000Y-13000000D03*
G36*
G01*
X2700000Y-15075000D02*
X2900000Y-15075000D01*
G75*
G02*
X3000000Y-15175000I0J-100000D01*
G01*
X3000000Y-16475000D01*
G75*
G02*
X2900000Y-16575000I-100000J0D01*
G01*
X2700000Y-16575000D01*
G75*
G02*
X2600000Y-16475000I0J100000D01*
G01*
X2600000Y-15175000D01*
G75*
G02*
X2700000Y-15075000I100000J0D01*
G01*
G37*
G36*
G01*
X1900000Y-15075000D02*
X2100000Y-15075000D01*
G75*
G02*
X2200000Y-15175000I0J-100000D01*
G01*
X2200000Y-16475000D01*
G75*
G02*
X2100000Y-16575000I-100000J0D01*
G01*
X1900000Y-16575000D01*
G75*
G02*
X1800000Y-16475000I0J100000D01*
G01*
X1800000Y-15175000D01*
G75*
G02*
X1900000Y-15075000I100000J0D01*
G01*
G37*
G36*
G01*
X1100000Y-15075000D02*
X1300000Y-15075000D01*
G75*
G02*
X1400000Y-15175000I0J-100000D01*
G01*
X1400000Y-16475000D01*
G75*
G02*
X1300000Y-16575000I-100000J0D01*
G01*
X1100000Y-16575000D01*
G75*
G02*
X1000000Y-16475000I0J100000D01*
G01*
X1000000Y-15175000D01*
G75*
G02*
X1100000Y-15075000I100000J0D01*
G01*
G37*
G36*
G01*
X300000Y-15075000D02*
X500000Y-15075000D01*
G75*
G02*
X600000Y-15175000I0J-100000D01*
G01*
X600000Y-16475000D01*
G75*
G02*
X500000Y-16575000I-100000J0D01*
G01*
X300000Y-16575000D01*
G75*
G02*
X200000Y-16475000I0J100000D01*
G01*
X200000Y-15175000D01*
G75*
G02*
X300000Y-15075000I100000J0D01*
G01*
G37*
G36*
G01*
X-500000Y-15075000D02*
X-300000Y-15075000D01*
G75*
G02*
X-200000Y-15175000I0J-100000D01*
G01*
X-200000Y-16475000D01*
G75*
G02*
X-300000Y-16575000I-100000J0D01*
G01*
X-500000Y-16575000D01*
G75*
G02*
X-600000Y-16475000I0J100000D01*
G01*
X-600000Y-15175000D01*
G75*
G02*
X-500000Y-15075000I100000J0D01*
G01*
G37*
G36*
G01*
X-1300000Y-15075000D02*
X-1100000Y-15075000D01*
G75*
G02*
X-1000000Y-15175000I0J-100000D01*
G01*
X-1000000Y-16475000D01*
G75*
G02*
X-1100000Y-16575000I-100000J0D01*
G01*
X-1300000Y-16575000D01*
G75*
G02*
X-1400000Y-16475000I0J100000D01*
G01*
X-1400000Y-15175000D01*
G75*
G02*
X-1300000Y-15075000I100000J0D01*
G01*
G37*
G36*
G01*
X-2100000Y-15075000D02*
X-1900000Y-15075000D01*
G75*
G02*
X-1800000Y-15175000I0J-100000D01*
G01*
X-1800000Y-16475000D01*
G75*
G02*
X-1900000Y-16575000I-100000J0D01*
G01*
X-2100000Y-16575000D01*
G75*
G02*
X-2200000Y-16475000I0J100000D01*
G01*
X-2200000Y-15175000D01*
G75*
G02*
X-2100000Y-15075000I100000J0D01*
G01*
G37*
G36*
G01*
X-2900000Y-15075000D02*
X-2700000Y-15075000D01*
G75*
G02*
X-2600000Y-15175000I0J-100000D01*
G01*
X-2600000Y-16475000D01*
G75*
G02*
X-2700000Y-16575000I-100000J0D01*
G01*
X-2900000Y-16575000D01*
G75*
G02*
X-3000000Y-16475000I0J100000D01*
G01*
X-3000000Y-15175000D01*
G75*
G02*
X-2900000Y-15075000I100000J0D01*
G01*
G37*
G36*
G01*
X-4825000Y-17000000D02*
X-3525000Y-17000000D01*
G75*
G02*
X-3425000Y-17100000I0J-100000D01*
G01*
X-3425000Y-17300000D01*
G75*
G02*
X-3525000Y-17400000I-100000J0D01*
G01*
X-4825000Y-17400000D01*
G75*
G02*
X-4925000Y-17300000I0J100000D01*
G01*
X-4925000Y-17100000D01*
G75*
G02*
X-4825000Y-17000000I100000J0D01*
G01*
G37*
G36*
G01*
X-4825000Y-17800000D02*
X-3525000Y-17800000D01*
G75*
G02*
X-3425000Y-17900000I0J-100000D01*
G01*
X-3425000Y-18100000D01*
G75*
G02*
X-3525000Y-18200000I-100000J0D01*
G01*
X-4825000Y-18200000D01*
G75*
G02*
X-4925000Y-18100000I0J100000D01*
G01*
X-4925000Y-17900000D01*
G75*
G02*
X-4825000Y-17800000I100000J0D01*
G01*
G37*
G36*
G01*
X-4825000Y-18600000D02*
X-3525000Y-18600000D01*
G75*
G02*
X-3425000Y-18700000I0J-100000D01*
G01*
X-3425000Y-18900000D01*
G75*
G02*
X-3525000Y-19000000I-100000J0D01*
G01*
X-4825000Y-19000000D01*
G75*
G02*
X-4925000Y-18900000I0J100000D01*
G01*
X-4925000Y-18700000D01*
G75*
G02*
X-4825000Y-18600000I100000J0D01*
G01*
G37*
G36*
G01*
X-4825000Y-19400000D02*
X-3525000Y-19400000D01*
G75*
G02*
X-3425000Y-19500000I0J-100000D01*
G01*
X-3425000Y-19700000D01*
G75*
G02*
X-3525000Y-19800000I-100000J0D01*
G01*
X-4825000Y-19800000D01*
G75*
G02*
X-4925000Y-19700000I0J100000D01*
G01*
X-4925000Y-19500000D01*
G75*
G02*
X-4825000Y-19400000I100000J0D01*
G01*
G37*
G36*
G01*
X-4825000Y-20200000D02*
X-3525000Y-20200000D01*
G75*
G02*
X-3425000Y-20300000I0J-100000D01*
G01*
X-3425000Y-20500000D01*
G75*
G02*
X-3525000Y-20600000I-100000J0D01*
G01*
X-4825000Y-20600000D01*
G75*
G02*
X-4925000Y-20500000I0J100000D01*
G01*
X-4925000Y-20300000D01*
G75*
G02*
X-4825000Y-20200000I100000J0D01*
G01*
G37*
G36*
G01*
X-4825000Y-21000000D02*
X-3525000Y-21000000D01*
G75*
G02*
X-3425000Y-21100000I0J-100000D01*
G01*
X-3425000Y-21300000D01*
G75*
G02*
X-3525000Y-21400000I-100000J0D01*
G01*
X-4825000Y-21400000D01*
G75*
G02*
X-4925000Y-21300000I0J100000D01*
G01*
X-4925000Y-21100000D01*
G75*
G02*
X-4825000Y-21000000I100000J0D01*
G01*
G37*
G36*
G01*
X-4825000Y-21800000D02*
X-3525000Y-21800000D01*
G75*
G02*
X-3425000Y-21900000I0J-100000D01*
G01*
X-3425000Y-22100000D01*
G75*
G02*
X-3525000Y-22200000I-100000J0D01*
G01*
X-4825000Y-22200000D01*
G75*
G02*
X-4925000Y-22100000I0J100000D01*
G01*
X-4925000Y-21900000D01*
G75*
G02*
X-4825000Y-21800000I100000J0D01*
G01*
G37*
G36*
G01*
X-4825000Y-22600000D02*
X-3525000Y-22600000D01*
G75*
G02*
X-3425000Y-22700000I0J-100000D01*
G01*
X-3425000Y-22900000D01*
G75*
G02*
X-3525000Y-23000000I-100000J0D01*
G01*
X-4825000Y-23000000D01*
G75*
G02*
X-4925000Y-22900000I0J100000D01*
G01*
X-4925000Y-22700000D01*
G75*
G02*
X-4825000Y-22600000I100000J0D01*
G01*
G37*
G36*
G01*
X-2900000Y-23425000D02*
X-2700000Y-23425000D01*
G75*
G02*
X-2600000Y-23525000I0J-100000D01*
G01*
X-2600000Y-24825000D01*
G75*
G02*
X-2700000Y-24925000I-100000J0D01*
G01*
X-2900000Y-24925000D01*
G75*
G02*
X-3000000Y-24825000I0J100000D01*
G01*
X-3000000Y-23525000D01*
G75*
G02*
X-2900000Y-23425000I100000J0D01*
G01*
G37*
G36*
G01*
X-2100000Y-23425000D02*
X-1900000Y-23425000D01*
G75*
G02*
X-1800000Y-23525000I0J-100000D01*
G01*
X-1800000Y-24825000D01*
G75*
G02*
X-1900000Y-24925000I-100000J0D01*
G01*
X-2100000Y-24925000D01*
G75*
G02*
X-2200000Y-24825000I0J100000D01*
G01*
X-2200000Y-23525000D01*
G75*
G02*
X-2100000Y-23425000I100000J0D01*
G01*
G37*
G36*
G01*
X-1300000Y-23425000D02*
X-1100000Y-23425000D01*
G75*
G02*
X-1000000Y-23525000I0J-100000D01*
G01*
X-1000000Y-24825000D01*
G75*
G02*
X-1100000Y-24925000I-100000J0D01*
G01*
X-1300000Y-24925000D01*
G75*
G02*
X-1400000Y-24825000I0J100000D01*
G01*
X-1400000Y-23525000D01*
G75*
G02*
X-1300000Y-23425000I100000J0D01*
G01*
G37*
G36*
G01*
X-500000Y-23425000D02*
X-300000Y-23425000D01*
G75*
G02*
X-200000Y-23525000I0J-100000D01*
G01*
X-200000Y-24825000D01*
G75*
G02*
X-300000Y-24925000I-100000J0D01*
G01*
X-500000Y-24925000D01*
G75*
G02*
X-600000Y-24825000I0J100000D01*
G01*
X-600000Y-23525000D01*
G75*
G02*
X-500000Y-23425000I100000J0D01*
G01*
G37*
G36*
G01*
X300000Y-23425000D02*
X500000Y-23425000D01*
G75*
G02*
X600000Y-23525000I0J-100000D01*
G01*
X600000Y-24825000D01*
G75*
G02*
X500000Y-24925000I-100000J0D01*
G01*
X300000Y-24925000D01*
G75*
G02*
X200000Y-24825000I0J100000D01*
G01*
X200000Y-23525000D01*
G75*
G02*
X300000Y-23425000I100000J0D01*
G01*
G37*
G36*
G01*
X1100000Y-23425000D02*
X1300000Y-23425000D01*
G75*
G02*
X1400000Y-23525000I0J-100000D01*
G01*
X1400000Y-24825000D01*
G75*
G02*
X1300000Y-24925000I-100000J0D01*
G01*
X1100000Y-24925000D01*
G75*
G02*
X1000000Y-24825000I0J100000D01*
G01*
X1000000Y-23525000D01*
G75*
G02*
X1100000Y-23425000I100000J0D01*
G01*
G37*
G36*
G01*
X1900000Y-23425000D02*
X2100000Y-23425000D01*
G75*
G02*
X2200000Y-23525000I0J-100000D01*
G01*
X2200000Y-24825000D01*
G75*
G02*
X2100000Y-24925000I-100000J0D01*
G01*
X1900000Y-24925000D01*
G75*
G02*
X1800000Y-24825000I0J100000D01*
G01*
X1800000Y-23525000D01*
G75*
G02*
X1900000Y-23425000I100000J0D01*
G01*
G37*
G36*
G01*
X2700000Y-23425000D02*
X2900000Y-23425000D01*
G75*
G02*
X3000000Y-23525000I0J-100000D01*
G01*
X3000000Y-24825000D01*
G75*
G02*
X2900000Y-24925000I-100000J0D01*
G01*
X2700000Y-24925000D01*
G75*
G02*
X2600000Y-24825000I0J100000D01*
G01*
X2600000Y-23525000D01*
G75*
G02*
X2700000Y-23425000I100000J0D01*
G01*
G37*
G36*
G01*
X3525000Y-22600000D02*
X4825000Y-22600000D01*
G75*
G02*
X4925000Y-22700000I0J-100000D01*
G01*
X4925000Y-22900000D01*
G75*
G02*
X4825000Y-23000000I-100000J0D01*
G01*
X3525000Y-23000000D01*
G75*
G02*
X3425000Y-22900000I0J100000D01*
G01*
X3425000Y-22700000D01*
G75*
G02*
X3525000Y-22600000I100000J0D01*
G01*
G37*
G36*
G01*
X3525000Y-21800000D02*
X4825000Y-21800000D01*
G75*
G02*
X4925000Y-21900000I0J-100000D01*
G01*
X4925000Y-22100000D01*
G75*
G02*
X4825000Y-22200000I-100000J0D01*
G01*
X3525000Y-22200000D01*
G75*
G02*
X3425000Y-22100000I0J100000D01*
G01*
X3425000Y-21900000D01*
G75*
G02*
X3525000Y-21800000I100000J0D01*
G01*
G37*
G36*
G01*
X3525000Y-21000000D02*
X4825000Y-21000000D01*
G75*
G02*
X4925000Y-21100000I0J-100000D01*
G01*
X4925000Y-21300000D01*
G75*
G02*
X4825000Y-21400000I-100000J0D01*
G01*
X3525000Y-21400000D01*
G75*
G02*
X3425000Y-21300000I0J100000D01*
G01*
X3425000Y-21100000D01*
G75*
G02*
X3525000Y-21000000I100000J0D01*
G01*
G37*
G36*
G01*
X3525000Y-20200000D02*
X4825000Y-20200000D01*
G75*
G02*
X4925000Y-20300000I0J-100000D01*
G01*
X4925000Y-20500000D01*
G75*
G02*
X4825000Y-20600000I-100000J0D01*
G01*
X3525000Y-20600000D01*
G75*
G02*
X3425000Y-20500000I0J100000D01*
G01*
X3425000Y-20300000D01*
G75*
G02*
X3525000Y-20200000I100000J0D01*
G01*
G37*
G36*
G01*
X3525000Y-19400000D02*
X4825000Y-19400000D01*
G75*
G02*
X4925000Y-19500000I0J-100000D01*
G01*
X4925000Y-19700000D01*
G75*
G02*
X4825000Y-19800000I-100000J0D01*
G01*
X3525000Y-19800000D01*
G75*
G02*
X3425000Y-19700000I0J100000D01*
G01*
X3425000Y-19500000D01*
G75*
G02*
X3525000Y-19400000I100000J0D01*
G01*
G37*
G36*
G01*
X3525000Y-18600000D02*
X4825000Y-18600000D01*
G75*
G02*
X4925000Y-18700000I0J-100000D01*
G01*
X4925000Y-18900000D01*
G75*
G02*
X4825000Y-19000000I-100000J0D01*
G01*
X3525000Y-19000000D01*
G75*
G02*
X3425000Y-18900000I0J100000D01*
G01*
X3425000Y-18700000D01*
G75*
G02*
X3525000Y-18600000I100000J0D01*
G01*
G37*
G36*
G01*
X3525000Y-17800000D02*
X4825000Y-17800000D01*
G75*
G02*
X4925000Y-17900000I0J-100000D01*
G01*
X4925000Y-18100000D01*
G75*
G02*
X4825000Y-18200000I-100000J0D01*
G01*
X3525000Y-18200000D01*
G75*
G02*
X3425000Y-18100000I0J100000D01*
G01*
X3425000Y-17900000D01*
G75*
G02*
X3525000Y-17800000I100000J0D01*
G01*
G37*
G36*
G01*
X3525000Y-17000000D02*
X4825000Y-17000000D01*
G75*
G02*
X4925000Y-17100000I0J-100000D01*
G01*
X4925000Y-17300000D01*
G75*
G02*
X4825000Y-17400000I-100000J0D01*
G01*
X3525000Y-17400000D01*
G75*
G02*
X3425000Y-17300000I0J100000D01*
G01*
X3425000Y-17100000D01*
G75*
G02*
X3525000Y-17000000I100000J0D01*
G01*
G37*
D12*
X2500000Y-5000000D03*
D13*
X4300000Y-3750000D03*
X4300000Y-4250000D03*
X4300000Y-4750000D03*
X4300000Y-5250000D03*
X4300000Y-5750000D03*
X4300000Y-6250000D03*
X700000Y-6250000D03*
X700000Y-5750000D03*
X700000Y-5250000D03*
X700000Y-4750000D03*
X700000Y-4250000D03*
X700000Y-3750000D03*
D14*
X1575000Y-5750000D03*
D15*
X1712500Y-2275000D03*
X1712500Y-1725000D03*
D16*
X2500000Y-1350000D03*
D15*
X3287500Y-1725000D03*
X3287500Y-2275000D03*
D16*
X2500000Y-2650000D03*
D17*
X-2200000Y-28500000D03*
X2200000Y-28500000D03*
G36*
G01*
X-2150000Y-4175000D02*
X-2150000Y-4625000D01*
G75*
G02*
X-2375000Y-4850000I-225000J0D01*
G01*
X-2925000Y-4850000D01*
G75*
G02*
X-3150000Y-4625000I0J225000D01*
G01*
X-3150000Y-4175000D01*
G75*
G02*
X-2925000Y-3950000I225000J0D01*
G01*
X-2375000Y-3950000D01*
G75*
G02*
X-2150000Y-4175000I0J-225000D01*
G01*
G37*
G36*
G01*
X-3850000Y-4175000D02*
X-3850000Y-4625000D01*
G75*
G02*
X-4075000Y-4850000I-225000J0D01*
G01*
X-4625000Y-4850000D01*
G75*
G02*
X-4850000Y-4625000I0J225000D01*
G01*
X-4850000Y-4175000D01*
G75*
G02*
X-4625000Y-3950000I225000J0D01*
G01*
X-4075000Y-3950000D01*
G75*
G02*
X-3850000Y-4175000I0J-225000D01*
G01*
G37*
G36*
G01*
X-7850000Y8775000D02*
X-7850000Y9225000D01*
G75*
G02*
X-7625000Y9450000I225000J0D01*
G01*
X-7075000Y9450000D01*
G75*
G02*
X-6850000Y9225000I0J-225000D01*
G01*
X-6850000Y8775000D01*
G75*
G02*
X-7075000Y8550000I-225000J0D01*
G01*
X-7625000Y8550000D01*
G75*
G02*
X-7850000Y8775000I0J225000D01*
G01*
G37*
G36*
G01*
X-6150000Y8775000D02*
X-6150000Y9225000D01*
G75*
G02*
X-5925000Y9450000I225000J0D01*
G01*
X-5375000Y9450000D01*
G75*
G02*
X-5150000Y9225000I0J-225000D01*
G01*
X-5150000Y8775000D01*
G75*
G02*
X-5375000Y8550000I-225000J0D01*
G01*
X-5925000Y8550000D01*
G75*
G02*
X-6150000Y8775000I0J225000D01*
G01*
G37*
G36*
G01*
X5150000Y8775000D02*
X5150000Y9225000D01*
G75*
G02*
X5375000Y9450000I225000J0D01*
G01*
X5925000Y9450000D01*
G75*
G02*
X6150000Y9225000I0J-225000D01*
G01*
X6150000Y8775000D01*
G75*
G02*
X5925000Y8550000I-225000J0D01*
G01*
X5375000Y8550000D01*
G75*
G02*
X5150000Y8775000I0J225000D01*
G01*
G37*
G36*
G01*
X6850000Y8775000D02*
X6850000Y9225000D01*
G75*
G02*
X7075000Y9450000I225000J0D01*
G01*
X7625000Y9450000D01*
G75*
G02*
X7850000Y9225000I0J-225000D01*
G01*
X7850000Y8775000D01*
G75*
G02*
X7625000Y8550000I-225000J0D01*
G01*
X7075000Y8550000D01*
G75*
G02*
X6850000Y8775000I0J225000D01*
G01*
G37*
D18*
X-3100000Y12450000D03*
X3100000Y12450000D03*
D19*
X-1300000Y12125000D03*
X-650000Y12125000D03*
X0Y12125000D03*
X650000Y12125000D03*
X1300000Y12125000D03*
G36*
G01*
X7850000Y10725000D02*
X7850000Y10275000D01*
G75*
G02*
X7625000Y10050000I-225000J0D01*
G01*
X7075000Y10050000D01*
G75*
G02*
X6850000Y10275000I0J225000D01*
G01*
X6850000Y10725000D01*
G75*
G02*
X7075000Y10950000I225000J0D01*
G01*
X7625000Y10950000D01*
G75*
G02*
X7850000Y10725000I0J-225000D01*
G01*
G37*
G36*
G01*
X6150000Y10725000D02*
X6150000Y10275000D01*
G75*
G02*
X5925000Y10050000I-225000J0D01*
G01*
X5375000Y10050000D01*
G75*
G02*
X5150000Y10275000I0J225000D01*
G01*
X5150000Y10725000D01*
G75*
G02*
X5375000Y10950000I225000J0D01*
G01*
X5925000Y10950000D01*
G75*
G02*
X6150000Y10725000I0J-225000D01*
G01*
G37*
G36*
G01*
X-2150000Y-5675000D02*
X-2150000Y-6125000D01*
G75*
G02*
X-2375000Y-6350000I-225000J0D01*
G01*
X-2925000Y-6350000D01*
G75*
G02*
X-3150000Y-6125000I0J225000D01*
G01*
X-3150000Y-5675000D01*
G75*
G02*
X-2925000Y-5450000I225000J0D01*
G01*
X-2375000Y-5450000D01*
G75*
G02*
X-2150000Y-5675000I0J-225000D01*
G01*
G37*
G36*
G01*
X-3850000Y-5675000D02*
X-3850000Y-6125000D01*
G75*
G02*
X-4075000Y-6350000I-225000J0D01*
G01*
X-4625000Y-6350000D01*
G75*
G02*
X-4850000Y-6125000I0J225000D01*
G01*
X-4850000Y-5675000D01*
G75*
G02*
X-4625000Y-5450000I225000J0D01*
G01*
X-4075000Y-5450000D01*
G75*
G02*
X-3850000Y-5675000I0J-225000D01*
G01*
G37*
G36*
G01*
X-5150000Y10725000D02*
X-5150000Y10275000D01*
G75*
G02*
X-5375000Y10050000I-225000J0D01*
G01*
X-5925000Y10050000D01*
G75*
G02*
X-6150000Y10275000I0J225000D01*
G01*
X-6150000Y10725000D01*
G75*
G02*
X-5925000Y10950000I225000J0D01*
G01*
X-5375000Y10950000D01*
G75*
G02*
X-5150000Y10725000I0J-225000D01*
G01*
G37*
G36*
G01*
X-6850000Y10725000D02*
X-6850000Y10275000D01*
G75*
G02*
X-7075000Y10050000I-225000J0D01*
G01*
X-7625000Y10050000D01*
G75*
G02*
X-7850000Y10275000I0J225000D01*
G01*
X-7850000Y10725000D01*
G75*
G02*
X-7625000Y10950000I225000J0D01*
G01*
X-7075000Y10950000D01*
G75*
G02*
X-6850000Y10725000I0J-225000D01*
G01*
G37*
G36*
G01*
X-1900000Y-11550000D02*
X-1900000Y-11250000D01*
G75*
G02*
X-1750000Y-11100000I150000J0D01*
G01*
X-1450000Y-11100000D01*
G75*
G02*
X-1300000Y-11250000I0J-150000D01*
G01*
X-1300000Y-11550000D01*
G75*
G02*
X-1450000Y-11700000I-150000J0D01*
G01*
X-1750000Y-11700000D01*
G75*
G02*
X-1900000Y-11550000I0J150000D01*
G01*
G37*
G36*
G01*
X-900000Y-11550000D02*
X-900000Y-11250000D01*
G75*
G02*
X-750000Y-11100000I150000J0D01*
G01*
X-450000Y-11100000D01*
G75*
G02*
X-300000Y-11250000I0J-150000D01*
G01*
X-300000Y-11550000D01*
G75*
G02*
X-450000Y-11700000I-150000J0D01*
G01*
X-750000Y-11700000D01*
G75*
G02*
X-900000Y-11550000I0J150000D01*
G01*
G37*
G36*
G01*
X1900000Y-11250000D02*
X1900000Y-11550000D01*
G75*
G02*
X1750000Y-11700000I-150000J0D01*
G01*
X1450000Y-11700000D01*
G75*
G02*
X1300000Y-11550000I0J150000D01*
G01*
X1300000Y-11250000D01*
G75*
G02*
X1450000Y-11100000I150000J0D01*
G01*
X1750000Y-11100000D01*
G75*
G02*
X1900000Y-11250000I0J-150000D01*
G01*
G37*
G36*
G01*
X900000Y-11250000D02*
X900000Y-11550000D01*
G75*
G02*
X750000Y-11700000I-150000J0D01*
G01*
X450000Y-11700000D01*
G75*
G02*
X300000Y-11550000I0J150000D01*
G01*
X300000Y-11250000D01*
G75*
G02*
X450000Y-11100000I150000J0D01*
G01*
X750000Y-11100000D01*
G75*
G02*
X900000Y-11250000I0J-150000D01*
G01*
G37*
G36*
G01*
X-4525000Y-27150000D02*
X-4075000Y-27150000D01*
G75*
G02*
X-3850000Y-27375000I0J-225000D01*
G01*
X-3850000Y-27925000D01*
G75*
G02*
X-4075000Y-28150000I-225000J0D01*
G01*
X-4525000Y-28150000D01*
G75*
G02*
X-4750000Y-27925000I0J225000D01*
G01*
X-4750000Y-27375000D01*
G75*
G02*
X-4525000Y-27150000I225000J0D01*
G01*
G37*
G36*
G01*
X-4525000Y-28850000D02*
X-4075000Y-28850000D01*
G75*
G02*
X-3850000Y-29075000I0J-225000D01*
G01*
X-3850000Y-29625000D01*
G75*
G02*
X-4075000Y-29850000I-225000J0D01*
G01*
X-4525000Y-29850000D01*
G75*
G02*
X-4750000Y-29625000I0J225000D01*
G01*
X-4750000Y-29075000D01*
G75*
G02*
X-4525000Y-28850000I225000J0D01*
G01*
G37*
G36*
G01*
X3975000Y-11150000D02*
X4425000Y-11150000D01*
G75*
G02*
X4650000Y-11375000I0J-225000D01*
G01*
X4650000Y-11925000D01*
G75*
G02*
X4425000Y-12150000I-225000J0D01*
G01*
X3975000Y-12150000D01*
G75*
G02*
X3750000Y-11925000I0J225000D01*
G01*
X3750000Y-11375000D01*
G75*
G02*
X3975000Y-11150000I225000J0D01*
G01*
G37*
G36*
G01*
X3975000Y-12850000D02*
X4425000Y-12850000D01*
G75*
G02*
X4650000Y-13075000I0J-225000D01*
G01*
X4650000Y-13625000D01*
G75*
G02*
X4425000Y-13850000I-225000J0D01*
G01*
X3975000Y-13850000D01*
G75*
G02*
X3750000Y-13625000I0J225000D01*
G01*
X3750000Y-13075000D01*
G75*
G02*
X3975000Y-12850000I225000J0D01*
G01*
G37*
G36*
G01*
X-2150000Y-1175000D02*
X-2150000Y-1625000D01*
G75*
G02*
X-2375000Y-1850000I-225000J0D01*
G01*
X-2925000Y-1850000D01*
G75*
G02*
X-3150000Y-1625000I0J225000D01*
G01*
X-3150000Y-1175000D01*
G75*
G02*
X-2925000Y-950000I225000J0D01*
G01*
X-2375000Y-950000D01*
G75*
G02*
X-2150000Y-1175000I0J-225000D01*
G01*
G37*
G36*
G01*
X-3850000Y-1175000D02*
X-3850000Y-1625000D01*
G75*
G02*
X-4075000Y-1850000I-225000J0D01*
G01*
X-4625000Y-1850000D01*
G75*
G02*
X-4850000Y-1625000I0J225000D01*
G01*
X-4850000Y-1175000D01*
G75*
G02*
X-4625000Y-950000I225000J0D01*
G01*
X-4075000Y-950000D01*
G75*
G02*
X-3850000Y-1175000I0J-225000D01*
G01*
G37*
G36*
G01*
X-2150000Y-2675000D02*
X-2150000Y-3125000D01*
G75*
G02*
X-2375000Y-3350000I-225000J0D01*
G01*
X-2925000Y-3350000D01*
G75*
G02*
X-3150000Y-3125000I0J225000D01*
G01*
X-3150000Y-2675000D01*
G75*
G02*
X-2925000Y-2450000I225000J0D01*
G01*
X-2375000Y-2450000D01*
G75*
G02*
X-2150000Y-2675000I0J-225000D01*
G01*
G37*
G36*
G01*
X-3850000Y-2675000D02*
X-3850000Y-3125000D01*
G75*
G02*
X-4075000Y-3350000I-225000J0D01*
G01*
X-4625000Y-3350000D01*
G75*
G02*
X-4850000Y-3125000I0J225000D01*
G01*
X-4850000Y-2675000D01*
G75*
G02*
X-4625000Y-2450000I225000J0D01*
G01*
X-4075000Y-2450000D01*
G75*
G02*
X-3850000Y-2675000I0J-225000D01*
G01*
G37*
M02*
