M48
; DRILL file {KiCad (5.1.9-0-10_14)} date Sunday, June 20, 2021 at 10:22:24 PM
; FORMAT={-:-/ absolute / metric / decimal}
; #@! TF.CreationDate,2021-06-20T22:22:24+09:00
; #@! TF.GenerationSoftware,Kicad,Pcbnew,(5.1.9-0-10_14)
FMAT,2
METRIC
T1C0.305
T2C0.800
T3C1.000
T4C0.750
%
G90
G05
T1
X-7.05Y-0.8
X-4.0Y9.5
X-4.0Y8.5
X-3.1Y-27.2
X-1.425Y-4.4
X-1.4Y-5.35
X-0.5Y9.5
X-0.5Y-1.0
X-0.5Y-19.5
X0.0Y-9.0
X0.0Y-31.0
X0.45Y-17.165
X0.5Y9.5
X0.5Y-1.0
X0.75Y-18.75
X1.0Y-3.0
X1.1Y-21.35
X1.2Y0.5
X2.45Y0.5
X2.7Y-22.6
X4.0Y9.5
X4.0Y8.5
X4.5Y-1.5
X4.8Y0.0
X5.85Y-0.5
X6.0Y-4.5
T2
X-8.89Y0.0
X-8.89Y-2.54
X-8.89Y-5.08
X-8.89Y-7.62
X-8.89Y-10.16
X-8.89Y-12.7
X-8.89Y-15.24
X-8.89Y-17.78
X-8.89Y-20.32
X-8.89Y-22.86
X-8.89Y-25.4
X-8.89Y-27.94
X-8.89Y-30.48
X-3.25Y15.0
X3.25Y15.0
X8.89Y0.0
X8.89Y-2.54
X8.89Y-5.08
X8.89Y-7.62
X8.89Y-10.16
X8.89Y-12.7
X8.89Y-15.24
X8.89Y-17.78
X8.89Y-20.32
X8.89Y-22.86
X8.89Y-25.4
X8.89Y-27.94
X8.89Y-30.48
T3
X-8.89Y15.24
X-2.54Y-8.89
X2.54Y-8.89
X8.89Y15.24
T4
X0.0Y-27.6
X0.0Y-29.4
T0
M30
