G04 #@! TF.GenerationSoftware,KiCad,Pcbnew,(6.0.9)*
G04 #@! TF.CreationDate,2022-12-10T19:39:28+09:00*
G04 #@! TF.ProjectId,EB-STM32L412KB,45422d53-544d-4333-924c-3431324b422e,V2.0*
G04 #@! TF.SameCoordinates,Original*
G04 #@! TF.FileFunction,Legend,Bot*
G04 #@! TF.FilePolarity,Positive*
%FSLAX46Y46*%
G04 Gerber Fmt 4.6, Leading zero omitted, Abs format (unit mm)*
G04 Created by KiCad (PCBNEW (6.0.9)) date 2022-12-10 19:39:28*
%MOMM*%
%LPD*%
G01*
G04 APERTURE LIST*
%ADD10C,0.200000*%
G04 APERTURE END LIST*
D10*
X7857142Y8451714D02*
X7457142Y8451714D01*
X7285714Y7823142D02*
X7857142Y7823142D01*
X7857142Y9023142D01*
X7285714Y9023142D01*
X6371428Y8451714D02*
X6200000Y8394571D01*
X6142857Y8337428D01*
X6085714Y8223142D01*
X6085714Y8051714D01*
X6142857Y7937428D01*
X6200000Y7880285D01*
X6314285Y7823142D01*
X6771428Y7823142D01*
X6771428Y9023142D01*
X6371428Y9023142D01*
X6257142Y8966000D01*
X6200000Y8908857D01*
X6142857Y8794571D01*
X6142857Y8680285D01*
X6200000Y8566000D01*
X6257142Y8508857D01*
X6371428Y8451714D01*
X6771428Y8451714D01*
X5571428Y8280285D02*
X4657142Y8280285D01*
X4142857Y7880285D02*
X3971428Y7823142D01*
X3685714Y7823142D01*
X3571428Y7880285D01*
X3514285Y7937428D01*
X3457142Y8051714D01*
X3457142Y8166000D01*
X3514285Y8280285D01*
X3571428Y8337428D01*
X3685714Y8394571D01*
X3914285Y8451714D01*
X4028571Y8508857D01*
X4085714Y8566000D01*
X4142857Y8680285D01*
X4142857Y8794571D01*
X4085714Y8908857D01*
X4028571Y8966000D01*
X3914285Y9023142D01*
X3628571Y9023142D01*
X3457142Y8966000D01*
X3114285Y9023142D02*
X2428571Y9023142D01*
X2771428Y7823142D02*
X2771428Y9023142D01*
X2028571Y7823142D02*
X2028571Y9023142D01*
X1628571Y8166000D01*
X1228571Y9023142D01*
X1228571Y7823142D01*
X771428Y9023142D02*
X28571Y9023142D01*
X428571Y8566000D01*
X257142Y8566000D01*
X142857Y8508857D01*
X85714Y8451714D01*
X28571Y8337428D01*
X28571Y8051714D01*
X85714Y7937428D01*
X142857Y7880285D01*
X257142Y7823142D01*
X600000Y7823142D01*
X714285Y7880285D01*
X771428Y7937428D01*
X-428571Y8908857D02*
X-485714Y8966000D01*
X-599999Y9023142D01*
X-885714Y9023142D01*
X-999999Y8966000D01*
X-1057142Y8908857D01*
X-1114285Y8794571D01*
X-1114285Y8680285D01*
X-1057142Y8508857D01*
X-371428Y7823142D01*
X-1114285Y7823142D01*
X-2199999Y7823142D02*
X-1628571Y7823142D01*
X-1628571Y9023142D01*
X-3114285Y8623142D02*
X-3114285Y7823142D01*
X-2828571Y9080285D02*
X-2542857Y8223142D01*
X-3285714Y8223142D01*
X-4371428Y7823142D02*
X-3685714Y7823142D01*
X-4028571Y7823142D02*
X-4028571Y9023142D01*
X-3914285Y8851714D01*
X-3799999Y8737428D01*
X-3685714Y8680285D01*
X-4828571Y8908857D02*
X-4885714Y8966000D01*
X-4999999Y9023142D01*
X-5285714Y9023142D01*
X-5399999Y8966000D01*
X-5457142Y8908857D01*
X-5514285Y8794571D01*
X-5514285Y8680285D01*
X-5457142Y8508857D01*
X-4771428Y7823142D01*
X-5514285Y7823142D01*
X-6028571Y7823142D02*
X-6028571Y9023142D01*
X-6714285Y7823142D02*
X-6199999Y8508857D01*
X-6714285Y9023142D02*
X-6028571Y8337428D01*
X-7628571Y8451714D02*
X-7799999Y8394571D01*
X-7857142Y8337428D01*
X-7914285Y8223142D01*
X-7914285Y8051714D01*
X-7857142Y7937428D01*
X-7799999Y7880285D01*
X-7685714Y7823142D01*
X-7228571Y7823142D01*
X-7228571Y9023142D01*
X-7628571Y9023142D01*
X-7742857Y8966000D01*
X-7799999Y8908857D01*
X-7857142Y8794571D01*
X-7857142Y8680285D01*
X-7799999Y8566000D01*
X-7742857Y8508857D01*
X-7628571Y8451714D01*
X-7228571Y8451714D01*
X1828571Y7091142D02*
X1428571Y5891142D01*
X1028571Y7091142D01*
X0Y5891142D02*
X685714Y5891142D01*
X342857Y5891142D02*
X342857Y7091142D01*
X457142Y6919714D01*
X571428Y6805428D01*
X685714Y6748285D01*
X-514285Y6005428D02*
X-571428Y5948285D01*
X-514285Y5891142D01*
X-457142Y5948285D01*
X-514285Y6005428D01*
X-514285Y5891142D01*
X-1314285Y7091142D02*
X-1428571Y7091142D01*
X-1542857Y7034000D01*
X-1599999Y6976857D01*
X-1657142Y6862571D01*
X-1714285Y6634000D01*
X-1714285Y6348285D01*
X-1657142Y6119714D01*
X-1599999Y6005428D01*
X-1542857Y5948285D01*
X-1428571Y5891142D01*
X-1314285Y5891142D01*
X-1199999Y5948285D01*
X-1142857Y6005428D01*
X-1085714Y6119714D01*
X-1028571Y6348285D01*
X-1028571Y6634000D01*
X-1085714Y6862571D01*
X-1142857Y6976857D01*
X-1199999Y7034000D01*
X-1314285Y7091142D01*
M02*
