M48
; DRILL file {KiCad (6.0.9)} date Sat Dec 10 19:30:17 2022
; FORMAT={-:-/ absolute / inch / decimal}
; #@! TF.CreationDate,2022-12-10T19:30:17+09:00
; #@! TF.GenerationSoftware,Kicad,Pcbnew,(6.0.9)
; #@! TF.FileFunction,MixedPlating,1,2
FMAT,2
INCH
; #@! TA.AperFunction,Plated,PTH,ViaDrill
T1C0.0120
; #@! TA.AperFunction,Plated,PTH,ComponentDrill
T2C0.0315
; #@! TA.AperFunction,Plated,PTH,ComponentDrill
T3C0.0394
; #@! TA.AperFunction,NonPlated,NPTH,ComponentDrill
T4C0.0295
%
G90
G05
T1
X-0.1102Y-1.0
X-0.0796Y-1.0544
X-0.0642Y-0.106
X-0.0616Y-0.7073
X-0.0347Y-0.1416
X-0.0316Y-0.1096
X-0.0276Y-1.2205
X-0.0039Y0.3931
X0.0039Y-0.7267
X0.0324Y-0.0463
X0.0712Y-0.7037
X0.122Y-0.988
X0.1306Y-0.127
X0.1629Y-0.0665
X0.1693Y-0.9843
X0.189Y-0.1024
X0.2101Y-0.2655
X0.2181Y-0.1919
X0.2441Y-0.126
T2
X-0.35Y0.0
X-0.35Y-0.1
X-0.35Y-0.2
X-0.35Y-0.3
X-0.35Y-0.4
X-0.35Y-0.5
X-0.35Y-0.6
X-0.35Y-0.7
X-0.35Y-0.8
X-0.35Y-0.9
X-0.35Y-1.0
X-0.35Y-1.1
X-0.35Y-1.2
X-0.35Y-1.3
X-0.128Y0.5906
X-0.0984Y-0.3524
X-0.0984Y-0.4823
X0.0Y-0.3524
X0.0Y-0.4823
X0.0984Y-0.3524
X0.0984Y-0.4823
X0.128Y0.5906
X0.35Y0.0
X0.35Y-0.1
X0.35Y-0.2
X0.35Y-0.3
X0.35Y-0.4
X0.35Y-0.5
X0.35Y-0.6
X0.35Y-0.7
X0.35Y-0.8
X0.35Y-0.9
X0.35Y-1.0
X0.35Y-1.1
X0.35Y-1.2
X0.35Y-1.3
T3
X-0.35Y0.6
X0.35Y0.6
T4
X0.0Y-1.185
X0.0Y-1.2559
T0
M30
