G04 #@! TF.GenerationSoftware,KiCad,Pcbnew,(5.1.9-0-10_14)*
G04 #@! TF.CreationDate,2021-06-20T22:22:13+09:00*
G04 #@! TF.ProjectId,EB-STM32L412KB,45422d53-544d-4333-924c-3431324b422e,V1.0*
G04 #@! TF.SameCoordinates,Original*
G04 #@! TF.FileFunction,Copper,L1,Top*
G04 #@! TF.FilePolarity,Positive*
%FSLAX46Y46*%
G04 Gerber Fmt 4.6, Leading zero omitted, Abs format (unit mm)*
G04 Created by KiCad (PCBNEW (5.1.9-0-10_14)) date 2021-06-20 22:22:13*
%MOMM*%
%LPD*%
G01*
G04 APERTURE LIST*
G04 #@! TA.AperFunction,SMDPad,CuDef*
%ADD10R,0.650000X2.770000*%
G04 #@! TD*
G04 #@! TA.AperFunction,ComponentPad*
%ADD11C,1.600000*%
G04 #@! TD*
G04 #@! TA.AperFunction,ComponentPad*
%ADD12R,1.600000X1.600000*%
G04 #@! TD*
G04 #@! TA.AperFunction,SMDPad,CuDef*
%ADD13R,1.200000X1.800000*%
G04 #@! TD*
G04 #@! TA.AperFunction,SMDPad,CuDef*
%ADD14R,1.500000X2.500000*%
G04 #@! TD*
G04 #@! TA.AperFunction,SMDPad,CuDef*
%ADD15R,1.400000X0.150000*%
G04 #@! TD*
G04 #@! TA.AperFunction,SMDPad,CuDef*
%ADD16R,0.350000X0.150000*%
G04 #@! TD*
G04 #@! TA.AperFunction,SMDPad,CuDef*
%ADD17R,0.675000X0.200000*%
G04 #@! TD*
G04 #@! TA.AperFunction,SMDPad,CuDef*
%ADD18R,0.200000X0.700000*%
G04 #@! TD*
G04 #@! TA.AperFunction,SMDPad,CuDef*
%ADD19R,1.000000X1.600000*%
G04 #@! TD*
G04 #@! TA.AperFunction,ComponentPad*
%ADD20R,1.800000X1.900000*%
G04 #@! TD*
G04 #@! TA.AperFunction,SMDPad,CuDef*
%ADD21R,2.100000X1.600000*%
G04 #@! TD*
G04 #@! TA.AperFunction,SMDPad,CuDef*
%ADD22R,0.300000X1.750000*%
G04 #@! TD*
G04 #@! TA.AperFunction,ViaPad*
%ADD23C,0.609600*%
G04 #@! TD*
G04 #@! TA.AperFunction,Conductor*
%ADD24C,0.203200*%
G04 #@! TD*
G04 #@! TA.AperFunction,Conductor*
%ADD25C,0.254000*%
G04 #@! TD*
G04 #@! TA.AperFunction,Conductor*
%ADD26C,0.100000*%
G04 #@! TD*
G04 APERTURE END LIST*
D10*
X-3910000Y2422000D03*
X-3910000Y5978000D03*
X-2640000Y2422000D03*
X-2640000Y5978000D03*
X-1370000Y2422000D03*
X-1370000Y5978000D03*
X-100000Y2422000D03*
X-100000Y5978000D03*
X1170000Y2422000D03*
X1170000Y5978000D03*
X2440000Y2422000D03*
X2440000Y5978000D03*
X3710000Y2422000D03*
X3710000Y5978000D03*
D11*
X2540000Y-8890000D03*
X-2540000Y-8890000D03*
D12*
X8890000Y15240000D03*
X-8890000Y15240000D03*
D13*
X1300000Y-13000000D03*
X-1300000Y-13000000D03*
G04 #@! TA.AperFunction,SMDPad,CuDef*
G36*
G01*
X2700000Y-15075000D02*
X2900000Y-15075000D01*
G75*
G02*
X3000000Y-15175000I0J-100000D01*
G01*
X3000000Y-16475000D01*
G75*
G02*
X2900000Y-16575000I-100000J0D01*
G01*
X2700000Y-16575000D01*
G75*
G02*
X2600000Y-16475000I0J100000D01*
G01*
X2600000Y-15175000D01*
G75*
G02*
X2700000Y-15075000I100000J0D01*
G01*
G37*
G04 #@! TD.AperFunction*
G04 #@! TA.AperFunction,SMDPad,CuDef*
G36*
G01*
X1900000Y-15075000D02*
X2100000Y-15075000D01*
G75*
G02*
X2200000Y-15175000I0J-100000D01*
G01*
X2200000Y-16475000D01*
G75*
G02*
X2100000Y-16575000I-100000J0D01*
G01*
X1900000Y-16575000D01*
G75*
G02*
X1800000Y-16475000I0J100000D01*
G01*
X1800000Y-15175000D01*
G75*
G02*
X1900000Y-15075000I100000J0D01*
G01*
G37*
G04 #@! TD.AperFunction*
G04 #@! TA.AperFunction,SMDPad,CuDef*
G36*
G01*
X1100000Y-15075000D02*
X1300000Y-15075000D01*
G75*
G02*
X1400000Y-15175000I0J-100000D01*
G01*
X1400000Y-16475000D01*
G75*
G02*
X1300000Y-16575000I-100000J0D01*
G01*
X1100000Y-16575000D01*
G75*
G02*
X1000000Y-16475000I0J100000D01*
G01*
X1000000Y-15175000D01*
G75*
G02*
X1100000Y-15075000I100000J0D01*
G01*
G37*
G04 #@! TD.AperFunction*
G04 #@! TA.AperFunction,SMDPad,CuDef*
G36*
G01*
X300000Y-15075000D02*
X500000Y-15075000D01*
G75*
G02*
X600000Y-15175000I0J-100000D01*
G01*
X600000Y-16475000D01*
G75*
G02*
X500000Y-16575000I-100000J0D01*
G01*
X300000Y-16575000D01*
G75*
G02*
X200000Y-16475000I0J100000D01*
G01*
X200000Y-15175000D01*
G75*
G02*
X300000Y-15075000I100000J0D01*
G01*
G37*
G04 #@! TD.AperFunction*
G04 #@! TA.AperFunction,SMDPad,CuDef*
G36*
G01*
X-500000Y-15075000D02*
X-300000Y-15075000D01*
G75*
G02*
X-200000Y-15175000I0J-100000D01*
G01*
X-200000Y-16475000D01*
G75*
G02*
X-300000Y-16575000I-100000J0D01*
G01*
X-500000Y-16575000D01*
G75*
G02*
X-600000Y-16475000I0J100000D01*
G01*
X-600000Y-15175000D01*
G75*
G02*
X-500000Y-15075000I100000J0D01*
G01*
G37*
G04 #@! TD.AperFunction*
G04 #@! TA.AperFunction,SMDPad,CuDef*
G36*
G01*
X-1300000Y-15075000D02*
X-1100000Y-15075000D01*
G75*
G02*
X-1000000Y-15175000I0J-100000D01*
G01*
X-1000000Y-16475000D01*
G75*
G02*
X-1100000Y-16575000I-100000J0D01*
G01*
X-1300000Y-16575000D01*
G75*
G02*
X-1400000Y-16475000I0J100000D01*
G01*
X-1400000Y-15175000D01*
G75*
G02*
X-1300000Y-15075000I100000J0D01*
G01*
G37*
G04 #@! TD.AperFunction*
G04 #@! TA.AperFunction,SMDPad,CuDef*
G36*
G01*
X-2100000Y-15075000D02*
X-1900000Y-15075000D01*
G75*
G02*
X-1800000Y-15175000I0J-100000D01*
G01*
X-1800000Y-16475000D01*
G75*
G02*
X-1900000Y-16575000I-100000J0D01*
G01*
X-2100000Y-16575000D01*
G75*
G02*
X-2200000Y-16475000I0J100000D01*
G01*
X-2200000Y-15175000D01*
G75*
G02*
X-2100000Y-15075000I100000J0D01*
G01*
G37*
G04 #@! TD.AperFunction*
G04 #@! TA.AperFunction,SMDPad,CuDef*
G36*
G01*
X-2900000Y-15075000D02*
X-2700000Y-15075000D01*
G75*
G02*
X-2600000Y-15175000I0J-100000D01*
G01*
X-2600000Y-16475000D01*
G75*
G02*
X-2700000Y-16575000I-100000J0D01*
G01*
X-2900000Y-16575000D01*
G75*
G02*
X-3000000Y-16475000I0J100000D01*
G01*
X-3000000Y-15175000D01*
G75*
G02*
X-2900000Y-15075000I100000J0D01*
G01*
G37*
G04 #@! TD.AperFunction*
G04 #@! TA.AperFunction,SMDPad,CuDef*
G36*
G01*
X-4825000Y-17000000D02*
X-3525000Y-17000000D01*
G75*
G02*
X-3425000Y-17100000I0J-100000D01*
G01*
X-3425000Y-17300000D01*
G75*
G02*
X-3525000Y-17400000I-100000J0D01*
G01*
X-4825000Y-17400000D01*
G75*
G02*
X-4925000Y-17300000I0J100000D01*
G01*
X-4925000Y-17100000D01*
G75*
G02*
X-4825000Y-17000000I100000J0D01*
G01*
G37*
G04 #@! TD.AperFunction*
G04 #@! TA.AperFunction,SMDPad,CuDef*
G36*
G01*
X-4825000Y-17800000D02*
X-3525000Y-17800000D01*
G75*
G02*
X-3425000Y-17900000I0J-100000D01*
G01*
X-3425000Y-18100000D01*
G75*
G02*
X-3525000Y-18200000I-100000J0D01*
G01*
X-4825000Y-18200000D01*
G75*
G02*
X-4925000Y-18100000I0J100000D01*
G01*
X-4925000Y-17900000D01*
G75*
G02*
X-4825000Y-17800000I100000J0D01*
G01*
G37*
G04 #@! TD.AperFunction*
G04 #@! TA.AperFunction,SMDPad,CuDef*
G36*
G01*
X-4825000Y-18600000D02*
X-3525000Y-18600000D01*
G75*
G02*
X-3425000Y-18700000I0J-100000D01*
G01*
X-3425000Y-18900000D01*
G75*
G02*
X-3525000Y-19000000I-100000J0D01*
G01*
X-4825000Y-19000000D01*
G75*
G02*
X-4925000Y-18900000I0J100000D01*
G01*
X-4925000Y-18700000D01*
G75*
G02*
X-4825000Y-18600000I100000J0D01*
G01*
G37*
G04 #@! TD.AperFunction*
G04 #@! TA.AperFunction,SMDPad,CuDef*
G36*
G01*
X-4825000Y-19400000D02*
X-3525000Y-19400000D01*
G75*
G02*
X-3425000Y-19500000I0J-100000D01*
G01*
X-3425000Y-19700000D01*
G75*
G02*
X-3525000Y-19800000I-100000J0D01*
G01*
X-4825000Y-19800000D01*
G75*
G02*
X-4925000Y-19700000I0J100000D01*
G01*
X-4925000Y-19500000D01*
G75*
G02*
X-4825000Y-19400000I100000J0D01*
G01*
G37*
G04 #@! TD.AperFunction*
G04 #@! TA.AperFunction,SMDPad,CuDef*
G36*
G01*
X-4825000Y-20200000D02*
X-3525000Y-20200000D01*
G75*
G02*
X-3425000Y-20300000I0J-100000D01*
G01*
X-3425000Y-20500000D01*
G75*
G02*
X-3525000Y-20600000I-100000J0D01*
G01*
X-4825000Y-20600000D01*
G75*
G02*
X-4925000Y-20500000I0J100000D01*
G01*
X-4925000Y-20300000D01*
G75*
G02*
X-4825000Y-20200000I100000J0D01*
G01*
G37*
G04 #@! TD.AperFunction*
G04 #@! TA.AperFunction,SMDPad,CuDef*
G36*
G01*
X-4825000Y-21000000D02*
X-3525000Y-21000000D01*
G75*
G02*
X-3425000Y-21100000I0J-100000D01*
G01*
X-3425000Y-21300000D01*
G75*
G02*
X-3525000Y-21400000I-100000J0D01*
G01*
X-4825000Y-21400000D01*
G75*
G02*
X-4925000Y-21300000I0J100000D01*
G01*
X-4925000Y-21100000D01*
G75*
G02*
X-4825000Y-21000000I100000J0D01*
G01*
G37*
G04 #@! TD.AperFunction*
G04 #@! TA.AperFunction,SMDPad,CuDef*
G36*
G01*
X-4825000Y-21800000D02*
X-3525000Y-21800000D01*
G75*
G02*
X-3425000Y-21900000I0J-100000D01*
G01*
X-3425000Y-22100000D01*
G75*
G02*
X-3525000Y-22200000I-100000J0D01*
G01*
X-4825000Y-22200000D01*
G75*
G02*
X-4925000Y-22100000I0J100000D01*
G01*
X-4925000Y-21900000D01*
G75*
G02*
X-4825000Y-21800000I100000J0D01*
G01*
G37*
G04 #@! TD.AperFunction*
G04 #@! TA.AperFunction,SMDPad,CuDef*
G36*
G01*
X-4825000Y-22600000D02*
X-3525000Y-22600000D01*
G75*
G02*
X-3425000Y-22700000I0J-100000D01*
G01*
X-3425000Y-22900000D01*
G75*
G02*
X-3525000Y-23000000I-100000J0D01*
G01*
X-4825000Y-23000000D01*
G75*
G02*
X-4925000Y-22900000I0J100000D01*
G01*
X-4925000Y-22700000D01*
G75*
G02*
X-4825000Y-22600000I100000J0D01*
G01*
G37*
G04 #@! TD.AperFunction*
G04 #@! TA.AperFunction,SMDPad,CuDef*
G36*
G01*
X-2900000Y-23425000D02*
X-2700000Y-23425000D01*
G75*
G02*
X-2600000Y-23525000I0J-100000D01*
G01*
X-2600000Y-24825000D01*
G75*
G02*
X-2700000Y-24925000I-100000J0D01*
G01*
X-2900000Y-24925000D01*
G75*
G02*
X-3000000Y-24825000I0J100000D01*
G01*
X-3000000Y-23525000D01*
G75*
G02*
X-2900000Y-23425000I100000J0D01*
G01*
G37*
G04 #@! TD.AperFunction*
G04 #@! TA.AperFunction,SMDPad,CuDef*
G36*
G01*
X-2100000Y-23425000D02*
X-1900000Y-23425000D01*
G75*
G02*
X-1800000Y-23525000I0J-100000D01*
G01*
X-1800000Y-24825000D01*
G75*
G02*
X-1900000Y-24925000I-100000J0D01*
G01*
X-2100000Y-24925000D01*
G75*
G02*
X-2200000Y-24825000I0J100000D01*
G01*
X-2200000Y-23525000D01*
G75*
G02*
X-2100000Y-23425000I100000J0D01*
G01*
G37*
G04 #@! TD.AperFunction*
G04 #@! TA.AperFunction,SMDPad,CuDef*
G36*
G01*
X-1300000Y-23425000D02*
X-1100000Y-23425000D01*
G75*
G02*
X-1000000Y-23525000I0J-100000D01*
G01*
X-1000000Y-24825000D01*
G75*
G02*
X-1100000Y-24925000I-100000J0D01*
G01*
X-1300000Y-24925000D01*
G75*
G02*
X-1400000Y-24825000I0J100000D01*
G01*
X-1400000Y-23525000D01*
G75*
G02*
X-1300000Y-23425000I100000J0D01*
G01*
G37*
G04 #@! TD.AperFunction*
G04 #@! TA.AperFunction,SMDPad,CuDef*
G36*
G01*
X-500000Y-23425000D02*
X-300000Y-23425000D01*
G75*
G02*
X-200000Y-23525000I0J-100000D01*
G01*
X-200000Y-24825000D01*
G75*
G02*
X-300000Y-24925000I-100000J0D01*
G01*
X-500000Y-24925000D01*
G75*
G02*
X-600000Y-24825000I0J100000D01*
G01*
X-600000Y-23525000D01*
G75*
G02*
X-500000Y-23425000I100000J0D01*
G01*
G37*
G04 #@! TD.AperFunction*
G04 #@! TA.AperFunction,SMDPad,CuDef*
G36*
G01*
X300000Y-23425000D02*
X500000Y-23425000D01*
G75*
G02*
X600000Y-23525000I0J-100000D01*
G01*
X600000Y-24825000D01*
G75*
G02*
X500000Y-24925000I-100000J0D01*
G01*
X300000Y-24925000D01*
G75*
G02*
X200000Y-24825000I0J100000D01*
G01*
X200000Y-23525000D01*
G75*
G02*
X300000Y-23425000I100000J0D01*
G01*
G37*
G04 #@! TD.AperFunction*
G04 #@! TA.AperFunction,SMDPad,CuDef*
G36*
G01*
X1100000Y-23425000D02*
X1300000Y-23425000D01*
G75*
G02*
X1400000Y-23525000I0J-100000D01*
G01*
X1400000Y-24825000D01*
G75*
G02*
X1300000Y-24925000I-100000J0D01*
G01*
X1100000Y-24925000D01*
G75*
G02*
X1000000Y-24825000I0J100000D01*
G01*
X1000000Y-23525000D01*
G75*
G02*
X1100000Y-23425000I100000J0D01*
G01*
G37*
G04 #@! TD.AperFunction*
G04 #@! TA.AperFunction,SMDPad,CuDef*
G36*
G01*
X1900000Y-23425000D02*
X2100000Y-23425000D01*
G75*
G02*
X2200000Y-23525000I0J-100000D01*
G01*
X2200000Y-24825000D01*
G75*
G02*
X2100000Y-24925000I-100000J0D01*
G01*
X1900000Y-24925000D01*
G75*
G02*
X1800000Y-24825000I0J100000D01*
G01*
X1800000Y-23525000D01*
G75*
G02*
X1900000Y-23425000I100000J0D01*
G01*
G37*
G04 #@! TD.AperFunction*
G04 #@! TA.AperFunction,SMDPad,CuDef*
G36*
G01*
X2700000Y-23425000D02*
X2900000Y-23425000D01*
G75*
G02*
X3000000Y-23525000I0J-100000D01*
G01*
X3000000Y-24825000D01*
G75*
G02*
X2900000Y-24925000I-100000J0D01*
G01*
X2700000Y-24925000D01*
G75*
G02*
X2600000Y-24825000I0J100000D01*
G01*
X2600000Y-23525000D01*
G75*
G02*
X2700000Y-23425000I100000J0D01*
G01*
G37*
G04 #@! TD.AperFunction*
G04 #@! TA.AperFunction,SMDPad,CuDef*
G36*
G01*
X3525000Y-22600000D02*
X4825000Y-22600000D01*
G75*
G02*
X4925000Y-22700000I0J-100000D01*
G01*
X4925000Y-22900000D01*
G75*
G02*
X4825000Y-23000000I-100000J0D01*
G01*
X3525000Y-23000000D01*
G75*
G02*
X3425000Y-22900000I0J100000D01*
G01*
X3425000Y-22700000D01*
G75*
G02*
X3525000Y-22600000I100000J0D01*
G01*
G37*
G04 #@! TD.AperFunction*
G04 #@! TA.AperFunction,SMDPad,CuDef*
G36*
G01*
X3525000Y-21800000D02*
X4825000Y-21800000D01*
G75*
G02*
X4925000Y-21900000I0J-100000D01*
G01*
X4925000Y-22100000D01*
G75*
G02*
X4825000Y-22200000I-100000J0D01*
G01*
X3525000Y-22200000D01*
G75*
G02*
X3425000Y-22100000I0J100000D01*
G01*
X3425000Y-21900000D01*
G75*
G02*
X3525000Y-21800000I100000J0D01*
G01*
G37*
G04 #@! TD.AperFunction*
G04 #@! TA.AperFunction,SMDPad,CuDef*
G36*
G01*
X3525000Y-21000000D02*
X4825000Y-21000000D01*
G75*
G02*
X4925000Y-21100000I0J-100000D01*
G01*
X4925000Y-21300000D01*
G75*
G02*
X4825000Y-21400000I-100000J0D01*
G01*
X3525000Y-21400000D01*
G75*
G02*
X3425000Y-21300000I0J100000D01*
G01*
X3425000Y-21100000D01*
G75*
G02*
X3525000Y-21000000I100000J0D01*
G01*
G37*
G04 #@! TD.AperFunction*
G04 #@! TA.AperFunction,SMDPad,CuDef*
G36*
G01*
X3525000Y-20200000D02*
X4825000Y-20200000D01*
G75*
G02*
X4925000Y-20300000I0J-100000D01*
G01*
X4925000Y-20500000D01*
G75*
G02*
X4825000Y-20600000I-100000J0D01*
G01*
X3525000Y-20600000D01*
G75*
G02*
X3425000Y-20500000I0J100000D01*
G01*
X3425000Y-20300000D01*
G75*
G02*
X3525000Y-20200000I100000J0D01*
G01*
G37*
G04 #@! TD.AperFunction*
G04 #@! TA.AperFunction,SMDPad,CuDef*
G36*
G01*
X3525000Y-19400000D02*
X4825000Y-19400000D01*
G75*
G02*
X4925000Y-19500000I0J-100000D01*
G01*
X4925000Y-19700000D01*
G75*
G02*
X4825000Y-19800000I-100000J0D01*
G01*
X3525000Y-19800000D01*
G75*
G02*
X3425000Y-19700000I0J100000D01*
G01*
X3425000Y-19500000D01*
G75*
G02*
X3525000Y-19400000I100000J0D01*
G01*
G37*
G04 #@! TD.AperFunction*
G04 #@! TA.AperFunction,SMDPad,CuDef*
G36*
G01*
X3525000Y-18600000D02*
X4825000Y-18600000D01*
G75*
G02*
X4925000Y-18700000I0J-100000D01*
G01*
X4925000Y-18900000D01*
G75*
G02*
X4825000Y-19000000I-100000J0D01*
G01*
X3525000Y-19000000D01*
G75*
G02*
X3425000Y-18900000I0J100000D01*
G01*
X3425000Y-18700000D01*
G75*
G02*
X3525000Y-18600000I100000J0D01*
G01*
G37*
G04 #@! TD.AperFunction*
G04 #@! TA.AperFunction,SMDPad,CuDef*
G36*
G01*
X3525000Y-17800000D02*
X4825000Y-17800000D01*
G75*
G02*
X4925000Y-17900000I0J-100000D01*
G01*
X4925000Y-18100000D01*
G75*
G02*
X4825000Y-18200000I-100000J0D01*
G01*
X3525000Y-18200000D01*
G75*
G02*
X3425000Y-18100000I0J100000D01*
G01*
X3425000Y-17900000D01*
G75*
G02*
X3525000Y-17800000I100000J0D01*
G01*
G37*
G04 #@! TD.AperFunction*
G04 #@! TA.AperFunction,SMDPad,CuDef*
G36*
G01*
X3525000Y-17000000D02*
X4825000Y-17000000D01*
G75*
G02*
X4925000Y-17100000I0J-100000D01*
G01*
X4925000Y-17300000D01*
G75*
G02*
X4825000Y-17400000I-100000J0D01*
G01*
X3525000Y-17400000D01*
G75*
G02*
X3425000Y-17300000I0J100000D01*
G01*
X3425000Y-17100000D01*
G75*
G02*
X3525000Y-17000000I100000J0D01*
G01*
G37*
G04 #@! TD.AperFunction*
D14*
X2500000Y-5000000D03*
D15*
X4300000Y-3750000D03*
X4300000Y-4250000D03*
X4300000Y-4750000D03*
X4300000Y-5250000D03*
X4300000Y-5750000D03*
X4300000Y-6250000D03*
X700000Y-6250000D03*
X700000Y-5750000D03*
X700000Y-5250000D03*
X700000Y-4750000D03*
X700000Y-4250000D03*
X700000Y-3750000D03*
D16*
X1575000Y-5750000D03*
D17*
X1712500Y-2275000D03*
X1712500Y-1725000D03*
D18*
X2500000Y-1350000D03*
D17*
X3287500Y-1725000D03*
X3287500Y-2275000D03*
D18*
X2500000Y-2650000D03*
D19*
X-2200000Y-28500000D03*
X2200000Y-28500000D03*
G04 #@! TA.AperFunction,SMDPad,CuDef*
G36*
G01*
X-2150000Y-4175000D02*
X-2150000Y-4625000D01*
G75*
G02*
X-2375000Y-4850000I-225000J0D01*
G01*
X-2925000Y-4850000D01*
G75*
G02*
X-3150000Y-4625000I0J225000D01*
G01*
X-3150000Y-4175000D01*
G75*
G02*
X-2925000Y-3950000I225000J0D01*
G01*
X-2375000Y-3950000D01*
G75*
G02*
X-2150000Y-4175000I0J-225000D01*
G01*
G37*
G04 #@! TD.AperFunction*
G04 #@! TA.AperFunction,SMDPad,CuDef*
G36*
G01*
X-3850000Y-4175000D02*
X-3850000Y-4625000D01*
G75*
G02*
X-4075000Y-4850000I-225000J0D01*
G01*
X-4625000Y-4850000D01*
G75*
G02*
X-4850000Y-4625000I0J225000D01*
G01*
X-4850000Y-4175000D01*
G75*
G02*
X-4625000Y-3950000I225000J0D01*
G01*
X-4075000Y-3950000D01*
G75*
G02*
X-3850000Y-4175000I0J-225000D01*
G01*
G37*
G04 #@! TD.AperFunction*
G04 #@! TA.AperFunction,SMDPad,CuDef*
G36*
G01*
X-7850000Y8775000D02*
X-7850000Y9225000D01*
G75*
G02*
X-7625000Y9450000I225000J0D01*
G01*
X-7075000Y9450000D01*
G75*
G02*
X-6850000Y9225000I0J-225000D01*
G01*
X-6850000Y8775000D01*
G75*
G02*
X-7075000Y8550000I-225000J0D01*
G01*
X-7625000Y8550000D01*
G75*
G02*
X-7850000Y8775000I0J225000D01*
G01*
G37*
G04 #@! TD.AperFunction*
G04 #@! TA.AperFunction,SMDPad,CuDef*
G36*
G01*
X-6150000Y8775000D02*
X-6150000Y9225000D01*
G75*
G02*
X-5925000Y9450000I225000J0D01*
G01*
X-5375000Y9450000D01*
G75*
G02*
X-5150000Y9225000I0J-225000D01*
G01*
X-5150000Y8775000D01*
G75*
G02*
X-5375000Y8550000I-225000J0D01*
G01*
X-5925000Y8550000D01*
G75*
G02*
X-6150000Y8775000I0J225000D01*
G01*
G37*
G04 #@! TD.AperFunction*
G04 #@! TA.AperFunction,SMDPad,CuDef*
G36*
G01*
X5150000Y8775000D02*
X5150000Y9225000D01*
G75*
G02*
X5375000Y9450000I225000J0D01*
G01*
X5925000Y9450000D01*
G75*
G02*
X6150000Y9225000I0J-225000D01*
G01*
X6150000Y8775000D01*
G75*
G02*
X5925000Y8550000I-225000J0D01*
G01*
X5375000Y8550000D01*
G75*
G02*
X5150000Y8775000I0J225000D01*
G01*
G37*
G04 #@! TD.AperFunction*
G04 #@! TA.AperFunction,SMDPad,CuDef*
G36*
G01*
X6850000Y8775000D02*
X6850000Y9225000D01*
G75*
G02*
X7075000Y9450000I225000J0D01*
G01*
X7625000Y9450000D01*
G75*
G02*
X7850000Y9225000I0J-225000D01*
G01*
X7850000Y8775000D01*
G75*
G02*
X7625000Y8550000I-225000J0D01*
G01*
X7075000Y8550000D01*
G75*
G02*
X6850000Y8775000I0J225000D01*
G01*
G37*
G04 #@! TD.AperFunction*
D11*
X8890000Y-30480000D03*
X8890000Y-27940000D03*
X8890000Y-25400000D03*
X8890000Y-22860000D03*
X8890000Y-20320000D03*
X8890000Y-17780000D03*
X8890000Y-15240000D03*
X8890000Y-12700000D03*
X8890000Y-10160000D03*
X8890000Y-7620000D03*
X8890000Y-5080000D03*
X8890000Y-2540000D03*
D12*
X8890000Y0D03*
D11*
X-8890000Y-30480000D03*
X-8890000Y-27940000D03*
X-8890000Y-25400000D03*
X-8890000Y-22860000D03*
X-8890000Y-20320000D03*
X-8890000Y-17780000D03*
X-8890000Y-15240000D03*
X-8890000Y-12700000D03*
X-8890000Y-10160000D03*
X-8890000Y-7620000D03*
X-8890000Y-5080000D03*
X-8890000Y-2540000D03*
D12*
X-8890000Y0D03*
D20*
X-3250000Y15000000D03*
X3250000Y15000000D03*
D21*
X-3100000Y12450000D03*
X3100000Y12450000D03*
D22*
X-1300000Y12125000D03*
X-650000Y12125000D03*
X0Y12125000D03*
X650000Y12125000D03*
X1300000Y12125000D03*
G04 #@! TA.AperFunction,SMDPad,CuDef*
G36*
G01*
X7850000Y10725000D02*
X7850000Y10275000D01*
G75*
G02*
X7625000Y10050000I-225000J0D01*
G01*
X7075000Y10050000D01*
G75*
G02*
X6850000Y10275000I0J225000D01*
G01*
X6850000Y10725000D01*
G75*
G02*
X7075000Y10950000I225000J0D01*
G01*
X7625000Y10950000D01*
G75*
G02*
X7850000Y10725000I0J-225000D01*
G01*
G37*
G04 #@! TD.AperFunction*
G04 #@! TA.AperFunction,SMDPad,CuDef*
G36*
G01*
X6150000Y10725000D02*
X6150000Y10275000D01*
G75*
G02*
X5925000Y10050000I-225000J0D01*
G01*
X5375000Y10050000D01*
G75*
G02*
X5150000Y10275000I0J225000D01*
G01*
X5150000Y10725000D01*
G75*
G02*
X5375000Y10950000I225000J0D01*
G01*
X5925000Y10950000D01*
G75*
G02*
X6150000Y10725000I0J-225000D01*
G01*
G37*
G04 #@! TD.AperFunction*
G04 #@! TA.AperFunction,SMDPad,CuDef*
G36*
G01*
X-2150000Y-5675000D02*
X-2150000Y-6125000D01*
G75*
G02*
X-2375000Y-6350000I-225000J0D01*
G01*
X-2925000Y-6350000D01*
G75*
G02*
X-3150000Y-6125000I0J225000D01*
G01*
X-3150000Y-5675000D01*
G75*
G02*
X-2925000Y-5450000I225000J0D01*
G01*
X-2375000Y-5450000D01*
G75*
G02*
X-2150000Y-5675000I0J-225000D01*
G01*
G37*
G04 #@! TD.AperFunction*
G04 #@! TA.AperFunction,SMDPad,CuDef*
G36*
G01*
X-3850000Y-5675000D02*
X-3850000Y-6125000D01*
G75*
G02*
X-4075000Y-6350000I-225000J0D01*
G01*
X-4625000Y-6350000D01*
G75*
G02*
X-4850000Y-6125000I0J225000D01*
G01*
X-4850000Y-5675000D01*
G75*
G02*
X-4625000Y-5450000I225000J0D01*
G01*
X-4075000Y-5450000D01*
G75*
G02*
X-3850000Y-5675000I0J-225000D01*
G01*
G37*
G04 #@! TD.AperFunction*
G04 #@! TA.AperFunction,SMDPad,CuDef*
G36*
G01*
X-5150000Y10725000D02*
X-5150000Y10275000D01*
G75*
G02*
X-5375000Y10050000I-225000J0D01*
G01*
X-5925000Y10050000D01*
G75*
G02*
X-6150000Y10275000I0J225000D01*
G01*
X-6150000Y10725000D01*
G75*
G02*
X-5925000Y10950000I225000J0D01*
G01*
X-5375000Y10950000D01*
G75*
G02*
X-5150000Y10725000I0J-225000D01*
G01*
G37*
G04 #@! TD.AperFunction*
G04 #@! TA.AperFunction,SMDPad,CuDef*
G36*
G01*
X-6850000Y10725000D02*
X-6850000Y10275000D01*
G75*
G02*
X-7075000Y10050000I-225000J0D01*
G01*
X-7625000Y10050000D01*
G75*
G02*
X-7850000Y10275000I0J225000D01*
G01*
X-7850000Y10725000D01*
G75*
G02*
X-7625000Y10950000I225000J0D01*
G01*
X-7075000Y10950000D01*
G75*
G02*
X-6850000Y10725000I0J-225000D01*
G01*
G37*
G04 #@! TD.AperFunction*
G04 #@! TA.AperFunction,SMDPad,CuDef*
G36*
G01*
X-1900000Y-11550000D02*
X-1900000Y-11250000D01*
G75*
G02*
X-1750000Y-11100000I150000J0D01*
G01*
X-1450000Y-11100000D01*
G75*
G02*
X-1300000Y-11250000I0J-150000D01*
G01*
X-1300000Y-11550000D01*
G75*
G02*
X-1450000Y-11700000I-150000J0D01*
G01*
X-1750000Y-11700000D01*
G75*
G02*
X-1900000Y-11550000I0J150000D01*
G01*
G37*
G04 #@! TD.AperFunction*
G04 #@! TA.AperFunction,SMDPad,CuDef*
G36*
G01*
X-900000Y-11550000D02*
X-900000Y-11250000D01*
G75*
G02*
X-750000Y-11100000I150000J0D01*
G01*
X-450000Y-11100000D01*
G75*
G02*
X-300000Y-11250000I0J-150000D01*
G01*
X-300000Y-11550000D01*
G75*
G02*
X-450000Y-11700000I-150000J0D01*
G01*
X-750000Y-11700000D01*
G75*
G02*
X-900000Y-11550000I0J150000D01*
G01*
G37*
G04 #@! TD.AperFunction*
G04 #@! TA.AperFunction,SMDPad,CuDef*
G36*
G01*
X1900000Y-11250000D02*
X1900000Y-11550000D01*
G75*
G02*
X1750000Y-11700000I-150000J0D01*
G01*
X1450000Y-11700000D01*
G75*
G02*
X1300000Y-11550000I0J150000D01*
G01*
X1300000Y-11250000D01*
G75*
G02*
X1450000Y-11100000I150000J0D01*
G01*
X1750000Y-11100000D01*
G75*
G02*
X1900000Y-11250000I0J-150000D01*
G01*
G37*
G04 #@! TD.AperFunction*
G04 #@! TA.AperFunction,SMDPad,CuDef*
G36*
G01*
X900000Y-11250000D02*
X900000Y-11550000D01*
G75*
G02*
X750000Y-11700000I-150000J0D01*
G01*
X450000Y-11700000D01*
G75*
G02*
X300000Y-11550000I0J150000D01*
G01*
X300000Y-11250000D01*
G75*
G02*
X450000Y-11100000I150000J0D01*
G01*
X750000Y-11100000D01*
G75*
G02*
X900000Y-11250000I0J-150000D01*
G01*
G37*
G04 #@! TD.AperFunction*
G04 #@! TA.AperFunction,SMDPad,CuDef*
G36*
G01*
X-4525000Y-27150000D02*
X-4075000Y-27150000D01*
G75*
G02*
X-3850000Y-27375000I0J-225000D01*
G01*
X-3850000Y-27925000D01*
G75*
G02*
X-4075000Y-28150000I-225000J0D01*
G01*
X-4525000Y-28150000D01*
G75*
G02*
X-4750000Y-27925000I0J225000D01*
G01*
X-4750000Y-27375000D01*
G75*
G02*
X-4525000Y-27150000I225000J0D01*
G01*
G37*
G04 #@! TD.AperFunction*
G04 #@! TA.AperFunction,SMDPad,CuDef*
G36*
G01*
X-4525000Y-28850000D02*
X-4075000Y-28850000D01*
G75*
G02*
X-3850000Y-29075000I0J-225000D01*
G01*
X-3850000Y-29625000D01*
G75*
G02*
X-4075000Y-29850000I-225000J0D01*
G01*
X-4525000Y-29850000D01*
G75*
G02*
X-4750000Y-29625000I0J225000D01*
G01*
X-4750000Y-29075000D01*
G75*
G02*
X-4525000Y-28850000I225000J0D01*
G01*
G37*
G04 #@! TD.AperFunction*
G04 #@! TA.AperFunction,SMDPad,CuDef*
G36*
G01*
X3975000Y-11150000D02*
X4425000Y-11150000D01*
G75*
G02*
X4650000Y-11375000I0J-225000D01*
G01*
X4650000Y-11925000D01*
G75*
G02*
X4425000Y-12150000I-225000J0D01*
G01*
X3975000Y-12150000D01*
G75*
G02*
X3750000Y-11925000I0J225000D01*
G01*
X3750000Y-11375000D01*
G75*
G02*
X3975000Y-11150000I225000J0D01*
G01*
G37*
G04 #@! TD.AperFunction*
G04 #@! TA.AperFunction,SMDPad,CuDef*
G36*
G01*
X3975000Y-12850000D02*
X4425000Y-12850000D01*
G75*
G02*
X4650000Y-13075000I0J-225000D01*
G01*
X4650000Y-13625000D01*
G75*
G02*
X4425000Y-13850000I-225000J0D01*
G01*
X3975000Y-13850000D01*
G75*
G02*
X3750000Y-13625000I0J225000D01*
G01*
X3750000Y-13075000D01*
G75*
G02*
X3975000Y-12850000I225000J0D01*
G01*
G37*
G04 #@! TD.AperFunction*
G04 #@! TA.AperFunction,SMDPad,CuDef*
G36*
G01*
X-2150000Y-1175000D02*
X-2150000Y-1625000D01*
G75*
G02*
X-2375000Y-1850000I-225000J0D01*
G01*
X-2925000Y-1850000D01*
G75*
G02*
X-3150000Y-1625000I0J225000D01*
G01*
X-3150000Y-1175000D01*
G75*
G02*
X-2925000Y-950000I225000J0D01*
G01*
X-2375000Y-950000D01*
G75*
G02*
X-2150000Y-1175000I0J-225000D01*
G01*
G37*
G04 #@! TD.AperFunction*
G04 #@! TA.AperFunction,SMDPad,CuDef*
G36*
G01*
X-3850000Y-1175000D02*
X-3850000Y-1625000D01*
G75*
G02*
X-4075000Y-1850000I-225000J0D01*
G01*
X-4625000Y-1850000D01*
G75*
G02*
X-4850000Y-1625000I0J225000D01*
G01*
X-4850000Y-1175000D01*
G75*
G02*
X-4625000Y-950000I225000J0D01*
G01*
X-4075000Y-950000D01*
G75*
G02*
X-3850000Y-1175000I0J-225000D01*
G01*
G37*
G04 #@! TD.AperFunction*
G04 #@! TA.AperFunction,SMDPad,CuDef*
G36*
G01*
X-2150000Y-2675000D02*
X-2150000Y-3125000D01*
G75*
G02*
X-2375000Y-3350000I-225000J0D01*
G01*
X-2925000Y-3350000D01*
G75*
G02*
X-3150000Y-3125000I0J225000D01*
G01*
X-3150000Y-2675000D01*
G75*
G02*
X-2925000Y-2450000I225000J0D01*
G01*
X-2375000Y-2450000D01*
G75*
G02*
X-2150000Y-2675000I0J-225000D01*
G01*
G37*
G04 #@! TD.AperFunction*
G04 #@! TA.AperFunction,SMDPad,CuDef*
G36*
G01*
X-3850000Y-2675000D02*
X-3850000Y-3125000D01*
G75*
G02*
X-4075000Y-3350000I-225000J0D01*
G01*
X-4625000Y-3350000D01*
G75*
G02*
X-4850000Y-3125000I0J225000D01*
G01*
X-4850000Y-2675000D01*
G75*
G02*
X-4625000Y-2450000I225000J0D01*
G01*
X-4075000Y-2450000D01*
G75*
G02*
X-3850000Y-2675000I0J-225000D01*
G01*
G37*
G04 #@! TD.AperFunction*
D23*
X-1424750Y-4400000D03*
X4000000Y9500000D03*
X-4000000Y9500000D03*
X-1400000Y-5350000D03*
X0Y-31000000D03*
X0Y-9000000D03*
X5850000Y-500000D03*
X-7050000Y-800000D03*
X-4000000Y8500000D03*
X4000000Y8500000D03*
X-500000Y9500000D03*
X-500000Y-1000000D03*
X500000Y9500000D03*
X500000Y-1000000D03*
X450000Y-17165000D03*
X-3100000Y-27200000D03*
X4800000Y0D03*
X1200000Y500000D03*
X2700000Y-22600000D03*
X2450000Y500000D03*
X1100000Y-21350000D03*
X1000000Y-3000000D03*
X4500000Y-1500000D03*
X-500000Y-19500000D03*
X6000000Y-4500000D03*
X750000Y-18750000D03*
D24*
X700000Y-5250000D02*
X-574750Y-5250000D01*
X-1424750Y-4400000D02*
X-2650000Y-4400000D01*
X-574750Y-5250000D02*
X-1424750Y-4400000D01*
D25*
X-2650000Y-2900000D02*
X-2650000Y-4400000D01*
X8890000Y0D02*
X7700000Y0D01*
X5650000Y2050000D02*
X5650000Y9000000D01*
X7700000Y0D02*
X5650000Y2050000D01*
X4500000Y9000000D02*
X4000000Y9500000D01*
X5650000Y9000000D02*
X4500000Y9000000D01*
X-4500000Y9000000D02*
X-4000000Y9500000D01*
X-5650000Y9000000D02*
X-4500000Y9000000D01*
X-8890000Y15240000D02*
X-7240000Y15240000D01*
X-7000000Y15000000D02*
X-7240000Y15240000D01*
X-3250000Y15000000D02*
X-7000000Y15000000D01*
X8890000Y15240000D02*
X7240000Y15240000D01*
X7000000Y15000000D02*
X7240000Y15240000D01*
X3250000Y15000000D02*
X7000000Y15000000D01*
X3100000Y12450000D02*
X3100000Y13600000D01*
X3250000Y13750000D02*
X3100000Y13600000D01*
X3250000Y15000000D02*
X3250000Y13750000D01*
X-3100000Y12450000D02*
X-3100000Y13600000D01*
X-3250000Y13750000D02*
X-3100000Y13600000D01*
X-3250000Y15000000D02*
X-3250000Y13750000D01*
X-3250000Y15000000D02*
X3250000Y15000000D01*
X-3100000Y12450000D02*
X-3100000Y11000000D01*
X-3600000Y10500000D02*
X-3100000Y11000000D01*
X-5650000Y10500000D02*
X-3600000Y10500000D01*
X1170000Y5978000D02*
X1170000Y7980000D01*
X-2640000Y9540000D02*
X-3600000Y10500000D01*
X-100000Y5978000D02*
X-100000Y8000000D01*
X-2630000Y8000000D02*
X-2640000Y7990000D01*
X-100000Y8000000D02*
X-2630000Y8000000D01*
X-2640000Y7990000D02*
X-2640000Y9540000D01*
X-2640000Y5978000D02*
X-2640000Y7990000D01*
X1150000Y8000000D02*
X1170000Y7980000D01*
X-100000Y8000000D02*
X1150000Y8000000D01*
X-4350000Y-1400000D02*
X-4350000Y-2900000D01*
X4175000Y-17200000D02*
X5000000Y-17200000D01*
X5000000Y-17200000D02*
X5050000Y-17150000D01*
X4200000Y-11650000D02*
X4750000Y-11650000D01*
X5050000Y-11950000D02*
X5050000Y-17150000D01*
X4750000Y-11650000D02*
X5050000Y-11950000D01*
X-5050000Y-22800000D02*
X-4175000Y-22800000D01*
X-5080210Y-22830210D02*
X-5050000Y-22800000D01*
X-4300000Y-29350000D02*
X-4300000Y-30150000D01*
X-4300000Y-30150000D02*
X-3450000Y-31000000D01*
X2200000Y-28500000D02*
X2200000Y-30500000D01*
X2200000Y-30500000D02*
X1700000Y-31000000D01*
X-6710000Y-2900000D02*
X-8890000Y-5080000D01*
X-4350000Y-2900000D02*
X-6710000Y-2900000D01*
D24*
X2500000Y-5000000D02*
X2500000Y-2650000D01*
X1750000Y-5750000D02*
X2500000Y-5000000D01*
X1575000Y-5750000D02*
X1750000Y-5750000D01*
X-1000000Y-5750000D02*
X-1400000Y-5350000D01*
X700000Y-5750000D02*
X-1000000Y-5750000D01*
D25*
X50000Y-31000000D02*
X0Y-31000000D01*
X1700000Y-31000000D02*
X50000Y-31000000D01*
X50000Y-31000000D02*
X-3450000Y-31000000D01*
X4200000Y-11650000D02*
X4200000Y-10950000D01*
X8890000Y-5080000D02*
X7000000Y-6970000D01*
X7000000Y-8150000D02*
X4200000Y-10950000D01*
X7000000Y-6970000D02*
X7000000Y-8150000D01*
X-8890000Y-5080000D02*
X-6470000Y-7500000D01*
X-6470000Y-7500000D02*
X-400000Y-7500000D01*
X0Y-7900000D02*
X0Y-11400000D01*
X-400000Y-7500000D02*
X0Y-7900000D01*
X0Y-11400000D02*
X600000Y-11400000D01*
X-600000Y-11400000D02*
X0Y-11400000D01*
D24*
X2500000Y-1350000D02*
X2500000Y-850000D01*
X5500000Y-850000D02*
X5850000Y-500000D01*
X2500000Y-850000D02*
X5500000Y-850000D01*
D25*
X-8890000Y15240000D02*
X-8890000Y3690000D01*
X-7050000Y1850000D02*
X-7050000Y-800000D01*
X-8890000Y3690000D02*
X-7050000Y1850000D01*
X-1300000Y10880000D02*
X-2640000Y9540000D01*
X-1300000Y12125000D02*
X-1300000Y10880000D01*
X-5080210Y-22830210D02*
X-5080210Y-27780210D01*
X-5080210Y-27780210D02*
X-5600000Y-28300000D01*
X-5600000Y-28300000D02*
X-5600000Y-29000000D01*
X-5250000Y-29350000D02*
X-4300000Y-29350000D01*
X-5600000Y-29000000D02*
X-5250000Y-29350000D01*
D24*
X700000Y-4750000D02*
X-500000Y-4750000D01*
X700000Y-4250000D02*
X-500000Y-4250000D01*
X-500000Y-4250000D02*
X-500000Y-4750000D01*
X-500000Y-4250000D02*
X-1250000Y-3500000D01*
X-1250000Y-3500000D02*
X-1250000Y-1700000D01*
X-1550000Y-1400000D02*
X-1250000Y-1700000D01*
X-2650000Y-1400000D02*
X-1550000Y-1400000D01*
X6180000Y-5250000D02*
X8890000Y-2540000D01*
X4300000Y-5250000D02*
X6180000Y-5250000D01*
D25*
X-2800000Y-24175000D02*
X-2800000Y-25050000D01*
X-4300000Y-26550000D02*
X-4300000Y-27650000D01*
X-2800000Y-25050000D02*
X-4300000Y-26550000D01*
X-2650000Y-1400000D02*
X-2650000Y-650000D01*
X-2650000Y-650000D02*
X-2900000Y-400000D01*
X-2800000Y-24175000D02*
X-2800000Y-22850000D01*
X-400000Y-15825000D02*
X-400000Y-17250000D01*
X-400000Y-17250000D02*
X-1500000Y-18350000D01*
X-1500000Y-21550000D02*
X-2800000Y-22850000D01*
X-1500000Y-18350000D02*
X-1500000Y-21550000D01*
X2800000Y-15825000D02*
X2800000Y-16900000D01*
X2800000Y-15825000D02*
X2800000Y-13700000D01*
X3150000Y-13350000D02*
X4200000Y-13350000D01*
X2800000Y-13700000D02*
X3150000Y-13350000D01*
X6180000Y-7930670D02*
X6180000Y-5250000D01*
X3150000Y-10960670D02*
X6180000Y-7930670D01*
X3150000Y-13350000D02*
X3150000Y-10960670D01*
X-400000Y-17250000D02*
X150000Y-17800000D01*
X1900000Y-17800000D02*
X150000Y-17800000D01*
X2800000Y-16900000D02*
X1900000Y-17800000D01*
X5192790Y7307210D02*
X4000000Y8500000D01*
X5192790Y1157210D02*
X5192790Y7307210D01*
X8890000Y-2540000D02*
X5192790Y1157210D01*
X2440000Y5978000D02*
X2440000Y7790000D01*
X3150000Y8500000D02*
X4000000Y8500000D01*
X2440000Y7790000D02*
X3150000Y8500000D01*
X-5192791Y-272791D02*
X-5192791Y7307209D01*
X-7460000Y-2540000D02*
X-5192791Y-272791D01*
X-5192791Y7307209D02*
X-4000000Y8500000D01*
X-8890000Y-2540000D02*
X-7460000Y-2540000D01*
X-5065582Y-400000D02*
X-5192791Y-272791D01*
X-2900000Y-400000D02*
X-5065582Y-400000D01*
X2000000Y-14800000D02*
X2000000Y-15825000D01*
X1300000Y-14100000D02*
X2000000Y-14800000D01*
X1300000Y-13000000D02*
X1300000Y-14100000D01*
X1300000Y-13000000D02*
X1300000Y-12000000D01*
X1600000Y-11700000D02*
X1600000Y-11400000D01*
X1300000Y-12000000D02*
X1600000Y-11700000D01*
X1200000Y-15825000D02*
X1200000Y-14950000D01*
X1200000Y-14950000D02*
X600000Y-14350000D01*
X-1300000Y-13000000D02*
X-1300000Y-13950000D01*
X-900000Y-14350000D02*
X600000Y-14350000D01*
X-1300000Y-13950000D02*
X-900000Y-14350000D01*
X-1300000Y-13000000D02*
X-1300000Y-12000000D01*
X-1600000Y-11700000D02*
X-1600000Y-11400000D01*
X-1300000Y-12000000D02*
X-1600000Y-11700000D01*
X-7350000Y10500000D02*
X-7350000Y9000000D01*
D24*
X700000Y-6250000D02*
X-1450000Y-6250000D01*
X-1800000Y-5900000D02*
X-2650000Y-5900000D01*
X-1450000Y-6250000D02*
X-1800000Y-5900000D01*
D25*
X-4350000Y-4400000D02*
X-4350000Y-5900000D01*
X7350000Y10500000D02*
X7350000Y9000000D01*
X1300000Y12125000D02*
X1300000Y11000000D01*
X1800000Y10500000D02*
X1300000Y11000000D01*
X5650000Y10500000D02*
X1800000Y10500000D01*
X0Y10000000D02*
X-500000Y9500000D01*
X0Y12125000D02*
X0Y10000000D01*
D24*
X775000Y-2275000D02*
X-500000Y-1000000D01*
X1712500Y-2275000D02*
X775000Y-2275000D01*
D25*
X650000Y12125000D02*
X650000Y11000000D01*
X650000Y9650000D02*
X500000Y9500000D01*
X650000Y11000000D02*
X650000Y9650000D01*
D24*
X500000Y-1400000D02*
X500000Y-1000000D01*
X825000Y-1725000D02*
X500000Y-1400000D01*
X1712500Y-1725000D02*
X825000Y-1725000D01*
D25*
X400000Y-17115000D02*
X450000Y-17165000D01*
X400000Y-15825000D02*
X400000Y-17115000D01*
X-2200000Y-28500000D02*
X-2900000Y-28500000D01*
X-3100000Y-28300000D02*
X-3100000Y-27200000D01*
X-2900000Y-28500000D02*
X-3100000Y-28300000D01*
X-1721999Y-135001D02*
X4664999Y-135001D01*
X4664999Y-135001D02*
X4800000Y0D01*
X-2640000Y783000D02*
X-1721999Y-135001D01*
X-2640000Y2422000D02*
X-2640000Y783000D01*
X1170000Y530000D02*
X1200000Y500000D01*
X1170000Y2422000D02*
X1170000Y530000D01*
X2800000Y-22700000D02*
X2700000Y-22600000D01*
X2800000Y-24175000D02*
X2800000Y-22700000D01*
X2440000Y510000D02*
X2450000Y500000D01*
X2440000Y2422000D02*
X2440000Y510000D01*
X2000000Y-22250000D02*
X1100000Y-21350000D01*
X2000000Y-24175000D02*
X2000000Y-22250000D01*
X-4175000Y-22000000D02*
X-5050000Y-22000000D01*
X-5537420Y-22487420D02*
X-5537420Y-27127420D01*
X-5537420Y-27127420D02*
X-8890000Y-30480000D01*
X-5050000Y-22000000D02*
X-5537420Y-22487420D01*
X-4925000Y-21200000D02*
X-5994630Y-22269630D01*
X-4175000Y-21200000D02*
X-4925000Y-21200000D01*
X-5994630Y-25044630D02*
X-8890000Y-27940000D01*
X-5994630Y-22269630D02*
X-5994630Y-25044630D01*
X-4175000Y-20400000D02*
X-5050000Y-20400000D01*
X-6451840Y-22961840D02*
X-8890000Y-25400000D01*
X-6451840Y-21801840D02*
X-6451840Y-22961840D01*
X-5050000Y-20400000D02*
X-6451840Y-21801840D01*
X-5630000Y-19600000D02*
X-8890000Y-22860000D01*
X-4175000Y-19600000D02*
X-5630000Y-19600000D01*
X-7370000Y-18800000D02*
X-8890000Y-20320000D01*
X-4175000Y-18800000D02*
X-7370000Y-18800000D01*
X-8670000Y-18000000D02*
X-8890000Y-17780000D01*
X-4175000Y-18000000D02*
X-8670000Y-18000000D01*
X-6930000Y-17200000D02*
X-8890000Y-15240000D01*
X-4175000Y-17200000D02*
X-6930000Y-17200000D01*
X-2800000Y-15825000D02*
X-2800000Y-15050000D01*
X-5150000Y-12700000D02*
X-8890000Y-12700000D01*
X-2800000Y-15050000D02*
X-5150000Y-12700000D01*
X-2000000Y-15825000D02*
X-2000000Y-15000000D01*
X-6840000Y-10160000D02*
X-8890000Y-10160000D01*
X-2000000Y-15000000D02*
X-6840000Y-10160000D01*
X-1200000Y-15825000D02*
X-1200000Y-15000000D01*
X-1200000Y-15000000D02*
X-1400000Y-14800000D01*
X-1553408Y-14800000D02*
X-1400000Y-14800000D01*
X-8733408Y-7620000D02*
X-1553408Y-14800000D01*
X-8890000Y-7620000D02*
X-8733408Y-7620000D01*
X5779799Y-27369799D02*
X8890000Y-30480000D01*
X1435839Y-27369799D02*
X5779799Y-27369799D01*
X500437Y-28305201D02*
X1435839Y-27369799D01*
X-338497Y-28305201D02*
X500437Y-28305201D01*
X-2000000Y-26643698D02*
X-338497Y-28305201D01*
X-2000000Y-24175000D02*
X-2000000Y-26643698D01*
X-1200000Y-24175000D02*
X-1200000Y-25000000D01*
X-1200000Y-25000000D02*
X426839Y-26626839D01*
X7576839Y-26626839D02*
X8890000Y-27940000D01*
X426839Y-26626839D02*
X7576839Y-26626839D01*
X-400000Y-24175000D02*
X-400000Y-25000000D01*
X8120371Y-26169629D02*
X8890000Y-25400000D01*
X769629Y-26169629D02*
X8120371Y-26169629D01*
X-400000Y-25000000D02*
X769629Y-26169629D01*
X400000Y-24175000D02*
X400000Y-25000000D01*
X6037580Y-25712420D02*
X8890000Y-22860000D01*
X1112420Y-25712420D02*
X6037580Y-25712420D01*
X400000Y-25000000D02*
X1112420Y-25712420D01*
X1200000Y-24175000D02*
X1200000Y-25000000D01*
X3954790Y-25255210D02*
X8890000Y-20320000D01*
X1455210Y-25255210D02*
X3954790Y-25255210D01*
X1200000Y-25000000D02*
X1455210Y-25255210D01*
X4175000Y-22800000D02*
X5100000Y-22800000D01*
X5100000Y-22800000D02*
X7336050Y-20563950D01*
X7336050Y-19333950D02*
X8890000Y-17780000D01*
X7336050Y-20563950D02*
X7336050Y-19333950D01*
X4175000Y-22000000D02*
X5000000Y-22000000D01*
X5000000Y-22000000D02*
X6878840Y-20121160D01*
X6878840Y-17251160D02*
X8890000Y-15240000D01*
X6878840Y-20121160D02*
X6878840Y-17251160D01*
X4175000Y-21200000D02*
X5000000Y-21200000D01*
X5000000Y-21200000D02*
X6421630Y-19778370D01*
X6421630Y-15168370D02*
X8890000Y-12700000D01*
X6421630Y-19778370D02*
X6421630Y-15168370D01*
X4175000Y-20400000D02*
X5050000Y-20400000D01*
X5050000Y-20400000D02*
X5964420Y-19485580D01*
X5964420Y-13085580D02*
X8890000Y-10160000D01*
X5964420Y-19485580D02*
X5964420Y-13085580D01*
X4175000Y-18000000D02*
X5000000Y-18000000D01*
X5507210Y-11002790D02*
X8890000Y-7620000D01*
X5507210Y-17492790D02*
X5507210Y-11002790D01*
X5000000Y-18000000D02*
X5507210Y-17492790D01*
D24*
X700000Y-3750000D02*
X-250000Y-3750000D01*
X-250000Y-3750000D02*
X-500000Y-3500000D01*
X-500000Y-3500000D02*
X-500000Y-3200000D01*
X4275000Y-1725000D02*
X4500000Y-1500000D01*
X3287500Y-1725000D02*
X4275000Y-1725000D01*
X-300000Y-3000000D02*
X-500000Y-3200000D01*
X-300000Y-3000000D02*
X1000000Y-3000000D01*
X3287500Y-2275000D02*
X5275000Y-2275000D01*
X4300000Y-3750000D02*
X5250000Y-3750000D01*
X5250000Y-3750000D02*
X5500000Y-3500000D01*
X5500000Y-2500000D02*
X5275000Y-2275000D01*
X5500000Y-3500000D02*
X5500000Y-2500000D01*
X5750000Y-4750000D02*
X6000000Y-4500000D01*
X4300000Y-4750000D02*
X5750000Y-4750000D01*
D25*
X-400000Y-19600000D02*
X-500000Y-19500000D01*
X4175000Y-19600000D02*
X-400000Y-19600000D01*
D24*
X4300000Y-6250000D02*
X5250000Y-6250000D01*
X5250000Y-6250000D02*
X5500000Y-6500000D01*
X5500000Y-6500000D02*
X5500000Y-8000000D01*
X4610000Y-8890000D02*
X5500000Y-8000000D01*
X2540000Y-8890000D02*
X4610000Y-8890000D01*
D25*
X800000Y-18800000D02*
X750000Y-18750000D01*
X4175000Y-18800000D02*
X800000Y-18800000D01*
X-5371488Y-28093377D02*
X-5322375Y-28255283D01*
X-5242618Y-28404497D01*
X-5224233Y-28426899D01*
X-5280537Y-28495506D01*
X-5339502Y-28605820D01*
X-5375812Y-28725518D01*
X-5388072Y-28850000D01*
X-5385000Y-29064250D01*
X-5226250Y-29223000D01*
X-4427000Y-29223000D01*
X-4427000Y-29203000D01*
X-4173000Y-29203000D01*
X-4173000Y-29223000D01*
X-4153000Y-29223000D01*
X-4153000Y-29477000D01*
X-4173000Y-29477000D01*
X-4173000Y-30326250D01*
X-4014250Y-30485000D01*
X-3850000Y-30488072D01*
X-3725518Y-30475812D01*
X-3605820Y-30439502D01*
X-3495506Y-30380537D01*
X-3398815Y-30301185D01*
X-3319463Y-30204494D01*
X-3260498Y-30094180D01*
X-3224188Y-29974482D01*
X-3211928Y-29850000D01*
X-3214450Y-29674096D01*
X-3151185Y-29751185D01*
X-3054494Y-29830537D01*
X-2944180Y-29889502D01*
X-2824482Y-29925812D01*
X-2700000Y-29938072D01*
X-1700000Y-29938072D01*
X-1575518Y-29925812D01*
X-1455820Y-29889502D01*
X-1345506Y-29830537D01*
X-1248815Y-29751185D01*
X-1169463Y-29654494D01*
X-1110498Y-29544180D01*
X-1074188Y-29424482D01*
X-1061928Y-29300000D01*
X-1061928Y-28659401D01*
X-903776Y-28817553D01*
X-879919Y-28846623D01*
X-857342Y-28865152D01*
X-895050Y-28921586D01*
X-971186Y-29105394D01*
X-1010000Y-29300524D01*
X-1010000Y-29499476D01*
X-971186Y-29694606D01*
X-895050Y-29878414D01*
X-784518Y-30043837D01*
X-643837Y-30184518D01*
X-478414Y-30295050D01*
X-294606Y-30371186D01*
X-99476Y-30410000D01*
X99476Y-30410000D01*
X294606Y-30371186D01*
X478414Y-30295050D01*
X643837Y-30184518D01*
X784518Y-30043837D01*
X895050Y-29878414D01*
X971186Y-29694606D01*
X1010000Y-29499476D01*
X1010000Y-29300524D01*
X971186Y-29105394D01*
X907500Y-28951643D01*
X925829Y-28941846D01*
X1041859Y-28846623D01*
X1064803Y-28818665D01*
X1061928Y-29300000D01*
X1074188Y-29424482D01*
X1110498Y-29544180D01*
X1169463Y-29654494D01*
X1248815Y-29751185D01*
X1345506Y-29830537D01*
X1455820Y-29889502D01*
X1575518Y-29925812D01*
X1700000Y-29938072D01*
X1914250Y-29935000D01*
X2073000Y-29776250D01*
X2073000Y-28627000D01*
X2327000Y-28627000D01*
X2327000Y-29776250D01*
X2485750Y-29935000D01*
X2700000Y-29938072D01*
X2824482Y-29925812D01*
X2944180Y-29889502D01*
X3054494Y-29830537D01*
X3151185Y-29751185D01*
X3230537Y-29654494D01*
X3289502Y-29544180D01*
X3325812Y-29424482D01*
X3338072Y-29300000D01*
X3335000Y-28785750D01*
X3176250Y-28627000D01*
X2327000Y-28627000D01*
X2073000Y-28627000D01*
X2053000Y-28627000D01*
X2053000Y-28373000D01*
X2073000Y-28373000D01*
X2073000Y-28353000D01*
X2327000Y-28353000D01*
X2327000Y-28373000D01*
X3176250Y-28373000D01*
X3335000Y-28214250D01*
X3335493Y-28131799D01*
X5464169Y-28131799D01*
X7490843Y-30158474D01*
X7455000Y-30338665D01*
X7455000Y-30621335D01*
X7510147Y-30898574D01*
X7618320Y-31159727D01*
X7738774Y-31340000D01*
X-7738774Y-31340000D01*
X-7618320Y-31159727D01*
X-7510147Y-30898574D01*
X-7455000Y-30621335D01*
X-7455000Y-30338665D01*
X-7490843Y-30158473D01*
X-7182370Y-29850000D01*
X-5388072Y-29850000D01*
X-5375812Y-29974482D01*
X-5339502Y-30094180D01*
X-5280537Y-30204494D01*
X-5201185Y-30301185D01*
X-5104494Y-30380537D01*
X-4994180Y-30439502D01*
X-4874482Y-30475812D01*
X-4750000Y-30488072D01*
X-4585750Y-30485000D01*
X-4427000Y-30326250D01*
X-4427000Y-29477000D01*
X-5226250Y-29477000D01*
X-5385000Y-29635750D01*
X-5388072Y-29850000D01*
X-7182370Y-29850000D01*
X-5376353Y-28043984D01*
X-5371488Y-28093377D01*
G04 #@! TA.AperFunction,Conductor*
D26*
G36*
X-5371488Y-28093377D02*
G01*
X-5322375Y-28255283D01*
X-5242618Y-28404497D01*
X-5224233Y-28426899D01*
X-5280537Y-28495506D01*
X-5339502Y-28605820D01*
X-5375812Y-28725518D01*
X-5388072Y-28850000D01*
X-5385000Y-29064250D01*
X-5226250Y-29223000D01*
X-4427000Y-29223000D01*
X-4427000Y-29203000D01*
X-4173000Y-29203000D01*
X-4173000Y-29223000D01*
X-4153000Y-29223000D01*
X-4153000Y-29477000D01*
X-4173000Y-29477000D01*
X-4173000Y-30326250D01*
X-4014250Y-30485000D01*
X-3850000Y-30488072D01*
X-3725518Y-30475812D01*
X-3605820Y-30439502D01*
X-3495506Y-30380537D01*
X-3398815Y-30301185D01*
X-3319463Y-30204494D01*
X-3260498Y-30094180D01*
X-3224188Y-29974482D01*
X-3211928Y-29850000D01*
X-3214450Y-29674096D01*
X-3151185Y-29751185D01*
X-3054494Y-29830537D01*
X-2944180Y-29889502D01*
X-2824482Y-29925812D01*
X-2700000Y-29938072D01*
X-1700000Y-29938072D01*
X-1575518Y-29925812D01*
X-1455820Y-29889502D01*
X-1345506Y-29830537D01*
X-1248815Y-29751185D01*
X-1169463Y-29654494D01*
X-1110498Y-29544180D01*
X-1074188Y-29424482D01*
X-1061928Y-29300000D01*
X-1061928Y-28659401D01*
X-903776Y-28817553D01*
X-879919Y-28846623D01*
X-857342Y-28865152D01*
X-895050Y-28921586D01*
X-971186Y-29105394D01*
X-1010000Y-29300524D01*
X-1010000Y-29499476D01*
X-971186Y-29694606D01*
X-895050Y-29878414D01*
X-784518Y-30043837D01*
X-643837Y-30184518D01*
X-478414Y-30295050D01*
X-294606Y-30371186D01*
X-99476Y-30410000D01*
X99476Y-30410000D01*
X294606Y-30371186D01*
X478414Y-30295050D01*
X643837Y-30184518D01*
X784518Y-30043837D01*
X895050Y-29878414D01*
X971186Y-29694606D01*
X1010000Y-29499476D01*
X1010000Y-29300524D01*
X971186Y-29105394D01*
X907500Y-28951643D01*
X925829Y-28941846D01*
X1041859Y-28846623D01*
X1064803Y-28818665D01*
X1061928Y-29300000D01*
X1074188Y-29424482D01*
X1110498Y-29544180D01*
X1169463Y-29654494D01*
X1248815Y-29751185D01*
X1345506Y-29830537D01*
X1455820Y-29889502D01*
X1575518Y-29925812D01*
X1700000Y-29938072D01*
X1914250Y-29935000D01*
X2073000Y-29776250D01*
X2073000Y-28627000D01*
X2327000Y-28627000D01*
X2327000Y-29776250D01*
X2485750Y-29935000D01*
X2700000Y-29938072D01*
X2824482Y-29925812D01*
X2944180Y-29889502D01*
X3054494Y-29830537D01*
X3151185Y-29751185D01*
X3230537Y-29654494D01*
X3289502Y-29544180D01*
X3325812Y-29424482D01*
X3338072Y-29300000D01*
X3335000Y-28785750D01*
X3176250Y-28627000D01*
X2327000Y-28627000D01*
X2073000Y-28627000D01*
X2053000Y-28627000D01*
X2053000Y-28373000D01*
X2073000Y-28373000D01*
X2073000Y-28353000D01*
X2327000Y-28353000D01*
X2327000Y-28373000D01*
X3176250Y-28373000D01*
X3335000Y-28214250D01*
X3335493Y-28131799D01*
X5464169Y-28131799D01*
X7490843Y-30158474D01*
X7455000Y-30338665D01*
X7455000Y-30621335D01*
X7510147Y-30898574D01*
X7618320Y-31159727D01*
X7738774Y-31340000D01*
X-7738774Y-31340000D01*
X-7618320Y-31159727D01*
X-7510147Y-30898574D01*
X-7455000Y-30621335D01*
X-7455000Y-30338665D01*
X-7490843Y-30158473D01*
X-7182370Y-29850000D01*
X-5388072Y-29850000D01*
X-5375812Y-29974482D01*
X-5339502Y-30094180D01*
X-5280537Y-30204494D01*
X-5201185Y-30301185D01*
X-5104494Y-30380537D01*
X-4994180Y-30439502D01*
X-4874482Y-30475812D01*
X-4750000Y-30488072D01*
X-4585750Y-30485000D01*
X-4427000Y-30326250D01*
X-4427000Y-29477000D01*
X-5226250Y-29477000D01*
X-5385000Y-29635750D01*
X-5388072Y-29850000D01*
X-7182370Y-29850000D01*
X-5376353Y-28043984D01*
X-5371488Y-28093377D01*
G37*
G04 #@! TD.AperFunction*
D25*
X-4223000Y-1273000D02*
X-4203000Y-1273000D01*
X-4203000Y-1527000D01*
X-4223000Y-1527000D01*
X-4223000Y-2773000D01*
X-4203000Y-2773000D01*
X-4203000Y-3027000D01*
X-4223000Y-3027000D01*
X-4223000Y-3047000D01*
X-4477000Y-3047000D01*
X-4477000Y-3027000D01*
X-5326250Y-3027000D01*
X-5485000Y-3185750D01*
X-5488072Y-3350000D01*
X-5475812Y-3474482D01*
X-5439502Y-3594180D01*
X-5380537Y-3704494D01*
X-5360484Y-3728928D01*
X-5422375Y-3844717D01*
X-5471488Y-4006623D01*
X-5488072Y-4175000D01*
X-5488072Y-4625000D01*
X-5471488Y-4793377D01*
X-5422375Y-4955283D01*
X-5342618Y-5104497D01*
X-5305275Y-5150000D01*
X-5342618Y-5195503D01*
X-5422375Y-5344717D01*
X-5471488Y-5506623D01*
X-5488072Y-5675000D01*
X-5488072Y-6125000D01*
X-5471488Y-6293377D01*
X-5422375Y-6455283D01*
X-5342618Y-6604497D01*
X-5235284Y-6735284D01*
X-5104497Y-6842618D01*
X-4955283Y-6922375D01*
X-4793377Y-6971488D01*
X-4625000Y-6988072D01*
X-4075000Y-6988072D01*
X-3906623Y-6971488D01*
X-3744717Y-6922375D01*
X-3595503Y-6842618D01*
X-3500000Y-6764241D01*
X-3404497Y-6842618D01*
X-3255283Y-6922375D01*
X-3093377Y-6971488D01*
X-2925000Y-6988072D01*
X-2375000Y-6988072D01*
X-2206623Y-6971488D01*
X-2044717Y-6922375D01*
X-1895503Y-6842618D01*
X-1892253Y-6839950D01*
X-1861213Y-6865424D01*
X-1733249Y-6933822D01*
X-1636825Y-6963072D01*
X-1594399Y-6975942D01*
X-1450000Y-6990164D01*
X-1413814Y-6986600D01*
X736186Y-6986600D01*
X844399Y-6975942D01*
X886825Y-6963072D01*
X1400000Y-6963072D01*
X1524482Y-6950812D01*
X1644180Y-6914502D01*
X1702397Y-6883384D01*
X1750000Y-6888072D01*
X2214250Y-6885000D01*
X2373000Y-6726250D01*
X2373000Y-5959680D01*
X2385000Y-5908750D01*
X2373000Y-5896750D01*
X2373000Y-5603250D01*
X2385000Y-5591250D01*
X2373000Y-5540320D01*
X2373000Y-5127000D01*
X2353000Y-5127000D01*
X2353000Y-4873000D01*
X2373000Y-4873000D01*
X2373000Y-4853000D01*
X2627000Y-4853000D01*
X2627000Y-4873000D01*
X2647000Y-4873000D01*
X2647000Y-5127000D01*
X2627000Y-5127000D01*
X2627000Y-6726250D01*
X2785750Y-6885000D01*
X3250000Y-6888072D01*
X3297603Y-6883384D01*
X3355820Y-6914502D01*
X3475518Y-6950812D01*
X3600000Y-6963072D01*
X4113175Y-6963072D01*
X4155601Y-6975942D01*
X4263814Y-6986600D01*
X4763400Y-6986600D01*
X4763401Y-7694889D01*
X4304891Y-8153400D01*
X3773679Y-8153400D01*
X3654637Y-7975241D01*
X3454759Y-7775363D01*
X3219727Y-7618320D01*
X2958574Y-7510147D01*
X2681335Y-7455000D01*
X2398665Y-7455000D01*
X2121426Y-7510147D01*
X1860273Y-7618320D01*
X1625241Y-7775363D01*
X1425363Y-7975241D01*
X1268320Y-8210273D01*
X1160147Y-8471426D01*
X1105000Y-8748665D01*
X1105000Y-9031335D01*
X1160147Y-9308574D01*
X1268320Y-9569727D01*
X1425363Y-9804759D01*
X1625241Y-10004637D01*
X1860273Y-10161680D01*
X2121426Y-10269853D01*
X2398665Y-10325000D01*
X2681335Y-10325000D01*
X2714671Y-10318369D01*
X2637649Y-10395391D01*
X2608579Y-10419248D01*
X2584722Y-10448318D01*
X2584721Y-10448319D01*
X2513355Y-10535278D01*
X2442599Y-10667655D01*
X2400514Y-10806390D01*
X2307251Y-10692749D01*
X2187829Y-10594742D01*
X2051582Y-10521916D01*
X1903745Y-10477071D01*
X1750000Y-10461928D01*
X1450000Y-10461928D01*
X1296255Y-10477071D01*
X1159342Y-10518602D01*
X1144180Y-10510498D01*
X1024482Y-10474188D01*
X900000Y-10461928D01*
X885750Y-10465000D01*
X777750Y-10573000D01*
X422250Y-10573000D01*
X314250Y-10465000D01*
X300000Y-10461928D01*
X175518Y-10474188D01*
X55820Y-10510498D01*
X0Y-10540335D01*
X-55820Y-10510498D01*
X-175518Y-10474188D01*
X-300000Y-10461928D01*
X-314250Y-10465000D01*
X-422250Y-10573000D01*
X-777750Y-10573000D01*
X-885750Y-10465000D01*
X-900000Y-10461928D01*
X-1024482Y-10474188D01*
X-1144180Y-10510498D01*
X-1159342Y-10518602D01*
X-1296255Y-10477071D01*
X-1450000Y-10461928D01*
X-1750000Y-10461928D01*
X-1903745Y-10477071D01*
X-2051582Y-10521916D01*
X-2187829Y-10594742D01*
X-2307251Y-10692749D01*
X-2405258Y-10812171D01*
X-2478084Y-10948418D01*
X-2522929Y-11096255D01*
X-2538072Y-11250000D01*
X-2538072Y-11550000D01*
X-2522929Y-11703745D01*
X-2481398Y-11840658D01*
X-2489502Y-11855820D01*
X-2525812Y-11975518D01*
X-2538072Y-12100000D01*
X-2538072Y-12737705D01*
X-6527112Y-8748665D01*
X-3975000Y-8748665D01*
X-3975000Y-9031335D01*
X-3919853Y-9308574D01*
X-3811680Y-9569727D01*
X-3654637Y-9804759D01*
X-3454759Y-10004637D01*
X-3219727Y-10161680D01*
X-2958574Y-10269853D01*
X-2681335Y-10325000D01*
X-2398665Y-10325000D01*
X-2121426Y-10269853D01*
X-1860273Y-10161680D01*
X-1625241Y-10004637D01*
X-1425363Y-9804759D01*
X-1268320Y-9569727D01*
X-1160147Y-9308574D01*
X-1105000Y-9031335D01*
X-1105000Y-8748665D01*
X-1160147Y-8471426D01*
X-1268320Y-8210273D01*
X-1425363Y-7975241D01*
X-1625241Y-7775363D01*
X-1860273Y-7618320D01*
X-2121426Y-7510147D01*
X-2398665Y-7455000D01*
X-2681335Y-7455000D01*
X-2958574Y-7510147D01*
X-3219727Y-7618320D01*
X-3454759Y-7775363D01*
X-3654637Y-7975241D01*
X-3811680Y-8210273D01*
X-3919853Y-8471426D01*
X-3975000Y-8748665D01*
X-6527112Y-8748665D01*
X-7464862Y-7810916D01*
X-7455000Y-7761335D01*
X-7455000Y-7478665D01*
X-7510147Y-7201426D01*
X-7618320Y-6940273D01*
X-7775363Y-6705241D01*
X-7975241Y-6505363D01*
X-8209128Y-6349085D01*
X-8148486Y-6316671D01*
X-8076903Y-6072702D01*
X-8890000Y-5259605D01*
X-8904143Y-5273748D01*
X-9083748Y-5094143D01*
X-9069605Y-5080000D01*
X-8710395Y-5080000D01*
X-7897298Y-5893097D01*
X-7653329Y-5821514D01*
X-7532429Y-5566004D01*
X-7463700Y-5291816D01*
X-7449783Y-5009488D01*
X-7491213Y-4729870D01*
X-7586397Y-4463708D01*
X-7653329Y-4338486D01*
X-7897298Y-4266903D01*
X-8710395Y-5080000D01*
X-9069605Y-5080000D01*
X-9083748Y-5065858D01*
X-8904143Y-4886253D01*
X-8890000Y-4900395D01*
X-8076903Y-4087298D01*
X-8148486Y-3843329D01*
X-8212992Y-3812806D01*
X-8210273Y-3811680D01*
X-7975241Y-3654637D01*
X-7775363Y-3454759D01*
X-7673293Y-3302000D01*
X-7497423Y-3302000D01*
X-7460000Y-3305686D01*
X-7422577Y-3302000D01*
X-7422574Y-3302000D01*
X-7310622Y-3290974D01*
X-7166985Y-3247402D01*
X-7034608Y-3176645D01*
X-6918578Y-3081422D01*
X-6894716Y-3052346D01*
X-5369372Y-1527002D01*
X-5326252Y-1527002D01*
X-5485000Y-1685750D01*
X-5488072Y-1850000D01*
X-5475812Y-1974482D01*
X-5439502Y-2094180D01*
X-5409665Y-2150000D01*
X-5439502Y-2205820D01*
X-5475812Y-2325518D01*
X-5488072Y-2450000D01*
X-5485000Y-2614250D01*
X-5326250Y-2773000D01*
X-4477000Y-2773000D01*
X-4477000Y-1527000D01*
X-4497000Y-1527000D01*
X-4497000Y-1273000D01*
X-4477000Y-1273000D01*
X-4477000Y-1253000D01*
X-4223000Y-1253000D01*
X-4223000Y-1273000D01*
G04 #@! TA.AperFunction,Conductor*
D26*
G36*
X-4223000Y-1273000D02*
G01*
X-4203000Y-1273000D01*
X-4203000Y-1527000D01*
X-4223000Y-1527000D01*
X-4223000Y-2773000D01*
X-4203000Y-2773000D01*
X-4203000Y-3027000D01*
X-4223000Y-3027000D01*
X-4223000Y-3047000D01*
X-4477000Y-3047000D01*
X-4477000Y-3027000D01*
X-5326250Y-3027000D01*
X-5485000Y-3185750D01*
X-5488072Y-3350000D01*
X-5475812Y-3474482D01*
X-5439502Y-3594180D01*
X-5380537Y-3704494D01*
X-5360484Y-3728928D01*
X-5422375Y-3844717D01*
X-5471488Y-4006623D01*
X-5488072Y-4175000D01*
X-5488072Y-4625000D01*
X-5471488Y-4793377D01*
X-5422375Y-4955283D01*
X-5342618Y-5104497D01*
X-5305275Y-5150000D01*
X-5342618Y-5195503D01*
X-5422375Y-5344717D01*
X-5471488Y-5506623D01*
X-5488072Y-5675000D01*
X-5488072Y-6125000D01*
X-5471488Y-6293377D01*
X-5422375Y-6455283D01*
X-5342618Y-6604497D01*
X-5235284Y-6735284D01*
X-5104497Y-6842618D01*
X-4955283Y-6922375D01*
X-4793377Y-6971488D01*
X-4625000Y-6988072D01*
X-4075000Y-6988072D01*
X-3906623Y-6971488D01*
X-3744717Y-6922375D01*
X-3595503Y-6842618D01*
X-3500000Y-6764241D01*
X-3404497Y-6842618D01*
X-3255283Y-6922375D01*
X-3093377Y-6971488D01*
X-2925000Y-6988072D01*
X-2375000Y-6988072D01*
X-2206623Y-6971488D01*
X-2044717Y-6922375D01*
X-1895503Y-6842618D01*
X-1892253Y-6839950D01*
X-1861213Y-6865424D01*
X-1733249Y-6933822D01*
X-1636825Y-6963072D01*
X-1594399Y-6975942D01*
X-1450000Y-6990164D01*
X-1413814Y-6986600D01*
X736186Y-6986600D01*
X844399Y-6975942D01*
X886825Y-6963072D01*
X1400000Y-6963072D01*
X1524482Y-6950812D01*
X1644180Y-6914502D01*
X1702397Y-6883384D01*
X1750000Y-6888072D01*
X2214250Y-6885000D01*
X2373000Y-6726250D01*
X2373000Y-5959680D01*
X2385000Y-5908750D01*
X2373000Y-5896750D01*
X2373000Y-5603250D01*
X2385000Y-5591250D01*
X2373000Y-5540320D01*
X2373000Y-5127000D01*
X2353000Y-5127000D01*
X2353000Y-4873000D01*
X2373000Y-4873000D01*
X2373000Y-4853000D01*
X2627000Y-4853000D01*
X2627000Y-4873000D01*
X2647000Y-4873000D01*
X2647000Y-5127000D01*
X2627000Y-5127000D01*
X2627000Y-6726250D01*
X2785750Y-6885000D01*
X3250000Y-6888072D01*
X3297603Y-6883384D01*
X3355820Y-6914502D01*
X3475518Y-6950812D01*
X3600000Y-6963072D01*
X4113175Y-6963072D01*
X4155601Y-6975942D01*
X4263814Y-6986600D01*
X4763400Y-6986600D01*
X4763401Y-7694889D01*
X4304891Y-8153400D01*
X3773679Y-8153400D01*
X3654637Y-7975241D01*
X3454759Y-7775363D01*
X3219727Y-7618320D01*
X2958574Y-7510147D01*
X2681335Y-7455000D01*
X2398665Y-7455000D01*
X2121426Y-7510147D01*
X1860273Y-7618320D01*
X1625241Y-7775363D01*
X1425363Y-7975241D01*
X1268320Y-8210273D01*
X1160147Y-8471426D01*
X1105000Y-8748665D01*
X1105000Y-9031335D01*
X1160147Y-9308574D01*
X1268320Y-9569727D01*
X1425363Y-9804759D01*
X1625241Y-10004637D01*
X1860273Y-10161680D01*
X2121426Y-10269853D01*
X2398665Y-10325000D01*
X2681335Y-10325000D01*
X2714671Y-10318369D01*
X2637649Y-10395391D01*
X2608579Y-10419248D01*
X2584722Y-10448318D01*
X2584721Y-10448319D01*
X2513355Y-10535278D01*
X2442599Y-10667655D01*
X2400514Y-10806390D01*
X2307251Y-10692749D01*
X2187829Y-10594742D01*
X2051582Y-10521916D01*
X1903745Y-10477071D01*
X1750000Y-10461928D01*
X1450000Y-10461928D01*
X1296255Y-10477071D01*
X1159342Y-10518602D01*
X1144180Y-10510498D01*
X1024482Y-10474188D01*
X900000Y-10461928D01*
X885750Y-10465000D01*
X777750Y-10573000D01*
X422250Y-10573000D01*
X314250Y-10465000D01*
X300000Y-10461928D01*
X175518Y-10474188D01*
X55820Y-10510498D01*
X0Y-10540335D01*
X-55820Y-10510498D01*
X-175518Y-10474188D01*
X-300000Y-10461928D01*
X-314250Y-10465000D01*
X-422250Y-10573000D01*
X-777750Y-10573000D01*
X-885750Y-10465000D01*
X-900000Y-10461928D01*
X-1024482Y-10474188D01*
X-1144180Y-10510498D01*
X-1159342Y-10518602D01*
X-1296255Y-10477071D01*
X-1450000Y-10461928D01*
X-1750000Y-10461928D01*
X-1903745Y-10477071D01*
X-2051582Y-10521916D01*
X-2187829Y-10594742D01*
X-2307251Y-10692749D01*
X-2405258Y-10812171D01*
X-2478084Y-10948418D01*
X-2522929Y-11096255D01*
X-2538072Y-11250000D01*
X-2538072Y-11550000D01*
X-2522929Y-11703745D01*
X-2481398Y-11840658D01*
X-2489502Y-11855820D01*
X-2525812Y-11975518D01*
X-2538072Y-12100000D01*
X-2538072Y-12737705D01*
X-6527112Y-8748665D01*
X-3975000Y-8748665D01*
X-3975000Y-9031335D01*
X-3919853Y-9308574D01*
X-3811680Y-9569727D01*
X-3654637Y-9804759D01*
X-3454759Y-10004637D01*
X-3219727Y-10161680D01*
X-2958574Y-10269853D01*
X-2681335Y-10325000D01*
X-2398665Y-10325000D01*
X-2121426Y-10269853D01*
X-1860273Y-10161680D01*
X-1625241Y-10004637D01*
X-1425363Y-9804759D01*
X-1268320Y-9569727D01*
X-1160147Y-9308574D01*
X-1105000Y-9031335D01*
X-1105000Y-8748665D01*
X-1160147Y-8471426D01*
X-1268320Y-8210273D01*
X-1425363Y-7975241D01*
X-1625241Y-7775363D01*
X-1860273Y-7618320D01*
X-2121426Y-7510147D01*
X-2398665Y-7455000D01*
X-2681335Y-7455000D01*
X-2958574Y-7510147D01*
X-3219727Y-7618320D01*
X-3454759Y-7775363D01*
X-3654637Y-7975241D01*
X-3811680Y-8210273D01*
X-3919853Y-8471426D01*
X-3975000Y-8748665D01*
X-6527112Y-8748665D01*
X-7464862Y-7810916D01*
X-7455000Y-7761335D01*
X-7455000Y-7478665D01*
X-7510147Y-7201426D01*
X-7618320Y-6940273D01*
X-7775363Y-6705241D01*
X-7975241Y-6505363D01*
X-8209128Y-6349085D01*
X-8148486Y-6316671D01*
X-8076903Y-6072702D01*
X-8890000Y-5259605D01*
X-8904143Y-5273748D01*
X-9083748Y-5094143D01*
X-9069605Y-5080000D01*
X-8710395Y-5080000D01*
X-7897298Y-5893097D01*
X-7653329Y-5821514D01*
X-7532429Y-5566004D01*
X-7463700Y-5291816D01*
X-7449783Y-5009488D01*
X-7491213Y-4729870D01*
X-7586397Y-4463708D01*
X-7653329Y-4338486D01*
X-7897298Y-4266903D01*
X-8710395Y-5080000D01*
X-9069605Y-5080000D01*
X-9083748Y-5065858D01*
X-8904143Y-4886253D01*
X-8890000Y-4900395D01*
X-8076903Y-4087298D01*
X-8148486Y-3843329D01*
X-8212992Y-3812806D01*
X-8210273Y-3811680D01*
X-7975241Y-3654637D01*
X-7775363Y-3454759D01*
X-7673293Y-3302000D01*
X-7497423Y-3302000D01*
X-7460000Y-3305686D01*
X-7422577Y-3302000D01*
X-7422574Y-3302000D01*
X-7310622Y-3290974D01*
X-7166985Y-3247402D01*
X-7034608Y-3176645D01*
X-6918578Y-3081422D01*
X-6894716Y-3052346D01*
X-5369372Y-1527002D01*
X-5326252Y-1527002D01*
X-5485000Y-1685750D01*
X-5488072Y-1850000D01*
X-5475812Y-1974482D01*
X-5439502Y-2094180D01*
X-5409665Y-2150000D01*
X-5439502Y-2205820D01*
X-5475812Y-2325518D01*
X-5488072Y-2450000D01*
X-5485000Y-2614250D01*
X-5326250Y-2773000D01*
X-4477000Y-2773000D01*
X-4477000Y-1527000D01*
X-4497000Y-1527000D01*
X-4497000Y-1273000D01*
X-4477000Y-1273000D01*
X-4477000Y-1253000D01*
X-4223000Y-1253000D01*
X-4223000Y-1273000D01*
G37*
G04 #@! TD.AperFunction*
D25*
X4327000Y-11523000D02*
X4347000Y-11523000D01*
X4347000Y-11777000D01*
X4327000Y-11777000D01*
X4327000Y-11797000D01*
X4073000Y-11797000D01*
X4073000Y-11777000D01*
X4053000Y-11777000D01*
X4053000Y-11523000D01*
X4073000Y-11523000D01*
X4073000Y-11503000D01*
X4327000Y-11503000D01*
X4327000Y-11523000D01*
G04 #@! TA.AperFunction,Conductor*
D26*
G36*
X4327000Y-11523000D02*
G01*
X4347000Y-11523000D01*
X4347000Y-11777000D01*
X4327000Y-11777000D01*
X4327000Y-11797000D01*
X4073000Y-11797000D01*
X4073000Y-11777000D01*
X4053000Y-11777000D01*
X4053000Y-11523000D01*
X4073000Y-11523000D01*
X4073000Y-11503000D01*
X4327000Y-11503000D01*
X4327000Y-11523000D01*
G37*
G04 #@! TD.AperFunction*
D25*
X9083748Y-5065858D02*
X9069605Y-5080000D01*
X9083748Y-5094143D01*
X8904143Y-5273748D01*
X8890000Y-5259605D01*
X8076903Y-6072702D01*
X8148486Y-6316671D01*
X8212992Y-6347194D01*
X8210273Y-6348320D01*
X7975241Y-6505363D01*
X7775363Y-6705241D01*
X7618320Y-6940273D01*
X7510147Y-7201426D01*
X7455000Y-7478665D01*
X7455000Y-7761335D01*
X7490843Y-7941526D01*
X4994859Y-10437511D01*
X4965789Y-10461368D01*
X4941932Y-10490438D01*
X4941931Y-10490439D01*
X4886377Y-10558131D01*
X4774482Y-10524188D01*
X4674008Y-10514292D01*
X6692353Y-8495948D01*
X6721422Y-8472092D01*
X6816645Y-8356062D01*
X6887402Y-8223685D01*
X6930974Y-8080048D01*
X6942000Y-7968096D01*
X6942000Y-7968094D01*
X6945686Y-7930671D01*
X6942000Y-7893248D01*
X6942000Y-5529709D01*
X7456450Y-5015259D01*
X7449783Y-5150512D01*
X7491213Y-5430130D01*
X7586397Y-5696292D01*
X7653329Y-5821514D01*
X7897298Y-5893097D01*
X8710395Y-5080000D01*
X8696253Y-5065858D01*
X8875858Y-4886253D01*
X8890000Y-4900395D01*
X8904143Y-4886253D01*
X9083748Y-5065858D01*
G04 #@! TA.AperFunction,Conductor*
D26*
G36*
X9083748Y-5065858D02*
G01*
X9069605Y-5080000D01*
X9083748Y-5094143D01*
X8904143Y-5273748D01*
X8890000Y-5259605D01*
X8076903Y-6072702D01*
X8148486Y-6316671D01*
X8212992Y-6347194D01*
X8210273Y-6348320D01*
X7975241Y-6505363D01*
X7775363Y-6705241D01*
X7618320Y-6940273D01*
X7510147Y-7201426D01*
X7455000Y-7478665D01*
X7455000Y-7761335D01*
X7490843Y-7941526D01*
X4994859Y-10437511D01*
X4965789Y-10461368D01*
X4941932Y-10490438D01*
X4941931Y-10490439D01*
X4886377Y-10558131D01*
X4774482Y-10524188D01*
X4674008Y-10514292D01*
X6692353Y-8495948D01*
X6721422Y-8472092D01*
X6816645Y-8356062D01*
X6887402Y-8223685D01*
X6930974Y-8080048D01*
X6942000Y-7968096D01*
X6942000Y-7968094D01*
X6945686Y-7930671D01*
X6942000Y-7893248D01*
X6942000Y-5529709D01*
X7456450Y-5015259D01*
X7449783Y-5150512D01*
X7491213Y-5430130D01*
X7586397Y-5696292D01*
X7653329Y-5821514D01*
X7897298Y-5893097D01*
X8710395Y-5080000D01*
X8696253Y-5065858D01*
X8875858Y-4886253D01*
X8890000Y-4900395D01*
X8904143Y-4886253D01*
X9083748Y-5065858D01*
G37*
G04 #@! TD.AperFunction*
D25*
X7490843Y-2218473D02*
X7455000Y-2398665D01*
X7455000Y-2681335D01*
X7496803Y-2891488D01*
X6608684Y-3779607D01*
X6599087Y-3770010D01*
X6445162Y-3667160D01*
X6274129Y-3596316D01*
X6231513Y-3587839D01*
X6236600Y-3536186D01*
X6236600Y-3536177D01*
X6240163Y-3500001D01*
X6236600Y-3463825D01*
X6236600Y-2536175D01*
X6240163Y-2499999D01*
X6236600Y-2463823D01*
X6236600Y-2463814D01*
X6225942Y-2355601D01*
X6183822Y-2216751D01*
X6115424Y-2088787D01*
X6023375Y-1976625D01*
X5995263Y-1953554D01*
X5821446Y-1779737D01*
X5798375Y-1751625D01*
X5686213Y-1659576D01*
X5558249Y-1591178D01*
X5439800Y-1555247D01*
X5439800Y-1407438D01*
X5403684Y-1225871D01*
X5332840Y-1054838D01*
X5229990Y-900913D01*
X5186299Y-857222D01*
X5245162Y-832840D01*
X5399087Y-729990D01*
X5529990Y-599087D01*
X5632840Y-445162D01*
X5657646Y-385276D01*
X7490843Y-2218473D01*
G04 #@! TA.AperFunction,Conductor*
D26*
G36*
X7490843Y-2218473D02*
G01*
X7455000Y-2398665D01*
X7455000Y-2681335D01*
X7496803Y-2891488D01*
X6608684Y-3779607D01*
X6599087Y-3770010D01*
X6445162Y-3667160D01*
X6274129Y-3596316D01*
X6231513Y-3587839D01*
X6236600Y-3536186D01*
X6236600Y-3536177D01*
X6240163Y-3500001D01*
X6236600Y-3463825D01*
X6236600Y-2536175D01*
X6240163Y-2499999D01*
X6236600Y-2463823D01*
X6236600Y-2463814D01*
X6225942Y-2355601D01*
X6183822Y-2216751D01*
X6115424Y-2088787D01*
X6023375Y-1976625D01*
X5995263Y-1953554D01*
X5821446Y-1779737D01*
X5798375Y-1751625D01*
X5686213Y-1659576D01*
X5558249Y-1591178D01*
X5439800Y-1555247D01*
X5439800Y-1407438D01*
X5403684Y-1225871D01*
X5332840Y-1054838D01*
X5229990Y-900913D01*
X5186299Y-857222D01*
X5245162Y-832840D01*
X5399087Y-729990D01*
X5529990Y-599087D01*
X5632840Y-445162D01*
X5657646Y-385276D01*
X7490843Y-2218473D01*
G37*
G04 #@! TD.AperFunction*
D25*
X-4680537Y16304494D02*
X-4739502Y16194180D01*
X-4775812Y16074482D01*
X-4788072Y15950000D01*
X-4785000Y15285750D01*
X-4626250Y15127000D01*
X-3377000Y15127000D01*
X-3377000Y15147000D01*
X-3123000Y15147000D01*
X-3123000Y15127000D01*
X-1873750Y15127000D01*
X-1715000Y15285750D01*
X-1711928Y15950000D01*
X-1724188Y16074482D01*
X-1760498Y16194180D01*
X-1819463Y16304494D01*
X-1848602Y16340000D01*
X1848602Y16340000D01*
X1819463Y16304494D01*
X1760498Y16194180D01*
X1724188Y16074482D01*
X1711928Y15950000D01*
X1715000Y15285750D01*
X1873750Y15127000D01*
X3123000Y15127000D01*
X3123000Y15147000D01*
X3377000Y15147000D01*
X3377000Y15127000D01*
X4626250Y15127000D01*
X4785000Y15285750D01*
X4788072Y15950000D01*
X4775812Y16074482D01*
X4739502Y16194180D01*
X4680537Y16304494D01*
X4651398Y16340000D01*
X7530335Y16340000D01*
X7500498Y16284180D01*
X7464188Y16164482D01*
X7451928Y16040000D01*
X7455000Y15525750D01*
X7613750Y15367000D01*
X8763000Y15367000D01*
X8763000Y15387000D01*
X9017000Y15387000D01*
X9017000Y15367000D01*
X9037000Y15367000D01*
X9037000Y15113000D01*
X9017000Y15113000D01*
X9017000Y13963750D01*
X9175750Y13805000D01*
X9340000Y13804019D01*
X9340000Y1438072D01*
X8090000Y1438072D01*
X7965518Y1425812D01*
X7845820Y1389502D01*
X7735506Y1330537D01*
X7638815Y1251185D01*
X7588164Y1189467D01*
X6412000Y2365630D01*
X6412000Y8063540D01*
X6500000Y8135759D01*
X6595503Y8057382D01*
X6744717Y7977625D01*
X6906623Y7928512D01*
X7075000Y7911928D01*
X7625000Y7911928D01*
X7793377Y7928512D01*
X7955283Y7977625D01*
X8104497Y8057382D01*
X8235284Y8164716D01*
X8342618Y8295503D01*
X8422375Y8444717D01*
X8471488Y8606623D01*
X8488072Y8775000D01*
X8488072Y9225000D01*
X8471488Y9393377D01*
X8422375Y9555283D01*
X8342618Y9704497D01*
X8305275Y9750000D01*
X8342618Y9795503D01*
X8422375Y9944717D01*
X8471488Y10106623D01*
X8488072Y10275000D01*
X8488072Y10725000D01*
X8471488Y10893377D01*
X8422375Y11055283D01*
X8342618Y11204497D01*
X8235284Y11335284D01*
X8104497Y11442618D01*
X7955283Y11522375D01*
X7793377Y11571488D01*
X7625000Y11588072D01*
X7075000Y11588072D01*
X6906623Y11571488D01*
X6744717Y11522375D01*
X6595503Y11442618D01*
X6500000Y11364241D01*
X6404497Y11442618D01*
X6255283Y11522375D01*
X6093377Y11571488D01*
X5925000Y11588072D01*
X5375000Y11588072D01*
X5206623Y11571488D01*
X5044717Y11522375D01*
X4895503Y11442618D01*
X4764716Y11335284D01*
X4704573Y11262000D01*
X4653039Y11262000D01*
X4680537Y11295506D01*
X4739502Y11405820D01*
X4775812Y11525518D01*
X4788072Y11650000D01*
X4785000Y12164250D01*
X4626250Y12323000D01*
X3227000Y12323000D01*
X3227000Y12303000D01*
X2973000Y12303000D01*
X2973000Y12323000D01*
X2953000Y12323000D01*
X2953000Y12577000D01*
X2973000Y12577000D01*
X2973000Y12597000D01*
X3227000Y12597000D01*
X3227000Y12577000D01*
X4626250Y12577000D01*
X4785000Y12735750D01*
X4788072Y13250000D01*
X4775812Y13374482D01*
X4739502Y13494180D01*
X4680537Y13604494D01*
X4643191Y13650000D01*
X4680537Y13695506D01*
X4739502Y13805820D01*
X4775812Y13925518D01*
X4788072Y14050000D01*
X4786269Y14440000D01*
X7451928Y14440000D01*
X7464188Y14315518D01*
X7500498Y14195820D01*
X7559463Y14085506D01*
X7638815Y13988815D01*
X7735506Y13909463D01*
X7845820Y13850498D01*
X7965518Y13814188D01*
X8090000Y13801928D01*
X8604250Y13805000D01*
X8763000Y13963750D01*
X8763000Y15113000D01*
X7613750Y15113000D01*
X7455000Y14954250D01*
X7451928Y14440000D01*
X4786269Y14440000D01*
X4785000Y14714250D01*
X4626250Y14873000D01*
X3377000Y14873000D01*
X3377000Y14853000D01*
X3123000Y14853000D01*
X3123000Y14873000D01*
X1873750Y14873000D01*
X1715000Y14714250D01*
X1712284Y14127000D01*
X-1712284Y14127000D01*
X-1715000Y14714250D01*
X-1873750Y14873000D01*
X-3123000Y14873000D01*
X-3123000Y14853000D01*
X-3377000Y14853000D01*
X-3377000Y14873000D01*
X-4626250Y14873000D01*
X-4785000Y14714250D01*
X-4788072Y14050000D01*
X-4775812Y13925518D01*
X-4739502Y13805820D01*
X-4680537Y13695506D01*
X-4643191Y13650000D01*
X-4680537Y13604494D01*
X-4739502Y13494180D01*
X-4775812Y13374482D01*
X-4788072Y13250000D01*
X-4785000Y12735750D01*
X-4626250Y12577000D01*
X-3227000Y12577000D01*
X-3227000Y12597000D01*
X-2973000Y12597000D01*
X-2973000Y12577000D01*
X-2953000Y12577000D01*
X-2953000Y12323000D01*
X-2973000Y12323000D01*
X-2973000Y11173750D01*
X-2814250Y11015000D01*
X-2050000Y11011928D01*
X-2042187Y11012697D01*
X-1985209Y10902600D01*
X-1907151Y10804861D01*
X-1811524Y10724228D01*
X-1702005Y10663801D01*
X-1582801Y10625901D01*
X-1481750Y10615000D01*
X-1323000Y10773750D01*
X-1323000Y10886322D01*
X-1277000Y10830271D01*
X-1277000Y10773750D01*
X-1118250Y10615000D01*
X-1017199Y10625901D01*
X-974687Y10639417D01*
X-924482Y10624188D01*
X-800000Y10611928D01*
X-761999Y10611928D01*
X-761999Y10406097D01*
X-774129Y10403684D01*
X-945162Y10332840D01*
X-1099087Y10229990D01*
X-1229990Y10099087D01*
X-1332840Y9945162D01*
X-1403684Y9774129D01*
X-1439800Y9592562D01*
X-1439800Y9407438D01*
X-1403684Y9225871D01*
X-1332840Y9054838D01*
X-1229990Y8900913D01*
X-1099087Y8770010D01*
X-945162Y8667160D01*
X-774129Y8596316D01*
X-592562Y8560200D01*
X-407438Y8560200D01*
X-225871Y8596316D01*
X-54838Y8667160D01*
X0Y8703802D01*
X54838Y8667160D01*
X225871Y8596316D01*
X407438Y8560200D01*
X592562Y8560200D01*
X774129Y8596316D01*
X945162Y8667160D01*
X1099087Y8770010D01*
X1229990Y8900913D01*
X1332840Y9054838D01*
X1403684Y9225871D01*
X1439800Y9407438D01*
X1439800Y9592562D01*
X1412000Y9732322D01*
X1412000Y9843368D01*
X1427125Y9835284D01*
X1506985Y9792598D01*
X1650622Y9749026D01*
X1762574Y9738000D01*
X1762577Y9738000D01*
X1800000Y9734314D01*
X1837423Y9738000D01*
X3089129Y9738000D01*
X3060200Y9592562D01*
X3060200Y9407438D01*
X3089580Y9259735D01*
X3000622Y9250974D01*
X2856985Y9207402D01*
X2795364Y9174465D01*
X2724607Y9136645D01*
X2690408Y9108578D01*
X2608578Y9041422D01*
X2584716Y9012346D01*
X1927649Y8355279D01*
X1898579Y8331422D01*
X1874722Y8302352D01*
X1874721Y8302351D01*
X1803355Y8215392D01*
X1756109Y8127000D01*
X-3137270Y8127000D01*
X-3096316Y8225871D01*
X-3060200Y8407438D01*
X-3060200Y8592562D01*
X-3096316Y8774129D01*
X-3167160Y8945162D01*
X-3203802Y9000000D01*
X-3167160Y9054838D01*
X-3096316Y9225871D01*
X-3060200Y9407438D01*
X-3060200Y9592562D01*
X-3096316Y9774129D01*
X-3167160Y9945162D01*
X-3270010Y10099087D01*
X-3400913Y10229990D01*
X-3554838Y10332840D01*
X-3725871Y10403684D01*
X-3907438Y10439800D01*
X-3973000Y10439800D01*
X-3973000Y11012639D01*
X-3385750Y11015000D01*
X-3227000Y11173750D01*
X-3227000Y12323000D01*
X-4626250Y12323000D01*
X-4785000Y12164250D01*
X-4788072Y11650000D01*
X-4775812Y11525518D01*
X-4751116Y11444108D01*
X-4795506Y11480537D01*
X-4905820Y11539502D01*
X-5025518Y11575812D01*
X-5150000Y11588072D01*
X-5364250Y11585000D01*
X-5522250Y11427000D01*
X-5777750Y11427000D01*
X-5935750Y11585000D01*
X-6150000Y11588072D01*
X-6274482Y11575812D01*
X-6394180Y11539502D01*
X-6504494Y11480537D01*
X-6573101Y11424233D01*
X-6595503Y11442618D01*
X-6744717Y11522375D01*
X-6906623Y11571488D01*
X-7075000Y11588072D01*
X-7625000Y11588072D01*
X-7793377Y11571488D01*
X-7955283Y11522375D01*
X-8104497Y11442618D01*
X-8235284Y11335284D01*
X-8342618Y11204497D01*
X-8422375Y11055283D01*
X-8471488Y10893377D01*
X-8488072Y10725000D01*
X-8488072Y10275000D01*
X-8471488Y10106623D01*
X-8422375Y9944717D01*
X-8342618Y9795503D01*
X-8305275Y9750000D01*
X-8342618Y9704497D01*
X-8422375Y9555283D01*
X-8471488Y9393377D01*
X-8488072Y9225000D01*
X-8488072Y8775000D01*
X-8471488Y8606623D01*
X-8422375Y8444717D01*
X-8342618Y8295503D01*
X-8235284Y8164716D01*
X-8104497Y8057382D01*
X-7955283Y7977625D01*
X-7793377Y7928512D01*
X-7625000Y7911928D01*
X-7075000Y7911928D01*
X-6906623Y7928512D01*
X-6744717Y7977625D01*
X-6595503Y8057382D01*
X-6500000Y8135759D01*
X-6404497Y8057382D01*
X-6255283Y7977625D01*
X-6093377Y7928512D01*
X-5925000Y7911928D01*
X-5665702Y7911928D01*
X-5705142Y7872488D01*
X-5734212Y7848631D01*
X-5758068Y7819562D01*
X-5758070Y7819560D01*
X-5829436Y7732601D01*
X-5900192Y7600224D01*
X-5943764Y7456587D01*
X-5958477Y7307209D01*
X-5954790Y7269776D01*
X-5954791Y42839D01*
X-7714283Y-1716653D01*
X-7775363Y-1625241D01*
X-7973961Y-1426643D01*
X-7965518Y-1425812D01*
X-7845820Y-1389502D01*
X-7735506Y-1330537D01*
X-7638815Y-1251185D01*
X-7559463Y-1154494D01*
X-7500498Y-1044180D01*
X-7464188Y-924482D01*
X-7451928Y-800000D01*
X-7451928Y800000D01*
X-7464188Y924482D01*
X-7500498Y1044180D01*
X-7559463Y1154494D01*
X-7638815Y1251185D01*
X-7735506Y1330537D01*
X-7845820Y1389502D01*
X-7965518Y1425812D01*
X-8090000Y1438072D01*
X-9340000Y1438072D01*
X-9340000Y13804019D01*
X-9175750Y13805000D01*
X-9017000Y13963750D01*
X-9017000Y15113000D01*
X-8763000Y15113000D01*
X-8763000Y13963750D01*
X-8604250Y13805000D01*
X-8090000Y13801928D01*
X-7965518Y13814188D01*
X-7845820Y13850498D01*
X-7735506Y13909463D01*
X-7638815Y13988815D01*
X-7559463Y14085506D01*
X-7500498Y14195820D01*
X-7464188Y14315518D01*
X-7451928Y14440000D01*
X-7455000Y14954250D01*
X-7613750Y15113000D01*
X-8763000Y15113000D01*
X-9017000Y15113000D01*
X-9037000Y15113000D01*
X-9037000Y15367000D01*
X-9017000Y15367000D01*
X-9017000Y15387000D01*
X-8763000Y15387000D01*
X-8763000Y15367000D01*
X-7613750Y15367000D01*
X-7455000Y15525750D01*
X-7451928Y16040000D01*
X-7464188Y16164482D01*
X-7500498Y16284180D01*
X-7530335Y16340000D01*
X-4651398Y16340000D01*
X-4680537Y16304494D01*
G04 #@! TA.AperFunction,Conductor*
D26*
G36*
X-4680537Y16304494D02*
G01*
X-4739502Y16194180D01*
X-4775812Y16074482D01*
X-4788072Y15950000D01*
X-4785000Y15285750D01*
X-4626250Y15127000D01*
X-3377000Y15127000D01*
X-3377000Y15147000D01*
X-3123000Y15147000D01*
X-3123000Y15127000D01*
X-1873750Y15127000D01*
X-1715000Y15285750D01*
X-1711928Y15950000D01*
X-1724188Y16074482D01*
X-1760498Y16194180D01*
X-1819463Y16304494D01*
X-1848602Y16340000D01*
X1848602Y16340000D01*
X1819463Y16304494D01*
X1760498Y16194180D01*
X1724188Y16074482D01*
X1711928Y15950000D01*
X1715000Y15285750D01*
X1873750Y15127000D01*
X3123000Y15127000D01*
X3123000Y15147000D01*
X3377000Y15147000D01*
X3377000Y15127000D01*
X4626250Y15127000D01*
X4785000Y15285750D01*
X4788072Y15950000D01*
X4775812Y16074482D01*
X4739502Y16194180D01*
X4680537Y16304494D01*
X4651398Y16340000D01*
X7530335Y16340000D01*
X7500498Y16284180D01*
X7464188Y16164482D01*
X7451928Y16040000D01*
X7455000Y15525750D01*
X7613750Y15367000D01*
X8763000Y15367000D01*
X8763000Y15387000D01*
X9017000Y15387000D01*
X9017000Y15367000D01*
X9037000Y15367000D01*
X9037000Y15113000D01*
X9017000Y15113000D01*
X9017000Y13963750D01*
X9175750Y13805000D01*
X9340000Y13804019D01*
X9340000Y1438072D01*
X8090000Y1438072D01*
X7965518Y1425812D01*
X7845820Y1389502D01*
X7735506Y1330537D01*
X7638815Y1251185D01*
X7588164Y1189467D01*
X6412000Y2365630D01*
X6412000Y8063540D01*
X6500000Y8135759D01*
X6595503Y8057382D01*
X6744717Y7977625D01*
X6906623Y7928512D01*
X7075000Y7911928D01*
X7625000Y7911928D01*
X7793377Y7928512D01*
X7955283Y7977625D01*
X8104497Y8057382D01*
X8235284Y8164716D01*
X8342618Y8295503D01*
X8422375Y8444717D01*
X8471488Y8606623D01*
X8488072Y8775000D01*
X8488072Y9225000D01*
X8471488Y9393377D01*
X8422375Y9555283D01*
X8342618Y9704497D01*
X8305275Y9750000D01*
X8342618Y9795503D01*
X8422375Y9944717D01*
X8471488Y10106623D01*
X8488072Y10275000D01*
X8488072Y10725000D01*
X8471488Y10893377D01*
X8422375Y11055283D01*
X8342618Y11204497D01*
X8235284Y11335284D01*
X8104497Y11442618D01*
X7955283Y11522375D01*
X7793377Y11571488D01*
X7625000Y11588072D01*
X7075000Y11588072D01*
X6906623Y11571488D01*
X6744717Y11522375D01*
X6595503Y11442618D01*
X6500000Y11364241D01*
X6404497Y11442618D01*
X6255283Y11522375D01*
X6093377Y11571488D01*
X5925000Y11588072D01*
X5375000Y11588072D01*
X5206623Y11571488D01*
X5044717Y11522375D01*
X4895503Y11442618D01*
X4764716Y11335284D01*
X4704573Y11262000D01*
X4653039Y11262000D01*
X4680537Y11295506D01*
X4739502Y11405820D01*
X4775812Y11525518D01*
X4788072Y11650000D01*
X4785000Y12164250D01*
X4626250Y12323000D01*
X3227000Y12323000D01*
X3227000Y12303000D01*
X2973000Y12303000D01*
X2973000Y12323000D01*
X2953000Y12323000D01*
X2953000Y12577000D01*
X2973000Y12577000D01*
X2973000Y12597000D01*
X3227000Y12597000D01*
X3227000Y12577000D01*
X4626250Y12577000D01*
X4785000Y12735750D01*
X4788072Y13250000D01*
X4775812Y13374482D01*
X4739502Y13494180D01*
X4680537Y13604494D01*
X4643191Y13650000D01*
X4680537Y13695506D01*
X4739502Y13805820D01*
X4775812Y13925518D01*
X4788072Y14050000D01*
X4786269Y14440000D01*
X7451928Y14440000D01*
X7464188Y14315518D01*
X7500498Y14195820D01*
X7559463Y14085506D01*
X7638815Y13988815D01*
X7735506Y13909463D01*
X7845820Y13850498D01*
X7965518Y13814188D01*
X8090000Y13801928D01*
X8604250Y13805000D01*
X8763000Y13963750D01*
X8763000Y15113000D01*
X7613750Y15113000D01*
X7455000Y14954250D01*
X7451928Y14440000D01*
X4786269Y14440000D01*
X4785000Y14714250D01*
X4626250Y14873000D01*
X3377000Y14873000D01*
X3377000Y14853000D01*
X3123000Y14853000D01*
X3123000Y14873000D01*
X1873750Y14873000D01*
X1715000Y14714250D01*
X1712284Y14127000D01*
X-1712284Y14127000D01*
X-1715000Y14714250D01*
X-1873750Y14873000D01*
X-3123000Y14873000D01*
X-3123000Y14853000D01*
X-3377000Y14853000D01*
X-3377000Y14873000D01*
X-4626250Y14873000D01*
X-4785000Y14714250D01*
X-4788072Y14050000D01*
X-4775812Y13925518D01*
X-4739502Y13805820D01*
X-4680537Y13695506D01*
X-4643191Y13650000D01*
X-4680537Y13604494D01*
X-4739502Y13494180D01*
X-4775812Y13374482D01*
X-4788072Y13250000D01*
X-4785000Y12735750D01*
X-4626250Y12577000D01*
X-3227000Y12577000D01*
X-3227000Y12597000D01*
X-2973000Y12597000D01*
X-2973000Y12577000D01*
X-2953000Y12577000D01*
X-2953000Y12323000D01*
X-2973000Y12323000D01*
X-2973000Y11173750D01*
X-2814250Y11015000D01*
X-2050000Y11011928D01*
X-2042187Y11012697D01*
X-1985209Y10902600D01*
X-1907151Y10804861D01*
X-1811524Y10724228D01*
X-1702005Y10663801D01*
X-1582801Y10625901D01*
X-1481750Y10615000D01*
X-1323000Y10773750D01*
X-1323000Y10886322D01*
X-1277000Y10830271D01*
X-1277000Y10773750D01*
X-1118250Y10615000D01*
X-1017199Y10625901D01*
X-974687Y10639417D01*
X-924482Y10624188D01*
X-800000Y10611928D01*
X-761999Y10611928D01*
X-761999Y10406097D01*
X-774129Y10403684D01*
X-945162Y10332840D01*
X-1099087Y10229990D01*
X-1229990Y10099087D01*
X-1332840Y9945162D01*
X-1403684Y9774129D01*
X-1439800Y9592562D01*
X-1439800Y9407438D01*
X-1403684Y9225871D01*
X-1332840Y9054838D01*
X-1229990Y8900913D01*
X-1099087Y8770010D01*
X-945162Y8667160D01*
X-774129Y8596316D01*
X-592562Y8560200D01*
X-407438Y8560200D01*
X-225871Y8596316D01*
X-54838Y8667160D01*
X0Y8703802D01*
X54838Y8667160D01*
X225871Y8596316D01*
X407438Y8560200D01*
X592562Y8560200D01*
X774129Y8596316D01*
X945162Y8667160D01*
X1099087Y8770010D01*
X1229990Y8900913D01*
X1332840Y9054838D01*
X1403684Y9225871D01*
X1439800Y9407438D01*
X1439800Y9592562D01*
X1412000Y9732322D01*
X1412000Y9843368D01*
X1427125Y9835284D01*
X1506985Y9792598D01*
X1650622Y9749026D01*
X1762574Y9738000D01*
X1762577Y9738000D01*
X1800000Y9734314D01*
X1837423Y9738000D01*
X3089129Y9738000D01*
X3060200Y9592562D01*
X3060200Y9407438D01*
X3089580Y9259735D01*
X3000622Y9250974D01*
X2856985Y9207402D01*
X2795364Y9174465D01*
X2724607Y9136645D01*
X2690408Y9108578D01*
X2608578Y9041422D01*
X2584716Y9012346D01*
X1927649Y8355279D01*
X1898579Y8331422D01*
X1874722Y8302352D01*
X1874721Y8302351D01*
X1803355Y8215392D01*
X1756109Y8127000D01*
X-3137270Y8127000D01*
X-3096316Y8225871D01*
X-3060200Y8407438D01*
X-3060200Y8592562D01*
X-3096316Y8774129D01*
X-3167160Y8945162D01*
X-3203802Y9000000D01*
X-3167160Y9054838D01*
X-3096316Y9225871D01*
X-3060200Y9407438D01*
X-3060200Y9592562D01*
X-3096316Y9774129D01*
X-3167160Y9945162D01*
X-3270010Y10099087D01*
X-3400913Y10229990D01*
X-3554838Y10332840D01*
X-3725871Y10403684D01*
X-3907438Y10439800D01*
X-3973000Y10439800D01*
X-3973000Y11012639D01*
X-3385750Y11015000D01*
X-3227000Y11173750D01*
X-3227000Y12323000D01*
X-4626250Y12323000D01*
X-4785000Y12164250D01*
X-4788072Y11650000D01*
X-4775812Y11525518D01*
X-4751116Y11444108D01*
X-4795506Y11480537D01*
X-4905820Y11539502D01*
X-5025518Y11575812D01*
X-5150000Y11588072D01*
X-5364250Y11585000D01*
X-5522250Y11427000D01*
X-5777750Y11427000D01*
X-5935750Y11585000D01*
X-6150000Y11588072D01*
X-6274482Y11575812D01*
X-6394180Y11539502D01*
X-6504494Y11480537D01*
X-6573101Y11424233D01*
X-6595503Y11442618D01*
X-6744717Y11522375D01*
X-6906623Y11571488D01*
X-7075000Y11588072D01*
X-7625000Y11588072D01*
X-7793377Y11571488D01*
X-7955283Y11522375D01*
X-8104497Y11442618D01*
X-8235284Y11335284D01*
X-8342618Y11204497D01*
X-8422375Y11055283D01*
X-8471488Y10893377D01*
X-8488072Y10725000D01*
X-8488072Y10275000D01*
X-8471488Y10106623D01*
X-8422375Y9944717D01*
X-8342618Y9795503D01*
X-8305275Y9750000D01*
X-8342618Y9704497D01*
X-8422375Y9555283D01*
X-8471488Y9393377D01*
X-8488072Y9225000D01*
X-8488072Y8775000D01*
X-8471488Y8606623D01*
X-8422375Y8444717D01*
X-8342618Y8295503D01*
X-8235284Y8164716D01*
X-8104497Y8057382D01*
X-7955283Y7977625D01*
X-7793377Y7928512D01*
X-7625000Y7911928D01*
X-7075000Y7911928D01*
X-6906623Y7928512D01*
X-6744717Y7977625D01*
X-6595503Y8057382D01*
X-6500000Y8135759D01*
X-6404497Y8057382D01*
X-6255283Y7977625D01*
X-6093377Y7928512D01*
X-5925000Y7911928D01*
X-5665702Y7911928D01*
X-5705142Y7872488D01*
X-5734212Y7848631D01*
X-5758068Y7819562D01*
X-5758070Y7819560D01*
X-5829436Y7732601D01*
X-5900192Y7600224D01*
X-5943764Y7456587D01*
X-5958477Y7307209D01*
X-5954790Y7269776D01*
X-5954791Y42839D01*
X-7714283Y-1716653D01*
X-7775363Y-1625241D01*
X-7973961Y-1426643D01*
X-7965518Y-1425812D01*
X-7845820Y-1389502D01*
X-7735506Y-1330537D01*
X-7638815Y-1251185D01*
X-7559463Y-1154494D01*
X-7500498Y-1044180D01*
X-7464188Y-924482D01*
X-7451928Y-800000D01*
X-7451928Y800000D01*
X-7464188Y924482D01*
X-7500498Y1044180D01*
X-7559463Y1154494D01*
X-7638815Y1251185D01*
X-7735506Y1330537D01*
X-7845820Y1389502D01*
X-7965518Y1425812D01*
X-8090000Y1438072D01*
X-9340000Y1438072D01*
X-9340000Y13804019D01*
X-9175750Y13805000D01*
X-9017000Y13963750D01*
X-9017000Y15113000D01*
X-8763000Y15113000D01*
X-8763000Y13963750D01*
X-8604250Y13805000D01*
X-8090000Y13801928D01*
X-7965518Y13814188D01*
X-7845820Y13850498D01*
X-7735506Y13909463D01*
X-7638815Y13988815D01*
X-7559463Y14085506D01*
X-7500498Y14195820D01*
X-7464188Y14315518D01*
X-7451928Y14440000D01*
X-7455000Y14954250D01*
X-7613750Y15113000D01*
X-8763000Y15113000D01*
X-9017000Y15113000D01*
X-9037000Y15113000D01*
X-9037000Y15367000D01*
X-9017000Y15367000D01*
X-9017000Y15387000D01*
X-8763000Y15387000D01*
X-8763000Y15367000D01*
X-7613750Y15367000D01*
X-7455000Y15525750D01*
X-7451928Y16040000D01*
X-7464188Y16164482D01*
X-7500498Y16284180D01*
X-7530335Y16340000D01*
X-4651398Y16340000D01*
X-4680537Y16304494D01*
G37*
G04 #@! TD.AperFunction*
M02*
