G04 #@! TF.GenerationSoftware,KiCad,Pcbnew,(6.0.9)*
G04 #@! TF.CreationDate,2022-12-10T19:39:28+09:00*
G04 #@! TF.ProjectId,EB-STM32L412KB,45422d53-544d-4333-924c-3431324b422e,V2.0*
G04 #@! TF.SameCoordinates,Original*
G04 #@! TF.FileFunction,Copper,L1,Top*
G04 #@! TF.FilePolarity,Positive*
%FSLAX46Y46*%
G04 Gerber Fmt 4.6, Leading zero omitted, Abs format (unit mm)*
G04 Created by KiCad (PCBNEW (6.0.9)) date 2022-12-10 19:39:28*
%MOMM*%
%LPD*%
G01*
G04 APERTURE LIST*
G04 Aperture macros list*
%AMRoundRect*
0 Rectangle with rounded corners*
0 $1 Rounding radius*
0 $2 $3 $4 $5 $6 $7 $8 $9 X,Y pos of 4 corners*
0 Add a 4 corners polygon primitive as box body*
4,1,4,$2,$3,$4,$5,$6,$7,$8,$9,$2,$3,0*
0 Add four circle primitives for the rounded corners*
1,1,$1+$1,$2,$3*
1,1,$1+$1,$4,$5*
1,1,$1+$1,$6,$7*
1,1,$1+$1,$8,$9*
0 Add four rect primitives between the rounded corners*
20,1,$1+$1,$2,$3,$4,$5,0*
20,1,$1+$1,$4,$5,$6,$7,0*
20,1,$1+$1,$6,$7,$8,$9,0*
20,1,$1+$1,$8,$9,$2,$3,0*%
G04 Aperture macros list end*
G04 #@! TA.AperFunction,SMDPad,CuDef*
%ADD10RoundRect,0.225000X0.275000X0.225000X-0.275000X0.225000X-0.275000X-0.225000X0.275000X-0.225000X0*%
G04 #@! TD*
G04 #@! TA.AperFunction,SMDPad,CuDef*
%ADD11RoundRect,0.225000X-0.225000X0.275000X-0.225000X-0.275000X0.225000X-0.275000X0.225000X0.275000X0*%
G04 #@! TD*
G04 #@! TA.AperFunction,SMDPad,CuDef*
%ADD12RoundRect,0.150000X0.150000X0.150000X-0.150000X0.150000X-0.150000X-0.150000X0.150000X-0.150000X0*%
G04 #@! TD*
G04 #@! TA.AperFunction,SMDPad,CuDef*
%ADD13RoundRect,0.150000X-0.150000X-0.150000X0.150000X-0.150000X0.150000X0.150000X-0.150000X0.150000X0*%
G04 #@! TD*
G04 #@! TA.AperFunction,SMDPad,CuDef*
%ADD14R,0.300000X1.750000*%
G04 #@! TD*
G04 #@! TA.AperFunction,SMDPad,CuDef*
%ADD15R,2.100000X1.600000*%
G04 #@! TD*
G04 #@! TA.AperFunction,ComponentPad*
%ADD16R,1.800000X1.900000*%
G04 #@! TD*
G04 #@! TA.AperFunction,SMDPad,CuDef*
%ADD17R,0.650000X2.770000*%
G04 #@! TD*
G04 #@! TA.AperFunction,SMDPad,CuDef*
%ADD18RoundRect,0.225000X-0.275000X-0.225000X0.275000X-0.225000X0.275000X0.225000X-0.275000X0.225000X0*%
G04 #@! TD*
G04 #@! TA.AperFunction,SMDPad,CuDef*
%ADD19R,1.000000X1.600000*%
G04 #@! TD*
G04 #@! TA.AperFunction,SMDPad,CuDef*
%ADD20R,0.675000X0.200000*%
G04 #@! TD*
G04 #@! TA.AperFunction,SMDPad,CuDef*
%ADD21R,0.200000X0.700000*%
G04 #@! TD*
G04 #@! TA.AperFunction,SMDPad,CuDef*
%ADD22R,1.400000X0.150000*%
G04 #@! TD*
G04 #@! TA.AperFunction,SMDPad,CuDef*
%ADD23R,1.500000X2.500000*%
G04 #@! TD*
G04 #@! TA.AperFunction,SMDPad,CuDef*
%ADD24R,0.150000X0.800000*%
G04 #@! TD*
G04 #@! TA.AperFunction,SMDPad,CuDef*
%ADD25R,0.800000X0.150000*%
G04 #@! TD*
G04 #@! TA.AperFunction,SMDPad,CuDef*
%ADD26R,1.200000X1.200000*%
G04 #@! TD*
G04 #@! TA.AperFunction,SMDPad,CuDef*
%ADD27R,1.200000X1.800000*%
G04 #@! TD*
G04 #@! TA.AperFunction,ComponentPad*
%ADD28R,1.600000X1.600000*%
G04 #@! TD*
G04 #@! TA.AperFunction,ComponentPad*
%ADD29C,1.600000*%
G04 #@! TD*
G04 #@! TA.AperFunction,ComponentPad*
%ADD30R,1.400000X1.400000*%
G04 #@! TD*
G04 #@! TA.AperFunction,ComponentPad*
%ADD31C,1.400000*%
G04 #@! TD*
G04 #@! TA.AperFunction,ViaPad*
%ADD32C,0.609600*%
G04 #@! TD*
G04 #@! TA.AperFunction,Conductor*
%ADD33C,0.152400*%
G04 #@! TD*
G04 APERTURE END LIST*
D10*
X-2650000Y-2900000D03*
X-4350000Y-2900000D03*
X-2650000Y-1400000D03*
X-4350000Y-1400000D03*
D11*
X3000000Y-14650000D03*
X3000000Y-16350000D03*
X-4300000Y-30050000D03*
X-4300000Y-31750000D03*
D12*
X100000Y-14400000D03*
X-900000Y-14400000D03*
D13*
X-3100000Y-14400000D03*
X-2100000Y-14400000D03*
D10*
X-5650000Y10500000D03*
X-7350000Y10500000D03*
X-2650000Y-5900000D03*
X-4350000Y-5900000D03*
X7350000Y10500000D03*
X5650000Y10500000D03*
D14*
X1300000Y12125000D03*
X650000Y12125000D03*
X0Y12125000D03*
X-650000Y12125000D03*
X-1300000Y12125000D03*
D15*
X-3100000Y12450000D03*
X3100000Y12450000D03*
D16*
X-3250000Y15000000D03*
X3250000Y15000000D03*
D17*
X3710000Y5978000D03*
X3710000Y2422000D03*
X2440000Y5978000D03*
X2440000Y2422000D03*
X1170000Y5978000D03*
X1170000Y2422000D03*
X-100000Y5978000D03*
X-100000Y2422000D03*
X-1370000Y5978000D03*
X-1370000Y2422000D03*
X-2640000Y5978000D03*
X-2640000Y2422000D03*
X-3910000Y5978000D03*
X-3910000Y2422000D03*
D18*
X5650000Y9000000D03*
X7350000Y9000000D03*
X-7350000Y9000000D03*
X-5650000Y9000000D03*
D10*
X-2650000Y-4400000D03*
X-4350000Y-4400000D03*
D19*
X-2200000Y-31000000D03*
X2200000Y-31000000D03*
D20*
X1712500Y-2275000D03*
X1712500Y-1725000D03*
D21*
X2500000Y-1350000D03*
D20*
X3287500Y-1725000D03*
X3287500Y-2275000D03*
D21*
X2500000Y-2650000D03*
D22*
X700000Y-3750000D03*
X700000Y-4250000D03*
X700000Y-4750000D03*
X700000Y-5250000D03*
X700000Y-5750000D03*
X700000Y-6250000D03*
X4300000Y-6250000D03*
X4300000Y-5750000D03*
X4300000Y-5250000D03*
X4300000Y-4750000D03*
X4300000Y-4250000D03*
X4300000Y-3750000D03*
D23*
X2500000Y-5000000D03*
D24*
X1750000Y-20000000D03*
X1250000Y-20000000D03*
X750000Y-20000000D03*
X250000Y-20000000D03*
X-250000Y-20000000D03*
X-750000Y-20000000D03*
X-1250000Y-20000000D03*
X-1750000Y-20000000D03*
D25*
X-2500000Y-20750000D03*
X-2500000Y-21250000D03*
X-2500000Y-21750000D03*
X-2500000Y-22250000D03*
X-2500000Y-22750000D03*
X-2500000Y-23250000D03*
X-2500000Y-23750000D03*
X-2500000Y-24250000D03*
D24*
X-1750000Y-25000000D03*
X-1250000Y-25000000D03*
X-750000Y-25000000D03*
X-250000Y-25000000D03*
X250000Y-25000000D03*
X750000Y-25000000D03*
X1250000Y-25000000D03*
X1750000Y-25000000D03*
D25*
X2500000Y-24250000D03*
X2500000Y-23750000D03*
X2500000Y-23250000D03*
X2500000Y-22750000D03*
X2500000Y-22250000D03*
X2500000Y-21750000D03*
X2500000Y-21250000D03*
D26*
X-900000Y-23400000D03*
X-900000Y-21600000D03*
D25*
X2500000Y-20750000D03*
D26*
X900000Y-21600000D03*
X900000Y-23400000D03*
D27*
X-200000Y-16000000D03*
X-2800000Y-16000000D03*
D28*
X-8890000Y15240000D03*
X8890000Y15240000D03*
X-8890000Y0D03*
D29*
X-8890000Y-2540000D03*
X-8890000Y-5080000D03*
X-8890000Y-7620000D03*
X-8890000Y-10160000D03*
X-8890000Y-12700000D03*
X-8890000Y-15240000D03*
X-8890000Y-17780000D03*
X-8890000Y-20320000D03*
X-8890000Y-22860000D03*
X-8890000Y-25400000D03*
X-8890000Y-27940000D03*
X-8890000Y-30480000D03*
X-8890000Y-33020000D03*
D30*
X-2500000Y-8950000D03*
D31*
X0Y-8950000D03*
X2500000Y-8950000D03*
X-2500000Y-12250000D03*
X0Y-12250000D03*
X2500000Y-12250000D03*
D11*
X4500000Y-14650000D03*
X4500000Y-16350000D03*
D28*
X8890000Y0D03*
D29*
X8890000Y-2540000D03*
X8890000Y-5080000D03*
X8890000Y-7620000D03*
X8890000Y-10160000D03*
X8890000Y-12700000D03*
X8890000Y-15240000D03*
X8890000Y-17780000D03*
X8890000Y-20320000D03*
X8890000Y-22860000D03*
X8890000Y-25400000D03*
X8890000Y-27940000D03*
X8890000Y-30480000D03*
X8890000Y-33020000D03*
D32*
X-1631000Y-2693000D03*
X-100000Y9983800D03*
X-700000Y-31000000D03*
X100000Y-18457500D03*
X-2021500Y-26781900D03*
X3100000Y-25095800D03*
X822989Y-1177011D03*
X6200000Y-3200000D03*
X4300000Y-25000000D03*
X1807900Y-17873800D03*
X-2800000Y-25400000D03*
X-802100Y-2783400D03*
X-1565300Y-17965100D03*
X5336800Y-6744700D03*
X5540700Y-4874700D03*
X3318100Y-3226800D03*
X4800000Y-2600000D03*
X-881500Y-3596400D03*
X4138100Y-1689500D03*
D33*
X-2650000Y-2900000D02*
X-1821500Y-2900000D01*
X-1631000Y-2709500D02*
X-1631000Y-2693000D01*
X-1821500Y-4321500D02*
X-1900000Y-4400000D01*
X5650000Y4319500D02*
X5650000Y9000000D01*
X8890000Y1079500D02*
X5650000Y4319500D01*
X-1821500Y-3850100D02*
X-1821500Y-4321500D01*
X-1821500Y-2900000D02*
X-1821500Y-3850100D01*
X-1821500Y-4278500D02*
X-850000Y-5250000D01*
X-8890000Y1079500D02*
X-5650000Y4319500D01*
X-1900000Y-4400000D02*
X-2650000Y-4400000D01*
X-1821500Y-2900000D02*
X-1631000Y-2709500D01*
X-5650000Y4319500D02*
X-5650000Y9000000D01*
X8890000Y0D02*
X8890000Y1079500D01*
X-850000Y-5250000D02*
X700000Y-5250000D01*
X-1821500Y-3850100D02*
X-1821500Y-4278500D01*
X-8890000Y0D02*
X-8890000Y1079500D01*
X900000Y-3100000D02*
X2500000Y-3100000D01*
X-8890000Y-5080000D02*
X-8680000Y-5080000D01*
X8890000Y-5080000D02*
X5231800Y-8738200D01*
X-6500000Y-2900000D02*
X-4350000Y-2900000D01*
X900000Y-21600000D02*
X1779500Y-21600000D01*
X2500000Y-2710100D02*
X2500000Y-2650000D01*
X-2640000Y5978000D02*
X-2640000Y8540000D01*
X-3250000Y15000000D02*
X-3250000Y13770500D01*
X-100000Y6711400D02*
X-100000Y5978000D01*
X-1300000Y11100000D02*
X-1700000Y10700000D01*
X-2640000Y5145800D02*
X-2640000Y4313500D01*
X-100000Y6711400D02*
X-100000Y9983800D01*
X3250000Y13770500D02*
X3100000Y13620500D01*
X-900000Y-23400000D02*
X900000Y-23400000D01*
X1820500Y-20750000D02*
X1820500Y-21559000D01*
X3750000Y-14650000D02*
X3000000Y-14650000D01*
X-900000Y-21600000D02*
X-20500Y-21600000D01*
X-100000Y7642500D02*
X1170000Y7642500D01*
X2800000Y-13500000D02*
X-900000Y-13500000D01*
X-2420700Y4313500D02*
X-1974600Y3867400D01*
X-4429500Y10770500D02*
X-4700000Y10500000D01*
X3750000Y-14650000D02*
X3750000Y-20150000D01*
X-2640000Y4313500D02*
X-2866800Y4313500D01*
X-3250000Y-24250000D02*
X-5700000Y-26700000D01*
X-2600000Y10700000D02*
X-3100000Y11200000D01*
X-100000Y6711400D02*
X-100000Y7642500D01*
X-2640000Y8540000D02*
X-4600000Y10500000D01*
X-4600000Y10500000D02*
X-5650000Y10500000D01*
X700000Y-5750000D02*
X2250000Y-5750000D01*
X-4429500Y12450000D02*
X-4429500Y10770500D01*
X-2100000Y-14400000D02*
X-900000Y-14400000D01*
X-4350000Y-1400000D02*
X-4350000Y-2900000D01*
X-2500000Y-24250000D02*
X-3250000Y-24250000D01*
X4500000Y-8946900D02*
X4500000Y-14650000D01*
X-8680000Y-5080000D02*
X-6500000Y-2900000D01*
X-4250000Y-31800000D02*
X-4300000Y-31750000D01*
X4500000Y-14650000D02*
X3750000Y-14650000D01*
X2500000Y-20750000D02*
X1820500Y-20750000D01*
X3100000Y13620500D02*
X3100000Y12450000D01*
X900000Y-23400000D02*
X900000Y-21600000D01*
X-1000000Y-32000000D02*
X-1300000Y-32300000D01*
X-3250000Y13770500D02*
X-3100000Y13620500D01*
X-1700000Y10700000D02*
X-2600000Y10700000D01*
X-5700000Y-31400000D02*
X-5350000Y-31750000D01*
X1820500Y-21559000D02*
X1779500Y-21600000D01*
X3000000Y-13700000D02*
X2800000Y-13500000D01*
X-5700000Y-26700000D02*
X-5700000Y-31400000D01*
X-900000Y-21600000D02*
X-900000Y-23400000D01*
X-2866800Y4313500D02*
X-3244500Y3935800D01*
X-1050000Y-24250000D02*
X-2500000Y-24250000D01*
X900000Y-21600000D02*
X-20500Y-21600000D01*
X3750000Y-20150000D02*
X3150000Y-20750000D01*
X2500000Y-5000000D02*
X2500000Y-5750000D01*
X-900000Y-23400000D02*
X-900000Y-24100000D01*
X4708700Y-8738200D02*
X2500000Y-6529500D01*
X-1300000Y-32300000D02*
X-2758800Y-32300000D01*
X-3100000Y12450000D02*
X-4429500Y12450000D01*
X-4350000Y-429400D02*
X-4350000Y-1400000D01*
X-3100000Y13279500D02*
X-3100000Y12450000D01*
X2500000Y-5750000D02*
X2500000Y-6529500D01*
X2200000Y-31000000D02*
X-700000Y-31000000D01*
X-900000Y-24100000D02*
X-1050000Y-24250000D01*
X-3258800Y-31800000D02*
X-4250000Y-31800000D01*
X3150000Y-20750000D02*
X2500000Y-20750000D01*
X-3100000Y13620500D02*
X-3100000Y13279500D01*
X-1300000Y12125000D02*
X-1300000Y11100000D01*
X-3244500Y3935800D02*
X-3244500Y676100D01*
X-2758800Y-32300000D02*
X-3258800Y-31800000D01*
X2500000Y-5000000D02*
X2500000Y-2710100D01*
X3250000Y15000000D02*
X3250000Y13770500D01*
X2500000Y-2650000D02*
X2500000Y-1350000D01*
X-900000Y-13500000D02*
X-900000Y-14400000D01*
X-2640000Y4313500D02*
X-2420700Y4313500D01*
X-3244500Y676100D02*
X-4350000Y-429400D01*
X-1974600Y-225400D02*
X900000Y-3100000D01*
X-1974600Y3867400D02*
X-1974600Y-225400D01*
X-1000000Y-31300000D02*
X-1000000Y-32000000D01*
X3000000Y-14650000D02*
X3000000Y-13700000D01*
X-5350000Y-31750000D02*
X-4300000Y-31750000D01*
X-3100000Y11200000D02*
X-3100000Y12450000D01*
X-4700000Y10500000D02*
X-5650000Y10500000D01*
X-700000Y-31000000D02*
X-1000000Y-31300000D01*
X4708700Y-8738200D02*
X4500000Y-8946900D01*
X-2640000Y5145800D02*
X-2640000Y5978000D01*
X1170000Y7642500D02*
X1170000Y5978000D01*
X5231800Y-8738200D02*
X4708700Y-8738200D01*
X1223600Y-19294100D02*
X1250000Y-19320500D01*
X1223600Y-16544100D02*
X1223600Y-19294100D01*
X-200000Y-16000000D02*
X100000Y-15700000D01*
X-200000Y-16000000D02*
X679500Y-16000000D01*
X100000Y-15700000D02*
X100000Y-14400000D01*
X679500Y-16000000D02*
X1223600Y-16544100D01*
X1250000Y-20000000D02*
X1250000Y-19320500D01*
X-524178Y-17575822D02*
X-2100000Y-16000000D01*
X-3100000Y-15700000D02*
X-2800000Y-16000000D01*
X-3100000Y-14400000D02*
X-3100000Y-15700000D01*
X44506Y-17575822D02*
X-524178Y-17575822D01*
X-2100000Y-16000000D02*
X-2800000Y-16000000D01*
X750000Y-20000000D02*
X750000Y-18281316D01*
X750000Y-18281316D02*
X44506Y-17575822D01*
X-7350000Y9000000D02*
X-7350000Y10500000D01*
X-629500Y-5900000D02*
X-279500Y-6250000D01*
X-2650000Y-5900000D02*
X-629500Y-5900000D01*
X-279500Y-6250000D02*
X700000Y-6250000D01*
X-4350000Y-4400000D02*
X-4350000Y-5900000D01*
X7350000Y9000000D02*
X7350000Y10500000D01*
X1300000Y12125000D02*
X1300000Y10500000D01*
X1300000Y10500000D02*
X5650000Y10500000D01*
X1712500Y-2275000D02*
X1095500Y-2275000D01*
X-704600Y-474900D02*
X-704600Y10265900D01*
X-704600Y10265900D02*
X0Y10970500D01*
X1095500Y-2275000D02*
X-704600Y-474900D01*
X0Y12125000D02*
X0Y10970500D01*
X1774600Y-1051584D02*
X1163092Y-1663092D01*
X1163092Y-1663092D02*
X1225000Y-1725000D01*
X650000Y9742700D02*
X650000Y12125000D01*
X1774600Y8618100D02*
X1774600Y-1051584D01*
X1774600Y8618100D02*
X650000Y9742700D01*
X1225000Y-1725000D02*
X1712500Y-1725000D01*
X250000Y-18607500D02*
X100000Y-18457500D01*
X100000Y-18457500D02*
X-542500Y-18457500D01*
X-2200000Y-31000000D02*
X-2200000Y-29920500D01*
X-981100Y-17723116D02*
X-1323316Y-17380900D01*
X-981100Y-18018900D02*
X-981100Y-17723116D01*
X-3685500Y-8086600D02*
X-3569500Y-7970600D01*
X-2200000Y-29920500D02*
X-2021500Y-29742000D01*
X-542500Y-18457500D02*
X-981100Y-18018900D01*
X250000Y-20000000D02*
X250000Y-18607500D01*
X-2640000Y125400D02*
X-2640000Y2422000D01*
X-1323316Y-17380900D02*
X-3477900Y-17380900D01*
X-3685500Y-17173300D02*
X-3685500Y-8086600D01*
X-2021500Y-29742000D02*
X-2021500Y-26781900D01*
X-3569500Y-804100D02*
X-2640000Y125400D01*
X-3569500Y-7970600D02*
X-3569500Y-804100D01*
X-3477900Y-17380900D02*
X-3685500Y-17173300D01*
X1170000Y757500D02*
X1170000Y2422000D01*
X3100000Y-25095800D02*
X2451400Y-25744400D01*
X822989Y-1177011D02*
X822989Y410489D01*
X2451400Y-25744400D02*
X1844400Y-25744400D01*
X1750000Y-25650000D02*
X1750000Y-25000000D01*
X1844400Y-25744400D02*
X1750000Y-25650000D01*
X822989Y410489D02*
X1170000Y757500D01*
X2547900Y757500D02*
X2440000Y757500D01*
X1593694Y-26100000D02*
X1250000Y-25756306D01*
X1250000Y-25756306D02*
X1250000Y-25000000D01*
X3600000Y-26100000D02*
X1593694Y-26100000D01*
X6200000Y-2894600D02*
X2547900Y757500D01*
X6200000Y-3200000D02*
X6200000Y-2894600D01*
X2440000Y757500D02*
X2440000Y2422000D01*
X4300000Y-25000000D02*
X4300000Y-25400000D01*
X4300000Y-25400000D02*
X3600000Y-26100000D01*
X-8890000Y-30480000D02*
X-7100000Y-28690000D01*
X-7100000Y-27100000D02*
X-3750000Y-23750000D01*
X-3750000Y-23750000D02*
X-2500000Y-23750000D01*
X-7100000Y-28690000D02*
X-7100000Y-27100000D01*
X-8890000Y-27940000D02*
X-4200000Y-23250000D01*
X-4200000Y-23250000D02*
X-2500000Y-23250000D01*
X-8890000Y-25400000D02*
X-6240000Y-22750000D01*
X-6240000Y-22750000D02*
X-2500000Y-22750000D01*
X-8890000Y-22860000D02*
X-8280000Y-22250000D01*
X-8280000Y-22250000D02*
X-2500000Y-22250000D01*
X-7460000Y-21750000D02*
X-2500000Y-21750000D01*
X-8890000Y-20320000D02*
X-7460000Y-21750000D01*
X-5420000Y-21250000D02*
X-2500000Y-21250000D01*
X-8890000Y-17780000D02*
X-5420000Y-21250000D01*
X-8689500Y-15240000D02*
X-3179500Y-20750000D01*
X-2500000Y-20750000D02*
X-3179500Y-20750000D01*
X-8890000Y-15240000D02*
X-8689500Y-15240000D01*
X-8890000Y-12700000D02*
X-8890000Y-13610000D01*
X-8890000Y-13610000D02*
X-3199200Y-19300800D01*
X-1750000Y-19583388D02*
X-1750000Y-20000000D01*
X-3199200Y-19300800D02*
X-2032588Y-19300800D01*
X-2032588Y-19300800D02*
X-1750000Y-19583388D01*
X-1250000Y-20000000D02*
X-1250000Y-19580494D01*
X-1885294Y-18945200D02*
X-3051906Y-18945200D01*
X-4685200Y-17311906D02*
X-4685200Y-14364800D01*
X-4685200Y-14364800D02*
X-8890000Y-10160000D01*
X-3051906Y-18945200D02*
X-4685200Y-17311906D01*
X-1250000Y-19580494D02*
X-1885294Y-18945200D01*
X-4329500Y-17164712D02*
X-2904612Y-18589600D01*
X-750000Y-19577600D02*
X-750000Y-20000000D01*
X-1738000Y-18589600D02*
X-750000Y-19577600D01*
X-4329500Y-12180500D02*
X-4329500Y-17164712D01*
X-8890000Y-7620000D02*
X-4329500Y-12180500D01*
X-2904612Y-18589600D02*
X-1738000Y-18589600D01*
X-1250000Y-25000000D02*
X-1250000Y-25795100D01*
X1897500Y-33020000D02*
X-8890000Y-33020000D01*
X-1250000Y-25795100D02*
X2991300Y-30036400D01*
X2991300Y-31926200D02*
X1897500Y-33020000D01*
X2991300Y-30036400D02*
X2991300Y-31926200D01*
X-750000Y-25768800D02*
X6501200Y-33020000D01*
X6501200Y-33020000D02*
X8890000Y-33020000D01*
X-750000Y-25000000D02*
X-750000Y-25616600D01*
X-750000Y-25616600D02*
X-750000Y-25768800D01*
X4464300Y-30480000D02*
X-250000Y-25765700D01*
X8890000Y-30480000D02*
X4464300Y-30480000D01*
X-250000Y-25765700D02*
X-250000Y-25000000D01*
X250000Y-25762300D02*
X250000Y-25000000D01*
X2427700Y-27940000D02*
X250000Y-25762300D01*
X8890000Y-27940000D02*
X2427700Y-27940000D01*
X750000Y-25759200D02*
X750000Y-25000000D01*
X8890000Y-25400000D02*
X7790000Y-26500000D01*
X1490800Y-26500000D02*
X750000Y-25759200D01*
X7790000Y-26500000D02*
X1490800Y-26500000D01*
X7500000Y-24250000D02*
X3179500Y-24250000D01*
X2500000Y-24250000D02*
X3179500Y-24250000D01*
X8890000Y-22860000D02*
X7500000Y-24250000D01*
X8890000Y-20320000D02*
X5460000Y-23750000D01*
X5460000Y-23750000D02*
X2500000Y-23750000D01*
X3420000Y-23250000D02*
X8890000Y-17780000D01*
X2500000Y-23250000D02*
X3420000Y-23250000D01*
X7785400Y-18212700D02*
X7785400Y-16344600D01*
X3248100Y-22750000D02*
X7785400Y-18212700D01*
X3079400Y-22750000D02*
X3248100Y-22750000D01*
X2500000Y-22750000D02*
X3079400Y-22750000D01*
X7785400Y-16344600D02*
X8890000Y-15240000D01*
X2500000Y-21250000D02*
X3179500Y-21250000D01*
X4500000Y-16350000D02*
X5635400Y-15214600D01*
X5635400Y-15214600D02*
X5635400Y-10874600D01*
X4500000Y-16350000D02*
X4500000Y-19929500D01*
X5635400Y-10874600D02*
X8890000Y-7620000D01*
X4500000Y-19929500D02*
X3179500Y-21250000D01*
X1750000Y-17931700D02*
X1750000Y-20000000D01*
X-1007900Y-2783400D02*
X-1007900Y-2896500D01*
X7175100Y-2540000D02*
X7175100Y1074200D01*
X700000Y-4250000D02*
X-279500Y-4250000D01*
X-4300000Y-28229500D02*
X-2135250Y-26064750D01*
X-1007900Y-2489600D02*
X-2097500Y-1400000D01*
X-1465800Y-3838284D02*
X-1054084Y-4250000D01*
X-279500Y-4250000D02*
X-279500Y-4750000D01*
X-2800000Y-25400000D02*
X-2135250Y-26064750D01*
X-4300000Y-30050000D02*
X-4300000Y-28229500D01*
X3935800Y4313500D02*
X2440000Y4313500D01*
X1807900Y-17873800D02*
X1750000Y-17931700D01*
X7175100Y-4066700D02*
X7175100Y-2540000D01*
X-1565300Y-18099200D02*
X-250000Y-19414500D01*
X5089700Y-5250000D02*
X5298700Y-5459000D01*
X-1465800Y-3354400D02*
X-1465800Y-3838284D01*
X3000000Y-16350000D02*
X1807900Y-17542100D01*
X4300000Y-5250000D02*
X5089700Y-5250000D01*
X7175100Y1074200D02*
X3935800Y4313500D01*
X7175100Y-2540000D02*
X8890000Y-2540000D01*
X-1054084Y-4250000D02*
X-279500Y-4250000D01*
X-2097500Y-1400000D02*
X-2650000Y-1400000D01*
X-1565300Y-17965100D02*
X-1565300Y-18099200D01*
X-1007900Y-2783400D02*
X-1007900Y-2489600D01*
X-1007900Y-2783400D02*
X-802100Y-2783400D01*
X700000Y-4750000D02*
X-279500Y-4750000D01*
X2440000Y5978000D02*
X2440000Y4313500D01*
X1807900Y-17542100D02*
X1807900Y-17873800D01*
X5782800Y-5459000D02*
X7175100Y-4066700D01*
X-1007900Y-2896500D02*
X-1465800Y-3354400D01*
X-250000Y-19414500D02*
X-250000Y-20000000D01*
X-2135250Y-26064750D02*
X-1750000Y-25679500D01*
X-1750000Y-25339700D02*
X-1750000Y-25679500D01*
X-1750000Y-25000000D02*
X-1750000Y-25339700D01*
X5298700Y-5459000D02*
X5782800Y-5459000D01*
X5991100Y-13058900D02*
X8890000Y-10160000D01*
X2500000Y-21750000D02*
X3182600Y-21750000D01*
X3182600Y-21750000D02*
X5991100Y-18941500D01*
X4300000Y-6250000D02*
X5279500Y-6250000D01*
X5991100Y-18941500D02*
X5991100Y-13058900D01*
X5279500Y-6250000D02*
X5279500Y-6687400D01*
X5279500Y-6687400D02*
X5336800Y-6744700D01*
X7429600Y-14160400D02*
X8890000Y-12700000D01*
X3227800Y-22250000D02*
X7429600Y-18048200D01*
X5404200Y-4874700D02*
X5279500Y-4750000D01*
X5540700Y-4874700D02*
X5404200Y-4874700D01*
X4300000Y-4750000D02*
X5279500Y-4750000D01*
X7429600Y-18048200D02*
X7429600Y-14160400D01*
X2500000Y-22250000D02*
X3227800Y-22250000D01*
X5300000Y-3600000D02*
X5300000Y-3442216D01*
X5084584Y-3226800D02*
X3318100Y-3226800D01*
X5300000Y-3442216D02*
X5084584Y-3226800D01*
X4300000Y-3750000D02*
X5150000Y-3750000D01*
X5150000Y-3750000D02*
X5300000Y-3600000D01*
X4475000Y-2275000D02*
X3287500Y-2275000D01*
X4800000Y-2600000D02*
X4475000Y-2275000D01*
X-279500Y-3750000D02*
X-727900Y-3750000D01*
X700000Y-3750000D02*
X-279500Y-3750000D01*
X-727900Y-3750000D02*
X-881500Y-3596400D01*
X4138100Y-1689500D02*
X3940000Y-1689500D01*
X3940000Y-1689500D02*
X3904500Y-1725000D01*
X3287500Y-1725000D02*
X3904500Y-1725000D01*
G04 #@! TA.AperFunction,Conductor*
G36*
X-1007900Y-26864090D02*
G01*
X1623765Y-29495755D01*
X1657791Y-29558067D01*
X1652726Y-29628882D01*
X1610179Y-29685718D01*
X1578899Y-29702832D01*
X1461948Y-29746675D01*
X1446351Y-29755214D01*
X1344276Y-29831715D01*
X1331715Y-29844276D01*
X1255214Y-29946351D01*
X1246676Y-29961946D01*
X1201522Y-30082394D01*
X1197895Y-30097649D01*
X1192369Y-30148514D01*
X1192000Y-30155328D01*
X1192000Y-30727885D01*
X1196475Y-30743124D01*
X1197865Y-30744329D01*
X1205548Y-30746000D01*
X2280600Y-30746000D01*
X2348721Y-30766002D01*
X2395214Y-30819658D01*
X2406600Y-30872000D01*
X2406600Y-31128000D01*
X2386598Y-31196121D01*
X2332942Y-31242614D01*
X2280600Y-31254000D01*
X1210116Y-31254000D01*
X1194877Y-31258475D01*
X1193672Y-31259865D01*
X1192001Y-31267548D01*
X1192001Y-31844669D01*
X1192371Y-31851490D01*
X1197895Y-31902352D01*
X1201521Y-31917604D01*
X1246676Y-32038054D01*
X1255214Y-32053649D01*
X1331715Y-32155724D01*
X1344276Y-32168285D01*
X1397900Y-32208474D01*
X1440415Y-32265333D01*
X1445441Y-32336152D01*
X1411381Y-32398445D01*
X1349050Y-32432435D01*
X1322335Y-32435300D01*
X922804Y-32435300D01*
X854683Y-32415298D01*
X808190Y-32361642D01*
X798086Y-32291368D01*
X807697Y-32258051D01*
X842202Y-32180552D01*
X842202Y-32180551D01*
X844887Y-32174521D01*
X872055Y-32046705D01*
X882128Y-31999317D01*
X882128Y-31999313D01*
X883500Y-31992860D01*
X883500Y-31807140D01*
X878947Y-31785716D01*
X848672Y-31643286D01*
X844887Y-31625479D01*
X820034Y-31569658D01*
X772033Y-31461847D01*
X772032Y-31461845D01*
X769348Y-31455817D01*
X745576Y-31423097D01*
X664068Y-31310910D01*
X664066Y-31310908D01*
X660185Y-31305566D01*
X655274Y-31301144D01*
X527077Y-31185715D01*
X527076Y-31185714D01*
X522169Y-31181296D01*
X397155Y-31109119D01*
X348162Y-31057736D01*
X334726Y-30988023D01*
X361112Y-30922112D01*
X397155Y-30890881D01*
X456933Y-30856368D01*
X522169Y-30818704D01*
X530416Y-30811279D01*
X655274Y-30698856D01*
X655275Y-30698855D01*
X660185Y-30694434D01*
X681599Y-30664961D01*
X765467Y-30549526D01*
X765468Y-30549525D01*
X769348Y-30544184D01*
X796786Y-30482559D01*
X842202Y-30380552D01*
X842202Y-30380551D01*
X844887Y-30374521D01*
X883500Y-30192860D01*
X883500Y-30007140D01*
X870899Y-29947854D01*
X859728Y-29895300D01*
X844887Y-29825479D01*
X813406Y-29754771D01*
X772033Y-29661847D01*
X772032Y-29661845D01*
X769348Y-29655817D01*
X741861Y-29617984D01*
X664068Y-29510910D01*
X664066Y-29510908D01*
X660185Y-29505566D01*
X629236Y-29477699D01*
X527077Y-29385715D01*
X527076Y-29385714D01*
X522169Y-29381296D01*
X402349Y-29312118D01*
X367054Y-29291740D01*
X367053Y-29291739D01*
X361331Y-29288436D01*
X184702Y-29231046D01*
X178139Y-29230356D01*
X178138Y-29230356D01*
X153942Y-29227813D01*
X46306Y-29216500D01*
X-46306Y-29216500D01*
X-153942Y-29227813D01*
X-178138Y-29230356D01*
X-178139Y-29230356D01*
X-184702Y-29231046D01*
X-361331Y-29288436D01*
X-367053Y-29291739D01*
X-367054Y-29291740D01*
X-402349Y-29312118D01*
X-522169Y-29381296D01*
X-527076Y-29385714D01*
X-527077Y-29385715D01*
X-629236Y-29477699D01*
X-660185Y-29505566D01*
X-664066Y-29510908D01*
X-664068Y-29510910D01*
X-765467Y-29650474D01*
X-769348Y-29655816D01*
X-772032Y-29661844D01*
X-772033Y-29661846D01*
X-809801Y-29746675D01*
X-844887Y-29825479D01*
X-859728Y-29895300D01*
X-870898Y-29947854D01*
X-883500Y-30007140D01*
X-883500Y-30192860D01*
X-844887Y-30374521D01*
X-842203Y-30380550D01*
X-842202Y-30380552D01*
X-797924Y-30480000D01*
X-769348Y-30544183D01*
X-765468Y-30549524D01*
X-765467Y-30549525D01*
X-681598Y-30664961D01*
X-660185Y-30694434D01*
X-655275Y-30698855D01*
X-655274Y-30698856D01*
X-530415Y-30811279D01*
X-522169Y-30818704D01*
X-456933Y-30856368D01*
X-397155Y-30890881D01*
X-348162Y-30942264D01*
X-334726Y-31011977D01*
X-361112Y-31077888D01*
X-397155Y-31109119D01*
X-522169Y-31181296D01*
X-527076Y-31185714D01*
X-527077Y-31185715D01*
X-655274Y-31301144D01*
X-660185Y-31305566D01*
X-664066Y-31310908D01*
X-664068Y-31310910D01*
X-765467Y-31450474D01*
X-769348Y-31455816D01*
X-772032Y-31461844D01*
X-772033Y-31461846D01*
X-785959Y-31493124D01*
X-844887Y-31625479D01*
X-848672Y-31643286D01*
X-878946Y-31785716D01*
X-883500Y-31807140D01*
X-883500Y-31992860D01*
X-882128Y-31999313D01*
X-882128Y-31999317D01*
X-872055Y-32046705D01*
X-844887Y-32174521D01*
X-842203Y-32180550D01*
X-842202Y-32180552D01*
X-807697Y-32258051D01*
X-798263Y-32328418D01*
X-828369Y-32392715D01*
X-888458Y-32430529D01*
X-922804Y-32435300D01*
X-1321501Y-32435300D01*
X-1389622Y-32415298D01*
X-1436115Y-32361642D01*
X-1446219Y-32291368D01*
X-1416725Y-32226788D01*
X-1397066Y-32208474D01*
X-1343920Y-32168643D01*
X-1343919Y-32168642D01*
X-1336739Y-32163261D01*
X-1249385Y-32046705D01*
X-1198255Y-31910316D01*
X-1191500Y-31848134D01*
X-1191500Y-30151866D01*
X-1198255Y-30089684D01*
X-1249385Y-29953295D01*
X-1292850Y-29895300D01*
X-1331355Y-29843922D01*
X-1331358Y-29843919D01*
X-1336739Y-29836739D01*
X-1343920Y-29831357D01*
X-1343925Y-29831352D01*
X-1385884Y-29799905D01*
X-1428399Y-29743046D01*
X-1435239Y-29715536D01*
X-1435721Y-29711877D01*
X-1436800Y-29695421D01*
X-1436800Y-27402240D01*
X-1416798Y-27334119D01*
X-1403879Y-27318482D01*
X-1404164Y-27318243D01*
X-1399633Y-27312843D01*
X-1394534Y-27307987D01*
X-1293561Y-27156010D01*
X-1262644Y-27074621D01*
X-1231267Y-26992022D01*
X-1231266Y-26992017D01*
X-1228767Y-26985439D01*
X-1221769Y-26935648D01*
X-1192480Y-26870974D01*
X-1132876Y-26832402D01*
X-1061879Y-26832177D01*
X-1007900Y-26864090D01*
G37*
G04 #@! TD.AperFunction*
G04 #@! TA.AperFunction,Conductor*
G36*
X-3462964Y-24394022D02*
G01*
X-3406129Y-24436569D01*
X-3389015Y-24467849D01*
X-3353325Y-24563052D01*
X-3344789Y-24578644D01*
X-3317435Y-24615142D01*
X-3292588Y-24681649D01*
X-3307641Y-24751031D01*
X-3330105Y-24780731D01*
X-3429215Y-24877787D01*
X-3434250Y-24882718D01*
X-3533092Y-25036090D01*
X-3535501Y-25042710D01*
X-3535503Y-25042713D01*
X-3591501Y-25196567D01*
X-3595498Y-25207549D01*
X-3618366Y-25388573D01*
X-3600561Y-25570164D01*
X-3542967Y-25743299D01*
X-3448446Y-25899371D01*
X-3443555Y-25904436D01*
X-3443554Y-25904437D01*
X-3372620Y-25977891D01*
X-3321697Y-26030623D01*
X-3213465Y-26101448D01*
X-3167418Y-26155484D01*
X-3157894Y-26225839D01*
X-3187918Y-26290174D01*
X-3193364Y-26295974D01*
X-4680503Y-27783113D01*
X-4692894Y-27793980D01*
X-4717013Y-27812487D01*
X-4752196Y-27858339D01*
X-4810734Y-27934627D01*
X-4827990Y-27976287D01*
X-4869650Y-28076863D01*
X-4884700Y-28191179D01*
X-4889745Y-28229500D01*
X-4888667Y-28237688D01*
X-4885778Y-28259633D01*
X-4884700Y-28276079D01*
X-4884700Y-29064775D01*
X-4904702Y-29132896D01*
X-4944396Y-29171918D01*
X-4983713Y-29196248D01*
X-5104552Y-29317298D01*
X-5108392Y-29323528D01*
X-5108393Y-29323529D01*
X-5189745Y-29455507D01*
X-5194302Y-29462899D01*
X-5248149Y-29625243D01*
X-5248849Y-29632080D01*
X-5248850Y-29632082D01*
X-5253083Y-29673401D01*
X-5258500Y-29726268D01*
X-5258500Y-30373732D01*
X-5258163Y-30376978D01*
X-5258163Y-30376982D01*
X-5254625Y-30411083D01*
X-5247887Y-30476019D01*
X-5193756Y-30638268D01*
X-5189904Y-30644492D01*
X-5189904Y-30644493D01*
X-5117362Y-30761720D01*
X-5103752Y-30783713D01*
X-5098570Y-30788886D01*
X-5076180Y-30811237D01*
X-5042101Y-30873520D01*
X-5047104Y-30944340D01*
X-5076025Y-30989428D01*
X-5098986Y-31012429D01*
X-5107998Y-31023840D01*
X-5190004Y-31156880D01*
X-5196151Y-31170061D01*
X-5245491Y-31318814D01*
X-5248358Y-31332190D01*
X-5257672Y-31423097D01*
X-5258000Y-31429514D01*
X-5258000Y-31477885D01*
X-5253525Y-31493124D01*
X-5252135Y-31494329D01*
X-5244452Y-31496000D01*
X-4172000Y-31496000D01*
X-4103879Y-31516002D01*
X-4057386Y-31569658D01*
X-4046000Y-31622000D01*
X-4046000Y-31878000D01*
X-4066002Y-31946121D01*
X-4119658Y-31992614D01*
X-4172000Y-32004000D01*
X-5239885Y-32004000D01*
X-5255124Y-32008475D01*
X-5256329Y-32009865D01*
X-5258000Y-32017548D01*
X-5258000Y-32070438D01*
X-5257663Y-32076953D01*
X-5248106Y-32169057D01*
X-5245211Y-32182459D01*
X-5216198Y-32269425D01*
X-5213614Y-32340374D01*
X-5249798Y-32401458D01*
X-5313263Y-32433282D01*
X-5335722Y-32435300D01*
X-7638687Y-32435300D01*
X-7706808Y-32415298D01*
X-7747806Y-32372300D01*
X-7750153Y-32368236D01*
X-7752477Y-32363251D01*
X-7847443Y-32227626D01*
X-7880643Y-32180211D01*
X-7880645Y-32180208D01*
X-7883802Y-32175700D01*
X-8045700Y-32013802D01*
X-8050208Y-32010645D01*
X-8050211Y-32010643D01*
X-8159115Y-31934388D01*
X-8233251Y-31882477D01*
X-8238233Y-31880154D01*
X-8238238Y-31880151D01*
X-8272457Y-31864195D01*
X-8325742Y-31817278D01*
X-8345203Y-31749001D01*
X-8324661Y-31681041D01*
X-8272457Y-31635805D01*
X-8238238Y-31619849D01*
X-8238233Y-31619846D01*
X-8233251Y-31617523D01*
X-8088264Y-31516002D01*
X-8050211Y-31489357D01*
X-8050208Y-31489355D01*
X-8045700Y-31486198D01*
X-7883802Y-31324300D01*
X-7879960Y-31318814D01*
X-7794050Y-31196121D01*
X-7752477Y-31136749D01*
X-7750154Y-31131767D01*
X-7750151Y-31131762D01*
X-7658039Y-30934225D01*
X-7658039Y-30934224D01*
X-7655716Y-30929243D01*
X-7648885Y-30903752D01*
X-7597881Y-30713402D01*
X-7597881Y-30713400D01*
X-7596457Y-30708087D01*
X-7576502Y-30480000D01*
X-7596457Y-30251913D01*
X-7612280Y-30192860D01*
X-7628044Y-30134028D01*
X-7626354Y-30063052D01*
X-7595432Y-30012322D01*
X-6719497Y-29136387D01*
X-6707105Y-29125519D01*
X-6689537Y-29112039D01*
X-6682987Y-29107013D01*
X-6623423Y-29029386D01*
X-6589266Y-28984873D01*
X-6564862Y-28925957D01*
X-6530350Y-28842637D01*
X-6515300Y-28728321D01*
X-6515300Y-28728319D01*
X-6510255Y-28690000D01*
X-6514222Y-28659867D01*
X-6515300Y-28643421D01*
X-6515300Y-27394380D01*
X-6495298Y-27326259D01*
X-6478395Y-27305285D01*
X-3596092Y-24422983D01*
X-3533780Y-24388957D01*
X-3462964Y-24394022D01*
G37*
G04 #@! TD.AperFunction*
G04 #@! TA.AperFunction,Conductor*
G36*
X1096121Y-21366002D02*
G01*
X1142614Y-21419658D01*
X1154000Y-21472000D01*
X1154000Y-23528000D01*
X1133998Y-23596121D01*
X1080342Y-23642614D01*
X1028000Y-23654000D01*
X-1028000Y-23654000D01*
X-1096121Y-23633998D01*
X-1142614Y-23580342D01*
X-1154000Y-23528000D01*
X-1154000Y-23127885D01*
X-646000Y-23127885D01*
X-641525Y-23143124D01*
X-640135Y-23144329D01*
X-632452Y-23146000D01*
X627885Y-23146000D01*
X643124Y-23141525D01*
X644329Y-23140135D01*
X646000Y-23132452D01*
X646000Y-21872115D01*
X641525Y-21856876D01*
X640135Y-21855671D01*
X632452Y-21854000D01*
X-627885Y-21854000D01*
X-643124Y-21858475D01*
X-644329Y-21859865D01*
X-646000Y-21867548D01*
X-646000Y-23127885D01*
X-1154000Y-23127885D01*
X-1154000Y-21472000D01*
X-1133998Y-21403879D01*
X-1080342Y-21357386D01*
X-1028000Y-21346000D01*
X1028000Y-21346000D01*
X1096121Y-21366002D01*
G37*
G04 #@! TD.AperFunction*
G04 #@! TA.AperFunction,Conductor*
G36*
X7968312Y-3469264D02*
G01*
X7974895Y-3475393D01*
X8045700Y-3546198D01*
X8050208Y-3549355D01*
X8050211Y-3549357D01*
X8079834Y-3570099D01*
X8233251Y-3677523D01*
X8238233Y-3679846D01*
X8238238Y-3679849D01*
X8273049Y-3696081D01*
X8326334Y-3742998D01*
X8345795Y-3811275D01*
X8325253Y-3879235D01*
X8273049Y-3924471D01*
X8238489Y-3940586D01*
X8228994Y-3946069D01*
X8176952Y-3982509D01*
X8168576Y-3992988D01*
X8175644Y-4006434D01*
X9160115Y-4990905D01*
X9194141Y-5053217D01*
X9189076Y-5124032D01*
X9160115Y-5169095D01*
X8174923Y-6154287D01*
X8168493Y-6166062D01*
X8177789Y-6178077D01*
X8228994Y-6213931D01*
X8238489Y-6219414D01*
X8273049Y-6235529D01*
X8326334Y-6282446D01*
X8345795Y-6350723D01*
X8325253Y-6418683D01*
X8273049Y-6463919D01*
X8238238Y-6480151D01*
X8238233Y-6480154D01*
X8233251Y-6482477D01*
X8201511Y-6504702D01*
X8050211Y-6610643D01*
X8050208Y-6610645D01*
X8045700Y-6613802D01*
X7883802Y-6775700D01*
X7880645Y-6780208D01*
X7880643Y-6780211D01*
X7832758Y-6848598D01*
X7752477Y-6963251D01*
X7750154Y-6968233D01*
X7750151Y-6968238D01*
X7679939Y-7118810D01*
X7655716Y-7170757D01*
X7596457Y-7391913D01*
X7576502Y-7620000D01*
X7596457Y-7848087D01*
X7597881Y-7853400D01*
X7597881Y-7853402D01*
X7628044Y-7965971D01*
X7626354Y-8036947D01*
X7595432Y-8087677D01*
X5254897Y-10428213D01*
X5242506Y-10439080D01*
X5218387Y-10457587D01*
X5158823Y-10535214D01*
X5135696Y-10565352D01*
X5135695Y-10565354D01*
X5124666Y-10579727D01*
X5124666Y-10579728D01*
X5065750Y-10721963D01*
X5050700Y-10836279D01*
X5045655Y-10874600D01*
X5046733Y-10882788D01*
X5049622Y-10904733D01*
X5050700Y-10921179D01*
X5050700Y-13536192D01*
X5030698Y-13604313D01*
X4977042Y-13650806D01*
X4906768Y-13660910D01*
X4885032Y-13655785D01*
X4881186Y-13654509D01*
X4867810Y-13651642D01*
X4776903Y-13642328D01*
X4771874Y-13642071D01*
X4756876Y-13646475D01*
X4755671Y-13647865D01*
X4754000Y-13655548D01*
X4754000Y-14778000D01*
X4733998Y-14846121D01*
X4680342Y-14892614D01*
X4628000Y-14904000D01*
X2060115Y-14904000D01*
X2044876Y-14908475D01*
X2043671Y-14909865D01*
X2042000Y-14917548D01*
X2042000Y-14970438D01*
X2042337Y-14976953D01*
X2051894Y-15069057D01*
X2054788Y-15082456D01*
X2104381Y-15231107D01*
X2110555Y-15244286D01*
X2192788Y-15377173D01*
X2201824Y-15388573D01*
X2223819Y-15410530D01*
X2257899Y-15472812D01*
X2252897Y-15543632D01*
X2223975Y-15588721D01*
X2206909Y-15605817D01*
X2195448Y-15617298D01*
X2191608Y-15623528D01*
X2126877Y-15728541D01*
X2105698Y-15762899D01*
X2051851Y-15925243D01*
X2041500Y-16026268D01*
X2041500Y-16365044D01*
X2021498Y-16433165D01*
X1967842Y-16479658D01*
X1897568Y-16489762D01*
X1832988Y-16460268D01*
X1794138Y-16398206D01*
X1793250Y-16391463D01*
X1734334Y-16249228D01*
X1664143Y-16157752D01*
X1664142Y-16157751D01*
X1640613Y-16127087D01*
X1616498Y-16108583D01*
X1604107Y-16097716D01*
X1125884Y-15619494D01*
X1115016Y-15607101D01*
X1101541Y-15589540D01*
X1096513Y-15582987D01*
X1088001Y-15576455D01*
X1000707Y-15509473D01*
X980923Y-15494292D01*
X974373Y-15489266D01*
X970277Y-15487569D01*
X922506Y-15437468D01*
X908500Y-15379733D01*
X908500Y-15051866D01*
X901745Y-14989684D01*
X898973Y-14982288D01*
X898971Y-14982282D01*
X863616Y-14887973D01*
X858433Y-14817166D01*
X860601Y-14808592D01*
X903767Y-14660011D01*
X903768Y-14660007D01*
X905562Y-14653831D01*
X908500Y-14616502D01*
X908500Y-14183498D01*
X907327Y-14168588D01*
X906067Y-14152579D01*
X906066Y-14152574D01*
X905562Y-14146169D01*
X863731Y-14002185D01*
X861357Y-13994012D01*
X861356Y-13994010D01*
X859145Y-13986399D01*
X815399Y-13912429D01*
X778491Y-13850020D01*
X778489Y-13850017D01*
X774453Y-13843193D01*
X656807Y-13725547D01*
X649983Y-13721511D01*
X649980Y-13721509D01*
X520427Y-13644892D01*
X520428Y-13644892D01*
X513601Y-13640855D01*
X505990Y-13638644D01*
X505988Y-13638643D01*
X443191Y-13620399D01*
X383356Y-13582186D01*
X353678Y-13517690D01*
X363581Y-13447387D01*
X409921Y-13393599D01*
X425094Y-13385207D01*
X428781Y-13383488D01*
X588714Y-13308910D01*
X601577Y-13302912D01*
X601580Y-13302910D01*
X606558Y-13300589D01*
X779776Y-13179301D01*
X929301Y-13029776D01*
X1050589Y-12856558D01*
X1135805Y-12673812D01*
X1182722Y-12620527D01*
X1251000Y-12601066D01*
X1318960Y-12621608D01*
X1364195Y-12673812D01*
X1449411Y-12856558D01*
X1570699Y-13029776D01*
X1720224Y-13179301D01*
X1893442Y-13300589D01*
X1898420Y-13302910D01*
X1898423Y-13302912D01*
X2080108Y-13387633D01*
X2085090Y-13389956D01*
X2090398Y-13391378D01*
X2090400Y-13391379D01*
X2284030Y-13443262D01*
X2284032Y-13443262D01*
X2289345Y-13444686D01*
X2400380Y-13454400D01*
X2443488Y-13458172D01*
X2509606Y-13484036D01*
X2551245Y-13541539D01*
X2555186Y-13612426D01*
X2520177Y-13674191D01*
X2472382Y-13703217D01*
X2468893Y-13704381D01*
X2455714Y-13710555D01*
X2322827Y-13792788D01*
X2311426Y-13801824D01*
X2201014Y-13912429D01*
X2192002Y-13923840D01*
X2109996Y-14056880D01*
X2103849Y-14070061D01*
X2054509Y-14218814D01*
X2051642Y-14232190D01*
X2042328Y-14323097D01*
X2042000Y-14329514D01*
X2042000Y-14377885D01*
X2046475Y-14393124D01*
X2047865Y-14394329D01*
X2055548Y-14396000D01*
X2727885Y-14396000D01*
X2743124Y-14391525D01*
X2744329Y-14390135D01*
X2746000Y-14382452D01*
X2746000Y-14377885D01*
X3254000Y-14377885D01*
X3258475Y-14393124D01*
X3259865Y-14394329D01*
X3267548Y-14396000D01*
X4227885Y-14396000D01*
X4243124Y-14391525D01*
X4244329Y-14390135D01*
X4246000Y-14382452D01*
X4246000Y-13660115D01*
X4241525Y-13644876D01*
X4240135Y-13643671D01*
X4232452Y-13642000D01*
X4229562Y-13642000D01*
X4223047Y-13642337D01*
X4130943Y-13651894D01*
X4117544Y-13654788D01*
X3968893Y-13704381D01*
X3955714Y-13710555D01*
X3816599Y-13796642D01*
X3814914Y-13793918D01*
X3762273Y-13815146D01*
X3692526Y-13801885D01*
X3682598Y-13795508D01*
X3682391Y-13795843D01*
X3543120Y-13709996D01*
X3529939Y-13703849D01*
X3381186Y-13654509D01*
X3367810Y-13651642D01*
X3276903Y-13642328D01*
X3271874Y-13642071D01*
X3256876Y-13646475D01*
X3255671Y-13647865D01*
X3254000Y-13655548D01*
X3254000Y-14377885D01*
X2746000Y-14377885D01*
X2746000Y-13660115D01*
X2741525Y-13644876D01*
X2737206Y-13641133D01*
X2698821Y-13581408D01*
X2698820Y-13510411D01*
X2737203Y-13450684D01*
X2787106Y-13424201D01*
X2909600Y-13391379D01*
X2909602Y-13391378D01*
X2914910Y-13389956D01*
X2919892Y-13387633D01*
X3101577Y-13302912D01*
X3101580Y-13302910D01*
X3106558Y-13300589D01*
X3279776Y-13179301D01*
X3429301Y-13029776D01*
X3550589Y-12856558D01*
X3639956Y-12664910D01*
X3651849Y-12620527D01*
X3693262Y-12465970D01*
X3693262Y-12465968D01*
X3694686Y-12460655D01*
X3713116Y-12250000D01*
X3694686Y-12039345D01*
X3657063Y-11898934D01*
X3641379Y-11840400D01*
X3641378Y-11840398D01*
X3639956Y-11835090D01*
X3550589Y-11643442D01*
X3429301Y-11470224D01*
X3279776Y-11320699D01*
X3106558Y-11199411D01*
X3101580Y-11197090D01*
X3101577Y-11197088D01*
X2919892Y-11112367D01*
X2919891Y-11112366D01*
X2914910Y-11110044D01*
X2909602Y-11108622D01*
X2909600Y-11108621D01*
X2715970Y-11056738D01*
X2715968Y-11056738D01*
X2710655Y-11055314D01*
X2500000Y-11036884D01*
X2289345Y-11055314D01*
X2284032Y-11056738D01*
X2284030Y-11056738D01*
X2090400Y-11108621D01*
X2090398Y-11108622D01*
X2085090Y-11110044D01*
X2080109Y-11112366D01*
X2080108Y-11112367D01*
X1898423Y-11197088D01*
X1898420Y-11197090D01*
X1893442Y-11199411D01*
X1720224Y-11320699D01*
X1570699Y-11470224D01*
X1449411Y-11643442D01*
X1447090Y-11648420D01*
X1447088Y-11648423D01*
X1364195Y-11826188D01*
X1317278Y-11879473D01*
X1249000Y-11898934D01*
X1181040Y-11878392D01*
X1135805Y-11826188D01*
X1052912Y-11648423D01*
X1052910Y-11648420D01*
X1050589Y-11643442D01*
X929301Y-11470224D01*
X779776Y-11320699D01*
X606558Y-11199411D01*
X601580Y-11197090D01*
X601577Y-11197088D01*
X419892Y-11112367D01*
X419891Y-11112366D01*
X414910Y-11110044D01*
X409602Y-11108622D01*
X409600Y-11108621D01*
X215970Y-11056738D01*
X215968Y-11056738D01*
X210655Y-11055314D01*
X0Y-11036884D01*
X-210655Y-11055314D01*
X-215968Y-11056738D01*
X-215970Y-11056738D01*
X-409600Y-11108621D01*
X-409602Y-11108622D01*
X-414910Y-11110044D01*
X-419891Y-11112366D01*
X-419892Y-11112367D01*
X-601577Y-11197088D01*
X-601580Y-11197090D01*
X-606558Y-11199411D01*
X-779776Y-11320699D01*
X-929301Y-11470224D01*
X-1050589Y-11643442D01*
X-1052910Y-11648420D01*
X-1052912Y-11648423D01*
X-1135805Y-11826188D01*
X-1182722Y-11879473D01*
X-1251000Y-11898934D01*
X-1318960Y-11878392D01*
X-1364195Y-11826188D01*
X-1447088Y-11648423D01*
X-1447090Y-11648420D01*
X-1449411Y-11643442D01*
X-1570699Y-11470224D01*
X-1720224Y-11320699D01*
X-1893442Y-11199411D01*
X-1898420Y-11197090D01*
X-1898423Y-11197088D01*
X-2080108Y-11112367D01*
X-2080109Y-11112366D01*
X-2085090Y-11110044D01*
X-2090398Y-11108622D01*
X-2090400Y-11108621D01*
X-2284030Y-11056738D01*
X-2284032Y-11056738D01*
X-2289345Y-11055314D01*
X-2500000Y-11036884D01*
X-2710655Y-11055314D01*
X-2715968Y-11056738D01*
X-2715970Y-11056738D01*
X-2909600Y-11108621D01*
X-2909602Y-11108622D01*
X-2914910Y-11110044D01*
X-2921089Y-11112925D01*
X-2921554Y-11113142D01*
X-2922355Y-11113264D01*
X-2925065Y-11114250D01*
X-2925263Y-11113705D01*
X-2991746Y-11123800D01*
X-3056558Y-11094818D01*
X-3095412Y-11035397D01*
X-3100800Y-10998945D01*
X-3100800Y-10284500D01*
X-3080798Y-10216379D01*
X-3027142Y-10169886D01*
X-2974800Y-10158500D01*
X-1751866Y-10158500D01*
X-1689684Y-10151745D01*
X-1553295Y-10100615D01*
X-1436739Y-10013261D01*
X-1349385Y-9896705D01*
X-1298255Y-9760316D01*
X-1291500Y-9698134D01*
X-1291500Y-9608273D01*
X-1271498Y-9540152D01*
X-1217842Y-9493659D01*
X-1147568Y-9483555D01*
X-1082988Y-9513049D01*
X-1056947Y-9547544D01*
X-1055667Y-9546805D01*
X-1052912Y-9551575D01*
X-1050589Y-9556558D01*
X-929301Y-9729776D01*
X-779776Y-9879301D01*
X-606558Y-10000589D01*
X-601580Y-10002910D01*
X-601577Y-10002912D01*
X-507098Y-10046968D01*
X-414910Y-10089956D01*
X-409602Y-10091378D01*
X-409600Y-10091379D01*
X-215970Y-10143262D01*
X-215968Y-10143262D01*
X-210655Y-10144686D01*
X0Y-10163116D01*
X210655Y-10144686D01*
X215968Y-10143262D01*
X215970Y-10143262D01*
X409600Y-10091379D01*
X409602Y-10091378D01*
X414910Y-10089956D01*
X507098Y-10046968D01*
X601577Y-10002912D01*
X601580Y-10002910D01*
X606558Y-10000589D01*
X779776Y-9879301D01*
X929301Y-9729776D01*
X1050589Y-9556558D01*
X1054793Y-9547544D01*
X1135805Y-9373812D01*
X1182722Y-9320527D01*
X1251000Y-9301066D01*
X1318960Y-9321608D01*
X1364195Y-9373812D01*
X1445208Y-9547544D01*
X1449411Y-9556558D01*
X1570699Y-9729776D01*
X1720224Y-9879301D01*
X1893442Y-10000589D01*
X1898420Y-10002910D01*
X1898423Y-10002912D01*
X1992902Y-10046968D01*
X2085090Y-10089956D01*
X2090398Y-10091378D01*
X2090400Y-10091379D01*
X2284030Y-10143262D01*
X2284032Y-10143262D01*
X2289345Y-10144686D01*
X2500000Y-10163116D01*
X2710655Y-10144686D01*
X2715968Y-10143262D01*
X2715970Y-10143262D01*
X2909600Y-10091379D01*
X2909602Y-10091378D01*
X2914910Y-10089956D01*
X3007098Y-10046968D01*
X3101577Y-10002912D01*
X3101580Y-10002910D01*
X3106558Y-10000589D01*
X3279776Y-9879301D01*
X3429301Y-9729776D01*
X3550589Y-9556558D01*
X3554793Y-9547544D01*
X3637633Y-9369892D01*
X3637634Y-9369891D01*
X3639956Y-9364910D01*
X3651849Y-9320527D01*
X3693262Y-9165970D01*
X3693262Y-9165968D01*
X3694686Y-9160655D01*
X3713116Y-8950000D01*
X3694686Y-8739345D01*
X3657063Y-8598934D01*
X3641379Y-8540400D01*
X3641378Y-8540398D01*
X3639956Y-8535090D01*
X3555137Y-8353195D01*
X3552912Y-8348423D01*
X3552910Y-8348420D01*
X3550589Y-8343442D01*
X3429301Y-8170224D01*
X3279776Y-8020699D01*
X3106558Y-7899411D01*
X3101580Y-7897090D01*
X3101577Y-7897088D01*
X2919892Y-7812367D01*
X2919891Y-7812366D01*
X2914910Y-7810044D01*
X2909602Y-7808622D01*
X2909600Y-7808621D01*
X2715970Y-7756738D01*
X2715968Y-7756738D01*
X2710655Y-7755314D01*
X2500000Y-7736884D01*
X2289345Y-7755314D01*
X2284032Y-7756738D01*
X2284030Y-7756738D01*
X2090400Y-7808621D01*
X2090398Y-7808622D01*
X2085090Y-7810044D01*
X2080109Y-7812366D01*
X2080108Y-7812367D01*
X1898423Y-7897088D01*
X1898420Y-7897090D01*
X1893442Y-7899411D01*
X1720224Y-8020699D01*
X1570699Y-8170224D01*
X1449411Y-8343442D01*
X1447090Y-8348420D01*
X1447088Y-8348423D01*
X1364195Y-8526188D01*
X1317278Y-8579473D01*
X1249000Y-8598934D01*
X1181040Y-8578392D01*
X1135805Y-8526188D01*
X1052912Y-8348423D01*
X1052910Y-8348420D01*
X1050589Y-8343442D01*
X929301Y-8170224D01*
X779776Y-8020699D01*
X606558Y-7899411D01*
X601580Y-7897090D01*
X601577Y-7897088D01*
X419892Y-7812367D01*
X419891Y-7812366D01*
X414910Y-7810044D01*
X409602Y-7808622D01*
X409600Y-7808621D01*
X215970Y-7756738D01*
X215968Y-7756738D01*
X210655Y-7755314D01*
X0Y-7736884D01*
X-210655Y-7755314D01*
X-215968Y-7756738D01*
X-215970Y-7756738D01*
X-409600Y-7808621D01*
X-409602Y-7808622D01*
X-414910Y-7810044D01*
X-419891Y-7812366D01*
X-419892Y-7812367D01*
X-601577Y-7897088D01*
X-601580Y-7897090D01*
X-606558Y-7899411D01*
X-779776Y-8020699D01*
X-929301Y-8170224D01*
X-1050589Y-8343442D01*
X-1052912Y-8348423D01*
X-1055667Y-8353195D01*
X-1057570Y-8352096D01*
X-1098235Y-8398270D01*
X-1166514Y-8417723D01*
X-1234472Y-8397173D01*
X-1280531Y-8343145D01*
X-1291500Y-8291727D01*
X-1291500Y-8201866D01*
X-1298255Y-8139684D01*
X-1349385Y-8003295D01*
X-1436739Y-7886739D01*
X-1553295Y-7799385D01*
X-1689684Y-7748255D01*
X-1751866Y-7741500D01*
X-2858800Y-7741500D01*
X-2926921Y-7721498D01*
X-2973414Y-7667842D01*
X-2984800Y-7615500D01*
X-2984800Y-6984500D01*
X-2964798Y-6916379D01*
X-2911142Y-6869886D01*
X-2858800Y-6858500D01*
X-2326268Y-6858500D01*
X-2323022Y-6858163D01*
X-2323018Y-6858163D01*
X-2288917Y-6854625D01*
X-2223981Y-6847887D01*
X-2160611Y-6826745D01*
X-2068676Y-6796073D01*
X-2068674Y-6796072D01*
X-2061732Y-6793756D01*
X-2039843Y-6780211D01*
X-1922515Y-6707606D01*
X-1916287Y-6703752D01*
X-1795448Y-6582702D01*
X-1787849Y-6570374D01*
X-1771952Y-6544585D01*
X-1719180Y-6497091D01*
X-1664692Y-6484700D01*
X-923881Y-6484700D01*
X-855760Y-6504702D01*
X-834786Y-6521604D01*
X-779923Y-6576468D01*
X-725884Y-6630507D01*
X-715017Y-6642898D01*
X-696513Y-6667013D01*
X-665849Y-6690542D01*
X-665848Y-6690543D01*
X-574373Y-6760734D01*
X-432137Y-6819650D01*
X-279500Y-6839746D01*
X-249362Y-6835778D01*
X-232915Y-6834700D01*
X738321Y-6834700D01*
X742408Y-6834162D01*
X746526Y-6833892D01*
X746540Y-6834100D01*
X755694Y-6833500D01*
X1448134Y-6833500D01*
X1510316Y-6826745D01*
X1590712Y-6796606D01*
X1638301Y-6778766D01*
X1638304Y-6778764D01*
X1646705Y-6775615D01*
X1650382Y-6772859D01*
X1708464Y-6758000D01*
X2227885Y-6758000D01*
X2243124Y-6753525D01*
X2244329Y-6752135D01*
X2246000Y-6744452D01*
X2246000Y-4872000D01*
X2266002Y-4803879D01*
X2319658Y-4757386D01*
X2372000Y-4746000D01*
X2628000Y-4746000D01*
X2696121Y-4766002D01*
X2742614Y-4819658D01*
X2754000Y-4872000D01*
X2754000Y-6739884D01*
X2758475Y-6755123D01*
X2759865Y-6756328D01*
X2767548Y-6757999D01*
X3291534Y-6757999D01*
X3349617Y-6772859D01*
X3353295Y-6775615D01*
X3489684Y-6826745D01*
X3551866Y-6833500D01*
X4244306Y-6833500D01*
X4253460Y-6834100D01*
X4253474Y-6833892D01*
X4257592Y-6834162D01*
X4261679Y-6834700D01*
X4418698Y-6834700D01*
X4486819Y-6854702D01*
X4533312Y-6908358D01*
X4538256Y-6920928D01*
X4552335Y-6963251D01*
X4593833Y-7087999D01*
X4688354Y-7244071D01*
X4815103Y-7375323D01*
X4820995Y-7379178D01*
X4820999Y-7379182D01*
X4961885Y-7471375D01*
X4967781Y-7475233D01*
X4974385Y-7477689D01*
X4974387Y-7477690D01*
X5053290Y-7507034D01*
X5138800Y-7538835D01*
X5319660Y-7562967D01*
X5326671Y-7562329D01*
X5326675Y-7562329D01*
X5466380Y-7549614D01*
X5501371Y-7546429D01*
X5508073Y-7544251D01*
X5508075Y-7544251D01*
X5668205Y-7492222D01*
X5668208Y-7492221D01*
X5674904Y-7490045D01*
X5699752Y-7475233D01*
X5825577Y-7400227D01*
X5825580Y-7400225D01*
X5831632Y-7396617D01*
X5902939Y-7328712D01*
X5958662Y-7275648D01*
X5958664Y-7275645D01*
X5963766Y-7270787D01*
X6064739Y-7118810D01*
X6115759Y-6984500D01*
X6127033Y-6954822D01*
X6127034Y-6954817D01*
X6129533Y-6948239D01*
X6142191Y-6858172D01*
X6154376Y-6771475D01*
X6154376Y-6771470D01*
X6154927Y-6767552D01*
X6155246Y-6744700D01*
X6134907Y-6563375D01*
X6074901Y-6391061D01*
X5978211Y-6236324D01*
X5955974Y-6213931D01*
X5951994Y-6209923D01*
X5918187Y-6147493D01*
X5923499Y-6076695D01*
X5966244Y-6020008D01*
X5993182Y-6004731D01*
X6036013Y-5986990D01*
X6077673Y-5969734D01*
X6134311Y-5926274D01*
X6199813Y-5876013D01*
X6204839Y-5869463D01*
X6204843Y-5869459D01*
X6218323Y-5851891D01*
X6229191Y-5839499D01*
X7403628Y-4665063D01*
X7465940Y-4631037D01*
X7536756Y-4636102D01*
X7593591Y-4678649D01*
X7618402Y-4745169D01*
X7614430Y-4786769D01*
X7598375Y-4846688D01*
X7596472Y-4857481D01*
X7577483Y-5074525D01*
X7577483Y-5085475D01*
X7596472Y-5302519D01*
X7598375Y-5313312D01*
X7654764Y-5523761D01*
X7658510Y-5534053D01*
X7750586Y-5731511D01*
X7756069Y-5741006D01*
X7792509Y-5793048D01*
X7802988Y-5801424D01*
X7816434Y-5794356D01*
X8517978Y-5092812D01*
X8525592Y-5078868D01*
X8525461Y-5077035D01*
X8521210Y-5070420D01*
X7815712Y-4364922D01*
X7805770Y-4359493D01*
X7755568Y-4309290D01*
X7740477Y-4239916D01*
X7743382Y-4222639D01*
X7744750Y-4219337D01*
X7764846Y-4066700D01*
X7760878Y-4036562D01*
X7759800Y-4020115D01*
X7759800Y-3564488D01*
X7779802Y-3496367D01*
X7833458Y-3449874D01*
X7903732Y-3439770D01*
X7968312Y-3469264D01*
G37*
G04 #@! TD.AperFunction*
G04 #@! TA.AperFunction,Conductor*
G36*
X-1181040Y-12621608D02*
G01*
X-1135805Y-12673812D01*
X-1050589Y-12856558D01*
X-929301Y-13029776D01*
X-779776Y-13179301D01*
X-606558Y-13300589D01*
X-601580Y-13302910D01*
X-601577Y-13302912D01*
X-419892Y-13387633D01*
X-414910Y-13389956D01*
X-409602Y-13391378D01*
X-409600Y-13391379D01*
X-384196Y-13398186D01*
X-342215Y-13409435D01*
X-281593Y-13446385D01*
X-250572Y-13510246D01*
X-259000Y-13580740D01*
X-304203Y-13635488D01*
X-313694Y-13640694D01*
X-313599Y-13640854D01*
X-313600Y-13640855D01*
X-313601Y-13640855D01*
X-336351Y-13654310D01*
X-405165Y-13671770D01*
X-464630Y-13654311D01*
X-479779Y-13645352D01*
X-494210Y-13639107D01*
X-628605Y-13600061D01*
X-642706Y-13600101D01*
X-646000Y-13607370D01*
X-646000Y-13932430D01*
X-656115Y-13981275D01*
X-659145Y-13986399D01*
X-661355Y-13994007D01*
X-661357Y-13994011D01*
X-683412Y-14069928D01*
X-705562Y-14146169D01*
X-706066Y-14152574D01*
X-706067Y-14152579D01*
X-707327Y-14168588D01*
X-708500Y-14183498D01*
X-708500Y-14465500D01*
X-728502Y-14533621D01*
X-782158Y-14580114D01*
X-834500Y-14591500D01*
X-848134Y-14591500D01*
X-910316Y-14598255D01*
X-917712Y-14601027D01*
X-917718Y-14601029D01*
X-1037629Y-14645982D01*
X-1081858Y-14654000D01*
X-1918142Y-14654000D01*
X-1962371Y-14645982D01*
X-2082282Y-14601029D01*
X-2082288Y-14601027D01*
X-2089684Y-14598255D01*
X-2151866Y-14591500D01*
X-2165500Y-14591500D01*
X-2233621Y-14571498D01*
X-2280114Y-14517842D01*
X-2291500Y-14465500D01*
X-2291500Y-14272000D01*
X-2271498Y-14203879D01*
X-2217842Y-14157386D01*
X-2165500Y-14146000D01*
X-1172115Y-14146000D01*
X-1156876Y-14141525D01*
X-1155671Y-14140135D01*
X-1154000Y-14132452D01*
X-1154000Y-13613122D01*
X-1157973Y-13599591D01*
X-1165871Y-13598456D01*
X-1305790Y-13639107D01*
X-1320225Y-13645354D01*
X-1435862Y-13713740D01*
X-1504678Y-13731199D01*
X-1564138Y-13713740D01*
X-1679775Y-13645354D01*
X-1694210Y-13639107D01*
X-1840065Y-13596731D01*
X-1852667Y-13594430D01*
X-1881084Y-13592193D01*
X-1886014Y-13592000D01*
X-1950025Y-13592000D01*
X-2018146Y-13571998D01*
X-2064639Y-13518342D01*
X-2074743Y-13448068D01*
X-2045249Y-13383488D01*
X-2003275Y-13351805D01*
X-1898423Y-13302912D01*
X-1898420Y-13302910D01*
X-1893442Y-13300589D01*
X-1720224Y-13179301D01*
X-1570699Y-13029776D01*
X-1449411Y-12856558D01*
X-1364195Y-12673812D01*
X-1317278Y-12620527D01*
X-1249000Y-12601066D01*
X-1181040Y-12621608D01*
G37*
G04 #@! TD.AperFunction*
G04 #@! TA.AperFunction,Conductor*
G36*
X-4562823Y16471498D02*
G01*
X-4516330Y16417842D01*
X-4506226Y16347568D01*
X-4530118Y16289935D01*
X-4594786Y16203649D01*
X-4603324Y16188054D01*
X-4648478Y16067606D01*
X-4652105Y16052351D01*
X-4657631Y16001486D01*
X-4658000Y15994672D01*
X-4658000Y15272115D01*
X-4653525Y15256876D01*
X-4652135Y15255671D01*
X-4644452Y15254000D01*
X-1860116Y15254000D01*
X-1844877Y15258475D01*
X-1843672Y15259865D01*
X-1842001Y15267548D01*
X-1842001Y15994669D01*
X-1842371Y16001490D01*
X-1847895Y16052352D01*
X-1851521Y16067604D01*
X-1896676Y16188054D01*
X-1905214Y16203649D01*
X-1969882Y16289935D01*
X-1994730Y16356442D01*
X-1979677Y16425824D01*
X-1929503Y16476054D01*
X-1869056Y16491500D01*
X1869056Y16491500D01*
X1937177Y16471498D01*
X1983670Y16417842D01*
X1993774Y16347568D01*
X1969882Y16289935D01*
X1905214Y16203649D01*
X1896676Y16188054D01*
X1851522Y16067606D01*
X1847895Y16052351D01*
X1842369Y16001486D01*
X1842000Y15994672D01*
X1842000Y15272115D01*
X1846475Y15256876D01*
X1847865Y15255671D01*
X1855548Y15254000D01*
X4639884Y15254000D01*
X4655123Y15258475D01*
X4656328Y15259865D01*
X4657999Y15267548D01*
X4657999Y15994669D01*
X4657629Y16001490D01*
X4652105Y16052352D01*
X4648479Y16067604D01*
X4603324Y16188054D01*
X4594786Y16203649D01*
X4530118Y16289935D01*
X4505270Y16356442D01*
X4520323Y16425824D01*
X4570497Y16476054D01*
X4630944Y16491500D01*
X7541605Y16491500D01*
X7609726Y16471498D01*
X7656219Y16417842D01*
X7666323Y16347568D01*
X7647655Y16302539D01*
X7649522Y16301517D01*
X7636676Y16278054D01*
X7591522Y16157606D01*
X7587895Y16142351D01*
X7582369Y16091486D01*
X7582000Y16084672D01*
X7582000Y15512115D01*
X7586475Y15496876D01*
X7587865Y15495671D01*
X7595548Y15494000D01*
X9018000Y15494000D01*
X9086121Y15473998D01*
X9132614Y15420342D01*
X9144000Y15368000D01*
X9144000Y13950116D01*
X9148475Y13934877D01*
X9149865Y13933672D01*
X9157548Y13932001D01*
X9365500Y13932001D01*
X9433621Y13911999D01*
X9480114Y13858343D01*
X9491500Y13806001D01*
X9491500Y1610454D01*
X9471498Y1542333D01*
X9417842Y1495840D01*
X9347568Y1485736D01*
X9288794Y1510493D01*
X9282888Y1515025D01*
X9270499Y1525891D01*
X6271605Y4524785D01*
X6237579Y4587097D01*
X6234700Y4613880D01*
X6234700Y8033834D01*
X6254702Y8101955D01*
X6294393Y8140975D01*
X6383713Y8196248D01*
X6410884Y8223467D01*
X6473165Y8257546D01*
X6543985Y8252543D01*
X6589075Y8223622D01*
X6617298Y8195448D01*
X6623528Y8191608D01*
X6623529Y8191607D01*
X6705663Y8140979D01*
X6762899Y8105698D01*
X6925243Y8051851D01*
X6932080Y8051151D01*
X6932082Y8051150D01*
X6973401Y8046917D01*
X7026268Y8041500D01*
X7673732Y8041500D01*
X7676978Y8041837D01*
X7676982Y8041837D01*
X7711083Y8045375D01*
X7776019Y8052113D01*
X7884661Y8088359D01*
X7931324Y8103927D01*
X7931326Y8103928D01*
X7938268Y8106244D01*
X8083713Y8196248D01*
X8204552Y8317298D01*
X8208393Y8323529D01*
X8290462Y8456669D01*
X8290463Y8456671D01*
X8294302Y8462899D01*
X8348149Y8625243D01*
X8358500Y8726268D01*
X8358500Y9273732D01*
X8347887Y9376019D01*
X8303793Y9508185D01*
X8296073Y9531324D01*
X8296072Y9531326D01*
X8293756Y9538268D01*
X8203752Y9683713D01*
X8204745Y9684328D01*
X8184912Y9747902D01*
X8203766Y9816349D01*
X8204146Y9816891D01*
X8204552Y9817298D01*
X8264764Y9914979D01*
X8290462Y9956669D01*
X8290463Y9956671D01*
X8294302Y9962899D01*
X8348149Y10125243D01*
X8358500Y10226268D01*
X8358500Y10773732D01*
X8347887Y10876019D01*
X8301241Y11015834D01*
X8296073Y11031324D01*
X8296072Y11031326D01*
X8293756Y11038268D01*
X8252646Y11104702D01*
X8207606Y11177485D01*
X8203752Y11183713D01*
X8082702Y11304552D01*
X8076471Y11308393D01*
X7943331Y11390462D01*
X7943329Y11390463D01*
X7937101Y11394302D01*
X7774757Y11448149D01*
X7767920Y11448849D01*
X7767918Y11448850D01*
X7726599Y11453083D01*
X7673732Y11458500D01*
X7026268Y11458500D01*
X7023022Y11458163D01*
X7023018Y11458163D01*
X6993730Y11455124D01*
X6923981Y11447887D01*
X6915963Y11445212D01*
X6768676Y11396073D01*
X6768674Y11396072D01*
X6761732Y11393756D01*
X6616287Y11303752D01*
X6589116Y11276533D01*
X6526835Y11242454D01*
X6456015Y11247457D01*
X6410925Y11276378D01*
X6387882Y11299381D01*
X6382702Y11304552D01*
X6376471Y11308393D01*
X6243331Y11390462D01*
X6243329Y11390463D01*
X6237101Y11394302D01*
X6074757Y11448149D01*
X6067920Y11448849D01*
X6067918Y11448850D01*
X6026599Y11453083D01*
X5973732Y11458500D01*
X5326268Y11458500D01*
X5323022Y11458163D01*
X5323018Y11458163D01*
X5293730Y11455124D01*
X5223981Y11447887D01*
X5215963Y11445212D01*
X5068676Y11396073D01*
X5068674Y11396072D01*
X5061732Y11393756D01*
X4916287Y11303752D01*
X4911114Y11298570D01*
X4899660Y11287096D01*
X4795448Y11182702D01*
X4791607Y11176471D01*
X4791605Y11176468D01*
X4771952Y11144585D01*
X4719180Y11097091D01*
X4664692Y11084700D01*
X4612899Y11084700D01*
X4544778Y11104702D01*
X4498285Y11158358D01*
X4488181Y11228632D01*
X4514377Y11285992D01*
X4512904Y11287096D01*
X4594786Y11396351D01*
X4603324Y11411946D01*
X4648478Y11532394D01*
X4652105Y11547649D01*
X4657631Y11598514D01*
X4658000Y11605328D01*
X4658000Y12177885D01*
X4653525Y12193124D01*
X4652135Y12194329D01*
X4644452Y12196000D01*
X2972000Y12196000D01*
X2903879Y12216002D01*
X2857386Y12269658D01*
X2846000Y12322000D01*
X2846000Y12722115D01*
X3354000Y12722115D01*
X3358475Y12706876D01*
X3359865Y12705671D01*
X3367548Y12704000D01*
X4639884Y12704000D01*
X4655123Y12708475D01*
X4656328Y12709865D01*
X4657999Y12717548D01*
X4657999Y13294669D01*
X4657629Y13301490D01*
X4652105Y13352352D01*
X4648479Y13367604D01*
X4603324Y13488054D01*
X4594789Y13503644D01*
X4541734Y13574435D01*
X4516887Y13640942D01*
X4531940Y13710324D01*
X4541734Y13725565D01*
X4594789Y13796356D01*
X4603324Y13811946D01*
X4648478Y13932394D01*
X4652105Y13947649D01*
X4657631Y13998514D01*
X4658000Y14005328D01*
X4658000Y14395331D01*
X7582001Y14395331D01*
X7582371Y14388510D01*
X7587895Y14337648D01*
X7591521Y14322396D01*
X7636676Y14201946D01*
X7645214Y14186351D01*
X7721715Y14084276D01*
X7734276Y14071715D01*
X7836351Y13995214D01*
X7851946Y13986676D01*
X7972394Y13941522D01*
X7987649Y13937895D01*
X8038514Y13932369D01*
X8045328Y13932000D01*
X8617885Y13932000D01*
X8633124Y13936475D01*
X8634329Y13937865D01*
X8636000Y13945548D01*
X8636000Y14967885D01*
X8631525Y14983124D01*
X8630135Y14984329D01*
X8622452Y14986000D01*
X7600116Y14986000D01*
X7584877Y14981525D01*
X7583672Y14980135D01*
X7582001Y14972452D01*
X7582001Y14395331D01*
X4658000Y14395331D01*
X4658000Y14727885D01*
X4653525Y14743124D01*
X4652135Y14744329D01*
X4644452Y14746000D01*
X3522115Y14746000D01*
X3506876Y14741525D01*
X3505671Y14740135D01*
X3504000Y14732452D01*
X3504000Y13628000D01*
X3483998Y13559879D01*
X3430342Y13513386D01*
X3378000Y13502000D01*
X3372115Y13502000D01*
X3356876Y13497525D01*
X3355671Y13496135D01*
X3354000Y13488452D01*
X3354000Y12722115D01*
X2846000Y12722115D01*
X2846000Y13672000D01*
X2866002Y13740121D01*
X2919658Y13786614D01*
X2972000Y13798000D01*
X2977885Y13798000D01*
X2993124Y13802475D01*
X2994329Y13803865D01*
X2996000Y13811548D01*
X2996000Y14727885D01*
X2991525Y14743124D01*
X2990135Y14744329D01*
X2982452Y14746000D01*
X1860116Y14746000D01*
X1844877Y14741525D01*
X1843672Y14740135D01*
X1842001Y14732452D01*
X1842001Y14005331D01*
X1842371Y13998510D01*
X1847895Y13947648D01*
X1851521Y13932397D01*
X1877709Y13862541D01*
X1882892Y13791734D01*
X1848972Y13729365D01*
X1818633Y13709799D01*
X1819818Y13707634D01*
X1796351Y13694786D01*
X1694276Y13618285D01*
X1681715Y13605724D01*
X1643572Y13554830D01*
X1586713Y13512315D01*
X1529139Y13505132D01*
X1501533Y13508131D01*
X1501529Y13508131D01*
X1498134Y13508500D01*
X1101866Y13508500D01*
X1039684Y13501745D01*
X1020230Y13494452D01*
X1019230Y13494077D01*
X948423Y13488894D01*
X930770Y13494077D01*
X929770Y13494452D01*
X910316Y13501745D01*
X848134Y13508500D01*
X451866Y13508500D01*
X389684Y13501745D01*
X370230Y13494452D01*
X369230Y13494077D01*
X298423Y13488894D01*
X280770Y13494077D01*
X279770Y13494452D01*
X260316Y13501745D01*
X198134Y13508500D01*
X-198134Y13508500D01*
X-260316Y13501745D01*
X-279770Y13494452D01*
X-280770Y13494077D01*
X-351577Y13488894D01*
X-369230Y13494077D01*
X-370230Y13494452D01*
X-389684Y13501745D01*
X-451866Y13508500D01*
X-848134Y13508500D01*
X-910316Y13501745D01*
X-931483Y13493810D01*
X-1002289Y13488627D01*
X-1019942Y13493810D01*
X-1032395Y13498478D01*
X-1047649Y13502105D01*
X-1098514Y13507631D01*
X-1105328Y13508000D01*
X-1131885Y13508000D01*
X-1147124Y13503525D01*
X-1148329Y13502135D01*
X-1150000Y13494452D01*
X-1150000Y13422931D01*
X-1170002Y13354810D01*
X-1175173Y13347367D01*
X-1223174Y13283319D01*
X-1280032Y13240804D01*
X-1350851Y13235778D01*
X-1413144Y13269838D01*
X-1447135Y13332169D01*
X-1450000Y13358884D01*
X-1450000Y13489884D01*
X-1454475Y13505123D01*
X-1455865Y13506328D01*
X-1463548Y13507999D01*
X-1494669Y13507999D01*
X-1501488Y13507630D01*
X-1528790Y13504664D01*
X-1598672Y13517193D01*
X-1643223Y13554363D01*
X-1681716Y13605725D01*
X-1694276Y13618285D01*
X-1796351Y13694786D01*
X-1819818Y13707634D01*
X-1818028Y13710903D01*
X-1860709Y13742954D01*
X-1885419Y13809512D01*
X-1877709Y13862541D01*
X-1851522Y13932395D01*
X-1847895Y13947649D01*
X-1842369Y13998514D01*
X-1842000Y14005328D01*
X-1842000Y14727885D01*
X-1846475Y14743124D01*
X-1847865Y14744329D01*
X-1855548Y14746000D01*
X-2977885Y14746000D01*
X-2993124Y14741525D01*
X-2994329Y14740135D01*
X-2996000Y14732452D01*
X-2996000Y13816115D01*
X-2991525Y13800876D01*
X-2990135Y13799671D01*
X-2982452Y13798000D01*
X-2972000Y13798000D01*
X-2903879Y13777998D01*
X-2857386Y13724342D01*
X-2846000Y13672000D01*
X-2846000Y11160116D01*
X-2841525Y11144877D01*
X-2840135Y11143672D01*
X-2832452Y11142001D01*
X-2039407Y11142001D01*
X-1971286Y11121999D01*
X-1924793Y11068343D01*
X-1921425Y11060230D01*
X-1903325Y11011948D01*
X-1894786Y10996351D01*
X-1818285Y10894276D01*
X-1805724Y10881715D01*
X-1703649Y10805214D01*
X-1688054Y10796676D01*
X-1567606Y10751522D01*
X-1552351Y10747895D01*
X-1501486Y10742369D01*
X-1494672Y10742000D01*
X-1468115Y10742000D01*
X-1452876Y10746475D01*
X-1451671Y10747865D01*
X-1450000Y10755548D01*
X-1450000Y10891116D01*
X-1429998Y10959237D01*
X-1376342Y11005730D01*
X-1306068Y11015834D01*
X-1241488Y10986340D01*
X-1223176Y10966683D01*
X-1217595Y10959237D01*
X-1175173Y10902633D01*
X-1150326Y10836127D01*
X-1150000Y10827069D01*
X-1150000Y10760118D01*
X-1143782Y10738942D01*
X-1143782Y10667946D01*
X-1164713Y10626742D01*
X-1181177Y10605286D01*
X-1204304Y10575148D01*
X-1204305Y10575146D01*
X-1215334Y10560773D01*
X-1215334Y10560772D01*
X-1274250Y10418537D01*
X-1288230Y10312349D01*
X-1294345Y10265900D01*
X-1293267Y10257712D01*
X-1290378Y10235767D01*
X-1289300Y10219321D01*
X-1289300Y7997500D01*
X-1309302Y7929379D01*
X-1362958Y7882886D01*
X-1415300Y7871500D01*
X-1743134Y7871500D01*
X-1805316Y7864745D01*
X-1824770Y7857452D01*
X-1933301Y7816766D01*
X-1933304Y7816764D01*
X-1941705Y7813615D01*
X-1946490Y7810029D01*
X-2014374Y7795182D01*
X-2066035Y7810351D01*
X-2076942Y7816323D01*
X-2197394Y7861478D01*
X-2212649Y7865105D01*
X-2263514Y7870631D01*
X-2270328Y7871000D01*
X-2367885Y7871000D01*
X-2383124Y7866525D01*
X-2384329Y7865135D01*
X-2386000Y7857452D01*
X-2386000Y5850000D01*
X-2406002Y5781879D01*
X-2459658Y5735386D01*
X-2512000Y5724000D01*
X-2768000Y5724000D01*
X-2836121Y5744002D01*
X-2882614Y5797658D01*
X-2894000Y5850000D01*
X-2894000Y7852884D01*
X-2898475Y7868123D01*
X-2899865Y7869328D01*
X-2907548Y7870999D01*
X-3009669Y7870999D01*
X-3016490Y7870629D01*
X-3067352Y7865105D01*
X-3082604Y7861479D01*
X-3203058Y7816323D01*
X-3213965Y7810351D01*
X-3283322Y7795182D01*
X-3333268Y7809847D01*
X-3338295Y7813615D01*
X-3346696Y7816764D01*
X-3346699Y7816766D01*
X-3455230Y7857452D01*
X-3474684Y7864745D01*
X-3536866Y7871500D01*
X-4283134Y7871500D01*
X-4345316Y7864745D01*
X-4481705Y7813615D01*
X-4598261Y7726261D01*
X-4685615Y7609705D01*
X-4736745Y7473316D01*
X-4743500Y7411134D01*
X-4743500Y4544866D01*
X-4736745Y4482684D01*
X-4685615Y4346295D01*
X-4680230Y4339110D01*
X-4680229Y4339108D01*
X-4632606Y4275565D01*
X-4607758Y4209058D01*
X-4622811Y4139676D01*
X-4632606Y4124435D01*
X-4685615Y4053705D01*
X-4736745Y3917316D01*
X-4743500Y3855134D01*
X-4743500Y988866D01*
X-4736745Y926684D01*
X-4685615Y790295D01*
X-4598261Y673739D01*
X-4481705Y586385D01*
X-4345316Y535255D01*
X-4283134Y528500D01*
X-3536866Y528500D01*
X-3474684Y535255D01*
X-3467288Y538027D01*
X-3467282Y538029D01*
X-3394929Y565153D01*
X-3324122Y570336D01*
X-3261753Y536415D01*
X-3227624Y474159D01*
X-3224700Y447171D01*
X-3224700Y419782D01*
X-3244702Y351661D01*
X-3261604Y330687D01*
X-3950006Y-357716D01*
X-3962399Y-368584D01*
X-3986513Y-387087D01*
X-3991540Y-393638D01*
X-3997382Y-399480D01*
X-3998531Y-398331D01*
X-4048160Y-434571D01*
X-4060551Y-436730D01*
X-4060502Y-436896D01*
X-4093124Y-446475D01*
X-4094329Y-447865D01*
X-4096000Y-455548D01*
X-4096000Y-522226D01*
X-4105591Y-570444D01*
X-4135990Y-643834D01*
X-4139150Y-651463D01*
X-4153006Y-756711D01*
X-4159245Y-804100D01*
X-4158167Y-812288D01*
X-4155278Y-834233D01*
X-4154200Y-850679D01*
X-4154200Y-3028000D01*
X-4174202Y-3096121D01*
X-4227858Y-3142614D01*
X-4280200Y-3154000D01*
X-5339885Y-3154000D01*
X-5355124Y-3158475D01*
X-5356329Y-3159865D01*
X-5358000Y-3167548D01*
X-5358000Y-3170438D01*
X-5357663Y-3176953D01*
X-5348106Y-3269057D01*
X-5345212Y-3282456D01*
X-5295619Y-3431107D01*
X-5289445Y-3444286D01*
X-5203421Y-3583300D01*
X-5184583Y-3651752D01*
X-5204969Y-3717041D01*
X-5204552Y-3717298D01*
X-5206922Y-3721143D01*
X-5262480Y-3811275D01*
X-5294302Y-3862899D01*
X-5348149Y-4025243D01*
X-5358500Y-4126268D01*
X-5358500Y-4673732D01*
X-5347887Y-4776019D01*
X-5293756Y-4938268D01*
X-5289904Y-4944492D01*
X-5289904Y-4944493D01*
X-5203752Y-5083713D01*
X-5204745Y-5084328D01*
X-5184912Y-5147902D01*
X-5203766Y-5216349D01*
X-5204146Y-5216891D01*
X-5204552Y-5217298D01*
X-5205434Y-5218729D01*
X-5264961Y-5315300D01*
X-5294302Y-5362899D01*
X-5348149Y-5525243D01*
X-5358500Y-5626268D01*
X-5358500Y-6173732D01*
X-5347887Y-6276019D01*
X-5293756Y-6438268D01*
X-5289904Y-6444492D01*
X-5289904Y-6444493D01*
X-5242186Y-6521605D01*
X-5203752Y-6583713D01*
X-5082702Y-6704552D01*
X-5076472Y-6708392D01*
X-5076471Y-6708393D01*
X-4962308Y-6778764D01*
X-4937101Y-6794302D01*
X-4774757Y-6848149D01*
X-4767920Y-6848849D01*
X-4767918Y-6848850D01*
X-4726599Y-6853083D01*
X-4673732Y-6858500D01*
X-4280200Y-6858500D01*
X-4212079Y-6878502D01*
X-4165586Y-6932158D01*
X-4154200Y-6984500D01*
X-4154200Y-7694176D01*
X-4174202Y-7762297D01*
X-4180237Y-7770880D01*
X-4196234Y-7791727D01*
X-4196234Y-7791728D01*
X-4255150Y-7933963D01*
X-4270200Y-8048279D01*
X-4275245Y-8086600D01*
X-4274167Y-8094788D01*
X-4271278Y-8116733D01*
X-4270200Y-8133179D01*
X-4270200Y-11108720D01*
X-4290202Y-11176841D01*
X-4343858Y-11223334D01*
X-4414132Y-11233438D01*
X-4478712Y-11203944D01*
X-4485295Y-11197815D01*
X-7595432Y-8087678D01*
X-7629458Y-8025366D01*
X-7628044Y-7965972D01*
X-7597881Y-7853402D01*
X-7597881Y-7853400D01*
X-7596457Y-7848087D01*
X-7576502Y-7620000D01*
X-7596457Y-7391913D01*
X-7655716Y-7170757D01*
X-7679939Y-7118810D01*
X-7750151Y-6968238D01*
X-7750154Y-6968233D01*
X-7752477Y-6963251D01*
X-7832758Y-6848598D01*
X-7880643Y-6780211D01*
X-7880645Y-6780208D01*
X-7883802Y-6775700D01*
X-8045700Y-6613802D01*
X-8050208Y-6610645D01*
X-8050211Y-6610643D01*
X-8201511Y-6504702D01*
X-8233251Y-6482477D01*
X-8238233Y-6480154D01*
X-8238238Y-6480151D01*
X-8273049Y-6463919D01*
X-8326334Y-6417002D01*
X-8345795Y-6348725D01*
X-8325253Y-6280765D01*
X-8273049Y-6235529D01*
X-8238489Y-6219414D01*
X-8228994Y-6213931D01*
X-8176952Y-6177491D01*
X-8168576Y-6167012D01*
X-8175644Y-6153566D01*
X-9160115Y-5169095D01*
X-9194141Y-5106783D01*
X-9192306Y-5081132D01*
X-8525592Y-5081132D01*
X-8525461Y-5082965D01*
X-8521210Y-5089580D01*
X-7815713Y-5795077D01*
X-7803938Y-5801507D01*
X-7791923Y-5792211D01*
X-7756069Y-5741006D01*
X-7750586Y-5731511D01*
X-7658510Y-5534053D01*
X-7654764Y-5523761D01*
X-7598375Y-5313312D01*
X-7596472Y-5302519D01*
X-7577483Y-5085475D01*
X-7577483Y-5074525D01*
X-7596472Y-4857481D01*
X-7598375Y-4846688D01*
X-7654764Y-4636239D01*
X-7658510Y-4625947D01*
X-7750586Y-4428489D01*
X-7756069Y-4418994D01*
X-7792509Y-4366952D01*
X-7802988Y-4358576D01*
X-7816434Y-4365644D01*
X-8517978Y-5067188D01*
X-8525592Y-5081132D01*
X-9192306Y-5081132D01*
X-9189076Y-5035968D01*
X-9160115Y-4990905D01*
X-8174923Y-4005713D01*
X-8168493Y-3993938D01*
X-8177789Y-3981923D01*
X-8228994Y-3946069D01*
X-8238489Y-3940586D01*
X-8273049Y-3924471D01*
X-8326334Y-3877554D01*
X-8345795Y-3809277D01*
X-8325253Y-3741317D01*
X-8273049Y-3696081D01*
X-8238238Y-3679849D01*
X-8238233Y-3679846D01*
X-8233251Y-3677523D01*
X-8079834Y-3570099D01*
X-8050211Y-3549357D01*
X-8050208Y-3549355D01*
X-8045700Y-3546198D01*
X-7883802Y-3384300D01*
X-7752477Y-3196749D01*
X-7750154Y-3191767D01*
X-7750151Y-3191762D01*
X-7658039Y-2994225D01*
X-7658039Y-2994224D01*
X-7655716Y-2989243D01*
X-7632741Y-2903502D01*
X-7597881Y-2773402D01*
X-7597881Y-2773400D01*
X-7596457Y-2768087D01*
X-7576502Y-2540000D01*
X-7596457Y-2311913D01*
X-7613276Y-2249143D01*
X-7654293Y-2096067D01*
X-7654294Y-2096065D01*
X-7655716Y-2090757D01*
X-7673991Y-2051565D01*
X-7750151Y-1888238D01*
X-7750154Y-1888233D01*
X-7752477Y-1883251D01*
X-7883802Y-1695700D01*
X-7909064Y-1670438D01*
X-5358000Y-1670438D01*
X-5357663Y-1676953D01*
X-5348106Y-1769057D01*
X-5345212Y-1782456D01*
X-5295619Y-1931107D01*
X-5289445Y-1944286D01*
X-5203358Y-2083401D01*
X-5206082Y-2085086D01*
X-5184854Y-2137727D01*
X-5198115Y-2207474D01*
X-5204492Y-2217402D01*
X-5204157Y-2217609D01*
X-5290004Y-2356880D01*
X-5296151Y-2370061D01*
X-5345491Y-2518814D01*
X-5348358Y-2532190D01*
X-5357672Y-2623097D01*
X-5357929Y-2628126D01*
X-5353525Y-2643124D01*
X-5352135Y-2644329D01*
X-5344452Y-2646000D01*
X-4622115Y-2646000D01*
X-4606876Y-2641525D01*
X-4605671Y-2640135D01*
X-4604000Y-2632452D01*
X-4604000Y-1672115D01*
X-4608475Y-1656876D01*
X-4609865Y-1655671D01*
X-4617548Y-1654000D01*
X-5339885Y-1654000D01*
X-5355124Y-1658475D01*
X-5356329Y-1659865D01*
X-5358000Y-1667548D01*
X-5358000Y-1670438D01*
X-7909064Y-1670438D01*
X-8045700Y-1533802D01*
X-8050211Y-1530643D01*
X-8054424Y-1527108D01*
X-8053473Y-1525974D01*
X-8093471Y-1475929D01*
X-8100776Y-1405310D01*
X-8068742Y-1341951D01*
X-8007538Y-1305970D01*
X-7990483Y-1302918D01*
X-7979684Y-1301745D01*
X-7843295Y-1250615D01*
X-7726739Y-1163261D01*
X-7700407Y-1128126D01*
X-5357929Y-1128126D01*
X-5353525Y-1143124D01*
X-5352135Y-1144329D01*
X-5344452Y-1146000D01*
X-4622115Y-1146000D01*
X-4606876Y-1141525D01*
X-4605671Y-1140135D01*
X-4604000Y-1132452D01*
X-4604000Y-460115D01*
X-4608475Y-444876D01*
X-4609865Y-443671D01*
X-4617548Y-442000D01*
X-4670438Y-442000D01*
X-4676953Y-442337D01*
X-4769057Y-451894D01*
X-4782456Y-454788D01*
X-4931107Y-504381D01*
X-4944286Y-510555D01*
X-5077173Y-592788D01*
X-5088574Y-601824D01*
X-5198986Y-712429D01*
X-5207998Y-723840D01*
X-5290004Y-856880D01*
X-5296151Y-870061D01*
X-5345491Y-1018814D01*
X-5348358Y-1032190D01*
X-5357672Y-1123097D01*
X-5357929Y-1128126D01*
X-7700407Y-1128126D01*
X-7639385Y-1046705D01*
X-7588255Y-910316D01*
X-7581500Y-848134D01*
X-7581500Y848134D01*
X-7588255Y910316D01*
X-7639385Y1046705D01*
X-7726739Y1163261D01*
X-7754839Y1184321D01*
X-7797353Y1241177D01*
X-7802380Y1311995D01*
X-7768369Y1374241D01*
X-5269497Y3873113D01*
X-5257105Y3883981D01*
X-5239537Y3897461D01*
X-5232987Y3902487D01*
X-5173423Y3980114D01*
X-5139266Y4024627D01*
X-5080350Y4166863D01*
X-5060255Y4319500D01*
X-5064222Y4349633D01*
X-5065300Y4366079D01*
X-5065300Y8033834D01*
X-5045298Y8101955D01*
X-5005607Y8140975D01*
X-4916287Y8196248D01*
X-4795448Y8317298D01*
X-4791607Y8323529D01*
X-4709538Y8456669D01*
X-4709537Y8456671D01*
X-4705698Y8462899D01*
X-4651851Y8625243D01*
X-4641500Y8726268D01*
X-4641500Y9273732D01*
X-4652113Y9376019D01*
X-4696207Y9508185D01*
X-4703927Y9531324D01*
X-4703928Y9531326D01*
X-4706244Y9538268D01*
X-4796248Y9683713D01*
X-4793540Y9685389D01*
X-4814817Y9738041D01*
X-4801607Y9807797D01*
X-4795461Y9817374D01*
X-4795843Y9817609D01*
X-4709996Y9956880D01*
X-4703849Y9970061D01*
X-4654509Y10118814D01*
X-4651642Y10132190D01*
X-4642328Y10223097D01*
X-4642071Y10228126D01*
X-4646475Y10243124D01*
X-4647865Y10244329D01*
X-4655548Y10246000D01*
X-5778000Y10246000D01*
X-5846121Y10266002D01*
X-5892614Y10319658D01*
X-5904000Y10372000D01*
X-5904000Y10772115D01*
X-5396000Y10772115D01*
X-5391525Y10756876D01*
X-5390135Y10755671D01*
X-5382452Y10754000D01*
X-4660115Y10754000D01*
X-4644876Y10758475D01*
X-4643671Y10759865D01*
X-4642000Y10767548D01*
X-4642000Y10770438D01*
X-4642337Y10776953D01*
X-4651894Y10869057D01*
X-4654788Y10882456D01*
X-4704381Y11031107D01*
X-4710555Y11044286D01*
X-4792788Y11177173D01*
X-4801824Y11188574D01*
X-4912429Y11298986D01*
X-4923840Y11307998D01*
X-5056880Y11390004D01*
X-5070061Y11396151D01*
X-5218814Y11445491D01*
X-5232190Y11448358D01*
X-5323097Y11457672D01*
X-5329514Y11458000D01*
X-5377885Y11458000D01*
X-5393124Y11453525D01*
X-5394329Y11452135D01*
X-5396000Y11444452D01*
X-5396000Y10772115D01*
X-5904000Y10772115D01*
X-5904000Y11439885D01*
X-5908475Y11455124D01*
X-5909865Y11456329D01*
X-5917548Y11458000D01*
X-5970438Y11458000D01*
X-5976953Y11457663D01*
X-6069057Y11448106D01*
X-6082456Y11445212D01*
X-6231107Y11395619D01*
X-6244286Y11389445D01*
X-6377173Y11307212D01*
X-6388573Y11298176D01*
X-6410530Y11276181D01*
X-6472812Y11242101D01*
X-6543632Y11247103D01*
X-6588721Y11276025D01*
X-6612117Y11299380D01*
X-6612118Y11299381D01*
X-6617298Y11304552D01*
X-6690099Y11349427D01*
X-6756669Y11390462D01*
X-6756671Y11390463D01*
X-6762899Y11394302D01*
X-6925243Y11448149D01*
X-6932080Y11448849D01*
X-6932082Y11448850D01*
X-6973401Y11453083D01*
X-7026268Y11458500D01*
X-7673732Y11458500D01*
X-7676978Y11458163D01*
X-7676982Y11458163D01*
X-7706270Y11455124D01*
X-7776019Y11447887D01*
X-7784037Y11445212D01*
X-7931324Y11396073D01*
X-7931326Y11396072D01*
X-7938268Y11393756D01*
X-8083713Y11303752D01*
X-8088886Y11298570D01*
X-8100340Y11287096D01*
X-8204552Y11182702D01*
X-8208392Y11176472D01*
X-8208393Y11176471D01*
X-8289745Y11044493D01*
X-8294302Y11037101D01*
X-8348149Y10874757D01*
X-8358500Y10773732D01*
X-8358500Y10226268D01*
X-8347887Y10123981D01*
X-8345705Y10117441D01*
X-8296463Y9969847D01*
X-8293756Y9961732D01*
X-8289904Y9955508D01*
X-8289904Y9955507D01*
X-8203752Y9816287D01*
X-8204745Y9815672D01*
X-8184912Y9752098D01*
X-8203766Y9683651D01*
X-8204146Y9683109D01*
X-8204552Y9682702D01*
X-8205434Y9681271D01*
X-8289745Y9544493D01*
X-8294302Y9537101D01*
X-8348149Y9374757D01*
X-8358500Y9273732D01*
X-8358500Y8726268D01*
X-8347887Y8623981D01*
X-8345705Y8617441D01*
X-8296463Y8469847D01*
X-8293756Y8461732D01*
X-8203752Y8316287D01*
X-8082702Y8195448D01*
X-8076472Y8191608D01*
X-8076471Y8191607D01*
X-7994337Y8140979D01*
X-7937101Y8105698D01*
X-7774757Y8051851D01*
X-7767920Y8051151D01*
X-7767918Y8051150D01*
X-7726599Y8046917D01*
X-7673732Y8041500D01*
X-7026268Y8041500D01*
X-7023022Y8041837D01*
X-7023018Y8041837D01*
X-6988917Y8045375D01*
X-6923981Y8052113D01*
X-6815339Y8088359D01*
X-6768676Y8103927D01*
X-6768674Y8103928D01*
X-6761732Y8106244D01*
X-6616287Y8196248D01*
X-6589116Y8223467D01*
X-6526835Y8257546D01*
X-6456015Y8252543D01*
X-6410925Y8223622D01*
X-6382702Y8195448D01*
X-6376472Y8191608D01*
X-6376471Y8191607D01*
X-6294584Y8141131D01*
X-6247091Y8088359D01*
X-6234700Y8033871D01*
X-6234700Y4613880D01*
X-6254702Y4545759D01*
X-6271605Y4524785D01*
X-9270503Y1525887D01*
X-9282887Y1515025D01*
X-9288796Y1510491D01*
X-9355013Y1484890D01*
X-9424562Y1499153D01*
X-9475360Y1548753D01*
X-9491500Y1610453D01*
X-9491500Y11605331D01*
X-4657999Y11605331D01*
X-4657629Y11598510D01*
X-4652105Y11547648D01*
X-4648479Y11532396D01*
X-4603324Y11411946D01*
X-4594786Y11396351D01*
X-4518285Y11294276D01*
X-4505724Y11281715D01*
X-4403649Y11205214D01*
X-4388054Y11196676D01*
X-4267606Y11151522D01*
X-4252351Y11147895D01*
X-4201486Y11142369D01*
X-4194672Y11142000D01*
X-3372115Y11142000D01*
X-3356876Y11146475D01*
X-3355671Y11147865D01*
X-3354000Y11155548D01*
X-3354000Y12177885D01*
X-3358475Y12193124D01*
X-3359865Y12194329D01*
X-3367548Y12196000D01*
X-4639884Y12196000D01*
X-4655123Y12191525D01*
X-4656328Y12190135D01*
X-4657999Y12182452D01*
X-4657999Y11605331D01*
X-9491500Y11605331D01*
X-9491500Y12722115D01*
X-4658000Y12722115D01*
X-4653525Y12706876D01*
X-4652135Y12705671D01*
X-4644452Y12704000D01*
X-3372115Y12704000D01*
X-3356876Y12708475D01*
X-3355671Y12709865D01*
X-3354000Y12717548D01*
X-3354000Y13483885D01*
X-3358475Y13499124D01*
X-3359865Y13500329D01*
X-3367548Y13502000D01*
X-3378000Y13502000D01*
X-3446121Y13522002D01*
X-3492614Y13575658D01*
X-3504000Y13628000D01*
X-3504000Y14727885D01*
X-3508475Y14743124D01*
X-3509865Y14744329D01*
X-3517548Y14746000D01*
X-4639884Y14746000D01*
X-4655123Y14741525D01*
X-4656328Y14740135D01*
X-4657999Y14732452D01*
X-4657999Y14005331D01*
X-4657629Y13998510D01*
X-4652105Y13947648D01*
X-4648479Y13932396D01*
X-4603324Y13811946D01*
X-4594789Y13796356D01*
X-4541734Y13725565D01*
X-4516887Y13659058D01*
X-4531940Y13589676D01*
X-4541734Y13574435D01*
X-4594789Y13503644D01*
X-4603324Y13488054D01*
X-4648478Y13367606D01*
X-4652105Y13352351D01*
X-4657631Y13301486D01*
X-4658000Y13294672D01*
X-4658000Y12722115D01*
X-9491500Y12722115D01*
X-9491500Y13806000D01*
X-9471498Y13874121D01*
X-9417842Y13920614D01*
X-9365500Y13932000D01*
X-9162115Y13932000D01*
X-9146876Y13936475D01*
X-9145671Y13937865D01*
X-9144000Y13945548D01*
X-9144000Y13950116D01*
X-8636000Y13950116D01*
X-8631525Y13934877D01*
X-8630135Y13933672D01*
X-8622452Y13932001D01*
X-8045331Y13932001D01*
X-8038510Y13932371D01*
X-7987648Y13937895D01*
X-7972396Y13941521D01*
X-7851946Y13986676D01*
X-7836351Y13995214D01*
X-7734276Y14071715D01*
X-7721715Y14084276D01*
X-7645214Y14186351D01*
X-7636676Y14201946D01*
X-7591522Y14322394D01*
X-7587895Y14337649D01*
X-7582369Y14388514D01*
X-7582000Y14395328D01*
X-7582000Y14967885D01*
X-7586475Y14983124D01*
X-7587865Y14984329D01*
X-7595548Y14986000D01*
X-8617885Y14986000D01*
X-8633124Y14981525D01*
X-8634329Y14980135D01*
X-8636000Y14972452D01*
X-8636000Y13950116D01*
X-9144000Y13950116D01*
X-9144000Y15368000D01*
X-9123998Y15436121D01*
X-9070342Y15482614D01*
X-9018000Y15494000D01*
X-7600116Y15494000D01*
X-7584877Y15498475D01*
X-7583672Y15499865D01*
X-7582001Y15507548D01*
X-7582001Y16084669D01*
X-7582371Y16091490D01*
X-7587895Y16142352D01*
X-7591521Y16157604D01*
X-7636676Y16278054D01*
X-7649522Y16301517D01*
X-7647227Y16302774D01*
X-7667279Y16356438D01*
X-7652228Y16425821D01*
X-7602055Y16476053D01*
X-7541605Y16491500D01*
X-4630944Y16491500D01*
X-4562823Y16471498D01*
G37*
G04 #@! TD.AperFunction*
G04 #@! TA.AperFunction,Conductor*
G36*
X-1885071Y565153D02*
G01*
X-1812718Y538029D01*
X-1812712Y538027D01*
X-1805316Y535255D01*
X-1743134Y528500D01*
X-1415300Y528500D01*
X-1347179Y508498D01*
X-1300686Y454842D01*
X-1289300Y402500D01*
X-1289300Y-428322D01*
X-1290378Y-444769D01*
X-1294345Y-474900D01*
X-1293267Y-483088D01*
X-1289300Y-513219D01*
X-1289300Y-513221D01*
X-1279073Y-590899D01*
X-1274250Y-627537D01*
X-1271090Y-635166D01*
X-1234909Y-722515D01*
X-1232590Y-728113D01*
X-1215334Y-769773D01*
X-1188994Y-804100D01*
X-1121613Y-891913D01*
X-1115067Y-896936D01*
X-1115064Y-896939D01*
X-1097491Y-910423D01*
X-1085099Y-921291D01*
X649113Y-2655503D01*
X659980Y-2667894D01*
X678487Y-2692013D01*
X743583Y-2741962D01*
X800627Y-2785734D01*
X808253Y-2788893D01*
X808255Y-2788894D01*
X896908Y-2825615D01*
X942863Y-2844650D01*
X1095500Y-2864746D01*
X1125638Y-2860778D01*
X1142085Y-2859700D01*
X1196375Y-2859700D01*
X1240605Y-2867718D01*
X1264684Y-2876745D01*
X1326866Y-2883500D01*
X1766001Y-2883500D01*
X1834122Y-2903502D01*
X1880615Y-2957158D01*
X1892001Y-3009500D01*
X1892001Y-3044669D01*
X1892370Y-3051488D01*
X1897900Y-3102395D01*
X1885371Y-3172277D01*
X1837050Y-3224292D01*
X1772637Y-3242001D01*
X1708466Y-3242001D01*
X1650383Y-3227141D01*
X1646705Y-3224385D01*
X1510316Y-3173255D01*
X1448134Y-3166500D01*
X755694Y-3166500D01*
X746540Y-3165900D01*
X746526Y-3166108D01*
X742408Y-3165838D01*
X738321Y-3165300D01*
X105528Y-3165300D01*
X37407Y-3145298D01*
X-9086Y-3091642D01*
X-19190Y-3021368D01*
X-12262Y-2994562D01*
X-11869Y-2993527D01*
X-11868Y-2993523D01*
X-9367Y-2986939D01*
X-8387Y-2979967D01*
X15476Y-2810175D01*
X15476Y-2810170D01*
X16027Y-2806252D01*
X16182Y-2795166D01*
X16291Y-2787363D01*
X16291Y-2787358D01*
X16346Y-2783400D01*
X-3993Y-2602075D01*
X-63999Y-2429761D01*
X-160689Y-2275024D01*
X-227769Y-2207474D01*
X-284296Y-2150551D01*
X-284300Y-2150548D01*
X-289259Y-2145554D01*
X-443317Y-2047786D01*
X-550010Y-2009794D01*
X-608573Y-1988940D01*
X-608575Y-1988939D01*
X-615207Y-1986578D01*
X-622193Y-1985745D01*
X-622197Y-1985744D01*
X-650027Y-1982426D01*
X-715300Y-1954499D01*
X-724203Y-1946407D01*
X-1633837Y-1036773D01*
X-1664265Y-987555D01*
X-1703924Y-868685D01*
X-1703925Y-868683D01*
X-1706244Y-861732D01*
X-1796248Y-716287D01*
X-1917298Y-595448D01*
X-1957862Y-570444D01*
X-2056669Y-509538D01*
X-2056671Y-509537D01*
X-2062899Y-505698D01*
X-2153327Y-475705D01*
X-2211686Y-435275D01*
X-2238923Y-369711D01*
X-2226390Y-299829D01*
X-2213621Y-279408D01*
X-2163704Y-214355D01*
X-2163705Y-214355D01*
X-2158294Y-207303D01*
X-2129266Y-169472D01*
X-2070350Y-27237D01*
X-2050254Y125400D01*
X-2054222Y155540D01*
X-2055300Y171986D01*
X-2055300Y447171D01*
X-2035298Y515292D01*
X-1981642Y561785D01*
X-1911368Y571889D01*
X-1885071Y565153D01*
G37*
G04 #@! TD.AperFunction*
G04 #@! TA.AperFunction,Conductor*
G36*
X1132021Y6211998D02*
G01*
X1178514Y6158342D01*
X1189900Y6106000D01*
X1189900Y5850000D01*
X1169898Y5781879D01*
X1116242Y5735386D01*
X1063900Y5724000D01*
X6100Y5724000D01*
X-62021Y5744002D01*
X-108514Y5797658D01*
X-119900Y5850000D01*
X-119900Y6106000D01*
X-99898Y6174121D01*
X-46242Y6220614D01*
X6100Y6232000D01*
X1063900Y6232000D01*
X1132021Y6211998D01*
G37*
G04 #@! TD.AperFunction*
M02*
