G04 #@! TF.GenerationSoftware,KiCad,Pcbnew,(6.0.9)*
G04 #@! TF.CreationDate,2022-12-10T19:39:28+09:00*
G04 #@! TF.ProjectId,EB-STM32L412KB,45422d53-544d-4333-924c-3431324b422e,V2.0*
G04 #@! TF.SameCoordinates,Original*
G04 #@! TF.FileFunction,Legend,Top*
G04 #@! TF.FilePolarity,Positive*
%FSLAX46Y46*%
G04 Gerber Fmt 4.6, Leading zero omitted, Abs format (unit mm)*
G04 Created by KiCad (PCBNEW (6.0.9)) date 2022-12-10 19:39:28*
%MOMM*%
%LPD*%
G01*
G04 APERTURE LIST*
%ADD10C,0.120000*%
%ADD11C,0.150000*%
%ADD12C,0.200000*%
G04 APERTURE END LIST*
D10*
X-2233333Y-33761904D02*
X-2500000Y-33380952D01*
X-2690476Y-33761904D02*
X-2690476Y-32961904D01*
X-2385714Y-32961904D01*
X-2309523Y-33000000D01*
X-2271428Y-33038095D01*
X-2233333Y-33114285D01*
X-2233333Y-33228571D01*
X-2271428Y-33304761D01*
X-2309523Y-33342857D01*
X-2385714Y-33380952D01*
X-2690476Y-33380952D01*
X-1585714Y-33723809D02*
X-1661904Y-33761904D01*
X-1814285Y-33761904D01*
X-1890476Y-33723809D01*
X-1928571Y-33647619D01*
X-1928571Y-33342857D01*
X-1890476Y-33266666D01*
X-1814285Y-33228571D01*
X-1661904Y-33228571D01*
X-1585714Y-33266666D01*
X-1547619Y-33342857D01*
X-1547619Y-33419047D01*
X-1928571Y-33495238D01*
X-1242857Y-33723809D02*
X-1166666Y-33761904D01*
X-1014285Y-33761904D01*
X-938095Y-33723809D01*
X-900000Y-33647619D01*
X-900000Y-33609523D01*
X-938095Y-33533333D01*
X-1014285Y-33495238D01*
X-1128571Y-33495238D01*
X-1204761Y-33457142D01*
X-1242857Y-33380952D01*
X-1242857Y-33342857D01*
X-1204761Y-33266666D01*
X-1128571Y-33228571D01*
X-1014285Y-33228571D01*
X-938095Y-33266666D01*
X-252380Y-33723809D02*
X-328571Y-33761904D01*
X-480952Y-33761904D01*
X-557142Y-33723809D01*
X-595238Y-33647619D01*
X-595238Y-33342857D01*
X-557142Y-33266666D01*
X-480952Y-33228571D01*
X-328571Y-33228571D01*
X-252380Y-33266666D01*
X-214285Y-33342857D01*
X-214285Y-33419047D01*
X-595238Y-33495238D01*
X14285Y-33228571D02*
X319047Y-33228571D01*
X128571Y-32961904D02*
X128571Y-33647619D01*
X166666Y-33723809D01*
X242857Y-33761904D01*
X319047Y-33761904D01*
X1157142Y-33723809D02*
X1271428Y-33761904D01*
X1461904Y-33761904D01*
X1538095Y-33723809D01*
X1576190Y-33685714D01*
X1614285Y-33609523D01*
X1614285Y-33533333D01*
X1576190Y-33457142D01*
X1538095Y-33419047D01*
X1461904Y-33380952D01*
X1309523Y-33342857D01*
X1233333Y-33304761D01*
X1195238Y-33266666D01*
X1157142Y-33190476D01*
X1157142Y-33114285D01*
X1195238Y-33038095D01*
X1233333Y-33000000D01*
X1309523Y-32961904D01*
X1499999Y-32961904D01*
X1614285Y-33000000D01*
X1880952Y-32961904D02*
X2071428Y-33761904D01*
X2223809Y-33190476D01*
X2376190Y-33761904D01*
X2566666Y-32961904D01*
X-8080952Y11638095D02*
X-8080952Y12438095D01*
X-7776190Y12438095D01*
X-7700000Y12400000D01*
X-7661904Y12361904D01*
X-7623809Y12285714D01*
X-7623809Y12171428D01*
X-7661904Y12095238D01*
X-7700000Y12057142D01*
X-7776190Y12019047D01*
X-8080952Y12019047D01*
X-7166666Y11638095D02*
X-7242857Y11676190D01*
X-7280952Y11714285D01*
X-7319047Y11790476D01*
X-7319047Y12019047D01*
X-7280952Y12095238D01*
X-7242857Y12133333D01*
X-7166666Y12171428D01*
X-7052380Y12171428D01*
X-6976190Y12133333D01*
X-6938095Y12095238D01*
X-6900000Y12019047D01*
X-6900000Y11790476D01*
X-6938095Y11714285D01*
X-6976190Y11676190D01*
X-7052380Y11638095D01*
X-7166666Y11638095D01*
X-6633333Y12171428D02*
X-6480952Y11638095D01*
X-6328571Y12019047D01*
X-6176190Y11638095D01*
X-6023809Y12171428D01*
X-5414285Y11676190D02*
X-5490476Y11638095D01*
X-5642857Y11638095D01*
X-5719047Y11676190D01*
X-5757142Y11752380D01*
X-5757142Y12057142D01*
X-5719047Y12133333D01*
X-5642857Y12171428D01*
X-5490476Y12171428D01*
X-5414285Y12133333D01*
X-5376190Y12057142D01*
X-5376190Y11980952D01*
X-5757142Y11904761D01*
X-5033333Y11638095D02*
X-5033333Y12171428D01*
X-5033333Y12019047D02*
X-4995238Y12095238D01*
X-4957142Y12133333D01*
X-4880952Y12171428D01*
X-4804761Y12171428D01*
X-4276190Y-6961904D02*
X-3819047Y-6961904D01*
X-4047619Y-7761904D02*
X-4047619Y-6961904D01*
X-3628571Y-7761904D02*
X-3209523Y-7228571D01*
X-3628571Y-7228571D02*
X-3209523Y-7761904D01*
X-2447619Y-7761904D02*
X-2714285Y-7380952D01*
X-2904761Y-7761904D02*
X-2904761Y-6961904D01*
X-2600000Y-6961904D01*
X-2523809Y-7000000D01*
X-2485714Y-7038095D01*
X-2447619Y-7114285D01*
X-2447619Y-7228571D01*
X-2485714Y-7304761D01*
X-2523809Y-7342857D01*
X-2600000Y-7380952D01*
X-2904761Y-7380952D01*
X-2180952Y-7761904D02*
X-1761904Y-7228571D01*
X-2180952Y-7228571D02*
X-1761904Y-7761904D01*
X-7351571Y438095D02*
X-7732523Y438095D01*
X-7770619Y57142D01*
X-7732523Y95238D01*
X-7656333Y133333D01*
X-7465857Y133333D01*
X-7389666Y95238D01*
X-7351571Y57142D01*
X-7313476Y-19047D01*
X-7313476Y-209523D01*
X-7351571Y-285714D01*
X-7389666Y-323809D01*
X-7465857Y-361904D01*
X-7656333Y-361904D01*
X-7732523Y-323809D01*
X-7770619Y-285714D01*
X-7084904Y438095D02*
X-6818238Y-361904D01*
X-6551571Y438095D01*
X-7808714Y-2101904D02*
X-7313476Y-2101904D01*
X-7580142Y-2406666D01*
X-7465857Y-2406666D01*
X-7389666Y-2444761D01*
X-7351571Y-2482857D01*
X-7313476Y-2559047D01*
X-7313476Y-2749523D01*
X-7351571Y-2825714D01*
X-7389666Y-2863809D01*
X-7465857Y-2901904D01*
X-7694428Y-2901904D01*
X-7770619Y-2863809D01*
X-7808714Y-2825714D01*
X-6970619Y-2825714D02*
X-6932523Y-2863809D01*
X-6970619Y-2901904D01*
X-7008714Y-2863809D01*
X-6970619Y-2825714D01*
X-6970619Y-2901904D01*
X-6665857Y-2101904D02*
X-6170619Y-2101904D01*
X-6437285Y-2406666D01*
X-6323000Y-2406666D01*
X-6246809Y-2444761D01*
X-6208714Y-2482857D01*
X-6170619Y-2559047D01*
X-6170619Y-2749523D01*
X-6208714Y-2825714D01*
X-6246809Y-2863809D01*
X-6323000Y-2901904D01*
X-6551571Y-2901904D01*
X-6627761Y-2863809D01*
X-6665857Y-2825714D01*
X-5942047Y-2101904D02*
X-5675380Y-2901904D01*
X-5408714Y-2101904D01*
X-7313476Y-4680000D02*
X-7389666Y-4641904D01*
X-7503952Y-4641904D01*
X-7618238Y-4680000D01*
X-7694428Y-4756190D01*
X-7732523Y-4832380D01*
X-7770619Y-4984761D01*
X-7770619Y-5099047D01*
X-7732523Y-5251428D01*
X-7694428Y-5327619D01*
X-7618238Y-5403809D01*
X-7503952Y-5441904D01*
X-7427761Y-5441904D01*
X-7313476Y-5403809D01*
X-7275380Y-5365714D01*
X-7275380Y-5099047D01*
X-7427761Y-5099047D01*
X-6932523Y-5441904D02*
X-6932523Y-4641904D01*
X-6475380Y-5441904D01*
X-6475380Y-4641904D01*
X-6094428Y-5441904D02*
X-6094428Y-4641904D01*
X-5903952Y-4641904D01*
X-5789666Y-4680000D01*
X-5713476Y-4756190D01*
X-5675380Y-4832380D01*
X-5637285Y-4984761D01*
X-5637285Y-5099047D01*
X-5675380Y-5251428D01*
X-5713476Y-5327619D01*
X-5789666Y-5403809D01*
X-5903952Y-5441904D01*
X-6094428Y-5441904D01*
X-7732523Y-7981904D02*
X-7732523Y-7181904D01*
X-7427761Y-7181904D01*
X-7351571Y-7220000D01*
X-7313476Y-7258095D01*
X-7275380Y-7334285D01*
X-7275380Y-7448571D01*
X-7313476Y-7524761D01*
X-7351571Y-7562857D01*
X-7427761Y-7600952D01*
X-7732523Y-7600952D01*
X-6970619Y-7753333D02*
X-6589666Y-7753333D01*
X-7046809Y-7981904D02*
X-6780142Y-7181904D01*
X-6513476Y-7981904D01*
X-6094428Y-7181904D02*
X-6018238Y-7181904D01*
X-5942047Y-7220000D01*
X-5903952Y-7258095D01*
X-5865857Y-7334285D01*
X-5827761Y-7486666D01*
X-5827761Y-7677142D01*
X-5865857Y-7829523D01*
X-5903952Y-7905714D01*
X-5942047Y-7943809D01*
X-6018238Y-7981904D01*
X-6094428Y-7981904D01*
X-6170619Y-7943809D01*
X-6208714Y-7905714D01*
X-6246809Y-7829523D01*
X-6284904Y-7677142D01*
X-6284904Y-7486666D01*
X-6246809Y-7334285D01*
X-6208714Y-7258095D01*
X-6170619Y-7220000D01*
X-6094428Y-7181904D01*
X-7732523Y-10521904D02*
X-7732523Y-9721904D01*
X-7427761Y-9721904D01*
X-7351571Y-9760000D01*
X-7313476Y-9798095D01*
X-7275380Y-9874285D01*
X-7275380Y-9988571D01*
X-7313476Y-10064761D01*
X-7351571Y-10102857D01*
X-7427761Y-10140952D01*
X-7732523Y-10140952D01*
X-6970619Y-10293333D02*
X-6589666Y-10293333D01*
X-7046809Y-10521904D02*
X-6780142Y-9721904D01*
X-6513476Y-10521904D01*
X-5827761Y-10521904D02*
X-6284904Y-10521904D01*
X-6056333Y-10521904D02*
X-6056333Y-9721904D01*
X-6132523Y-9836190D01*
X-6208714Y-9912380D01*
X-6284904Y-9950476D01*
X-7732523Y-13061904D02*
X-7732523Y-12261904D01*
X-7427761Y-12261904D01*
X-7351571Y-12300000D01*
X-7313476Y-12338095D01*
X-7275380Y-12414285D01*
X-7275380Y-12528571D01*
X-7313476Y-12604761D01*
X-7351571Y-12642857D01*
X-7427761Y-12680952D01*
X-7732523Y-12680952D01*
X-6970619Y-12833333D02*
X-6589666Y-12833333D01*
X-7046809Y-13061904D02*
X-6780142Y-12261904D01*
X-6513476Y-13061904D01*
X-6284904Y-12338095D02*
X-6246809Y-12300000D01*
X-6170619Y-12261904D01*
X-5980142Y-12261904D01*
X-5903952Y-12300000D01*
X-5865857Y-12338095D01*
X-5827761Y-12414285D01*
X-5827761Y-12490476D01*
X-5865857Y-12604761D01*
X-6323000Y-13061904D01*
X-5827761Y-13061904D01*
X-7732523Y-15601904D02*
X-7732523Y-14801904D01*
X-7427761Y-14801904D01*
X-7351571Y-14840000D01*
X-7313476Y-14878095D01*
X-7275380Y-14954285D01*
X-7275380Y-15068571D01*
X-7313476Y-15144761D01*
X-7351571Y-15182857D01*
X-7427761Y-15220952D01*
X-7732523Y-15220952D01*
X-6970619Y-15373333D02*
X-6589666Y-15373333D01*
X-7046809Y-15601904D02*
X-6780142Y-14801904D01*
X-6513476Y-15601904D01*
X-6323000Y-14801904D02*
X-5827761Y-14801904D01*
X-6094428Y-15106666D01*
X-5980142Y-15106666D01*
X-5903952Y-15144761D01*
X-5865857Y-15182857D01*
X-5827761Y-15259047D01*
X-5827761Y-15449523D01*
X-5865857Y-15525714D01*
X-5903952Y-15563809D01*
X-5980142Y-15601904D01*
X-6208714Y-15601904D01*
X-6284904Y-15563809D01*
X-6323000Y-15525714D01*
X-7732523Y-18141904D02*
X-7732523Y-17341904D01*
X-7427761Y-17341904D01*
X-7351571Y-17380000D01*
X-7313476Y-17418095D01*
X-7275380Y-17494285D01*
X-7275380Y-17608571D01*
X-7313476Y-17684761D01*
X-7351571Y-17722857D01*
X-7427761Y-17760952D01*
X-7732523Y-17760952D01*
X-6970619Y-17913333D02*
X-6589666Y-17913333D01*
X-7046809Y-18141904D02*
X-6780142Y-17341904D01*
X-6513476Y-18141904D01*
X-5903952Y-17608571D02*
X-5903952Y-18141904D01*
X-6094428Y-17303809D02*
X-6284904Y-17875238D01*
X-5789666Y-17875238D01*
X-7732523Y-20681904D02*
X-7732523Y-19881904D01*
X-7427761Y-19881904D01*
X-7351571Y-19920000D01*
X-7313476Y-19958095D01*
X-7275380Y-20034285D01*
X-7275380Y-20148571D01*
X-7313476Y-20224761D01*
X-7351571Y-20262857D01*
X-7427761Y-20300952D01*
X-7732523Y-20300952D01*
X-6970619Y-20453333D02*
X-6589666Y-20453333D01*
X-7046809Y-20681904D02*
X-6780142Y-19881904D01*
X-6513476Y-20681904D01*
X-5865857Y-19881904D02*
X-6246809Y-19881904D01*
X-6284904Y-20262857D01*
X-6246809Y-20224761D01*
X-6170619Y-20186666D01*
X-5980142Y-20186666D01*
X-5903952Y-20224761D01*
X-5865857Y-20262857D01*
X-5827761Y-20339047D01*
X-5827761Y-20529523D01*
X-5865857Y-20605714D01*
X-5903952Y-20643809D01*
X-5980142Y-20681904D01*
X-6170619Y-20681904D01*
X-6246809Y-20643809D01*
X-6284904Y-20605714D01*
X-7732523Y-23221904D02*
X-7732523Y-22421904D01*
X-7427761Y-22421904D01*
X-7351571Y-22460000D01*
X-7313476Y-22498095D01*
X-7275380Y-22574285D01*
X-7275380Y-22688571D01*
X-7313476Y-22764761D01*
X-7351571Y-22802857D01*
X-7427761Y-22840952D01*
X-7732523Y-22840952D01*
X-6970619Y-22993333D02*
X-6589666Y-22993333D01*
X-7046809Y-23221904D02*
X-6780142Y-22421904D01*
X-6513476Y-23221904D01*
X-5903952Y-22421904D02*
X-6056333Y-22421904D01*
X-6132523Y-22460000D01*
X-6170619Y-22498095D01*
X-6246809Y-22612380D01*
X-6284904Y-22764761D01*
X-6284904Y-23069523D01*
X-6246809Y-23145714D01*
X-6208714Y-23183809D01*
X-6132523Y-23221904D01*
X-5980142Y-23221904D01*
X-5903952Y-23183809D01*
X-5865857Y-23145714D01*
X-5827761Y-23069523D01*
X-5827761Y-22879047D01*
X-5865857Y-22802857D01*
X-5903952Y-22764761D01*
X-5980142Y-22726666D01*
X-6132523Y-22726666D01*
X-6208714Y-22764761D01*
X-6246809Y-22802857D01*
X-6284904Y-22879047D01*
X-7732523Y-25761904D02*
X-7732523Y-24961904D01*
X-7427761Y-24961904D01*
X-7351571Y-25000000D01*
X-7313476Y-25038095D01*
X-7275380Y-25114285D01*
X-7275380Y-25228571D01*
X-7313476Y-25304761D01*
X-7351571Y-25342857D01*
X-7427761Y-25380952D01*
X-7732523Y-25380952D01*
X-6970619Y-25533333D02*
X-6589666Y-25533333D01*
X-7046809Y-25761904D02*
X-6780142Y-24961904D01*
X-6513476Y-25761904D01*
X-6323000Y-24961904D02*
X-5789666Y-24961904D01*
X-6132523Y-25761904D01*
X-7732523Y-28301904D02*
X-7732523Y-27501904D01*
X-7427761Y-27501904D01*
X-7351571Y-27540000D01*
X-7313476Y-27578095D01*
X-7275380Y-27654285D01*
X-7275380Y-27768571D01*
X-7313476Y-27844761D01*
X-7351571Y-27882857D01*
X-7427761Y-27920952D01*
X-7732523Y-27920952D01*
X-6665857Y-27882857D02*
X-6551571Y-27920952D01*
X-6513476Y-27959047D01*
X-6475380Y-28035238D01*
X-6475380Y-28149523D01*
X-6513476Y-28225714D01*
X-6551571Y-28263809D01*
X-6627761Y-28301904D01*
X-6932523Y-28301904D01*
X-6932523Y-27501904D01*
X-6665857Y-27501904D01*
X-6589666Y-27540000D01*
X-6551571Y-27578095D01*
X-6513476Y-27654285D01*
X-6513476Y-27730476D01*
X-6551571Y-27806666D01*
X-6589666Y-27844761D01*
X-6665857Y-27882857D01*
X-6932523Y-27882857D01*
X-5980142Y-27501904D02*
X-5903952Y-27501904D01*
X-5827761Y-27540000D01*
X-5789666Y-27578095D01*
X-5751571Y-27654285D01*
X-5713476Y-27806666D01*
X-5713476Y-27997142D01*
X-5751571Y-28149523D01*
X-5789666Y-28225714D01*
X-5827761Y-28263809D01*
X-5903952Y-28301904D01*
X-5980142Y-28301904D01*
X-6056333Y-28263809D01*
X-6094428Y-28225714D01*
X-6132523Y-28149523D01*
X-6170619Y-27997142D01*
X-6170619Y-27806666D01*
X-6132523Y-27654285D01*
X-6094428Y-27578095D01*
X-6056333Y-27540000D01*
X-5980142Y-27501904D01*
X-7732523Y-30841904D02*
X-7732523Y-30041904D01*
X-7427761Y-30041904D01*
X-7351571Y-30080000D01*
X-7313476Y-30118095D01*
X-7275380Y-30194285D01*
X-7275380Y-30308571D01*
X-7313476Y-30384761D01*
X-7351571Y-30422857D01*
X-7427761Y-30460952D01*
X-7732523Y-30460952D01*
X-6665857Y-30422857D02*
X-6551571Y-30460952D01*
X-6513476Y-30499047D01*
X-6475380Y-30575238D01*
X-6475380Y-30689523D01*
X-6513476Y-30765714D01*
X-6551571Y-30803809D01*
X-6627761Y-30841904D01*
X-6932523Y-30841904D01*
X-6932523Y-30041904D01*
X-6665857Y-30041904D01*
X-6589666Y-30080000D01*
X-6551571Y-30118095D01*
X-6513476Y-30194285D01*
X-6513476Y-30270476D01*
X-6551571Y-30346666D01*
X-6589666Y-30384761D01*
X-6665857Y-30422857D01*
X-6932523Y-30422857D01*
X-5713476Y-30841904D02*
X-6170619Y-30841904D01*
X-5942047Y-30841904D02*
X-5942047Y-30041904D01*
X-6018238Y-30156190D01*
X-6094428Y-30232380D01*
X-6170619Y-30270476D01*
X-7732523Y-33381904D02*
X-7732523Y-32581904D01*
X-7427761Y-32581904D01*
X-7351571Y-32620000D01*
X-7313476Y-32658095D01*
X-7275380Y-32734285D01*
X-7275380Y-32848571D01*
X-7313476Y-32924761D01*
X-7351571Y-32962857D01*
X-7427761Y-33000952D01*
X-7732523Y-33000952D01*
X-6970619Y-33153333D02*
X-6589666Y-33153333D01*
X-7046809Y-33381904D02*
X-6780142Y-32581904D01*
X-6513476Y-33381904D01*
X-6132523Y-32924761D02*
X-6208714Y-32886666D01*
X-6246809Y-32848571D01*
X-6284904Y-32772380D01*
X-6284904Y-32734285D01*
X-6246809Y-32658095D01*
X-6208714Y-32620000D01*
X-6132523Y-32581904D01*
X-5980142Y-32581904D01*
X-5903952Y-32620000D01*
X-5865857Y-32658095D01*
X-5827761Y-32734285D01*
X-5827761Y-32772380D01*
X-5865857Y-32848571D01*
X-5903952Y-32886666D01*
X-5980142Y-32924761D01*
X-6132523Y-32924761D01*
X-6208714Y-32962857D01*
X-6246809Y-33000952D01*
X-6284904Y-33077142D01*
X-6284904Y-33229523D01*
X-6246809Y-33305714D01*
X-6208714Y-33343809D01*
X-6132523Y-33381904D01*
X-5980142Y-33381904D01*
X-5903952Y-33343809D01*
X-5865857Y-33305714D01*
X-5827761Y-33229523D01*
X-5827761Y-33077142D01*
X-5865857Y-33000952D01*
X-5903952Y-32962857D01*
X-5980142Y-32924761D01*
X5865857Y-33381904D02*
X5865857Y-32581904D01*
X6170619Y-32581904D01*
X6246809Y-32620000D01*
X6284904Y-32658095D01*
X6323000Y-32734285D01*
X6323000Y-32848571D01*
X6284904Y-32924761D01*
X6246809Y-32962857D01*
X6170619Y-33000952D01*
X5865857Y-33000952D01*
X6627761Y-33153333D02*
X7008714Y-33153333D01*
X6551571Y-33381904D02*
X6818238Y-32581904D01*
X7084904Y-33381904D01*
X7389666Y-33381904D02*
X7542047Y-33381904D01*
X7618238Y-33343809D01*
X7656333Y-33305714D01*
X7732523Y-33191428D01*
X7770619Y-33039047D01*
X7770619Y-32734285D01*
X7732523Y-32658095D01*
X7694428Y-32620000D01*
X7618238Y-32581904D01*
X7465857Y-32581904D01*
X7389666Y-32620000D01*
X7351571Y-32658095D01*
X7313476Y-32734285D01*
X7313476Y-32924761D01*
X7351571Y-33000952D01*
X7389666Y-33039047D01*
X7465857Y-33077142D01*
X7618238Y-33077142D01*
X7694428Y-33039047D01*
X7732523Y-33000952D01*
X7770619Y-32924761D01*
X5103952Y-30841904D02*
X5103952Y-30041904D01*
X5408714Y-30041904D01*
X5484904Y-30080000D01*
X5523000Y-30118095D01*
X5561095Y-30194285D01*
X5561095Y-30308571D01*
X5523000Y-30384761D01*
X5484904Y-30422857D01*
X5408714Y-30460952D01*
X5103952Y-30460952D01*
X5865857Y-30613333D02*
X6246809Y-30613333D01*
X5789666Y-30841904D02*
X6056333Y-30041904D01*
X6323000Y-30841904D01*
X7008714Y-30841904D02*
X6551571Y-30841904D01*
X6780142Y-30841904D02*
X6780142Y-30041904D01*
X6703952Y-30156190D01*
X6627761Y-30232380D01*
X6551571Y-30270476D01*
X7503952Y-30041904D02*
X7580142Y-30041904D01*
X7656333Y-30080000D01*
X7694428Y-30118095D01*
X7732523Y-30194285D01*
X7770619Y-30346666D01*
X7770619Y-30537142D01*
X7732523Y-30689523D01*
X7694428Y-30765714D01*
X7656333Y-30803809D01*
X7580142Y-30841904D01*
X7503952Y-30841904D01*
X7427761Y-30803809D01*
X7389666Y-30765714D01*
X7351571Y-30689523D01*
X7313476Y-30537142D01*
X7313476Y-30346666D01*
X7351571Y-30194285D01*
X7389666Y-30118095D01*
X7427761Y-30080000D01*
X7503952Y-30041904D01*
X5230952Y-28301904D02*
X5230952Y-27501904D01*
X5535714Y-27501904D01*
X5611904Y-27540000D01*
X5650000Y-27578095D01*
X5688095Y-27654285D01*
X5688095Y-27768571D01*
X5650000Y-27844761D01*
X5611904Y-27882857D01*
X5535714Y-27920952D01*
X5230952Y-27920952D01*
X5992857Y-28073333D02*
X6373809Y-28073333D01*
X5916666Y-28301904D02*
X6183333Y-27501904D01*
X6450000Y-28301904D01*
X7135714Y-28301904D02*
X6678571Y-28301904D01*
X6907142Y-28301904D02*
X6907142Y-27501904D01*
X6830952Y-27616190D01*
X6754761Y-27692380D01*
X6678571Y-27730476D01*
X7897619Y-28301904D02*
X7440476Y-28301904D01*
X7669047Y-28301904D02*
X7669047Y-27501904D01*
X7592857Y-27616190D01*
X7516666Y-27692380D01*
X7440476Y-27730476D01*
X5230952Y-25761904D02*
X5230952Y-24961904D01*
X5535714Y-24961904D01*
X5611904Y-25000000D01*
X5650000Y-25038095D01*
X5688095Y-25114285D01*
X5688095Y-25228571D01*
X5650000Y-25304761D01*
X5611904Y-25342857D01*
X5535714Y-25380952D01*
X5230952Y-25380952D01*
X5992857Y-25533333D02*
X6373809Y-25533333D01*
X5916666Y-25761904D02*
X6183333Y-24961904D01*
X6450000Y-25761904D01*
X7135714Y-25761904D02*
X6678571Y-25761904D01*
X6907142Y-25761904D02*
X6907142Y-24961904D01*
X6830952Y-25076190D01*
X6754761Y-25152380D01*
X6678571Y-25190476D01*
X7440476Y-25038095D02*
X7478571Y-25000000D01*
X7554761Y-24961904D01*
X7745238Y-24961904D01*
X7821428Y-25000000D01*
X7859523Y-25038095D01*
X7897619Y-25114285D01*
X7897619Y-25190476D01*
X7859523Y-25304761D01*
X7402380Y-25761904D01*
X7897619Y-25761904D01*
X5230952Y-23221904D02*
X5230952Y-22421904D01*
X5535714Y-22421904D01*
X5611904Y-22460000D01*
X5650000Y-22498095D01*
X5688095Y-22574285D01*
X5688095Y-22688571D01*
X5650000Y-22764761D01*
X5611904Y-22802857D01*
X5535714Y-22840952D01*
X5230952Y-22840952D01*
X5992857Y-22993333D02*
X6373809Y-22993333D01*
X5916666Y-23221904D02*
X6183333Y-22421904D01*
X6450000Y-23221904D01*
X7135714Y-23221904D02*
X6678571Y-23221904D01*
X6907142Y-23221904D02*
X6907142Y-22421904D01*
X6830952Y-22536190D01*
X6754761Y-22612380D01*
X6678571Y-22650476D01*
X7859523Y-22421904D02*
X7478571Y-22421904D01*
X7440476Y-22802857D01*
X7478571Y-22764761D01*
X7554761Y-22726666D01*
X7745238Y-22726666D01*
X7821428Y-22764761D01*
X7859523Y-22802857D01*
X7897619Y-22879047D01*
X7897619Y-23069523D01*
X7859523Y-23145714D01*
X7821428Y-23183809D01*
X7745238Y-23221904D01*
X7554761Y-23221904D01*
X7478571Y-23183809D01*
X7440476Y-23145714D01*
X5751571Y-20681904D02*
X5751571Y-19881904D01*
X6056333Y-19881904D01*
X6132523Y-19920000D01*
X6170619Y-19958095D01*
X6208714Y-20034285D01*
X6208714Y-20148571D01*
X6170619Y-20224761D01*
X6132523Y-20262857D01*
X6056333Y-20300952D01*
X5751571Y-20300952D01*
X6818238Y-20262857D02*
X6932523Y-20300952D01*
X6970619Y-20339047D01*
X7008714Y-20415238D01*
X7008714Y-20529523D01*
X6970619Y-20605714D01*
X6932523Y-20643809D01*
X6856333Y-20681904D01*
X6551571Y-20681904D01*
X6551571Y-19881904D01*
X6818238Y-19881904D01*
X6894428Y-19920000D01*
X6932523Y-19958095D01*
X6970619Y-20034285D01*
X6970619Y-20110476D01*
X6932523Y-20186666D01*
X6894428Y-20224761D01*
X6818238Y-20262857D01*
X6551571Y-20262857D01*
X7275380Y-19881904D02*
X7770619Y-19881904D01*
X7503952Y-20186666D01*
X7618238Y-20186666D01*
X7694428Y-20224761D01*
X7732523Y-20262857D01*
X7770619Y-20339047D01*
X7770619Y-20529523D01*
X7732523Y-20605714D01*
X7694428Y-20643809D01*
X7618238Y-20681904D01*
X7389666Y-20681904D01*
X7313476Y-20643809D01*
X7275380Y-20605714D01*
X5751571Y-18141904D02*
X5751571Y-17341904D01*
X6056333Y-17341904D01*
X6132523Y-17380000D01*
X6170619Y-17418095D01*
X6208714Y-17494285D01*
X6208714Y-17608571D01*
X6170619Y-17684761D01*
X6132523Y-17722857D01*
X6056333Y-17760952D01*
X5751571Y-17760952D01*
X6818238Y-17722857D02*
X6932523Y-17760952D01*
X6970619Y-17799047D01*
X7008714Y-17875238D01*
X7008714Y-17989523D01*
X6970619Y-18065714D01*
X6932523Y-18103809D01*
X6856333Y-18141904D01*
X6551571Y-18141904D01*
X6551571Y-17341904D01*
X6818238Y-17341904D01*
X6894428Y-17380000D01*
X6932523Y-17418095D01*
X6970619Y-17494285D01*
X6970619Y-17570476D01*
X6932523Y-17646666D01*
X6894428Y-17684761D01*
X6818238Y-17722857D01*
X6551571Y-17722857D01*
X7694428Y-17608571D02*
X7694428Y-18141904D01*
X7503952Y-17303809D02*
X7313476Y-17875238D01*
X7808714Y-17875238D01*
X5751571Y-15601904D02*
X5751571Y-14801904D01*
X6056333Y-14801904D01*
X6132523Y-14840000D01*
X6170619Y-14878095D01*
X6208714Y-14954285D01*
X6208714Y-15068571D01*
X6170619Y-15144761D01*
X6132523Y-15182857D01*
X6056333Y-15220952D01*
X5751571Y-15220952D01*
X6818238Y-15182857D02*
X6932523Y-15220952D01*
X6970619Y-15259047D01*
X7008714Y-15335238D01*
X7008714Y-15449523D01*
X6970619Y-15525714D01*
X6932523Y-15563809D01*
X6856333Y-15601904D01*
X6551571Y-15601904D01*
X6551571Y-14801904D01*
X6818238Y-14801904D01*
X6894428Y-14840000D01*
X6932523Y-14878095D01*
X6970619Y-14954285D01*
X6970619Y-15030476D01*
X6932523Y-15106666D01*
X6894428Y-15144761D01*
X6818238Y-15182857D01*
X6551571Y-15182857D01*
X7732523Y-14801904D02*
X7351571Y-14801904D01*
X7313476Y-15182857D01*
X7351571Y-15144761D01*
X7427761Y-15106666D01*
X7618238Y-15106666D01*
X7694428Y-15144761D01*
X7732523Y-15182857D01*
X7770619Y-15259047D01*
X7770619Y-15449523D01*
X7732523Y-15525714D01*
X7694428Y-15563809D01*
X7618238Y-15601904D01*
X7427761Y-15601904D01*
X7351571Y-15563809D01*
X7313476Y-15525714D01*
X5713476Y-7981904D02*
X5713476Y-7181904D01*
X6018238Y-7181904D01*
X6094428Y-7220000D01*
X6132523Y-7258095D01*
X6170619Y-7334285D01*
X6170619Y-7448571D01*
X6132523Y-7524761D01*
X6094428Y-7562857D01*
X6018238Y-7600952D01*
X5713476Y-7600952D01*
X6513476Y-7981904D02*
X6513476Y-7181904D01*
X6513476Y-7562857D02*
X6970619Y-7562857D01*
X6970619Y-7981904D02*
X6970619Y-7181904D01*
X7275380Y-7181904D02*
X7770619Y-7181904D01*
X7503952Y-7486666D01*
X7618238Y-7486666D01*
X7694428Y-7524761D01*
X7732523Y-7562857D01*
X7770619Y-7639047D01*
X7770619Y-7829523D01*
X7732523Y-7905714D01*
X7694428Y-7943809D01*
X7618238Y-7981904D01*
X7389666Y-7981904D01*
X7313476Y-7943809D01*
X7275380Y-7905714D01*
X6094428Y-4680000D02*
X6018238Y-4641904D01*
X5903952Y-4641904D01*
X5789666Y-4680000D01*
X5713476Y-4756190D01*
X5675380Y-4832380D01*
X5637285Y-4984761D01*
X5637285Y-5099047D01*
X5675380Y-5251428D01*
X5713476Y-5327619D01*
X5789666Y-5403809D01*
X5903952Y-5441904D01*
X5980142Y-5441904D01*
X6094428Y-5403809D01*
X6132523Y-5365714D01*
X6132523Y-5099047D01*
X5980142Y-5099047D01*
X6475380Y-5441904D02*
X6475380Y-4641904D01*
X6932523Y-5441904D01*
X6932523Y-4641904D01*
X7313476Y-5441904D02*
X7313476Y-4641904D01*
X7503952Y-4641904D01*
X7618238Y-4680000D01*
X7694428Y-4756190D01*
X7732523Y-4832380D01*
X7770619Y-4984761D01*
X7770619Y-5099047D01*
X7732523Y-5251428D01*
X7694428Y-5327619D01*
X7618238Y-5403809D01*
X7503952Y-5441904D01*
X7313476Y-5441904D01*
X5446809Y-2101904D02*
X5942047Y-2101904D01*
X5675380Y-2406666D01*
X5789666Y-2406666D01*
X5865857Y-2444761D01*
X5903952Y-2482857D01*
X5942047Y-2559047D01*
X5942047Y-2749523D01*
X5903952Y-2825714D01*
X5865857Y-2863809D01*
X5789666Y-2901904D01*
X5561095Y-2901904D01*
X5484904Y-2863809D01*
X5446809Y-2825714D01*
X6284904Y-2825714D02*
X6323000Y-2863809D01*
X6284904Y-2901904D01*
X6246809Y-2863809D01*
X6284904Y-2825714D01*
X6284904Y-2901904D01*
X6589666Y-2101904D02*
X7084904Y-2101904D01*
X6818238Y-2406666D01*
X6932523Y-2406666D01*
X7008714Y-2444761D01*
X7046809Y-2482857D01*
X7084904Y-2559047D01*
X7084904Y-2749523D01*
X7046809Y-2825714D01*
X7008714Y-2863809D01*
X6932523Y-2901904D01*
X6703952Y-2901904D01*
X6627761Y-2863809D01*
X6589666Y-2825714D01*
X7313476Y-2101904D02*
X7580142Y-2901904D01*
X7846809Y-2101904D01*
X7046809Y438095D02*
X6665857Y438095D01*
X6627761Y57142D01*
X6665857Y95238D01*
X6742047Y133333D01*
X6932523Y133333D01*
X7008714Y95238D01*
X7046809Y57142D01*
X7084904Y-19047D01*
X7084904Y-209523D01*
X7046809Y-285714D01*
X7008714Y-323809D01*
X6932523Y-361904D01*
X6742047Y-361904D01*
X6665857Y-323809D01*
X6627761Y-285714D01*
X7313476Y438095D02*
X7580142Y-361904D01*
X7846809Y438095D01*
X5751571Y-10521904D02*
X5751571Y-9721904D01*
X6056333Y-9721904D01*
X6132523Y-9760000D01*
X6170619Y-9798095D01*
X6208714Y-9874285D01*
X6208714Y-9988571D01*
X6170619Y-10064761D01*
X6132523Y-10102857D01*
X6056333Y-10140952D01*
X5751571Y-10140952D01*
X6818238Y-10102857D02*
X6932523Y-10140952D01*
X6970619Y-10179047D01*
X7008714Y-10255238D01*
X7008714Y-10369523D01*
X6970619Y-10445714D01*
X6932523Y-10483809D01*
X6856333Y-10521904D01*
X6551571Y-10521904D01*
X6551571Y-9721904D01*
X6818238Y-9721904D01*
X6894428Y-9760000D01*
X6932523Y-9798095D01*
X6970619Y-9874285D01*
X6970619Y-9950476D01*
X6932523Y-10026666D01*
X6894428Y-10064761D01*
X6818238Y-10102857D01*
X6551571Y-10102857D01*
X7275380Y-9721904D02*
X7808714Y-9721904D01*
X7465857Y-10521904D01*
D11*
X-5223809Y-27104761D02*
X-5080952Y-27152380D01*
X-4842857Y-27152380D01*
X-4747619Y-27104761D01*
X-4700000Y-27057142D01*
X-4652380Y-26961904D01*
X-4652380Y-26866666D01*
X-4700000Y-26771428D01*
X-4747619Y-26723809D01*
X-4842857Y-26676190D01*
X-5033333Y-26628571D01*
X-5128571Y-26580952D01*
X-5176190Y-26533333D01*
X-5223809Y-26438095D01*
X-5223809Y-26342857D01*
X-5176190Y-26247619D01*
X-5128571Y-26200000D01*
X-5033333Y-26152380D01*
X-4795238Y-26152380D01*
X-4652380Y-26200000D01*
X-4366666Y-26152380D02*
X-3795238Y-26152380D01*
X-4080952Y-27152380D02*
X-4080952Y-26152380D01*
X-3461904Y-27152380D02*
X-3461904Y-26152380D01*
X-3128571Y-26866666D01*
X-2795238Y-26152380D01*
X-2795238Y-27152380D01*
X-2414285Y-26152380D02*
X-1795238Y-26152380D01*
X-2128571Y-26533333D01*
X-1985714Y-26533333D01*
X-1890476Y-26580952D01*
X-1842857Y-26628571D01*
X-1795238Y-26723809D01*
X-1795238Y-26961904D01*
X-1842857Y-27057142D01*
X-1890476Y-27104761D01*
X-1985714Y-27152380D01*
X-2271428Y-27152380D01*
X-2366666Y-27104761D01*
X-2414285Y-27057142D01*
X-1414285Y-26247619D02*
X-1366666Y-26200000D01*
X-1271428Y-26152380D01*
X-1033333Y-26152380D01*
X-938095Y-26200000D01*
X-890476Y-26247619D01*
X-842857Y-26342857D01*
X-842857Y-26438095D01*
X-890476Y-26580952D01*
X-1461904Y-27152380D01*
X-842857Y-27152380D01*
X61904Y-27152380D02*
X-414285Y-27152380D01*
X-414285Y-26152380D01*
X823809Y-26485714D02*
X823809Y-27152380D01*
X585714Y-26104761D02*
X347619Y-26819047D01*
X966666Y-26819047D01*
X1871428Y-27152380D02*
X1299999Y-27152380D01*
X1585714Y-27152380D02*
X1585714Y-26152380D01*
X1490476Y-26295238D01*
X1395238Y-26390476D01*
X1299999Y-26438095D01*
X2252380Y-26247619D02*
X2299999Y-26200000D01*
X2395238Y-26152380D01*
X2633333Y-26152380D01*
X2728571Y-26200000D01*
X2776190Y-26247619D01*
X2823809Y-26342857D01*
X2823809Y-26438095D01*
X2776190Y-26580952D01*
X2204761Y-27152380D01*
X2823809Y-27152380D01*
X3252380Y-27152380D02*
X3252380Y-26152380D01*
X3823809Y-27152380D02*
X3395238Y-26580952D01*
X3823809Y-26152380D02*
X3252380Y-26723809D01*
X4585714Y-26628571D02*
X4728571Y-26676190D01*
X4776190Y-26723809D01*
X4823809Y-26819047D01*
X4823809Y-26961904D01*
X4776190Y-27057142D01*
X4728571Y-27104761D01*
X4633333Y-27152380D01*
X4252380Y-27152380D01*
X4252380Y-26152380D01*
X4585714Y-26152380D01*
X4680952Y-26200000D01*
X4728571Y-26247619D01*
X4776190Y-26342857D01*
X4776190Y-26438095D01*
X4728571Y-26533333D01*
X4680952Y-26580952D01*
X4585714Y-26628571D01*
X4252380Y-26628571D01*
D10*
X5751571Y-13061904D02*
X5751571Y-12261904D01*
X6056333Y-12261904D01*
X6132523Y-12300000D01*
X6170619Y-12338095D01*
X6208714Y-12414285D01*
X6208714Y-12528571D01*
X6170619Y-12604761D01*
X6132523Y-12642857D01*
X6056333Y-12680952D01*
X5751571Y-12680952D01*
X6818238Y-12642857D02*
X6932523Y-12680952D01*
X6970619Y-12719047D01*
X7008714Y-12795238D01*
X7008714Y-12909523D01*
X6970619Y-12985714D01*
X6932523Y-13023809D01*
X6856333Y-13061904D01*
X6551571Y-13061904D01*
X6551571Y-12261904D01*
X6818238Y-12261904D01*
X6894428Y-12300000D01*
X6932523Y-12338095D01*
X6970619Y-12414285D01*
X6970619Y-12490476D01*
X6932523Y-12566666D01*
X6894428Y-12604761D01*
X6818238Y-12642857D01*
X6551571Y-12642857D01*
X7694428Y-12261904D02*
X7542047Y-12261904D01*
X7465857Y-12300000D01*
X7427761Y-12338095D01*
X7351571Y-12452380D01*
X7313476Y-12604761D01*
X7313476Y-12909523D01*
X7351571Y-12985714D01*
X7389666Y-13023809D01*
X7465857Y-13061904D01*
X7618238Y-13061904D01*
X7694428Y-13023809D01*
X7732523Y-12985714D01*
X7770619Y-12909523D01*
X7770619Y-12719047D01*
X7732523Y-12642857D01*
X7694428Y-12604761D01*
X7618238Y-12566666D01*
X7465857Y-12566666D01*
X7389666Y-12604761D01*
X7351571Y-12642857D01*
X7313476Y-12719047D01*
X-3114285Y10138095D02*
X-3114285Y10938095D01*
X-2847619Y10366666D01*
X-2580952Y10938095D01*
X-2580952Y10138095D01*
X-2200000Y10138095D02*
X-2200000Y10671428D01*
X-2200000Y10938095D02*
X-2238095Y10900000D01*
X-2200000Y10861904D01*
X-2161904Y10900000D01*
X-2200000Y10938095D01*
X-2200000Y10861904D01*
X-1476190Y10176190D02*
X-1552380Y10138095D01*
X-1704761Y10138095D01*
X-1780952Y10176190D01*
X-1819047Y10214285D01*
X-1857142Y10290476D01*
X-1857142Y10519047D01*
X-1819047Y10595238D01*
X-1780952Y10633333D01*
X-1704761Y10671428D01*
X-1552380Y10671428D01*
X-1476190Y10633333D01*
X-1133333Y10138095D02*
X-1133333Y10671428D01*
X-1133333Y10519047D02*
X-1095238Y10595238D01*
X-1057142Y10633333D01*
X-980952Y10671428D01*
X-904761Y10671428D01*
X-523809Y10138095D02*
X-600000Y10176190D01*
X-638095Y10214285D01*
X-676190Y10290476D01*
X-676190Y10519047D01*
X-638095Y10595238D01*
X-600000Y10633333D01*
X-523809Y10671428D01*
X-409523Y10671428D01*
X-333333Y10633333D01*
X-295238Y10595238D01*
X-257142Y10519047D01*
X-257142Y10290476D01*
X-295238Y10214285D01*
X-333333Y10176190D01*
X-409523Y10138095D01*
X-523809Y10138095D01*
X695238Y10938095D02*
X695238Y10290476D01*
X733333Y10214285D01*
X771428Y10176190D01*
X847619Y10138095D01*
X1000000Y10138095D01*
X1076190Y10176190D01*
X1114285Y10214285D01*
X1152380Y10290476D01*
X1152380Y10938095D01*
X1495238Y10176190D02*
X1609523Y10138095D01*
X1800000Y10138095D01*
X1876190Y10176190D01*
X1914285Y10214285D01*
X1952380Y10290476D01*
X1952380Y10366666D01*
X1914285Y10442857D01*
X1876190Y10480952D01*
X1800000Y10519047D01*
X1647619Y10557142D01*
X1571428Y10595238D01*
X1533333Y10633333D01*
X1495238Y10709523D01*
X1495238Y10785714D01*
X1533333Y10861904D01*
X1571428Y10900000D01*
X1647619Y10938095D01*
X1838095Y10938095D01*
X1952380Y10900000D01*
X2561904Y10557142D02*
X2676190Y10519047D01*
X2714285Y10480952D01*
X2752380Y10404761D01*
X2752380Y10290476D01*
X2714285Y10214285D01*
X2676190Y10176190D01*
X2600000Y10138095D01*
X2295238Y10138095D01*
X2295238Y10938095D01*
X2561904Y10938095D01*
X2638095Y10900000D01*
X2676190Y10861904D01*
X2714285Y10785714D01*
X2714285Y10709523D01*
X2676190Y10633333D01*
X2638095Y10595238D01*
X2561904Y10557142D01*
X2295238Y10557142D01*
X-1638095Y8038095D02*
X-1638095Y8838095D01*
X-1447619Y8838095D01*
X-1333333Y8800000D01*
X-1257142Y8723809D01*
X-1219047Y8647619D01*
X-1180952Y8495238D01*
X-1180952Y8380952D01*
X-1219047Y8228571D01*
X-1257142Y8152380D01*
X-1333333Y8076190D01*
X-1447619Y8038095D01*
X-1638095Y8038095D01*
X-533333Y8076190D02*
X-609523Y8038095D01*
X-761904Y8038095D01*
X-838095Y8076190D01*
X-876190Y8152380D01*
X-876190Y8457142D01*
X-838095Y8533333D01*
X-761904Y8571428D01*
X-609523Y8571428D01*
X-533333Y8533333D01*
X-495238Y8457142D01*
X-495238Y8380952D01*
X-876190Y8304761D01*
X-152380Y8038095D02*
X-152380Y8838095D01*
X-152380Y8533333D02*
X-76190Y8571428D01*
X76190Y8571428D01*
X152380Y8533333D01*
X190476Y8495238D01*
X228571Y8419047D01*
X228571Y8190476D01*
X190476Y8114285D01*
X152380Y8076190D01*
X76190Y8038095D01*
X-76190Y8038095D01*
X-152380Y8076190D01*
X914285Y8571428D02*
X914285Y8038095D01*
X571428Y8571428D02*
X571428Y8152380D01*
X609523Y8076190D01*
X685714Y8038095D01*
X799999Y8038095D01*
X876190Y8076190D01*
X914285Y8114285D01*
X1638095Y8571428D02*
X1638095Y7923809D01*
X1599999Y7847619D01*
X1561904Y7809523D01*
X1485714Y7771428D01*
X1371428Y7771428D01*
X1295238Y7809523D01*
X1638095Y8076190D02*
X1561904Y8038095D01*
X1409523Y8038095D01*
X1333333Y8076190D01*
X1295238Y8114285D01*
X1257142Y8190476D01*
X1257142Y8419047D01*
X1295238Y8495238D01*
X1333333Y8533333D01*
X1409523Y8571428D01*
X1561904Y8571428D01*
X1638095Y8533333D01*
X-1133333Y-3185714D02*
X-1171428Y-3223809D01*
X-1285714Y-3261904D01*
X-1361904Y-3261904D01*
X-1476190Y-3223809D01*
X-1552380Y-3147619D01*
X-1590476Y-3071428D01*
X-1628571Y-2919047D01*
X-1628571Y-2804761D01*
X-1590476Y-2652380D01*
X-1552380Y-2576190D01*
X-1476190Y-2500000D01*
X-1361904Y-2461904D01*
X-1285714Y-2461904D01*
X-1171428Y-2500000D01*
X-1133333Y-2538095D01*
X-371428Y-3261904D02*
X-828571Y-3261904D01*
X-600000Y-3261904D02*
X-600000Y-2461904D01*
X-676190Y-2576190D01*
X-752380Y-2652380D01*
X-828571Y-2690476D01*
X-1133333Y-1685714D02*
X-1171428Y-1723809D01*
X-1285714Y-1761904D01*
X-1361904Y-1761904D01*
X-1476190Y-1723809D01*
X-1552380Y-1647619D01*
X-1590476Y-1571428D01*
X-1628571Y-1419047D01*
X-1628571Y-1304761D01*
X-1590476Y-1152380D01*
X-1552380Y-1076190D01*
X-1476190Y-1000000D01*
X-1361904Y-961904D01*
X-1285714Y-961904D01*
X-1171428Y-1000000D01*
X-1133333Y-1038095D01*
X-828571Y-1038095D02*
X-790476Y-1000000D01*
X-714285Y-961904D01*
X-523809Y-961904D01*
X-447619Y-1000000D01*
X-409523Y-1038095D01*
X-371428Y-1114285D01*
X-371428Y-1190476D01*
X-409523Y-1304761D01*
X-866666Y-1761904D01*
X-371428Y-1761904D01*
X2866666Y-18085714D02*
X2828571Y-18123809D01*
X2714285Y-18161904D01*
X2638095Y-18161904D01*
X2523809Y-18123809D01*
X2447619Y-18047619D01*
X2409523Y-17971428D01*
X2371428Y-17819047D01*
X2371428Y-17704761D01*
X2409523Y-17552380D01*
X2447619Y-17476190D01*
X2523809Y-17400000D01*
X2638095Y-17361904D01*
X2714285Y-17361904D01*
X2828571Y-17400000D01*
X2866666Y-17438095D01*
X3133333Y-17361904D02*
X3628571Y-17361904D01*
X3361904Y-17666666D01*
X3476190Y-17666666D01*
X3552380Y-17704761D01*
X3590476Y-17742857D01*
X3628571Y-17819047D01*
X3628571Y-18009523D01*
X3590476Y-18085714D01*
X3552380Y-18123809D01*
X3476190Y-18161904D01*
X3247619Y-18161904D01*
X3171428Y-18123809D01*
X3133333Y-18085714D01*
X-4433333Y-33585714D02*
X-4471428Y-33623809D01*
X-4585714Y-33661904D01*
X-4661904Y-33661904D01*
X-4776190Y-33623809D01*
X-4852380Y-33547619D01*
X-4890476Y-33471428D01*
X-4928571Y-33319047D01*
X-4928571Y-33204761D01*
X-4890476Y-33052380D01*
X-4852380Y-32976190D01*
X-4776190Y-32900000D01*
X-4661904Y-32861904D01*
X-4585714Y-32861904D01*
X-4471428Y-32900000D01*
X-4433333Y-32938095D01*
X-3747619Y-33128571D02*
X-3747619Y-33661904D01*
X-3938095Y-32823809D02*
X-4128571Y-33395238D01*
X-3633333Y-33395238D01*
X1266666Y-14685714D02*
X1228571Y-14723809D01*
X1114285Y-14761904D01*
X1038095Y-14761904D01*
X923809Y-14723809D01*
X847619Y-14647619D01*
X809523Y-14571428D01*
X771428Y-14419047D01*
X771428Y-14304761D01*
X809523Y-14152380D01*
X847619Y-14076190D01*
X923809Y-14000000D01*
X1038095Y-13961904D01*
X1114285Y-13961904D01*
X1228571Y-14000000D01*
X1266666Y-14038095D01*
X1990476Y-13961904D02*
X1609523Y-13961904D01*
X1571428Y-14342857D01*
X1609523Y-14304761D01*
X1685714Y-14266666D01*
X1876190Y-14266666D01*
X1952380Y-14304761D01*
X1990476Y-14342857D01*
X2028571Y-14419047D01*
X2028571Y-14609523D01*
X1990476Y-14685714D01*
X1952380Y-14723809D01*
X1876190Y-14761904D01*
X1685714Y-14761904D01*
X1609523Y-14723809D01*
X1571428Y-14685714D01*
X-4633333Y-14685714D02*
X-4671428Y-14723809D01*
X-4785714Y-14761904D01*
X-4861904Y-14761904D01*
X-4976190Y-14723809D01*
X-5052380Y-14647619D01*
X-5090476Y-14571428D01*
X-5128571Y-14419047D01*
X-5128571Y-14304761D01*
X-5090476Y-14152380D01*
X-5052380Y-14076190D01*
X-4976190Y-14000000D01*
X-4861904Y-13961904D01*
X-4785714Y-13961904D01*
X-4671428Y-14000000D01*
X-4633333Y-14038095D01*
X-3947619Y-13961904D02*
X-4099999Y-13961904D01*
X-4176190Y-14000000D01*
X-4214285Y-14038095D01*
X-4290476Y-14152380D01*
X-4328571Y-14304761D01*
X-4328571Y-14609523D01*
X-4290476Y-14685714D01*
X-4252380Y-14723809D01*
X-4176190Y-14761904D01*
X-4023809Y-14761904D01*
X-3947619Y-14723809D01*
X-3909523Y-14685714D01*
X-3871428Y-14609523D01*
X-3871428Y-14419047D01*
X-3909523Y-14342857D01*
X-3947619Y-14304761D01*
X-4023809Y-14266666D01*
X-4176190Y-14266666D01*
X-4252380Y-14304761D01*
X-4290476Y-14342857D01*
X-4328571Y-14419047D01*
X-9590476Y10138095D02*
X-9590476Y10938095D01*
X-9400000Y10938095D01*
X-9285714Y10900000D01*
X-9209523Y10823809D01*
X-9171428Y10747619D01*
X-9133333Y10595238D01*
X-9133333Y10480952D01*
X-9171428Y10328571D01*
X-9209523Y10252380D01*
X-9285714Y10176190D01*
X-9400000Y10138095D01*
X-9590476Y10138095D01*
X-8371428Y10138095D02*
X-8828571Y10138095D01*
X-8600000Y10138095D02*
X-8600000Y10938095D01*
X-8676190Y10823809D01*
X-8752380Y10747619D01*
X-8828571Y10709523D01*
X-1590476Y-6261904D02*
X-1590476Y-5461904D01*
X-1400000Y-5461904D01*
X-1285714Y-5500000D01*
X-1209523Y-5576190D01*
X-1171428Y-5652380D01*
X-1133333Y-5804761D01*
X-1133333Y-5919047D01*
X-1171428Y-6071428D01*
X-1209523Y-6147619D01*
X-1285714Y-6223809D01*
X-1400000Y-6261904D01*
X-1590476Y-6261904D01*
X-828571Y-5538095D02*
X-790476Y-5500000D01*
X-714285Y-5461904D01*
X-523809Y-5461904D01*
X-447619Y-5500000D01*
X-409523Y-5538095D01*
X-371428Y-5614285D01*
X-371428Y-5690476D01*
X-409523Y-5804761D01*
X-866666Y-6261904D01*
X-371428Y-6261904D01*
X8733333Y10557142D02*
X8466666Y10557142D01*
X8466666Y10138095D02*
X8466666Y10938095D01*
X8847619Y10938095D01*
X9571428Y10138095D02*
X9114285Y10138095D01*
X9342857Y10138095D02*
X9342857Y10938095D01*
X9266666Y10823809D01*
X9190476Y10747619D01*
X9114285Y10709523D01*
D11*
X-333333Y11047619D02*
X-333333Y10333333D01*
X-380952Y10190476D01*
X-476190Y10095238D01*
X-619047Y10047619D01*
X-714285Y10047619D01*
X666666Y10047619D02*
X95238Y10047619D01*
X380952Y10047619D02*
X380952Y11047619D01*
X285714Y10904761D01*
X190476Y10809523D01*
X95238Y10761904D01*
D10*
X3928571Y7538095D02*
X3471428Y7538095D01*
X3700000Y7538095D02*
X3700000Y8338095D01*
X3623809Y8223809D01*
X3547619Y8147619D01*
X3471428Y8109523D01*
X-4052380Y38095D02*
X-4509523Y38095D01*
X-4280952Y38095D02*
X-4280952Y838095D01*
X-4357142Y723809D01*
X-4433333Y647619D01*
X-4509523Y609523D01*
X-3366666Y571428D02*
X-3366666Y38095D01*
X-3557142Y876190D02*
X-3747619Y304761D01*
X-3252380Y304761D01*
X-4052380Y7538095D02*
X-4509523Y7538095D01*
X-4280952Y7538095D02*
X-4280952Y8338095D01*
X-4357142Y8223809D01*
X-4433333Y8147619D01*
X-4509523Y8109523D01*
X-3785714Y8338095D02*
X-3290476Y8338095D01*
X-3557142Y8033333D01*
X-3442857Y8033333D01*
X-3366666Y7995238D01*
X-3328571Y7957142D01*
X-3290476Y7880952D01*
X-3290476Y7690476D01*
X-3328571Y7614285D01*
X-3366666Y7576190D01*
X-3442857Y7538095D01*
X-3671428Y7538095D01*
X-3747619Y7576190D01*
X-3785714Y7614285D01*
X3471428Y761904D02*
X3509523Y800000D01*
X3585714Y838095D01*
X3776190Y838095D01*
X3852380Y800000D01*
X3890476Y761904D01*
X3928571Y685714D01*
X3928571Y609523D01*
X3890476Y495238D01*
X3433333Y38095D01*
X3928571Y38095D01*
X8866666Y8638095D02*
X8485714Y8638095D01*
X8485714Y9438095D01*
X9552380Y8638095D02*
X9095238Y8638095D01*
X9323809Y8638095D02*
X9323809Y9438095D01*
X9247619Y9323809D01*
X9171428Y9247619D01*
X9095238Y9209523D01*
X-9133333Y8638095D02*
X-9400000Y9019047D01*
X-9590476Y8638095D02*
X-9590476Y9438095D01*
X-9285714Y9438095D01*
X-9209523Y9400000D01*
X-9171428Y9361904D01*
X-9133333Y9285714D01*
X-9133333Y9171428D01*
X-9171428Y9095238D01*
X-9209523Y9057142D01*
X-9285714Y9019047D01*
X-9590476Y9019047D01*
X-8371428Y8638095D02*
X-8828571Y8638095D01*
X-8600000Y8638095D02*
X-8600000Y9438095D01*
X-8676190Y9323809D01*
X-8752380Y9247619D01*
X-8828571Y9209523D01*
X-1133333Y-4861904D02*
X-1400000Y-4480952D01*
X-1590476Y-4861904D02*
X-1590476Y-4061904D01*
X-1285714Y-4061904D01*
X-1209523Y-4100000D01*
X-1171428Y-4138095D01*
X-1133333Y-4214285D01*
X-1133333Y-4328571D01*
X-1171428Y-4404761D01*
X-1209523Y-4442857D01*
X-1285714Y-4480952D01*
X-1590476Y-4480952D01*
X-828571Y-4138095D02*
X-790476Y-4100000D01*
X-714285Y-4061904D01*
X-523809Y-4061904D01*
X-447619Y-4100000D01*
X-409523Y-4138095D01*
X-371428Y-4214285D01*
X-371428Y-4290476D01*
X-409523Y-4404761D01*
X-866666Y-4861904D01*
X-371428Y-4861904D01*
X-109523Y-1561904D02*
X-109523Y-2209523D01*
X-71428Y-2285714D01*
X-33333Y-2323809D01*
X42857Y-2361904D01*
X195238Y-2361904D01*
X271428Y-2323809D01*
X309523Y-2285714D01*
X347619Y-2209523D01*
X347619Y-1561904D01*
X1147619Y-2361904D02*
X690476Y-2361904D01*
X919047Y-2361904D02*
X919047Y-1561904D01*
X842857Y-1676190D01*
X766666Y-1752380D01*
X690476Y-1790476D01*
X1890476Y-6661904D02*
X1890476Y-7309523D01*
X1928571Y-7385714D01*
X1966666Y-7423809D01*
X2042857Y-7461904D01*
X2195238Y-7461904D01*
X2271428Y-7423809D01*
X2309523Y-7385714D01*
X2347619Y-7309523D01*
X2347619Y-6661904D01*
X2690476Y-6738095D02*
X2728571Y-6700000D01*
X2804761Y-6661904D01*
X2995238Y-6661904D01*
X3071428Y-6700000D01*
X3109523Y-6738095D01*
X3147619Y-6814285D01*
X3147619Y-6890476D01*
X3109523Y-7004761D01*
X2652380Y-7461904D01*
X3147619Y-7461904D01*
X-609523Y-18261904D02*
X-609523Y-18909523D01*
X-571428Y-18985714D01*
X-533333Y-19023809D01*
X-457142Y-19061904D01*
X-304761Y-19061904D01*
X-228571Y-19023809D01*
X-190476Y-18985714D01*
X-152380Y-18909523D01*
X-152380Y-18261904D01*
X152380Y-18261904D02*
X647619Y-18261904D01*
X380952Y-18566666D01*
X495238Y-18566666D01*
X571428Y-18604761D01*
X609523Y-18642857D01*
X647619Y-18719047D01*
X647619Y-18909523D01*
X609523Y-18985714D01*
X571428Y-19023809D01*
X495238Y-19061904D01*
X266666Y-19061904D01*
X190476Y-19023809D01*
X152380Y-18985714D01*
X-4780952Y-15980952D02*
X-4780952Y-16361904D01*
X-5047619Y-15561904D02*
X-4780952Y-15980952D01*
X-4514285Y-15561904D01*
X-3828571Y-16361904D02*
X-4285714Y-16361904D01*
X-4057142Y-16361904D02*
X-4057142Y-15561904D01*
X-4133333Y-15676190D01*
X-4209523Y-15752380D01*
X-4285714Y-15790476D01*
X-9166666Y2438095D02*
X-9166666Y1866666D01*
X-9204761Y1752380D01*
X-9280952Y1676190D01*
X-9395238Y1638095D01*
X-9471428Y1638095D01*
X-8861904Y2438095D02*
X-8366666Y2438095D01*
X-8633333Y2133333D01*
X-8519047Y2133333D01*
X-8442857Y2095238D01*
X-8404761Y2057142D01*
X-8366666Y1980952D01*
X-8366666Y1790476D01*
X-8404761Y1714285D01*
X-8442857Y1676190D01*
X-8519047Y1638095D01*
X-8747619Y1638095D01*
X-8823809Y1676190D01*
X-8861904Y1714285D01*
X-1066666Y-10923809D02*
X-952380Y-10961904D01*
X-761904Y-10961904D01*
X-685714Y-10923809D01*
X-647619Y-10885714D01*
X-609523Y-10809523D01*
X-609523Y-10733333D01*
X-647619Y-10657142D01*
X-685714Y-10619047D01*
X-761904Y-10580952D01*
X-914285Y-10542857D01*
X-990476Y-10504761D01*
X-1028571Y-10466666D01*
X-1066666Y-10390476D01*
X-1066666Y-10314285D01*
X-1028571Y-10238095D01*
X-990476Y-10200000D01*
X-914285Y-10161904D01*
X-723809Y-10161904D01*
X-609523Y-10200000D01*
X-342857Y-10161904D02*
X-152380Y-10961904D01*
X0Y-10390476D01*
X152380Y-10961904D01*
X342857Y-10161904D01*
X609523Y-10238095D02*
X647619Y-10200000D01*
X723809Y-10161904D01*
X914285Y-10161904D01*
X990476Y-10200000D01*
X1028571Y-10238095D01*
X1066666Y-10314285D01*
X1066666Y-10390476D01*
X1028571Y-10504761D01*
X571428Y-10961904D01*
X1066666Y-10961904D01*
X4366666Y-18161904D02*
X4100000Y-17780952D01*
X3909523Y-18161904D02*
X3909523Y-17361904D01*
X4214285Y-17361904D01*
X4290476Y-17400000D01*
X4328571Y-17438095D01*
X4366666Y-17514285D01*
X4366666Y-17628571D01*
X4328571Y-17704761D01*
X4290476Y-17742857D01*
X4214285Y-17780952D01*
X3909523Y-17780952D01*
X4633333Y-17361904D02*
X5128571Y-17361904D01*
X4861904Y-17666666D01*
X4976190Y-17666666D01*
X5052380Y-17704761D01*
X5090476Y-17742857D01*
X5128571Y-17819047D01*
X5128571Y-18009523D01*
X5090476Y-18085714D01*
X5052380Y-18123809D01*
X4976190Y-18161904D01*
X4747619Y-18161904D01*
X4671428Y-18123809D01*
X4633333Y-18085714D01*
X8623333Y2438095D02*
X8623333Y1866666D01*
X8585238Y1752380D01*
X8509047Y1676190D01*
X8394761Y1638095D01*
X8318571Y1638095D01*
X9347142Y2171428D02*
X9347142Y1638095D01*
X9156666Y2476190D02*
X8966190Y1904761D01*
X9461428Y1904761D01*
X-1850000Y-3650000D02*
X-5150000Y-3650000D01*
X-1850000Y-3650000D02*
X-1850000Y-2150000D01*
X-5150000Y-3650000D02*
X-5150000Y-2150000D01*
X-1850000Y-2150000D02*
X-5150000Y-2150000D01*
X-1850000Y-650000D02*
X-5150000Y-650000D01*
X-1850000Y-2150000D02*
X-1850000Y-650000D01*
X-1850000Y-2150000D02*
X-5150000Y-2150000D01*
X-5150000Y-2150000D02*
X-5150000Y-650000D01*
X3750000Y-13850000D02*
X3750000Y-17150000D01*
X3750000Y-17150000D02*
X2250000Y-17150000D01*
X3750000Y-13850000D02*
X2250000Y-13850000D01*
X2250000Y-13850000D02*
X2250000Y-17150000D01*
X-3550000Y-29250000D02*
X-5050000Y-29250000D01*
X-3550000Y-32550000D02*
X-5050000Y-32550000D01*
X-3550000Y-29250000D02*
X-3550000Y-32550000D01*
X-5050000Y-29250000D02*
X-5050000Y-32550000D01*
X600000Y-13900000D02*
X-1400000Y-13900000D01*
X-1400000Y-13900000D02*
X-1400000Y-14900000D01*
X600000Y-13900000D02*
X600000Y-14900000D01*
X600000Y-14900000D02*
X-1400000Y-14900000D01*
X-3600000Y-14900000D02*
X-3600000Y-13900000D01*
X-1600000Y-14900000D02*
X-1600000Y-13900000D01*
X-3600000Y-13900000D02*
X-1600000Y-13900000D01*
X-3600000Y-14900000D02*
X-1600000Y-14900000D01*
X-8150000Y9750000D02*
X-8150000Y11250000D01*
X-4850000Y11250000D02*
X-8150000Y11250000D01*
X-4850000Y9750000D02*
X-4850000Y11250000D01*
X-4850000Y9750000D02*
X-8150000Y9750000D01*
X-5150000Y-6650000D02*
X-5150000Y-5150000D01*
X-1850000Y-6650000D02*
X-5150000Y-6650000D01*
X-1850000Y-6650000D02*
X-1850000Y-5150000D01*
X-1850000Y-5150000D02*
X-5150000Y-5150000D01*
X4850000Y9750000D02*
X4850000Y11250000D01*
X8150000Y9750000D02*
X4850000Y9750000D01*
X8150000Y11250000D02*
X4850000Y11250000D01*
X8150000Y9750000D02*
X8150000Y11250000D01*
X7700000Y6900000D02*
X7700000Y1500000D01*
X-7900000Y6900000D02*
X-7900000Y1500000D01*
X-4500000Y6900000D02*
X-7900000Y6900000D01*
X7700000Y6900000D02*
X4300000Y6900000D01*
X-7900000Y1500000D02*
X-4500000Y1500000D01*
X7700000Y1500000D02*
X4300000Y1500000D01*
X4850000Y9750000D02*
X4850000Y8250000D01*
X8150000Y9750000D02*
X8150000Y8250000D01*
X4850000Y9750000D02*
X8150000Y9750000D01*
X4850000Y8250000D02*
X8150000Y8250000D01*
X-8150000Y9750000D02*
X-4850000Y9750000D01*
X-8150000Y9750000D02*
X-8150000Y8250000D01*
X-4850000Y9750000D02*
X-4850000Y8250000D01*
X-8150000Y8250000D02*
X-4850000Y8250000D01*
X-1850000Y-5150000D02*
X-1850000Y-3650000D01*
X-1850000Y-5150000D02*
X-5150000Y-5150000D01*
X-1850000Y-3650000D02*
X-5150000Y-3650000D01*
X-5150000Y-5150000D02*
X-5150000Y-3650000D01*
X-2200000Y-29300000D02*
X2200000Y-29300000D01*
X2200000Y-32700000D02*
X-2200000Y-32700000D01*
X-2200000Y-32700000D02*
X-2200000Y-32000000D01*
X2200000Y-29300000D02*
X2200000Y-30000000D01*
X2200000Y-32000000D02*
X2200000Y-32700000D01*
X-2200000Y-30000000D02*
X-2200000Y-29300000D01*
X2200000Y-2700000D02*
X1700000Y-2700000D01*
X2800000Y-1300000D02*
X3300000Y-1300000D01*
X1700000Y-2700000D02*
X1700000Y-2600000D01*
X3300000Y-1300000D02*
X3300000Y-1400000D01*
X3300000Y-2500000D02*
X3300000Y-2700000D01*
X1700000Y-1400000D02*
X1700000Y-1300000D01*
X3300000Y-2700000D02*
X2800000Y-2700000D01*
X1700000Y-1300000D02*
X2200000Y-1300000D01*
D12*
X-500000Y-3750000D02*
G75*
G03*
X-500000Y-3750000I-100000J0D01*
G01*
D10*
X-2610000Y-20365000D02*
X-2610000Y-19890000D01*
X-2610000Y-24635000D02*
X-2610000Y-25110000D01*
X-2610000Y-19890000D02*
X-2135000Y-19890000D01*
X2610000Y-25110000D02*
X2135000Y-25110000D01*
X-2610000Y-25110000D02*
X-2135000Y-25110000D01*
X2610000Y-24635000D02*
X2610000Y-25110000D01*
X2610000Y-20365000D02*
X2610000Y-19890000D01*
D12*
X2400000Y-19600000D02*
G75*
G03*
X2400000Y-19600000I-100000J0D01*
G01*
D10*
X600000Y-17100000D02*
X-3600000Y-17100000D01*
X-3600000Y-17100000D02*
X-3600000Y-14900000D01*
X600000Y-14900000D02*
X600000Y-17100000D01*
X-3600000Y-14900000D02*
X600000Y-14900000D01*
X4500000Y-8850000D02*
X4500000Y-12350000D01*
X-1600000Y-8850000D02*
X-900000Y-8850000D01*
X1600000Y-12350000D02*
X900000Y-12350000D01*
X-4500000Y-8850000D02*
X-3400000Y-8850000D01*
X900000Y-8850000D02*
X1600000Y-8850000D01*
X-4500000Y-8850000D02*
X-4500000Y-12350000D01*
X4500000Y-12350000D02*
X3400000Y-12350000D01*
X4500000Y-8850000D02*
X3400000Y-8850000D01*
X-900000Y-12350000D02*
X-1600000Y-12350000D01*
X-4500000Y-12350000D02*
X-3400000Y-12350000D01*
X3750000Y-13850000D02*
X3750000Y-17150000D01*
X5250000Y-13850000D02*
X5250000Y-17150000D01*
X5250000Y-13850000D02*
X3750000Y-13850000D01*
X5250000Y-17150000D02*
X3750000Y-17150000D01*
M02*
